<?xml version="1.0" standalone="no"?>
<!DOCTYPE svg PUBLIC "-//W3C//DTD SVG 20010904//EN"
 "http://www.w3.org/TR/2001/REC-SVG-20010904/DTD/svg10.dtd">
<svg version="1.0" xmlns="http://www.w3.org/2000/svg"
 width="700.000000pt" height="700.000000pt" viewBox="0 0 700.000000 700.000000"
 preserveAspectRatio="xMidYMid meet">
<metadata>
Created by potrace 1.14, written by Peter Selinger 2001-2017
</metadata>
<g transform="translate(0.000000,700.000000) scale(0.100000,-0.100000)"
fill="#000000" stroke="none">
<path d="M2030 6463 c-392 -63 -688 -348 -758 -728 -4 -22 -7 -269 -7 -550 l0
-510 1815 1 c998 0 1842 3 1875 7 139 14 256 58 386 143 266 175 404 445 395
774 -8 281 -111 488 -340 683 -47 41 -166 105 -246 133 -153 54 -123 53 -1665
52 -786 -1 -1441 -3 -1455 -5z"/>
<path d="M1260 3500 l0 -896 1843 1 c1013 1 1865 5 1892 10 28 4 89 20 137 36
302 98 527 355 595 679 3 14 6 82 8 151 8 263 -74 468 -260 655 -103 104 -207
170 -337 213 -135 45 -91 44 -2025 46 l-1853 2 0 -897z"/>
<path d="M1263 2314 c-6 -17 2 -1036 9 -1059 3 -11 11 -40 17 -65 27 -105 104
-256 171 -334 184 -216 432 -328 708 -321 142 4 171 8 270 41 313 105 532 351
597 672 14 70 16 153 16 573 0 270 -2 494 -6 497 -4 4 -405 7 -892 7 -649 0
-887 -3 -890 -11z"/>
</g>
</svg>
