<?xml version="1.0" standalone="no"?>
<!DOCTYPE svg PUBLIC "-//W3C//DTD SVG 20010904//EN"
 "http://www.w3.org/TR/2001/REC-SVG-20010904/DTD/svg10.dtd">
<svg version="1.0" xmlns="http://www.w3.org/2000/svg"
 width="321.000000pt" height="321.000000pt" viewBox="0 0 321.000000 321.000000"
 preserveAspectRatio="xMidYMid meet">
<metadata>
Created by potrace 1.14, written by Peter Selinger 2001-2017
</metadata>
<g transform="translate(0.000000,321.000000) scale(0.100000,-0.100000)"
fill="#000000" stroke="none">
<path d="M2765 3003 c-259 -45 -507 -160 -661 -305 -47 -44 -54 -48 -78 -38
-31 11 -179 50 -216 56 -14 2 -41 7 -60 10 -57 10 -119 14 -225 15 -109 0
-154 -4 -286 -26 -14 -3 -70 -18 -125 -35 -54 -17 -109 -34 -121 -37 -17 -4
-39 8 -85 44 -132 104 -325 211 -420 232 -133 30 -227 2 -283 -83 -56 -86 -64
-319 -20 -564 20 -112 22 -116 56 -225 l31 -100 -33 -81 c-59 -149 -149 -550
-134 -597 5 -16 13 -20 32 -16 19 4 23 1 17 -12 -3 -9 -20 -72 -36 -141 -24
-105 -29 -150 -32 -283 -2 -129 0 -161 12 -173 8 -9 21 -13 28 -10 16 6 17 -5
4 -59 -33 -130 -32 -415 1 -537 l10 -38 1504 0 1503 0 -3 28 c-2 15 -9 67 -15
117 -5 50 -12 101 -14 115 -2 14 -7 46 -10 71 -8 53 -14 94 -21 129 -3 14 -8
38 -11 55 -3 16 -12 60 -20 98 -18 86 -18 84 5 63 11 -10 31 -16 48 -14 28 3
28 4 27 68 -1 103 -28 281 -68 450 -18 75 -43 162 -72 249 -39 120 -38 115
-21 104 21 -13 35 -12 52 6 14 16 14 23 -4 77 -50 155 -99 256 -182 379 l-27
40 28 60 c15 33 42 91 60 130 95 205 143 383 144 530 1 129 -20 180 -88 220
-45 26 -130 39 -191 28z"/>
</g>
</svg>
