<?xml version="1.0" encoding="utf-8"?>
<!-- Generator: Adobe Illustrator 28.1.0, SVG Export Plug-In . SVG Version: 6.00 Build 0)  -->
<svg version="1.1" xmlns="http://www.w3.org/2000/svg" xmlns:xlink="http://www.w3.org/1999/xlink" x="0px" y="0px"
	 viewBox="0 0 948 299.3" style="enable-background:new 0 0 948 299.3;" xml:space="preserve">
<style type="text/css">
	.st0{fill:#73D700;}
	.st1{fill:#FFFFFF;}
</style>
<g id="BG">
	<rect class="st0" width="948" height="299.3"/>
</g>
<g id="Logo">
	<rect x="81.7" y="149.4" class="st1" width="2.5" height="0.8"/>
	<g>
		<path class="st1" d="M94.7,82c-7.2,0-13,5.8-13,13v122.5h34.7v-53.2h49.1c7.1,0,13-5.9,13-13v-14.7h-62.1v-20.4
			c0-3.6,2.9-6.5,6.5-6.5h58.8c7.1,0,13-5.8,13-13V82L94.7,82L94.7,82z"/>
		<path class="st1" d="M250.7,189.6c-3.6,0-6.5-2.9-6.5-6.5V95.1c0-7.2-5.9-13.1-13.1-13.1h-21.8v122.4c0,7.2,5.9,13.1,13.1,13.1
			h71.3c7.2,0,13.1-5.9,13.1-13.1v-14.8H250.7L250.7,189.6z"/>
		<path class="st1" d="M356.7,217.3H322v-70.7c0-7.2,5.9-13,13-13h21.7L356.7,217.3L356.7,217.3z"/>
		<path class="st1" d="M343.7,121.1H322V95.1c0-7.2,5.9-13,13-13h8.7c7.2,0,13,5.9,13,13v13C356.7,115.2,350.8,121.1,343.7,121.1"/>
		<path class="st1" d="M580.4,195.4h-23.9c-6.9,0-12.5-5.6-12.5-12.5v-22.7h36.2c9.5,0,17.2,7.9,17.2,17.6S589.8,195.4,580.4,195.4
			 M543.9,104h32.5c8.6,0,15.5,7,15.5,15.7s-6.8,15.6-15.3,15.7h-21.5c-6.2,0-11.2-5-11.2-11.2L543.9,104L543.9,104z M617.5,150.7
			c-0.8-0.7-2.9-2.4-3.4-2.8c6.5-6.6,9.2-15.4,9.2-26.6c0-24.7-16-39.3-40.7-39.3h-53.4c-7.1,0-13,5.8-13,13v109.4
			c0,7.1,5.8,13,13,13h59.5c24.7,0,39.7-14.4,39.7-39.1C628.3,166.7,624.3,157.4,617.5,150.7"/>
		<path class="st1" d="M752.5,82.1H737c-7.1,0-13,5.8-13,13V175c0,11.7-8,19.5-22,19.5h-6.4c-13.9,0-22-7.8-22-19.5V82.1h-15.5
			c-7.1,0-13,5.8-13,13v84.2c0,24.2,16.6,40.3,45.3,40.3h16.6c28.7,0,45.3-16.1,45.3-40.3L752.5,82.1L752.5,82.1z"/>
		<path class="st1" d="M810.1,109.8h43.8c7.1,0,13-5.8,13-13V82h-56.8c-22.7,0.2-41,18.7-41,41.4s18,39.6,40.4,40.1l0,0l17.9,0h0
			c7.2,0.1,13,5.9,13,13.1s-5.8,13-12.9,13.1h-56.7v14.7c0,7.1,5.8,13,13,13h44c22.5-0.4,40.7-18.8,40.7-41.4s-17.8-39.4-40.1-40.1
			v0h-18.2c-7.2-0.1-13-5.9-13-13.1S802.9,109.8,810.1,109.8"/>
		<path class="st1" d="M489,193.8l-23.7-32.6l-20.4,28.1l17.4,23.9c5.2,7.2,15.5,8.9,22.7,3.6l0.4-0.3
			C492.6,211.2,494.2,201,489,193.8"/>
		<path class="st1" d="M457.1,149.9l-20.4-28.1l-25.6-35.2c-5.2-7.2-15.5-8.8-22.7-3.6l-0.4,0.3c-7.2,5.2-8.9,15.5-3.6,22.7
			l31.8,43.8l-31.8,43.9c-5.3,7.3-3.7,17.5,3.5,22.8l0.4,0.3c7.2,5.2,17.5,3.6,22.7-3.6l18.8-25.8L457.1,149.9L457.1,149.9z"/>
		<path class="st1" d="M485.4,83.3L485,83c-7.2-5.2-17.5-3.6-22.7,3.6l-17.4,23.9l20.4,28.1L489,106
			C494.2,98.8,492.6,88.6,485.4,83.3"/>
	</g>
</g>
</svg>
