<svg width="168" height="48" viewBox="0 0 168 48" fill="none" xmlns="http://www.w3.org/2000/svg"><path d="M73.712 24.408C73.712 26.184 73.416 27.736 72.824 29.064 72.248 30.376 71.352 31.4 70.136 32.136 68.936 32.872 67.408 33.24 65.552 33.24 63.696 33.24 62.16 32.872 60.944 32.136 59.744 31.4 58.848 30.368 58.256 29.04 57.68 27.712 57.392 26.16 57.392 24.384S57.68 21.064 58.256 19.752C58.848 18.44 59.744 17.424 60.944 16.704 62.16 15.968 63.704 15.6 65.576 15.6 67.432 15.6 68.96 15.968 70.16 16.704 71.36 17.424 72.248 18.448 72.824 19.776 73.416 21.088 73.712 22.632 73.712 24.408zm-12.504.0C61.208 26.2 61.552 27.616 62.24 28.656 62.928 29.68 64.032 30.192 65.552 30.192 67.104 30.192 68.216 29.68 68.888 28.656 69.56 27.616 69.896 26.2 69.896 24.408 69.896 22.616 69.56 21.208 68.888 20.184 68.216 19.144 67.112 18.624 65.576 18.624 64.04 18.624 62.928 19.144 62.24 20.184 61.552 21.208 61.208 22.616 61.208 24.408zm23.0616-4.752C85.7416 19.656 86.9336 20.232 87.8456 21.384 88.7576 22.52 89.2136 24.2 89.2136 26.424c0 2.24-.471999999999994 3.936-1.416 5.088S85.6456 33.24 84.1736 33.24C83.2296 33.24 82.4776 33.072 81.9176 32.736 81.3576 32.384 80.9016 31.992 80.5496 31.56H80.3576C80.4856 32.232 80.5496 32.872 80.5496 33.48v5.28H76.9736V19.896h2.904L80.3816 21.6H80.5496C80.9016 21.072 81.3736 20.616 81.9656 20.232S83.3256 19.656 84.2696 19.656zm-1.152 2.856C82.1896 22.512 81.5336 22.808 81.1496 23.4 80.7656 23.976 80.5656 24.848 80.5496 26.016V26.4C80.5496 27.664 80.7336 28.64 81.1016 29.328 81.4856 30 82.1736 30.336 83.1656 30.336 83.9816 30.336 84.5816 30 84.9656 29.328 85.3656 28.64 85.5656 27.656 85.5656 26.376 85.5656 23.8 84.7496 22.512 83.1176 22.512zm14.5635 7.872C98.0811 30.384 98.4651 30.352 98.8331 30.288 99.2011 30.208 99.5691 30.104 99.9371 29.976V32.64C99.5531 32.816 99.0731 32.96 98.4971 33.072 97.9371 33.184 97.3211 33.24 96.6491 33.24 95.8651 33.24 95.1611 33.112 94.5371 32.856 93.9291 32.6 93.4411 32.16 93.0731 31.536 92.7211 30.912 92.5451 30.032 92.5451 28.896V22.584H90.8411V21.072l1.968-1.2 1.032-2.76h2.28v2.784h3.672v2.688h-3.672v6.312C96.1211 29.392 96.2651 29.768 96.5531 30.024 96.8411 30.264 97.2171 30.384 97.6811 30.384zM104.367 14.76C104.895 14.76 105.351 14.888 105.735 15.144 106.119 15.384 106.311 15.84 106.311 16.512 106.311 17.168 106.119 17.624 105.735 17.88S104.895 18.264 104.367 18.264C103.823 18.264 103.359 18.136 102.975 17.88 102.607 17.624 102.423 17.168 102.423 16.512 102.423 15.84 102.607 15.384 102.975 15.144 103.359 14.888 103.823 14.76 104.367 14.76zm1.776 5.136V33H102.567V19.896H106.143zM125.264 19.656c1.488.0 2.608.384 3.36 1.152C129.392 21.56 129.776 22.776 129.776 24.456V33H126.2V25.344C126.2 23.456 125.544 22.512 124.232 22.512 123.288 22.512 122.616 22.848 122.216 23.52 121.816 24.192 121.616 25.16 121.616 26.424V33H118.04V25.344c0-1.888-.656000000000006-2.832-1.968-2.832C115.08 22.512 114.392 22.888 114.008 23.64 113.64 24.376 113.456 25.44 113.456 26.832V33H109.88V19.896h2.736L113.096 21.576H113.288C113.688 20.904 114.232 20.416 114.92 20.112 115.624 19.808 116.352 19.656 117.104 19.656 118.064 19.656 118.872 19.816 119.528 20.136 120.2 20.44 120.72 20.92 121.088 21.576H121.4C121.8 20.904 122.352 20.416 123.056 20.112 123.776 19.808 124.512 19.656 125.264 19.656zm20.098 6.768C145.362 28.6 144.786 30.28 143.634 31.464 142.498 32.648 140.946 33.24 138.978 33.24 137.762 33.24 136.674 32.976 135.714 32.448 134.77 31.92 134.026 31.152 133.482 30.144 132.938 29.12 132.666 27.88 132.666 26.424 132.666 24.248 133.234 22.576 134.37 21.408 135.506 20.24 137.066 19.656 139.05 19.656 140.282 19.656 141.37 19.92 142.314 20.448 143.258 20.976 144.002 21.744 144.546 22.752 145.09 23.76 145.362 24.984 145.362 26.424zm-9.048.0C136.314 27.72 136.522 28.704 136.938 29.376 137.37 30.032 138.066 30.36 139.026 30.36 139.97 30.36 140.65 30.032 141.066 29.376 141.498 28.704 141.714 27.72 141.714 26.424S141.498 24.16 141.066 23.52C140.65 22.864 139.962 22.536 139.002 22.536 138.058 22.536 137.37 22.864 136.938 23.52 136.522 24.16 136.314 25.128 136.314 26.424zM151.893 33H148.317V14.76H151.893V33zm9.137-13.344C162.838 19.656 164.27 20.176 165.326 21.216 166.382 22.24 166.91 23.704 166.91 25.608v1.728H158.462C158.494 28.344 158.79 29.136 159.35 29.712 159.926 30.288 160.718 30.576 161.726 30.576 162.558 30.576 163.318 30.496 164.006 30.336 164.71 30.16 165.43 29.896 166.166 29.544v2.76C165.51 32.624 164.83 32.856 164.126 33 163.422 33.16 162.566 33.24 161.558 33.24 160.246 33.24 159.086 33 158.078 32.52 157.07 32.024 156.278 31.288 155.702 30.312 155.126 29.32 154.838 28.064 154.838 26.544S155.094 23.752 155.606 22.728C156.134 21.704 156.862 20.936 157.79 20.424S159.798 19.656 161.03 19.656zM161.054 22.2C160.35 22.2 159.774 22.424 159.326 22.872S158.614 24.016 158.534 24.96H163.55C163.534 24.176 163.318 23.52 162.902 22.992 162.502 22.464 161.886 22.2 161.054 22.2z" fill="#1c1760"/><rect x=".309875" y="1.93274" width="44.9624" height="44.9624" rx="22.4812" transform="rotate(0.394889 0.309875 1.93274)" fill="#edf0ff"/><rect x=".309875" y="1.93274" width="44.9624" height="44.9624" rx="22.4812" transform="rotate(0.394889 0.309875 1.93274)" fill="url(#paint0_linear)"/><g clip-path="url(#clip0)"><path d="M43.623 18.6337C47.9078 28.7397 42.4177 40.4798 31.5089 45.1197 20.6001 49.7596 8.42522 45.5408 4.14048 35.4347-.144266 25.3287 5.49912 14.1421 16.4079 9.4996 27.3167 4.85707 39.3383 8.52501 43.623 18.6337z" fill="#edf0ff"/><path d="M43.623 18.6337C47.9078 28.7397 42.4177 40.4798 31.5089 45.1197 20.6001 49.7596 8.42522 45.5408 4.14048 35.4347-.144266 25.3287 5.49912 14.1421 16.4079 9.4996 27.3167 4.85707 39.3383 8.52501 43.623 18.6337z" fill="url(#paint1_linear)"/><path d="M36.8589 14.256C35.8677 14.8439 34.924 15.551 34.25 16.4859 33.5759 17.4208 33.1953 18.6099 33.4068 19.7433 33.4279 19.8572 33.4596 19.9764 33.5469 20.0532 33.6632 20.1538 33.835 20.1406 33.9856 20.1221 36.3091 19.8069 38.5241 18.7343 40.2132 17.1056 41.2282 16.131 42.1956 14.8863 43.5939 14.7247 44.2415 14.6479 44.8971 14.828 45.4812 15.1141 45.7826 15.2597 46.0733 15.4398 46.2927 15.6914 46.7949 16.2661 46.8372 17.1082 46.7632 17.871 46.6813 18.7078 46.4936 19.5421 46.1976 20.3286 45.9359 21.0251 45.3438 21.5601 44.8442 22.1083c-1.126 1.2394-2.3525 2.3915-3.6979 3.3899C39.251 26.9018 37.4457 28.3478 35.3443 29.4627 34.2685 30.0321 33.2799 30.4638 32.397 31.3325 31.5538 32.1614 30.8666 33.1519 30.3776 34.2297 29.9758 35.1169 29.7406 36.0121 29.2833 36.8834 28.7996 37.8023 28.255 38.6922 27.6339 39.5238 26.8726 40.546 26.1404 41.1366 24.943 41.6186 23.1218 42.3522 21.1367 42.5508 19.178 42.6726 17.7322 42.7627 16.281 42.813 14.8352 42.7256 14.4598 42.7044 13.6298 42.6223 13.54 42.1377 13.4395 41.5921 14.1849 41.3405 14.5655 41.2611 16.9286 40.7685 19.334 40.072 21.2134 38.5545 21.594 38.2473 21.9826 37.7997 21.8478 37.3309 20.8592 37.2859 19.9155 37.6964 18.9639 37.9665 17.9119 38.2658 16.8123 38.3982 15.7206 38.3585 15.3665 38.3452 14.9065 38.2075 14.9065 37.8527 14.9092 37.5587 15.2343 37.3971 15.5013 37.2753 16.4158 36.8648 17.1877 36.2027 17.9463 35.5486 18.5912 34.9925 19.2679 34.3886 19.5005 33.5676 19.5322 33.4564 19.5534 33.332 19.5005 33.2313 19.3842 33.0036 19.0485 33.0645 18.8133 33.1625 17.6159 33.6577 16.4449 34.2191 15.3083 34.8441 13.8704 35.636 12.3584 36.5576 10.7249 36.4226 10.4024 36.3961 9.99268 36.2054 10.0561 35.8876 10.0905 35.7102 10.2649 35.5989 10.4209 35.5089c4.1737-2.4312 7.7474-6.1336 8.7016-10.8741C19.9023 20.7603 18.8556 16.7428 19.2098 12.8074 19.2626 12.2115 19.3499 11.613 19.5534 11.0489 19.6935 10.6596 19.8864 10.2888 20.0953 9.93126c1.3824-2.3888 3.4177-4.39624 5.8204-5.74954 2.2177-1.24471 4.6681-1.3427 7.0179-2.30934C34.4297 1.25796 35.9496.534966 37.5673.566746 37.6783.569395 37.7946.57734 37.8818.643548 37.9585.70446 37.9981.7998 38.0299.89514 38.2783 1.62873 38.2757 2.42323 38.466 3.17536 38.4845 3.25216 38.5136 3.3369 38.5823 3.37398 38.651 3.41106 38.7383 3.38987 38.8123 3.36604 39.4466 3.16476 40.081 2.96349 40.7154 2.76222 40.9137 2.69866 41.1278 2.63774 41.3207 2.70925 41.6934 2.84696 41.7357 3.35279 41.6987 3.75005 41.3366 7.7199 40.2846 12.2247 36.8589 14.256z" fill="#577bf9"/><path d="M24.914 7.45508c-1.8239 1.16791-3.4416 2.65632-4.7632 4.37242C21.0574 12.095 21.9508 12.4154 22.8205 12.7888 22.0883 13.5198 21.2054 14.0997 20.2459 14.4811 19.1781 14.9048 18.4538 15.4372 17.8088 16.3906 19.1833 16.7613 20.6081 16.1707 21.9482 15.6888 23.2989 15.2041 24.684 14.8201 26.0929 14.542 26.9519 14.3725 27.8638 14.2242 28.5352 13.6601 28.5881 13.6151 28.6436 13.5568 28.641 13.488 28.6383 13.4297 28.5934 13.3821 28.5511 13.3423 27.9273 12.7676 27.0391 12.5293 26.4603 11.9069 26.3968 11.8381 26.3334 11.748 26.3572 11.658 26.3757 11.5865 26.4444 11.5388 26.5078 11.4991 27.1396 11.0992 27.7687 10.6993 28.4004 10.2994 27.5916 9.42809 26.7695 8.56738 25.9343 7.72256 25.6805 7.46567 25.2179 7.2591 24.914 7.45508z" fill="#ee686b"/><path d="M33.8667 17.1321C33.4676 18.0961 33.3803 19.1713 33.4808 20.2121 34.3372 20.1221 35.1804 19.9128 35.976 19.5871 36.1055 19.5341 36.243 19.4706 36.3144 19.3488 36.3619 19.2667 36.3725 19.166 36.3778 19.0707 36.4359 17.9451 35.9892 16.8011 36.2773 15.7126 36.3434 15.4636 36.5522 14.8175 36.1214 14.7459 35.8888 14.7062 35.5134 15.1273 35.3416 15.2571 34.6861 15.755 34.1812 16.3694 33.8667 17.1321z" fill="#f6e5c1"/><path d="M34.9504 29.4309C34.4773 29.6931 34.0041 29.958 33.5812 30.2943 33.0076 30.7525 32.5451 31.3351 32.1195 31.9363c-1.1895 1.6843-2.1093 3.5408-3.0239 5.3893C28.9132 37.6911 28.7335 38.0566 28.5511 38.4221 28.3264 38.8749 28.0991 39.3384 28.0409 39.8416 28.0198 40.0269 28.0356 40.2441 28.1863 40.3553 28.2868 40.4295 28.4242 40.4348 28.5484 40.4268 29.0744 40.4004 29.5846 40.2441 30.0815 40.0693c3.616-1.2765 6.7959-3.758 8.9131-6.9598C39.222 32.7652 39.4414 32.4103 39.5867 32.0237 39.7163 31.6767 39.7876 31.3139 39.8511 30.9484 40.0282 29.9368 40.1603 28.9172 40.2396 27.8923 40.2661 27.5612 40.2899 26.7906 39.8405 26.7349 39.4625 26.6873 38.5638 27.4182 38.2228 27.6062 37.1338 28.2154 36.0421 28.8245 34.9504 29.4309z" fill="#f6e5c1"/><path d="M13.7779 26.3774C13.1171 26.6899 12.4113 27.0368 12.0518 27.6751 11.6765 28.3425 11.7769 29.2111 12.1813 29.8626 12.5858 30.5141 13.2492 30.9696 13.955 31.2662 14.1638 31.3536 14.3858 31.4304 14.6105 31.404 14.851 31.3775 15.0625 31.2371 15.2555 31.0888 16.1595 30.3843 16.7938 29.3965 17.4097 28.4325 18.1578 27.2646 18.9243 26.0384 19.075 24.6586c.148-1.3691-1.3851-.1218-1.8794.1113-1.1392.5349-2.2785 1.0699-3.4177 1.6075z" fill="#336093"/><path d="M28.3634 3.5779c1.1446-.6303 2.371-1.09906 3.5922-1.56516 1.6626-.63295 3.3332-1.268555 5.083-1.583707C37.1814.40255 37.332.381363 37.4642.436978 37.6017.492593 37.6942.622362 37.7735.746834 38.2281 1.47777 38.4475 2.35437 38.3893 3.21508 38.3841 3.29983 38.3735 3.38987 38.318 3.45343 38.281 3.49845 38.2255 3.52229 38.1726 3.54612 37.6175 3.79772 37.036 4.00429 36.5047 4.30355 35.9708 4.60281 35.4765 5.01065 35.2069 5.55886 34.7073 6.57317 35.0588 7.84702 34.5857 8.87457 34.3161 9.4625 33.8059 9.89948 33.2905 10.2888 32.5186 10.8741 31.6041 11.4196 30.6446 11.2872 30.0895 11.2104 29.5899 10.9138 29.1115 10.6198 28.8498 10.4609 28.5907 10.3047 28.3291 10.1458c-1.1737-.71243-2.4398-1.54136-2.8283-2.86023C25.2074 6.2845 25.5008 5.78132 26.2118 5.10864 26.8568 4.50482 27.5916 4.00164 28.3634 3.5779z" fill="#d6edfb"/><path d="M40.1868 11.0859C40.2766 11.2634 40.4432 11.4329 40.6414 11.409 40.726 11.3984 40.8027 11.3561 40.8767 11.311 41.1621 11.1416 41.4582 10.9641 41.6274 10.6781 41.786 10.4133 41.8124 10.0928 41.8335 9.78825 41.8785 9.14471 41.8943 8.43495 41.4978 7.92647 41.4529 7.87086 41.3974 7.8126 41.326 7.80465 40.7604 7.73315 40.4247 8.6018 40.3269 9.00435 40.1603 9.67702 39.8405 10.408 40.1868 11.0859z" fill="#f6e5c1"/><path d="M44.1622 13.4085C43.6362 13.6469 43.0547 14.0892 43.1525 14.6612 43.8477 14.6268 44.5535 14.6321 45.2196 14.8386 45.883 15.0452 46.5042 15.4795 46.7949 16.1125 47.2496 17.1003 46.8108 18.2709 47.0064 19.3382 47.9368 18.8376 48.6849 18.006 49.0867 17.0288 49.2558 16.613 49.3668 16.1522 49.269 15.7152 49.1871 15.3524 48.9677 15.024 48.9228 14.6559 48.8752 14.2613 49.0312 13.8773 49.1686 13.5039 49.2294 13.3423 49.2796 13.1384 49.1633 13.0086 49.047 12.8789 48.8435 12.9054 48.6743 12.9345 47.8681 13.0775 47.091 13.0272 46.2901 12.9027 45.5764 12.7941 44.8204 13.1119 44.1622 13.4085z" fill="#f6e5c1"/><path d="M10.3283 28.0406C10.3045 28.165 10.2966 28.2948 10.2517 28.414 10.0587 28.9119 9.33446 28.9781 9.04899 29.4283 8.98555 29.5289 8.9459 29.6508 8.9644 29.7699 8.99877 30.003 9.23137 30.1539 9.45605 30.2308 9.68073 30.3076 9.92391 30.3473 10.1063 30.4982 10.3971 30.7392 10.4314 31.1868 10.6931 31.4622 10.8702 31.6503 11.1292 31.7324 11.3777 31.7933 11.9222 31.9283 12.4826 31.9998 13.043 32.0051 13.1989 32.0078 13.3734 31.9945 13.4765 31.878 13.606 31.7324 13.5452 31.4887 13.4104 31.3483 13.2756 31.208 13.0879 31.1338 12.9161 31.0385 12.4852 30.8001 12.1443 30.4029 11.9724 29.9394 11.7927 29.4468 11.8112 28.9066 11.9434 28.4034 12.0332 28.0644 12.583 27.307 12.3346 26.9865 12.1125 26.7005 11.4359 26.8886 11.1768 27.0077 10.7618 27.2011 10.4182 27.5798 10.3283 28.0406z" fill="#f6e5c1"/><path d="M7.56877 39.6112C7.59785 39.7965 7.81195 39.8786 7.99169 39.9263 8.46484 40.0481 8.94063 40.1488 9.42171 40.2362 9.65431 40.2759 9.88956 40.313 10.1222 40.2759 10.3548 40.2388 10.5847 40.1143 10.6931 39.9078 10.7539 39.7912 10.7751 39.6562 10.7803 39.5211 10.7883 39.3384 10.7671 39.1503 10.6799 38.9888 10.516 38.6895 10.1512 38.5571 9.81027 38.5492 9.47193 38.5439 9.13887 38.6366 8.80054 38.6816 8.36704 38.7398 7.46304 38.9623 7.56877 39.6112z" fill="#6b8fca"/><path d="M31.2261 7.38887C31.6992 7.19024 32.249 7.19024 32.7433 7.43124 32.9707 7.19289 33.1848 6.93865 33.383 6.67646 33.3989 6.65528 33.6368 6.31629 33.6183 6.31894 33.3962 6.33748 33.1742 6.39044 32.9654 6.46989 32.8438 6.51492 32.6984 6.39309 32.5821 6.35072 32.4261 6.29246 32.2649 6.25273 32.101 6.23154 31.7627 6.18917 31.3477 6.2289 31.0384 6.37455 30.6578 6.55464 30.3221 6.83801 30.071 7.1717 29.7009 7.66164 29.4974 8.27076 29.6031 8.87988 29.6111 8.92225 29.6296 8.97257 29.6719 8.97522 29.6983 8.97522 29.7194 8.95933 29.7379 8.94079 30.0208 8.6839 30.2164 8.33962 30.4305 8.02711 30.6393 7.7358 30.9168 7.51863 31.2261 7.38887z" fill="#1d445c"/><path opacity=".5" d="M27.5546 9.10499C27.6286 9.18444 27.7158 9.26919 27.8163 9.37247 28.1678 9.72735 28.4586 10.1378 28.8287 10.4715 29.0718 10.6887 29.3996 10.9323 29.7353 10.9668 29.8463 10.9774 30.6287 11.0012 30.6499 10.9403 31.1706 9.30097 31.6147 7.6537 32.0799 5.9932 32.2068 5.54033 33.5733 1.74791 33.2376 1.64198 33.1531 1.6155 33.0605 1.65257 32.9786 1.687 32.0535 2.0922 31.131 2.49739 30.2058 2.90259 29.5714 3.18066 29.4234 3.55673 29.1538 4.1579 28.7705 5.01596 28.4031 5.87932 28.0489 6.74797 27.8374 7.26704 27.6366 7.79141 27.4277 8.31314 27.2691 8.6945 27.3484 8.87723 27.5546 9.10499z" fill="#fff"/><path opacity=".5" d="M32.3442 10.4742C33.0499 10.1987 33.8112 9.8783 34.1786 9.21357 34.3769 8.85339 34.435 8.4376 34.4879 8.02976 34.8077 5.61183 35.1275 3.19125 35.4474.773322 35.4579.685927 34.7866.942816 34.7205 1.01432 34.546 1.1997 34.5434 1.43541 34.4747 1.6764 34.2764 2.37557 34.0359 3.06413 33.835 3.76329 33.4306 5.17486 33.0816 6.60231 32.7856 8.04035 32.6244 8.8481 32.4763 9.66113 32.3442 10.4742z" fill="#fff"/><path d="M40.163 20.0347C38.466 20.8662 36.8615 21.192 35.0033 21.2317 33.5442 21.2635 32.0032 21.1258 30.8005 20.2969 30.5124 20.0982 30.2507 19.8652 30.0234 19.603 30.6049 19.6745 31.1838 20.0214 31.7494 20.1856 32.331 20.3551 32.9336 20.4452 33.5389 20.3842 34.8051 20.2571 36.0236 19.799 37.1364 19.1978c1.1604-.625 2.2283-1.401 3.2988-2.169C40.7762 16.7852 41.0908 16.523 41.3471 16.1999 41.6353 15.8371 41.9551 15.5087 42.378 15.3074 42.9199 15.0505 43.5437 15.0346 44.1437 15.0584 44.7358 15.0823 45.3464 15.1485 45.8566 15.4504 46.6866 15.9403 47.0593 17.0606 46.7104 17.9451 46.4777 17.4552 45.9306 17.1533 45.3887 17.1586 44.5429 17.1665 43.6442 17.9504 42.9675 18.3901 42.0608 18.9806 41.1383 19.5474 40.1683 20.0241 40.1709 20.032 40.1656 20.032 40.163 20.0347z" fill="#6c99ce"/><path d="M36.3673 4.60017C35.2386 5.28079 34.8923 6.47519 34.932 7.71461 34.9743 8.99376 35.9073 9.85712 37.1444 10.1855c3.727.9878 4.5358-3.70236 4.6653-6.39042C41.8203 3.55143 41.815 3.276 41.6406 3.10386 41.519 2.98469 41.3445 2.94496 41.1754 2.92378c-1.0679-.13242-2.2336.18008-3.1191.7839C37.5224 4.07051 36.9065 4.27443 36.3673 4.60017z" fill="#6c99ce"/><path d="M19.0512 13.0696C18.9666 13.6734 18.9349 14.3143 19.1965 14.8651 20.3622 14.2534 21.4883 13.5648 22.5641 12.8047 21.898 12.6193 21.2319 12.434 20.5658 12.2459 20.4653 12.2194 20.3569 12.185 20.3041 12.095 20.2486 12.0049 20.2697 11.8858 20.3014 11.7851 20.4547 11.2952 20.8063 10.8953 21.1658 10.5272c1.0414-1.06732 2.2203-2.00219 3.497-2.7702C24.9192 7.60339 25.1941 7.43655 25.3078 7.16377 25.4849 6.74268 25.2206 6.21566 25.4479 5.82106 25.5985 5.55888 25.9078 5.4503 26.1748 5.30464 26.6981 5.02127 26.825 4.4042 26.1668 4.18439 25.6488 4.01225 25.247 4.45452 24.8399 4.71406c-1.0044.6409-1.9401 1.28179-2.7622 2.15574-1.6018 1.69759-2.7014 3.8825-3.0265 6.1998z" fill="#336093"/><path d="M20.5446 16.3402C19.334 16.4197 18.9957 16.5627 19.0856 17.773 19.1886 19.1845 19.3234 20.6067 19.334 22.0236 19.3472 23.7556 19.1278 25.5326 18.3269 27.0686 17.7296 28.2127 16.8493 29.1873 16.0749 30.2096 15.3268 31.1974 14.6131 32.1481 13.7303 33.0327 14.2933 32.4686 15.5462 32.2382 16.2573 31.833 17.1322 31.3351 17.9542 30.7445 18.7076 30.0745c2.815-2.5 5.0486-5.7601 5.6909-9.5287C24.7051 18.7476 24.6681 16.9096 24.6311 15.0876c-1.2846.4316-2.7305 1.1652-4.0865 1.2526z" fill="#336093"/><path d="M10.8068 38.4062C10.7698 38.3823 10.7302 38.3558 10.6932 38.3399 10.4235 38.1996 10.1592 38.2181 9.84732 38.2208 9.46933 38.2261 9.09927 38.2446 8.72921 38.3108 7.99967 38.4379 7.28599 38.6895 6.62517 38.9914 6.23925 39.1689 4.97312 39.6085 5.66302 40.1699 5.91942 40.3818 6.24982 40.4745 6.57495 40.5434 7.42344 40.7314 8.29836 40.795 9.16535 40.7367 9.63057 40.7049 10.0033 40.6334 10.4341 40.4321 10.5954 40.3553 10.7592 40.2785 10.8914 40.1593 11.4042 39.7038 11.3751 38.8008 10.8068 38.4062zM10.3284 39.4549C10.0244 39.9184 9.07284 39.7806 8.62613 39.7383 8.47546 39.7224 8.31686 39.6985 8.21377 39.5873 8.19263 39.5635 8.17413 39.5317 8.17413 39.5026 8.17413 39.4443 8.22963 39.4072 8.2825 39.3834 8.60498 39.2218 8.95918 39.1159 9.31866 39.0762 9.55656 39.0523 9.97684 38.9755 10.1883 39.1159 10.3733 39.2404 10.3945 39.3543 10.3284 39.4549z" fill="#1d445c"/><path d="M37.4959 9.22151C37.6941 9.07321 37.9162 8.88253 37.8977 8.63623 37.8739 8.33962 37.4959 8.17807 37.2369 8.25487 36.9831 8.32903 36.7188 8.62564 36.547 8.81367 35.6826 9.76177 34.8209 10.7125 33.9566 11.6606 33.8931 11.7295 33.5865 11.9996 33.8508 11.989 34.0332 11.9811 34.279 11.756 34.4218 11.6527 34.7971 11.3773 35.1328 11.0515 35.4949 10.7628c.6556-.5243 1.3243-1.0381 2.001-1.54129z" fill="#1d445c"/><path d="M35.6747 12.5769C35.6007 12.7014 35.2782 13.1887 35.6483 12.9239 35.9311 12.7173 36.1241 12.4286 36.3461 12.1638 36.5813 11.8831 36.8219 11.605 37.0704 11.3349 37.303 11.0806 37.5673 10.8608 37.7973 10.6013 37.9981 10.3735 38.4607 9.85975 38.1303 9.54725 38.0246 9.44661 37.7972 9.53401 37.6915 9.60551 37.5038 9.73263 37.4298 9.9392 37.3003 10.1166 37.1576 10.3126 37.0439 10.5245 36.9012 10.7178 36.4677 11.319 36.058 11.9387 35.6747 12.5769z" fill="#1d445c"/><path d="M49.4594 14.6691C49.433 14.6188 49.4039 14.5764 49.3748 14.542 49.4911 14.256 49.5836 13.9488 49.6471 13.6125 49.6709 13.4906 49.729 13.2046 49.5942 12.9292 49.4753 12.6935 49.2347 12.5213 48.9545 12.4657 48.7563 12.4286 48.5686 12.4498 48.3968 12.4816 48.2171 12.5134 48.0452 12.5584 47.8761 12.614 47.2602 12.2486 46.6152 12.3201 46.0416 12.3836L45.9201 12.3995C45.2513 12.4763 44.5905 12.7067 44.009 13.0722 43.2609 13.5357 42.5948 14.2163 42.0239 15.0955 41.4371 15.4848 40.9058 15.9774 40.4062 16.4356 40.1181 16.7031 39.8458 16.9546 39.5736 17.1824 38.9392 17.7015 38.3656 18.1676 37.7286 18.5569 37.4589 18.7264 37.1761 18.88 36.8854 19.0151 36.4915 17.7465 36.5153 16.3906 36.9647 15.3074 37.1893 14.7777 37.5277 14.3752 37.8898 13.9461 38.0563 13.7502 38.2255 13.5436 38.3973 13.3158 38.511 13.1622 38.6246 13.006 38.7409 12.8471 39.0423 12.4286 39.3198 11.997 39.5868 11.5573 39.6952 11.3773 39.8881 11.1972 40.0494 11.462 40.126 11.5838 40.1472 11.7401 40.2502 11.8407 40.4247 11.9996 40.6996 11.9069 40.9084 11.7957 41.371 11.5441 41.8203 11.1945 42.0027 10.694 42.1375 10.3206 42.1032 9.90478 42.0662 9.50753 42.008 8.87723 41.9499 8.24957 41.8944 7.62457 41.8547 7.20613 41.7833 6.78769 41.8283 6.36925 41.8706 5.92963 42.0344 5.49266 42.1217 5.05833 42.1428 4.95769 42.1745 4.83322 42.2063 4.69816 42.2988 4.32474 42.3913 3.94868 42.4785 3.57791 42.5684 3.19125 42.7217 2.81784 42.8221 2.44972 42.9543 1.97302 43.0918 1.34801 42.801.90574 42.5287.4926 41.9287.346942 41.5322.654149 41.5005.675335 41.4767.69917 41.4503.725654 41.3472.834235 41.2653.971949 41.1278 1.03021 41.0168 1.08053 40.8926 1.06994 40.7683 1.06464 40.4643 1.05934 40.1498 1.11496 39.9066 1.29769 39.407 1.67905 39.5445 2.12927 39.8749 2.51063 39.793 2.56889 39.7163 2.62186 39.6502 2.65099 39.4705 2.74368 39.2881 2.81784 39.1031 2.87875 38.9656 2.42059 38.8255 1.96507 38.6828 1.50426 38.5427 1.05405 38.392.259547 37.9136.0582733 37.7946.00795491 37.6598.00530658 37.5303.00795492 35.8333.0238449 34.2315.685929 32.6984 1.35596 32.3495 1.50691 32.0059 1.64992 31.6702 1.79293c-.5868.2463-1.171.49259-1.7472.76272C29.6851 2.66688 29.471 2.81519 29.2199 2.8814 28.9635 2.95025 28.6965 2.97144 28.4375 3.035 28.1784 3.10121 27.922 3.19125 27.6603 3.25481 27.2189 3.3581 26.7801 3.49052 26.3546 3.64677 25.5114 3.95662 24.7025 4.36182 23.9545 4.85176c-1.4935.97194-2.7675 2.27492-3.7112 3.78977C19.6592 9.57904 19.2045 10.5986 18.8952 11.6606 18.7446 12.1824 18.5939 12.7067 18.5014 13.2417 18.4062 13.7899 18.4115 14.3169 18.4459 14.8704 18.4459 14.8889 18.4485 14.9048 18.4432 14.9234 18.438 14.9446 18.4247 14.9631 18.4115 14.9816 18.2529 15.1988 18.0177 15.3312 17.8221 15.5166 17.2881 16.0171 16.7066 16.4568 16.2573 17.042 16.2599 17.0367 16.6379 17.0553 16.6749 17.0579 16.8229 17.0606 16.9709 17.0632 17.119 17.0659c.148.0.295999999999999.0.443999999999999.0C17.7111 17.0632 17.8591 17.0606 18.0071 17.0579 18.171 17.0526 18.3322 17.0315 18.4935 17.0182 18.5252 17.0156 18.5622 17.0156 18.586 17.0394 18.6045 17.0579 18.6071 17.0844 18.6124 17.1083 18.6679 17.532 18.8001 17.9531 18.8001 18.39 18.8054 18.4563 18.816 18.5225 18.8186 18.5887 18.8556 18.9038 18.882 19.2243 18.8979 19.5421 18.9058 19.6242 18.9138 19.7089 18.9164 19.791 18.9323 20.0638 18.9402 20.3366 18.9428 20.6146 18.9508 20.9801 18.9481 21.3429 18.9296 21.7084 18.9085 22.2566 18.8582 22.8075 18.7789 23.353 17.5789 24.1052 16.1965 24.8281 14.4308 25.6385 14.1585 25.7604 13.8704 25.8954 13.5796 26.049 13.5188 26.0676 13.4422 26.0835 13.3708 26.0941 13.1752 26.1338 12.9796 26.1656 12.7893 26.192 11.9038 26.3324 10.9919 26.4807 10.1804 27.1746 9.69666 27.5851 9.39533 28.1094 9.33454 28.6497 9.33189 28.6815 9.33454 28.7106 9.33454 28.7424 9.13893 28.8827 8.94862 29.0469 8.76095 29.2403 8.68429 29.3197 8.50455 29.5051 8.47283 29.7805 8.4464 30.0242 8.53891 30.2758 8.72923 30.4559 8.85875 30.5777 9.00413 30.6492 9.14158 30.7101 9.2711 30.7657 9.39797 30.8081 9.53014 30.8452 9.80239 31.3695 10.2808 31.6105 10.7038 31.8171L10.7936 31.8621C11.621 32.2726 12.4747 32.2832 13.3021 32.2912 13.4025 32.2912 13.4977 32.2938 13.5955 32.2938 13.5743 32.315 13.5532 32.3362 13.5294 32.3574 12.5673 33.2128 11.5152 33.9808 10.4051 34.6376 9.33982 35.2732 8.21115 35.734 7.07189 36.2239 6.97938 36.2637 6.87894 36.314 6.84457 36.4093 6.79435 36.547 6.91594 36.6847 7.03489 36.7642 7.25428 36.9151 7.53447 37.0343 7.79086 37.1005 8.01819 37.1588 8.25344 37.1641 8.4834 37.1906 8.90368 37.2356 9.33454 37.2303 9.75746 37.2065 11.3381 37.1138 12.94 36.5947 14.3647 35.9114 14.7136 35.7446 15.0572 35.5671 15.4008 35.3924 15.7868 35.1937 16.1859 34.9872 16.5824 34.8044 16.6643 34.7647 16.7674 34.7117 16.8837 34.6535 17.1877 34.5025 17.4837 34.3436 17.7851 34.1847 17.9146 34.1185 18.0362 34.0417 18.1631 33.9728 18.2926 33.9013 18.4723 33.7636 18.6203 33.753 18.8212 33.7371 18.6045 34.2112 18.5569 34.3012 18.4538 34.5025 18.3005 34.672 18.1393 34.8309 18.0864 34.8865 18.0309 34.9395 17.978 34.9898 17.6767 35.2732 17.3436 35.5195 17 35.7499 16.696 35.9512 16.3841 36.1392 16.0669 36.314 15.7815 36.4729 15.5251 36.645 15.2555 36.8145 14.896 37.0396 12.7523 37.8421 13.2175 38.4565 13.3735 38.6631 13.7409 38.7478 13.9735 38.8008 15.0519 39.0524 16.1859 38.8617 17.2485 38.626 18.3666 38.377 19.4556 38.0142 20.5552 37.7043 20.6662 37.6726 20.8196 37.662 20.8645 37.7653 21.15 38.4168 18.9719 39.2881 18.5913 39.4628c-1.4062.6462-2.8759 1.0938-4.3931 1.4063C13.6034 40.9909 13.006 41.1154 12.406 41.2028 11.8826 41.2796 11.2853 41.2372 10.8121 41.5074 10.1725 41.8728 10.9205 42.4555 11.3143 42.6673 11.7663 42.911 12.2791 43.0222 12.7787 43.1334 14.5709 43.528 16.4608 43.4433 18.2794 43.3188 21.8716 43.0672 25.4188 42.3019 28.8498 41.216 29.2093 41.1022 29.5661 40.9856 29.9256 40.8665 30.3063 40.7367 30.7001 40.6096 31.0834 40.4586 32.3151 39.9819 33.4438 39.3887 34.472 38.6842 34.8633 38.4168 35.2412 38.1307 35.6034 37.8315 35.8386 37.6381 36.0659 37.4369 36.2853 37.2277 36.5549 36.9761 36.8113 36.7112 37.0625 36.4384c1.3375-1.4645 2.3763-3.2018 3.0847-5.1748C40.6652 29.815 40.7868 28.467 40.5674 26.629 41.7225 25.7604 42.8248 24.8176 43.8636 23.7926c1.0097-1.001 2.1437-2.1292 2.86-3.5964L46.7474 20.2042C46.7871 20.1009 46.906 19.987 47.0197 19.8784 47.1968 19.7089 47.3791 19.5474 47.5562 19.3885 48.3624 18.6602 49.1951 17.9081 49.5625 16.6819 49.7819 15.9589 49.7422 15.2465 49.4594 14.6691zM44.4927 13.8508C44.9606 13.5595 45.4892 13.3741 46.0231 13.3132L46.1447 13.2973C46.2082 13.292 46.2743 13.2841 46.3351 13.2761 46.261 13.3344 46.195 13.3979 46.1262 13.4668 45.9914 13.6019 45.8434 13.7396 45.6822 13.8799 45.6319 13.917 45.5817 13.9567 45.5315 13.9938 45.3544 14.1289 45.172 14.2613 44.9949 14.3937 44.6698 14.3275 44.3341 14.301 43.9931 14.3354 43.935 14.3381 43.8821 14.3487 43.8266 14.3566 44.0407 14.1633 44.2627 13.9938 44.4927 13.8508zm-3.4574-2.9555C40.9851 11.0356 40.6811 11.3481 40.5199 11.1839 40.4828 11.1442 40.4643 11.0886 40.4485 11.0356 40.3745 10.7893 40.2476 10.5298 40.2978 10.2808 40.3295 10.1325 40.5304 9.4731 40.7022 9.48899 40.9904 9.51283 41.1093 10.6807 41.0353 10.8953zM41.5692 9.34598C41.5745 9.4731 41.5772 9.58169 41.5005 9.69027 41.3181 9.94716 41.2203 9.37776 41.1965 9.27448 41.1305 8.99905 41.1252 8.70773 41.2468 8.4482 41.3128 8.29989 41.4397 8.3714 41.4767 8.50381 41.5481 8.77394 41.5613 9.06526 41.5692 9.34598zM28.2947 4.50218c1.1974-.80509 2.4292-1.32152 3.7376-1.86973C32.3733 2.48944 32.7222 2.34379 33.0711 2.19018c1.2899-.56144 2.5508-1.03285 3.9358-1.33211C37.1233.834235 37.2422.807752 37.3585.839532 37.5382.892499 37.6123 1.15204 37.6863 1.30829c.1004.21716.1295.46081.195599999999999.69121C38.0035 2.3941 38.1726 2.76752 38.2414 3.17536 38.244 3.1939 38.2466 3.21244 38.2361 3.22833 38.2308 3.23627 38.2176 3.24422 38.2043 3.24952 37.9268 3.36869 37.6466 3.49316 37.3691 3.61234 37.2554 3.66266 37.118 3.7527 36.9911 3.76329 36.888 3.76859 36.7743 3.74211 36.666 3.74476 35.9153 3.76329 35.5267 4.25324 35.1223 4.80144 34.6624 5.41585 34.5884 6.17063 34.5355 6.91216 34.4773 7.71196 34.4747 8.34491 33.8985 8.98846 33.4465 9.49694 32.8412 9.84387 32.2385 10.1564 31.694 10.4424 31.1177 10.7125 30.5019 10.7178 29.4789 10.7364 28.8049 9.90478 28.1044 9.29037 27.5731 8.82426 27.1396 8.23103 26.6718 7.69607 26.3625 7.34384 25.8233 6.8592 25.8127 6.35336 25.8074 6.12296 25.9871 5.97465 26.151 5.83959 26.5369 5.52973 26.9678 5.27814 27.3987 5.03449 27.6973 4.8703 28.0092 4.69551 28.2947 4.50218zM20.0953 10.8926C20.4495 10.0054 20.9702 9.13147 21.5438 8.3608 22.1465 7.54776 22.8602 6.81418 23.6584 6.18917 24.0602 5.87667 24.4805 5.59064 24.9193 5.33376 25.2391 5.14837 25.5351 4.95504 25.8682 4.79879 26.0347 4.72199 26.2039 4.64254 26.3836 4.62665 25.8999 4.96564 25.4083 5.29668 24.9378 5.64891 24.8188 5.73895 24.6946 5.83429 24.6311 5.96406 24.5677 6.10707 24.5783 6.27656 24.6311 6.42752 24.7501 6.75856 25.0541 6.97308 24.6682 7.25115 24.0126 7.71726 23.3597 8.18072 22.7042 8.64682 22.1835 9.01759 21.7077 9.45986 21.2425 9.90213 21.0337 10.0955 20.8222 10.2861 20.6398 10.5033 20.4257 10.7575 20.2539 11.078 19.9816 11.274 20.0028 11.123 20.0424 11.0277 20.0953 10.8926zM19.3922 14.068C19.3975 13.9912 19.4054 13.9117 19.4133 13.8349 19.4292 13.684 19.4477 13.533 19.4688 13.3847 19.4953 13.1993 19.5164 13.0139 19.5455 12.8312 19.5508 12.7941 19.6116 12.3439 19.6565 12.3545 19.8125 12.3969 19.9711 12.4419 20.1297 12.4737 20.3993 12.5293 20.6636 12.6008 20.9306 12.6643 21.1896 12.7279 21.4513 12.7729 21.7103 12.8338 21.7923 12.8524 21.8742 12.8736 21.9562 12.8921 21.9614 12.8921 21.8478 12.9663 21.8399 12.9716 21.7791 13.0033 21.7183 13.0325 21.6575 13.0616 21.5359 13.1225 21.4116 13.1808 21.2901 13.2417 21.0495 13.3582 20.809 13.4774 20.5737 13.6098 20.1693 13.8296 19.7781 14.0574 19.379 14.2904 19.3948 14.2772 19.3895 14.0944 19.3922 14.068zM18.8345 16.0198C18.771 16.0251 18.7076 16.033 18.6441 16.0383 18.6098 16.041 18.5781 16.0463 18.5437 16.0489 18.5411 16.0489 18.4803 16.0516 18.4803 16.0463 18.5384 15.9615 18.6309 15.9086 18.7129 15.845 18.7842 15.7894 18.845 15.7205 18.9111 15.6623 19.6539 14.9922 20.5975 14.6135 21.4645 14.1448 22.2337 13.7263 22.9791 13.2602 23.6901 12.7464 23.7245 12.72 23.7615 12.6961 23.7959 12.6696 23.6981 12.622 23.5765 12.6061 23.4708 12.569 23.3386 12.5213 23.2038 12.479 23.069 12.4392 22.7888 12.3571 22.5086 12.2856 22.2258 12.2168 21.9509 12.1506 21.676 12.0844 21.4037 12.0076 21.3323 11.989 20.6028 11.7374 20.5975 11.7454 20.7112 11.56 20.8592 11.4064 21.0099 11.2528 21.2398 11.0224 21.4777 10.8026 21.7103 10.5748 21.9879 10.302 22.2971 10.0663 22.5905 9.80944 23.4813 9.02818 24.4435 8.38993 25.4294 7.74374 25.7017 8.11716 26.0136 8.46144 26.3255 8.80308 26.685 9.19768 27.0418 9.59228 27.4013 9.98423 27.4912 10.0849 27.5943 10.1935 27.7026 10.2994 27.6313 10.3418 27.5599 10.3841 27.4912 10.4212 26.685 10.9588 25.855 11.4647 25.0065 11.9308 25.0197 11.9228 25.1069 11.9705 25.1228 11.9784 25.1624 11.9943 25.1995 12.0102 25.2391 12.0261 25.7175 12.23 26.1827 12.4657 26.6427 12.7094 26.8726 12.8312 27.1 12.9557 27.3299 13.0775 27.4462 13.1384 27.5599 13.1993 27.6762 13.2602 27.7819 13.3158 27.8956 13.3609 27.9907 13.4403 27.9775 13.4509 27.959 13.4588 27.9458 13.4668 27.9273 13.48 27.9088 13.4933 27.8903 13.5039 27.8559 13.5251 27.8189 13.5462 27.7793 13.5648 27.7132 13.5966 27.6445 13.623 27.5758 13.6469 27.4119 13.7078 27.248 13.7687 27.0841 13.8296 26.9308 13.8852 26.7854 13.9541 26.6295 14.0071 26.5554 14.0309 26.492 14.0521 26.4444 14.0706 25.5986 14.3831 24.7025 14.6744 23.6981 14.9657 23.6056 14.9922 23.5157 15.0187 23.4232 15.0452 21.935 15.4875 20.3887 15.8688 18.8345 16.0198zM10.783 27.8684C11.1372 27.5612 11.5337 27.3997 11.9619 27.2858 11.9038 27.36 11.8456 27.4262 11.7928 27.5056 11.7188 27.6195 11.6633 27.7493 11.6157 27.887 11.5813 27.8896 11.5496 27.8949 11.5152 27.9002 11.2694 27.9214 11.0157 27.9426 10.7645 27.9982 10.709 28.0114 10.6615 28.022 10.6086 28.0379 10.6588 27.977 10.717 27.9241 10.783 27.8684zM9.50899 29.8573C9.50106 29.852 9.4852 29.8441 9.4667 29.8362 9.86055 29.4415 10.2597 29.2058 10.746 29.084L11.4729 28.9039C11.4888 29.2985 11.5655 29.6931 11.6897 30.0242 11.6474 30.0295 11.6077 30.0374 11.5628 30.0427 10.828 30.093 10.1328 30.1195 9.50899 29.8573zm1.70751 1.1785C11.3566 31.0041 11.5099 30.9776 11.6685 30.9564 11.7188 30.9537 11.7663 30.9511 11.8166 30.9485 11.9672 30.9352 12.1179 30.9273 12.2686 30.9167 12.4377 31.0835 12.636 31.2318 12.8554 31.3589 12.2739 31.3404 11.7214 31.2874 11.2165 31.0358zM13.5902 30.6969C13.1329 30.5035 12.7866 30.2122 12.6201 29.8706 12.369 29.37 12.2897 28.4272 12.562 28.0088 12.8818 27.5242 13.4052 27.1746 13.9708 26.8753 14.0316 26.8515 14.0898 26.8197 14.1506 26.7826 14.3779 26.6687 14.6026 26.5655 14.8273 26.4595c1.459-.6647 2.6591-1.2791 3.7243-1.9015C18.4089 25.1459 18.2212 25.7339 17.9807 26.3112 17.2881 27.9664 16.2308 29.5713 14.888 31.0253 14.4308 30.9485 13.992 30.8664 13.5902 30.6969zM39.2854 30.9511C39.1665 31.2927 39.0317 31.6291 38.8837 31.9601 38.8282 32.0899 38.77 32.2144 38.7119 32.3388 38.0114 33.806 37.0545 35.1434 35.9073 36.2875 35.7461 36.449 35.5796 36.6106 35.4078 36.7642 35.1117 37.0343 34.8051 37.2912 34.4853 37.5349 34.4483 37.5666 34.4113 37.5931 34.3742 37.6196 34.1205 37.8103 33.8615 37.9877 33.6024 38.1546 32.5055 38.8484 31.3398 39.3172 30.0499 39.6456 29.7802 39.7171 28.8895 40.0243 28.7124 39.6641 28.6727 39.5794 28.678 39.4734 28.6965 39.3781 28.8234 38.7319 29.2992 38.1254 29.582 37.5375 30.5124 35.6016 30.9961 33.5173 32.5345 31.9283 33.4993 30.9299 34.702 30.1645 35.9153 29.5448 37.2316 28.8722 38.5004 28.1068 39.711 27.2567 39.8326 28.6815 39.7031 29.7832 39.2854 30.9511zM46.4329 17.9769C46.3773 18.5225 46.2372 19.0574 46.0152 19.5606 45.3808 20.9987 44.2337 22.1348 43.2186 23.1359c-2.289 2.2616-4.8847 4.1393-7.721 5.5879C34.2791 29.3436 33.0447 30.0215 32.0482 30.9776c-1.4221 1.3586-2.0961 2.8946-2.7755 4.6955C28.7705 36.9946 28.0066 38.2181 27.0524 39.2616c-1.5278 1.6684-3.7085 2.5318-5.8866 2.9423C20.0424 42.4157 18.8952 42.5164 17.7534 42.5482 16.7938 42.572 15.385 42.7627 14.5074 42.3098 14.4704 42.2913 14.4281 42.2701 14.3938 42.2462 14.3911 42.2436 14.3885 42.2436 14.3858 42.2409 14.3303 42.2012 14.2775 42.1483 14.2669 42.0847 14.2325 41.9311 14.4043 41.8199 14.5497 41.7642 15.9956 41.2081 17.534 40.9353 18.9481 40.2918 19.9473 39.8416 20.8645 39.2113 21.631 38.4247 21.935 38.1122 23.4179 36.4411 22.4557 36.1418 22.3764 36.118 22.2892 36.1418 22.2099 36.1657 21.261 36.4676 20.3385 36.8198 19.3763 37.082 18.7789 37.2488 18.1816 37.4104 17.5842 37.5772 17.0793 37.7149 16.5401 37.8288 16.0194 37.85 15.9612 37.8527 15.9004 37.8553 15.8449 37.8368 15.3744 37.6779 16.3075 37.225 16.4053 37.172 16.8229 36.9337 17.2485 36.7033 17.6423 36.4252 18.3719 35.9167 18.9904 35.2917 19.5217 34.582 19.8812 34.0973 20.2407 33.5703 20.3543 32.9612 20.3966 32.7414 20.505 31.9945 20.2565 31.8436 20.2116 31.8198 20.1561 31.8224 20.1032 31.8277 19.7992 31.878 19.5429 32.074 19.2891 32.2461 18.4036 32.8526 17.4229 33.3478 16.4714 33.8325 16.3683 33.8855 16.2731 33.9331 16.1991 33.9675 15.7868 34.1609 15.3823 34.3701 14.9859 34.5714 13.8228 35.1699 12.6069 35.6651 11.2853 35.7658 11.2007 35.7711 11.1135 35.779 11.0368 35.7419 10.9575 35.7075 10.8967 35.6254 10.9179 35.5433 10.9337 35.4903 10.976 35.4506 11.0209 35.4162 11.391 35.1222 11.7954 34.8759 12.184 34.6058 12.8712 34.1264 13.5188 33.5994 14.14 33.0433c2.104-1.8697 3.7217-4.0732 4.6839-6.3746C19.5296 24.9818 19.8098 23.2259 19.86 21.5389 19.868 21.2502 19.8733 20.9616 19.8653 20.6809 19.8627 20.3286 19.8468 19.979 19.8283 19.6348 19.8045 19.2349 19.7702 18.8429 19.7305 18.4589 19.675 17.9451 19.6116 17.4499 19.5402 16.9732 20.3966 16.7746 21.2504 16.5097 22.1015 16.2767 23.0108 16.0304 23.9148 15.7761 24.8162 15.5007 25.0884 15.416 25.3607 15.3312 25.6303 15.2412 25.9131 15.1485 26.1933 15.0505 26.4709 14.9499 26.7511 14.8492 27.0286 14.7433 27.3035 14.6321 27.5784 14.5208 27.8507 14.4043 28.1229 14.2798 28.3925 14.1554 28.6595 14.0256 28.9212 13.8879 29.0533 13.819 29.1829 13.7475 29.3097 13.676 29.3732 13.6389 29.4393 13.6019 29.5027 13.5648 29.5344 13.5462 29.5661 13.5277 29.5979 13.5092 29.6031 13.5065 29.6798 13.4615 29.6772 13.4588 29.6269 13.4191 29.5741 13.39 29.5212 13.3529 29.4816 13.3264 29.4445 13.2947 29.4049 13.2708 29.2067 13.1463 29.0058 13.0219 28.8075 12.8974 28.3661 12.622 27.9273 12.3545 27.4568 12.1347 27.2136 12.0208 26.9704 11.9069 26.7511 11.7533 26.7484 11.7507 26.9308 11.6368 26.9467 11.6288 26.9889 11.605 27.0339 11.5812 27.0788 11.5573 27.1423 11.5256 27.1978 11.4805 27.2586 11.4408 27.4251 11.3375 27.5995 11.2475 27.7687 11.1469 27.9643 11.0277 28.1652 10.9164 28.3687 10.8105 28.6939 11.1336 29.1379 11.3375 29.5556 11.5097 30.0128 11.6977 30.6023 11.6686 31.0807 11.5918 31.8156 11.4726 32.5081 11.1627 33.1425 10.7681c1.4485-.90039 2.1807-2.10539 2.3023-3.78973C35.4897 6.35337 35.5346 5.76544 35.8492 5.347 36.2193 4.85706 36.9462 4.58957 37.6493 4.33004 38.1964 4.13141 38.7542 3.88777 39.3013 3.64942 39.5894 3.52759 39.8749 3.40047 40.163 3.28394 40.282 3.23363 40.4485 3.13034 40.5807 3.12769 40.8 3.1224 41.1569 3.30248 41.3366 3.41901 41.5666 3.56732 41.4767 3.89571 41.4159 4.11552 41.0961 5.25431 40.882 6.40368 40.4855 7.52393c-.6053 1.70023-1.4432 3.31037-2.49 4.78027C37.2158 13.4006 36.0342 14.1368 35.0245 14.9896 33.6685 16.1363 32.9072 17.8948 32.8993 19.8731 32.8993 19.8917 32.8702 19.8996 32.8544 19.9022 32.7909 19.9155 32.7248 19.9075 32.6614 19.9022 32.5557 19.8943 32.4499 19.8811 32.3469 19.8652 32.2121 19.8466 32.0772 19.8228 31.9424 19.8016 31.7891 19.7751 31.6358 19.746 31.4825 19.7169 31.3213 19.6851 31.1627 19.6533 31.0014 19.6215 30.8455 19.5897 30.6895 19.558 30.5309 19.5262 30.3882 19.4971 30.2481 19.4679 30.1054 19.4361 29.9891 19.4123 29.8754 19.3858 29.7591 19.362 29.6957 19.3487 29.6349 19.3302 29.5741 19.3223 29.5714 19.3223 29.5661 19.3223 29.5609 19.3302 29.5582 19.3434 29.5661 19.3593 29.5714 19.3726 29.5873 19.3991 29.5979 19.4255 29.619 19.4467 29.7142 19.55 29.8067 19.656 29.9177 19.746 30.6261 20.3127 31.4719 20.657 32.3733 20.755 32.6323 20.7841 32.894 20.7974 33.1557 20.7921 36.2483 20.7471 38.8229 19.1448 41.0247 17.1056 41.9525 16.2475 42.9147 15.3604 44.0777 15.2465 44.8257 15.1723 45.5764 15.4583 45.9861 15.9695 46.3641 16.4409 46.5201 17.1506 46.4329 17.9769zM36.0369 19.362C35.3205 19.6136 34.5725 19.7725 33.8192 19.8413 33.8377 18.1543 34.4773 16.658 35.6166 15.6993 35.7276 15.6066 35.8413 15.5193 35.9496 15.4292 35.5822 16.6368 35.6113 18.0458 36.0369 19.362zm10.6709-3.9619C46.5174 15.1617 46.2822 14.9631 46.0179 14.7989 46.1024 14.7327 46.1844 14.6638 46.2637 14.5976 46.9985 14.0415 47.7069 13.5383 48.5528 13.3873 48.6241 13.3741 48.6928 13.3662 48.7589 13.3715 48.7563 13.3873 48.7536 13.4085 48.7457 13.435 48.603 14.1633 48.336 14.7036 47.8893 15.1829L47.091 16.0357C46.9932 15.8159 46.869 15.6014 46.7078 15.4001zm1.9771 1.0196C48.4391 17.2433 47.9263 17.8048 47.3078 18.3742 47.3236 18.2762 47.3395 18.1755 47.3501 18.0722 47.3818 17.7809 47.3897 17.4393 47.3527 17.0844 47.4796 16.9811 47.6065 16.8726 47.7466 16.764 47.9792 16.5786 48.225 16.3906 48.4417 16.1681 48.5713 16.0383 48.6796 15.9033 48.7854 15.7655 48.7854 15.9748 48.751 16.1946 48.6849 16.4197z" fill="#1d445c"/><path d="M13.4501 28.1862C13.4289 28.226 13.4052 28.2657 13.4078 28.3107 13.4104 28.3557 13.4448 28.4008 13.4897 28.3981 13.5135 28.3955 13.532 28.3822 13.5505 28.369 13.984 28.0565 14.4228 27.7387 14.7797 27.3414 15.1365 26.9442 15.4167 26.4542 15.4748 25.9219 15.4828 25.8372 15.4722 25.7312 15.3929 25.7048 15.3559 25.6915 15.3162 25.7021 15.2792 25.7101 15.0387 25.7763 14.6871 25.9034 14.5206 26.0994 14.3832 26.2609 14.3752 26.4754 14.2959 26.6767 14.0818 27.2143 13.7329 27.6857 13.4501 28.1862z" fill="#1d445c"/><path d="M15.1893 27.8128C15.1603 27.8631 15.1312 27.9188 15.1338 27.9744 15.1365 28.0326 15.1814 28.0936 15.2396 28.0883 15.2686 28.0856 15.2951 28.0671 15.3189 28.0512 15.8845 27.6433 16.4528 27.2302 16.9207 26.7138 17.3885 26.1973 17.7507 25.5591 17.8247 24.8652 17.8353 24.7567 17.822 24.6163 17.719 24.5819 17.6714 24.566 17.6185 24.5766 17.5709 24.5898 17.259 24.6772 16.7991 24.8387 16.5823 25.0956 16.4026 25.3075 16.3947 25.5856 16.2916 25.8478 16.0114 26.5469 15.5594 27.1613 15.1893 27.8128z" fill="#1d445c"/><path d="M22.7412 18.7873C22.7254 18.8111 22.6963 18.8244 22.6672 18.8376 22.009 19.1263 21.3429 19.415 20.6293 19.5553 20.3702 19.6083 20.1032 19.6401 19.8363 19.6454 19.5244 19.6533 19.2072 19.6242 18.9058 19.55 18.89 19.2296 18.8635 18.9118 18.8265 18.5966 18.964 18.5119 19.1094 18.4457 19.2495 18.4218 19.416 18.3953 19.5772 18.4271 19.7385 18.4721 19.8574 18.5039 19.9764 18.5357 20.1032 18.5542 20.9015 18.6708 21.7051 18.5913 22.5007 18.6046 22.5615 18.6046 22.6302 18.6072 22.6804 18.639 22.7359 18.6681 22.7729 18.7396 22.7412 18.7873z" fill="#1d445c"/><path d="M21.6363 20.8662C21.6204 20.8901 21.5913 20.9033 21.5623 20.9166 21.0098 21.1549 20.4547 21.3986 19.8653 21.5522 19.7516 21.5866 19.638 21.6104 19.5217 21.6343 19.3313 21.674 19.1357 21.7005 18.9375 21.7137 18.956 21.3482 18.9586 20.9854 18.9507 20.6199 18.9666 20.6226 18.9851 20.6252 19.0009 20.6279 19.2917 20.6703 19.5825 20.6862 19.8732 20.6888 20.3807 20.6968 20.8909 20.6676 21.3984 20.6756 21.4592 20.6756 21.5253 20.6782 21.5781 20.71 21.6336 20.7418 21.668 20.8159 21.6363 20.8662z" fill="#1d445c"/><path d="M37.0704 36.4491C36.8192 36.7218 36.5628 36.9867 36.2932 37.2383 35.9866 37.1032 35.6959 36.9469 35.4104 36.7774 35.1725 36.6371 34.9399 36.4888 34.7046 36.3405 34.6808 36.3246 34.6518 36.306 34.6412 36.2796 34.6174 36.2266 34.6623 36.163 34.7231 36.1392 34.7813 36.118 34.8447 36.1233 34.9108 36.1339 35.2439 36.1842 35.5795 36.2451 35.91 36.3034 36.2932 36.3696 36.6792 36.4305 37.0704 36.4491z" fill="#1d445c"/><path d="M35.6113 37.8421C35.2491 38.144 34.8738 38.4274 34.4799 38.6948 34.2632 38.5942 34.0517 38.475 33.8561 38.3426 33.7715 38.287 33.687 38.2261 33.6077 38.1678 33.1054 37.7891 32.6667 37.3415 32.2358 36.8966 32.2147 36.8754 32.1935 36.8542 32.1856 36.8225 32.1776 36.7668 32.2384 36.7112 32.2992 36.7033 32.3627 36.698 32.4261 36.7192 32.4843 36.743 33.153 37.0026 33.7953 37.3415 34.4905 37.5481 34.5698 37.5719 34.6491 37.5931 34.7337 37.6143 35.0271 37.6885 35.3337 37.6673 35.5822 37.8209 35.5875 37.8262 35.6007 37.8315 35.6113 37.8421z" fill="#1d445c"/></g><defs><linearGradient id="paint0_linear" x1="8.36285" y1="9.98571" x2="36.5482" y2="42.1976" gradientUnits="userSpaceOnUse"><stop stop-color="#fff"/><stop offset="1" stop-color="#fff" stop-opacity="0"/></linearGradient><linearGradient id="paint1_linear" x1="10.2929" y1="14.5842" x2="34.7559" y2="44.5883" gradientUnits="userSpaceOnUse"><stop stop-color="#fff"/><stop offset="1" stop-color="#fff" stop-opacity="0"/></linearGradient><clipPath id="clip0"><rect width="47" height="47" fill="#fff" transform="translate(2.70251)"/></clipPath></defs></svg>