<?xml version="1.0" encoding="UTF-8"?><svg xmlns="http://www.w3.org/2000/svg" xmlns:xlink="http://www.w3.org/1999/xlink" viewBox="0 0 1838.3 326.69"><defs><style>.f{fill:#fff;}.g{fill:url(#d);}.h{fill:#e5e5e5;}.i{fill:url(#c);}.j{fill:#231f20;}.k{fill:#58595b;}</style><linearGradient id="c" x1="856.88" y1="268" x2="995.35" y2="129.52" gradientTransform="matrix(1, 0, 0, 1, 0, 0)" gradientUnits="userSpaceOnUse"><stop offset="0" stop-color="#f53b57"/><stop offset=".52" stop-color="#f53b57"/><stop offset="1" stop-color="#ef5777"/></linearGradient><linearGradient id="d" x1="857.81" y1="116.9" x2="966.44" y2="54.18" gradientTransform="matrix(1, 0, 0, 1, 0, 0)" gradientUnits="userSpaceOnUse"><stop offset="0" stop-color="#f53b57"/><stop offset=".5" stop-color="#f53b57"/><stop offset=".51" stop-color="#f53b57"/><stop offset=".72" stop-color="#f24461"/><stop offset="1" stop-color="#ef5777"/></linearGradient></defs><g id="a"><g><path class="f" d="M167.21,157.86c9.27,6.63,13.9,16.58,13.9,29.84s-6.73,24.02-20.2,32.26c-13.47,8.24-31.33,12.36-53.6,12.36s-39.57-4.06-51.9-12.18c-12.33-8.12-18.5-18.13-18.5-30.02,0-2.91,1.53-4.36,4.6-4.36h41c2.8,0,5.07,.82,6.8,2.46,3.73,3.41,10.2,5.11,19.4,5.11,12.67,0,19-1.87,19-5.6,0-2.32-2-4.15-6-5.51-4-1.35-11.93-2.67-23.8-3.96-37.73-4.38-56.6-18.35-56.6-41.91,0-13.26,6.07-23.98,18.2-32.16,12.13-8.17,28.37-12.27,48.7-12.27s36.77,4.4,49.3,13.19c12.53,8.79,18.8,18.08,18.8,27.87,0,1.32-.43,2.38-1.3,3.17-.87,.79-2.03,1.19-3.5,1.19h-43c-2.4,0-4.47-.76-6.2-2.27-3.2-2.77-8-4.16-14.4-4.16-8.93,0-13.4,1.8-13.4,5.41,0,1.93,1.73,3.44,5.2,4.54,3.47,1.09,10.4,2.22,20.8,3.38,21.87,2.45,37.43,6.98,46.7,13.62Z"/><path class="f" d="M286.91,92.11h37.2c1.47,0,2.73,.53,3.8,1.6,1.07,1.07,1.6,2.33,1.6,3.8V226.71c0,1.47-.53,2.73-1.6,3.8-1.07,1.07-2.33,1.6-3.8,1.6h-32.2c-3.2,0-5.87-1.4-8-4.2l-43.6-55.6v54.4c0,1.47-.53,2.73-1.6,3.8-1.07,1.07-2.33,1.6-3.8,1.6h-37.2c-1.47,0-2.73-.53-3.8-1.6-1.07-1.07-1.6-2.33-1.6-3.8V97.51c0-1.47,.53-2.73,1.6-3.8,1.07-1.07,2.33-1.6,3.8-1.6h32.4c3.2,0,5.8,1.33,7.8,4l43.6,60.2v-58.8c0-1.47,.53-2.73,1.6-3.8,1.07-1.07,2.33-1.6,3.8-1.6Z"/><path class="f" d="M487.91,150.22v23.79c0,13.39-3.33,24.58-10,33.54-6.67,8.97-15.4,15.34-26.2,19.11-10.8,3.77-23.53,5.65-38.2,5.65s-27.4-1.88-38.2-5.65c-10.8-3.77-19.53-10.14-26.2-19.11-6.67-8.97-10-20.28-10-33.93v-23.01c0-19.63,6.9-34.32,20.7-44.07,13.8-9.75,31.7-14.62,53.7-14.62s39.9,4.88,53.7,14.62c13.8,9.75,20.7,24.31,20.7,43.68Zm-94.8-3.23v30.26c0,5.17,1.83,9.14,5.5,11.91,3.67,2.77,8.63,4.16,14.9,4.16s11.23-1.42,14.9-4.25c3.67-2.84,5.5-6.84,5.5-12.01v-29.88c0-5.17-1.83-9.17-5.5-12.01-3.67-2.84-8.63-4.26-14.9-4.26s-11.23,1.39-14.9,4.16c-3.67,2.77-5.5,6.74-5.5,11.91Z"/><path class="f" d="M639.91,150.22v23.79c0,13.39-3.33,24.58-10,33.54-6.67,8.97-15.4,15.34-26.2,19.11-10.8,3.77-23.53,5.65-38.2,5.65s-27.4-1.88-38.2-5.65c-10.8-3.77-19.53-10.14-26.2-19.11-6.67-8.97-10-20.28-10-33.93v-23.01c0-19.63,6.9-34.32,20.7-44.07,13.8-9.75,31.7-14.62,53.7-14.62s39.9,4.88,53.7,14.62c13.8,9.75,20.7,24.31,20.7,43.68Zm-94.8-3.23v30.26c0,5.17,1.83,9.14,5.5,11.91,3.67,2.77,8.63,4.16,14.9,4.16s11.23-1.42,14.9-4.25c3.67-2.84,5.5-6.84,5.5-12.01v-29.88c0-5.17-1.83-9.17-5.5-12.01-3.67-2.84-8.63-4.26-14.9-4.26s-11.23,1.39-14.9,4.16c-3.67,2.77-5.5,6.74-5.5,11.91Z"/><path class="f" d="M663.1,92.11h74.8c18.93,0,33.93,4.6,45,13.8,11.07,9.2,16.6,21,16.6,35.4s-4.67,25.83-14,34.3c-9.33,8.47-25.2,12.7-47.6,12.7h-26.4v38.4c0,1.47-.53,2.73-1.6,3.8-1.07,1.07-2.33,1.6-3.8,1.6h-43c-1.47,0-2.73-.53-3.8-1.6-1.07-1.07-1.6-2.33-1.6-3.8V97.51c0-1.47,.53-2.73,1.6-3.8,1.07-1.07,2.33-1.6,3.8-1.6Zm48.6,37.2v22h25.4c3.07,0,5.57-.93,7.5-2.8,1.93-1.87,2.9-4.47,2.9-7.8s-.93-6.07-2.8-8.2c-1.87-2.13-4.4-3.2-7.6-3.2h-25.4Z"/></g><g><path class="f" d="M1063.72,92.11h127.2c1.47,0,2.73,.53,3.8,1.6,1.07,1.07,1.6,2.33,1.6,3.8v30.4c0,1.47-.53,2.73-1.6,3.8-1.07,1.07-2.33,1.6-3.8,1.6h-78.6v12.8h65.6c1.47,0,2.73,.53,3.8,1.6,1.07,1.07,1.6,2.33,1.6,3.8v30.2c0,1.47-.53,2.73-1.6,3.8-1.07,1.07-2.33,1.6-3.8,1.6h-65.6v39.6c0,1.47-.53,2.73-1.6,3.8-1.07,1.07-2.33,1.6-3.8,1.6h-43.2c-1.47,0-2.73-.53-3.8-1.6-1.07-1.07-1.6-2.33-1.6-3.8V97.51c0-1.47,.53-2.73,1.6-3.8,1.07-1.07,2.33-1.6,3.8-1.6Z"/><path class="f" d="M1349.72,150.22v23.79c0,13.39-3.33,24.58-10,33.54-6.67,8.97-15.4,15.34-26.2,19.11-10.8,3.77-23.53,5.65-38.2,5.65s-27.4-1.88-38.2-5.65c-10.8-3.77-19.53-10.14-26.2-19.11-6.67-8.97-10-20.28-10-33.93v-23.01c0-19.63,6.9-34.32,20.7-44.07,13.8-9.75,31.7-14.62,53.7-14.62s39.9,4.88,53.7,14.62c13.8,9.75,20.7,24.31,20.7,43.68Zm-94.8-3.23v30.26c0,5.17,1.83,9.14,5.5,11.91,3.67,2.77,8.63,4.16,14.9,4.16s11.23-1.42,14.9-4.25c3.67-2.84,5.5-6.84,5.5-12.01v-29.88c0-5.17-1.83-9.17-5.5-12.01-3.67-2.84-8.63-4.26-14.9-4.26s-11.23,1.39-14.9,4.16c-3.67,2.77-5.5,6.74-5.5,11.91Z"/><path class="f" d="M1506.71,225.91c.27,.54,.4,1.27,.4,2.2s-.43,1.83-1.3,2.7c-.87,.87-1.9,1.3-3.1,1.3h-45.4c-4,0-6.8-1.67-8.4-5l-17.6-39.6h-16.8v39.2c0,1.47-.53,2.73-1.6,3.8-1.07,1.07-2.33,1.6-3.8,1.6h-43.2c-1.47,0-2.73-.53-3.8-1.6-1.07-1.07-1.6-2.33-1.6-3.8V97.51c0-1.47,.53-2.73,1.6-3.8,1.07-1.07,2.33-1.6,3.8-1.6h77.8c18.27,0,32.73,4.33,43.4,13,10.67,8.67,16,20.47,16,35.4,0,18.13-7,31.27-21,39.4l24.6,46Zm-92.2-96.6v21.2h25c2.93,0,5.2-.97,6.8-2.9,1.6-1.93,2.4-4.37,2.4-7.3s-.77-5.5-2.3-7.7c-1.53-2.2-3.83-3.3-6.9-3.3h-25Z"/><path class="f" d="M1614.11,92.11h36.6c1.47,0,2.73,.53,3.8,1.6,1.07,1.07,1.6,2.33,1.6,3.8V226.71c0,1.47-.53,2.73-1.6,3.8-1.07,1.07-2.33,1.6-3.8,1.6h-36.2c-1.47,0-2.73-.53-3.8-1.6-1.07-1.07-1.6-2.33-1.6-3.8v-62l-14.6,28.8c-.8,1.6-2,2.83-3.6,3.7-1.6,.87-3.2,1.3-4.8,1.3h-13.6c-2.27,0-4.13-.6-5.6-1.8-1.47-1.2-2.4-2.27-2.8-3.2l-14.6-28.8v62c0,1.47-.53,2.73-1.6,3.8-1.07,1.07-2.33,1.6-3.8,1.6h-36.2c-1.47,0-2.73-.53-3.8-1.6-1.07-1.07-1.6-2.33-1.6-3.8V97.51c0-1.47,.53-2.73,1.6-3.8,1.07-1.07,2.33-1.6,3.8-1.6h36.6c3.73,0,6.6,1.8,8.6,5.4l26.2,48,26.2-48c2-3.6,4.87-5.4,8.6-5.4Z"/><path class="f" d="M1789.01,157.86c9.27,6.63,13.9,16.58,13.9,29.84s-6.73,24.02-20.2,32.26c-13.47,8.24-31.33,12.36-53.6,12.36s-39.57-4.06-51.9-12.18c-12.33-8.12-18.5-18.13-18.5-30.02,0-2.91,1.53-4.36,4.6-4.36h41c2.8,0,5.07,.82,6.8,2.46,3.73,3.41,10.2,5.11,19.4,5.11,12.67,0,19-1.87,19-5.6,0-2.32-2-4.15-6-5.51-4-1.35-11.93-2.67-23.8-3.96-37.73-4.38-56.6-18.35-56.6-41.91,0-13.26,6.07-23.98,18.2-32.16,12.13-8.17,28.37-12.27,48.7-12.27s36.77,4.4,49.3,13.19c12.53,8.79,18.8,18.08,18.8,27.87,0,1.32-.43,2.38-1.3,3.17-.87,.79-2.03,1.19-3.5,1.19h-43c-2.4,0-4.47-.76-6.2-2.27-3.2-2.77-8-4.16-14.4-4.16-8.93,0-13.4,1.8-13.4,5.41,0,1.93,1.73,3.44,5.2,4.54,3.46,1.09,10.4,2.22,20.8,3.38,21.87,2.45,37.43,6.98,46.7,13.62Z"/></g></g><g id="b"><g><path class="i" d="M876.02,280.35c3.09-.09,6.18,0,9.25,.21,17.63,1.25,34.56,6.94,52.14,8.51,9.22,.83,18.47,.36,27.68-.4,4.03-.33,8.17-.47,12.14-1.28,1.64-.29,3.23-.8,4.72-1.52l11.74-19.73c.66-1.12,2.11-1.5,3.23-.84,.17,.1,.32,.22,.46,.35,3.17-12.77,5.1-25.82,5.78-38.97,.03-1.32,1.14-2.37,2.46-2.33,.38,0,.75,.11,1.08,.29,1.29,.66,2.52,1.45,3.65,2.36-1.18-19.99-3.54-39.98-8.27-59.45-.33-1.36,.7-3.29,2.36-3.08,1.41,.17,2.79,.55,4.09,1.12-1.05-9.49-2.8-18.89-5.23-28.13-1.31,1.41-3.24,2.52-4.65,3.34-2.57,1.47-5.27,2.68-8.06,3.63-6.33,2.19-12.93,3.52-19.61,3.98-6.78,.47-13.73-.18-20.07-2.72-3.45-1.38-7.63-3.54-10.59-6.49-3.55,8.33-12.3,13.19-21.25,11.81-5.13-.77-9.72-3.76-13.08-7.81-1.12,1.95-3.13,3.71-4.62,4.95-2.53,2.12-5.35,3.87-8.37,5.21-7.06,3.11-14.76,3.54-22.35,3.14-6.92-.37-13.9-1.45-20.42-3.86-3.04-1.1-5.95-2.51-8.7-4.21-1.65-.99-3.23-2.09-4.72-3.3-2.01,7.45-2.9,15.17-2.64,22.88,1.06-1.25,2.2-2.43,3.41-3.54,1.27-1.18,3.92-.04,3.18,1.85-6.13,15.53-6.69,32.14-2.3,48,.63-1.4,1.35-2.77,2.14-4.09,.55-.9,1.73-1.18,2.63-.63,.55,.34,.9,.94,.91,1.59,.92,20.66,3.54,43.02,16.04,60.08,.14-1.66,.35-3.32,.63-4.98,.31-1.82,3.31-2.22,4.07-.53,2.59,5.63,6.41,10.61,11.16,14.58Zm112.65-62.15c.05-.19,.24-.3,.43-.25,.16,.04,.27,.18,.26,.35,.04,1.71,.29,3.41,.73,5.06,.17,.81,.49,1.57,.96,2.26,.89,1.02,.8,.77,1.26-.11,.68-1.28,.8-3.34,1.05-4.76,.29-1.59,.38-3.24,.88-4.77,.04-.33,.34-.55,.67-.51,.33,.04,.55,.34,.51,.67,.3,2.89-.64,6.16-1.34,8.94-.28,1.09-.59,3.37-2.14,3.41s-2.46-2.52-2.89-3.67c-.81-2.12-.95-4.44-.38-6.64v.02Zm-10.12-45.23c1.18,2.2,2.18,4.26,3.74,6.13,.2-1.21,.31-2.43,.33-3.65,0-1.39-.31-2.89,.13-4.22,.07-.25,.33-.39,.58-.31,.11,.03,.2,.1,.26,.2,.86,1.33,.71,3.14,.67,4.66-.06,1.79-.28,3.57-.67,5.31-.13,.44-.59,.69-1.03,.56-.13-.04-.25-.11-.34-.2-2.2-2.2-4.25-5.07-4.59-8.24-.05-.53,.69-.69,.92-.28v.02Zm-23.44,2.67c.11-.34,.71-.41,.77,0,.51,3.57,.83,6.63,2.44,9.73,.54-1.37,.93-2.79,1.15-4.25,.27-1.81,.05-3.54,.19-5.36,.02-.37,.33-.66,.7-.64,.28,.01,.52,.19,.61,.46,1.28,3.81-.14,8.58-1.84,12.03-.23,.4-.74,.53-1.14,.29-.12-.07-.22-.17-.29-.29-2.14-3.38-3.77-8.01-2.59-11.99v.02Zm5.31,37.88c3.47,1.63,5.46,6.79,7.04,9.99,2.4,4.88,4.79,9.76,7.16,14.65,2.28,4.72,4.59,9.45,6.85,14.22,1.77,3.7,4.21,7.73,2.95,11.95-.23,.74-.92,1.25-1.7,1.25-1.64,.06-3.26-.29-4.72-1.03,.38,2.26,.75,4.52,1.08,6.79,.31,2.08,.18,4.68-2.26,5.37-2.71,.77-3.97-2.28-4.85-4.25-.09-.21-.18-.42-.27-.63-.59,1.52-1.59,2.6-3.2,2.63-2.05,0-2.56-1.91-2.95-3.54-.27-1.18-.54-2.33-.8-3.5-.63,1.73-1.61,3.08-3.16,3.22-3.64,.36-4.8-4.83-5.11-7.43-1.16-10.59-1.78-21.23-1.86-31.88-.05-2.98-2.12-21.55,5.8-17.83v.02Zm-26.1,20.18c.09-.25,.55-.24,.51,.07-.54,4.32,0,8.43,2.43,12,.87-3.14,1.03-6.17,1.33-9.48,.06-.66,1.09-.91,1.23-.17,.76,3.75-.18,7.99-1.54,11.5-.13,.41-.57,.64-.98,.51-.17-.06-.32-.17-.42-.32-3.08-3.97-4.4-9.33-2.57-14.11Zm-24.05-47.82c.16-.2,.48,0,.48,.19,0,1.84-.46,3.54-.19,5.41,.25,1.73,.91,3.38,1.93,4.8,1.13-3.22,1.92-6.54,2.36-9.92,.13-.88,1.61-.66,1.55,.21-.34,4.02-1.36,7.96-2.99,11.65-.22,.37-.7,.49-1.07,.27-.05-.03-.1-.07-.15-.11-2.64-3.06-4.78-8.96-1.95-12.5h.03Zm-16.53,55.35c.34-5.85,.47-11.73,1.02-17.56,.31-3.31,.53-10.27,4.36-11.65,3.96-1.43,5.52,4.13,6.38,6.73l11.07,33.95c.9,2.77,2.13,5.61,2.67,8.48,.28,1.45,.22,3.07-.75,4.26-1.45,1.77-3.15,1.73-4.67,.9,.18,1.88,.33,3.76,.35,5.63,.02,1.87-.44,3.77-2.36,4.45-2.11,.76-3.54-.63-4.49-2.69-.7,1.87-1.85,3.11-3.86,2.36-2.28-.85-2.36-4.13-2.76-6.1l-.5-2.36c-.56,.49-1.27,.77-2.01,.79-4.61,.32-5.01-6.84-5.17-9.88-.3-5.77,.35-11.59,.68-17.33l.02,.02Zm-33.53-58.74c-.21,1.5-1.57,2.79-2.59,3.87-1.22,1.27-2.57,2.41-4.02,3.4-.4,.23-.91,.08-1.13-.32-.07-.12-.1-.26-.11-.4-.09-2.38,.34-4.76,1.27-6.95,.67-1.56,1.61-3.54,3.26-4.19,.27-.11,.5,.2,.44,.44-.4,1.7-1.82,3.14-2.44,4.81-.5,1.35-.79,2.77-.87,4.2,.94-.76,1.82-1.59,2.64-2.47,.94-1.02,1.56-2.28,2.77-2.95,.26-.13,.58-.02,.7,.24,.04,.09,.06,.19,.05,.29l.02,.02Zm9.28,44.28c-.59-3.54-1.1-7.56-.08-11.07,.06-.17,.25-.27,.42-.21,.13,.04,.22,.16,.22,.3,.3,2.9,.27,5.74,.66,8.61,.69-1.16,1.25-2.39,1.66-3.68,.56-1.77,.59-3.67,1.1-5.45,.09-.29,.39-.45,.68-.37,.18,.05,.31,.19,.37,.37,1.07,3.93-1.34,8.86-3.7,11.85-.31,.31-.81,.31-1.13,0-.11-.11-.19-.25-.22-.41l.02,.05Z"/><path class="k" d="M898.57,264.69c.31-.28,.12-2.03,.13-2.5,0-.56,.05-1.13,.08-1.69-.05-.28-.11-.59-.16-.86-.08-.41,.01-.84,.27-1.18v-.29c.06-1.01,1.71-1.36,1.87-.25v.08c.31,.19,.53,.51,.59,.87,.89,3.76,1.59,7.57,2.36,11.36,.03,.12,.27,2.29,.68,2.29,.16-.67,.27-1.36,.32-2.05,.27-1.81,.54-3.62,.8-5.43s2.95-1.22,3.06,.41c.1,1.81,.44,3.6,1.02,5.31,.21,.59,.67,2.6,1.15,1.96,.32-.44,.09-1.18,.05-1.69-.27-3.15-.55-6.28-.82-9.39-.15-1.66,2.36-2.26,3.11-.84,.25,.51,.53,1.01,.84,1.49,1.72,.64,2.3,.33,1.73-.93-.2-.92-.49-1.83-.86-2.7-.79-2.36-1.56-4.74-2.31-7.13-1.42-4.39-2.85-8.79-4.28-13.18-1.43-4.39-2.86-8.78-4.27-13.17-.77-2.36-1.48-4.72-2.3-7.08-.08-.22-.73-2.65-1.24-2.6-.66,.06-.97,1.91-1.13,2.5-1.26,4.42-1.32,9.25-1.77,13.8-.45,4.56-.82,9.05-1.11,13.58-.27,4.37-.67,8.77-.44,13.15,.11,.55,.54,8.1,2.64,6.14Z"/><path class="f" d="M937.68,133.55c1.18-7.2-2.9-14.33-9.38-17.53-3.53-1.68-7.53-2.1-11.32-1.18-3.19,.72-5.84,2.43-8.67,3.88-.24,.24-.48,.48-.71,.73-3.48,3.62-4.61,8.91-2.92,13.64,2.57,7.59,8.92,14.31,17.34,14.21,7.3-.12,13.6-5.14,15.35-12.22-.06-.14-.14-.28-.19-.42-.18-.43,.03-.92,.46-1.1,.02,0,.04-.01,.05-.02Zm-8.09-8.18c-1.62,6.36-13.22,5.67-17.26,2.53-.82-.67-.95-1.88-.3-2.71,.07-.25,.21-.48,.4-.66,1.77-1.66,4.92-1.62,7.2-2.17,2.72-.66,5.35-1.08,8.09-.28,1.41,.42,2.24,1.88,1.87,3.3Z"/><path class="h" d="M964.19,94.37c-13.83,.42-21.48,11.42-29.49,21.02,5.76,4.97,8.37,12.69,6.79,20.13,1.43,1.12,2.82,2.33,4.35,3.29,2.6,1.63,5.41,2.9,8.35,3.78,5.73,1.72,11.81,1.95,17.71,1.38,5.95-.59,11.81-1.88,17.46-3.84,2.71-.92,5.3-2.13,7.75-3.61,1.65-1,3.19-2.52,5.02-3.16-1.78-6.18-3.93-12.25-6.43-18.17-.77-1.81,.5-4.32,2.77-3.6,.59,.19,1.18,.41,1.77,.66-.98-2.41-2.05-4.77-3.22-7.08-.88-.64-1.8-1.21-2.76-1.72-2.98-1.55-6.04-2.93-9.17-4.13-6.61-2.72-13.67-5.18-20.9-4.94Zm-7.49,24.4c-2.65,3.81-8.69,4.42-10.78-.26-.35-.92-.54-1.89-.55-2.88-.02-.04-.04-.07-.05-.11-1.59-5.08,2.95-9.62,8.01-7.59,3.73,1.44,5.58,5.63,4.13,9.36-.2,.51-.45,1-.76,1.45v.03Z"/><path class="f" d="M950.64,112.2c-.89,.21-.83,1.18-1.21,1.95-.12,.23-.25,.44-.4,.65,.03,.76,.28,1.49,.73,2.1,1.27,1.41,3.35-.35,3.54-1.83,.15-1.22-1.19-3.21-2.66-2.88Z"/><path class="h" d="M842.75,129.95c-1.81,3.47-3.35,7.08-4.59,10.79,1.83,1.35,3.51,2.95,5.47,4.13,2.7,1.6,5.56,2.91,8.54,3.91,5.84,1.93,11.91,3.08,18.05,3.42,6.86,.44,13.92,.31,20.37-2.31,3.09-1.27,5.98-2.99,8.58-5.1,1.54-1.25,3.06-3.16,4.81-4.32-1.86-2.93-3.07-6.21-3.54-9.65-.46-3.65,.41-7.34,2.46-10.39-2.18-1.72-4-3.88-6.15-5.66-6.72-5.46-14.77-9.03-23.33-10.32-11.81-1.74-22.62,1.48-32.85,6.93-1.83,6.41-3.28,12.91-4.36,19.48l3.54-3.23c.79-.72,2-.66,2.72,.13,.54,.6,.66,1.47,.29,2.18Zm34.69-9.15c-.05-1.53,1.42-2.88,2.83-3.26,1.91-.49,3.94-.03,5.44,1.25,3,2.58,3.07,7.68,.76,10.72-2.95,3.9-8.27,1.91-9.76-2.25-.66-2.16-.4-4.5,.73-6.45h0Z"/><path class="f" d="M882.88,125.95c.41-1.02,.5-2.95-.7-3.54-.21-.09-.45-.14-.68-.13-.46,.66-.7,1.44-.7,2.24,.05,1.22,1.3,3.34,2.07,1.43Z"/><path class="f" d="M906.56,116.05c-3.83-4.22-7.59-8.27-12.33-11.57-4.86-3.4-10.26-5.96-15.97-7.57-6-1.7-12.29-2.12-18.47-1.23-3.02,.47-5.99,1.24-8.86,2.28-2.36,.84-4.56,2.18-6.89,3.07-.76,1.91-1.46,3.85-2.11,5.8,9.22-5.72,21.07-7.78,31.55-6.43,6.16,.8,12.13,2.69,17.62,5.6,4.94,2.61,11.07,6.46,14.24,11.29,.31-.32,.63-.63,.96-.93,.09-.11,.18-.21,.26-.32Z"/><path class="k" d="M845.69,88.32c.79-1.42,1.63-2.82,2.52-4.2-1.18-2.41-1.77-5.31-2.36-7.73-.83-3.46-1.42-6.97-1.77-10.5-.36-3.71-.47-7.44-.34-11.16,.09-2.67,0-5.87,1.24-8.32,2.89-5.73,9.95-2.66,13.86,0,5.77,3.95,11.31,8.24,16.58,12.84,1.39-.81,2.8-1.57,4.25-2.3-5.63-4.94-11.85-9.16-18.52-12.58-6.07-3.08-16.64-7.14-20.73,1.09-1.77,3.54-1.81,8.09-1.91,11.96-.08,4.3,.15,8.6,.67,12.87,.86,7.53,2.95,14.76,4.36,22.2,.68-1.41,1.41-2.8,2.17-4.17Z"/><path class="k" d="M958.47,248.75c.22,4.55,.43,9.15,.9,13.68,.04,1.32,.33,2.62,.83,3.84,.59,1.18,1,1.52,1.52,0,.71-2.22,1.23-4.49,1.55-6.8,.21-1.29,2.03-1.18,2.52-.21,.18,.19,.31,.43,.37,.69,.77,3.39,1.58,6.78,2.3,10.19,.14,.64,.19,.94,.2,1.04-.03-.23,0-.47,.05-.69,.26-.93,.42-1.89,.46-2.86,.16-1.61,.22-3.21,.22-4.82,0-2.14,3-2.01,3.24,0,.23,1.99,.66,3.95,1.29,5.85,.35,1.03,.75,2.04,1.22,3.02,.5,1.03,.79,2.36,.64,.59-.35-4.13-1.36-8.36-2.01-12.49-.2-.91,.37-1.81,1.28-2.01,.85-.19,1.7,.3,1.97,1.12,.7,1.75,2.27,3,4.13,3.3,0-2.15-1.05-4.09-2-6.03-1.08-2.21-2.15-4.42-3.22-6.63l-5.94-12.34c-2.11-4.39-4.13-8.83-6.25-13.22-.77-1.7-1.65-3.34-2.66-4.91-.78-1.18-1.98-3.16-2.95-1.28-.34,.64-.19,1.84-.21,2.49-.22,9.48,.06,19,.53,28.48Z"/><path class="f" d="M964.66,90.39c8.27-.34,16.36,2.31,23.9,5.46,1.43,.59,2.89,1.18,4.33,1.81-.11-.18-.22-.36-.32-.54-2.73-1.1-4.98-3.71-7.51-5.24-2.7-1.65-5.58-2.99-8.58-4-6.49-2.14-14-2.98-20.63-.94-6.74,2.08-12.04,7.62-16.57,12.8-2.22,2.49-4.11,5.25-5.64,8.21-.78,1.55-1.18,3.54-1.84,5.31l.54,.34c7.07-11.72,17.98-22.64,32.32-23.22Z"/><path class="k" d="M971.46,46.36c5.25-2.54,12.85-5.84,18.4-2.44,5.9,3.63,6.54,11.17,5.19,17.29-.95,3.92-2.18,7.76-3.68,11.5-.99,2.64-1.94,6.61-3.99,8.86,1.29,1.52,2.54,3.07,3.75,4.65,4.01-8.07,7.91-16.25,10.32-24.97,1.34-4.64,2.09-9.42,2.24-14.24,.1-4.35-.44-9.09-5.57-9.91-4.09-.66-8.67,.41-12.67,1.29-4.48,.97-8.86,2.37-13.07,4.17-7.53,3.24-13.86,7.88-20.3,12.85,1.68,.71,3.34,1.47,4.98,2.28,3.71-4.9,8.93-8.69,14.41-11.33Z"/><path class="g" d="M848.49,91.42c-.89,1.66-1.71,3.34-2.48,5.04,3.87-2.36,8.82-3.7,12.78-4.41,6.55-1.19,13.28-1.02,19.77,.48,11.97,2.79,23.91,10.63,31.37,20.53,2.71-1.58,5.73-2.54,8.86-2.83,3.29-.32,6.61,.14,9.68,1.35,.41-1.61,.98-3.18,1.71-4.68,1.54-3.29,3.5-6.36,5.84-9.15,4.72-5.82,10.63-11.75,17.81-14.33,7.19-2.57,15.66-2.03,22.92,.08,3,.88,5.91,2.06,8.67,3.54-13.79-17.07-33-29.44-54.79-33.12-21.61-3.65-43.1,1.28-61.54,12.67-8.43,6.84-15.43,15.27-20.61,24.81Z"/><path class="f" d="M850.5,80.69c4.98-6.98,11.18-13.25,18.66-17.32,.88-.66,1.77-1.29,2.69-1.9-4.01-3.54-8.15-6.89-12.47-10.04-2.18-1.59-4.55-3.65-7.21-4.35-3.82-.99-4.26,2.14-4.44,5.09-.33,5.75-.14,11.52,.59,17.23,.36,2.86,.88,5.69,1.48,8.51,.21,.92,.45,1.84,.7,2.77Z"/><path class="f" d="M987.39,47.41c-2.65-1.55-5.98-.47-8.71,.35-2.77,.83-5.46,1.93-8.01,3.28-4,2.21-7.73,4.86-11.14,7.91,2.69,1.44,5.3,3.02,7.82,4.72,6.17,4.18,11.85,9.04,16.94,14.48,.66-2.1,1.98-4.26,2.69-6.09,1.08-2.82,2.09-5.67,2.95-8.55,1.58-5.14,3.08-12.82-2.54-16.09Z"/><path class="j" d="M927.69,122.07c-2.73-.8-5.37-.38-8.09,.28-2.28,.55-5.43,.51-7.2,2.17-.19,.18-.33,.41-.4,.66-.65,.83-.52,2.04,.3,2.71,4.04,3.15,15.64,3.83,17.26-2.53,.37-1.42-.46-2.88-1.87-3.3Z"/><path class="j" d="M953.33,107.9c-5.05-2.03-9.6,2.51-8.01,7.59,.01,.04,.03,.08,.05,.11,.01,.98,.2,1.96,.55,2.88,2.09,4.68,8.14,4.07,10.78,.26,2.26-3.29,1.42-7.8-1.88-10.05-.47-.32-.97-.58-1.49-.79Zm-.05,7.18c-.18,1.48-2.26,3.24-3.54,1.83-.44-.61-.7-1.34-.73-2.1,.15-.21,.28-.42,.4-.65,.38-.76,.32-1.77,1.21-1.95,1.48-.34,2.82,1.65,2.66,2.88Z"/><path class="j" d="M886.48,129.51c2.31-3.05,2.24-8.14-.76-10.72-1.51-1.27-3.53-1.74-5.44-1.25-1.42,.38-2.89,1.73-2.83,3.26-1.13,1.96-1.39,4.29-.73,6.45,1.45,4.16,6.81,6.15,9.76,2.25Zm-4.97-7.22c.23,0,.46,.04,.68,.13,1.18,.55,1.11,2.51,.7,3.54-.77,1.91-2.02-.21-2.07-1.42-.01-.8,.23-1.59,.68-2.26h.01Z"/><path class="j" d="M1007.75,170.75c.64,.46,1.21,1.02,1.68,1.66,1.31,1.81,4.85,1.46,4.66-1.26-1.24-17.64-5.31-34.87-11.42-51.41,.3,.3,.59,.59,.89,.93,1.65,1.89,4.92-.11,4.19-2.44-1.19-3.74-2.58-7.41-4.17-11,.08-1.52-.76-2.89-1.9-4.06-2.18-4.38-4.66-8.6-7.42-12.63,3.86-7.77,7.68-15.6,10.44-23.85,2.52-7.6,4.67-16.53,3.41-24.57-1.22-7.82-7.75-10.34-14.94-9.57-7.75,.94-15.31,3.07-22.41,6.31-7.95,3.54-16.11,8.5-21.84,15.14-.02,.02-.03,.04-.05,.06-15.54-5.87-32.42-7.29-48.72-4.08-5.56,1.09-10.99,2.75-16.21,4.95-.05-.06-.1-.12-.16-.17-7-6.09-14.83-11.14-23.27-14.99-6.74-3.02-15.98-5.1-21.6,1.26-2.72,3.07-3.38,7.27-3.78,11.22-.48,4.8-.48,9.63,0,14.42,.95,9.75,3.1,20.07,6.84,29.16-2.16,4.9-3.97,9.95-5.41,15.1-.15,.2-.22,.44-.19,.69-2.11,7.84-3.73,15.81-4.84,23.86-.27,1.87,1.72,3.32,3.27,1.9l.87-.8c-.37,.98-.72,1.97-1.05,2.95-.74,.44-1.03,1.35-.69,2.14-3.14,10.2-4.22,20.93-3.18,31.55,.03,1.06,.92,1.88,1.97,1.85,.57-.02,1.1-.29,1.45-.74-3.98,15.32-3.42,31.97,2.24,46.74,.67,1.74,3.37,2.08,3.89,0,.18-.73,.38-1.44,.59-2.14,1.61,21.47,4.84,43.39,19.79,60.04,1.3,1.45,3.91,.31,3.85-1.59-.04-1.11-.04-2.22,0-3.32,1.52,2.24,3.25,4.32,5.17,6.23,.64,.4,1.19,.96,1.57,1.71,.52,1,1.13,2.01,1.47,3.1,5.48-.38,10.98-.24,16.44,.41,1.51,.17,3.02,.36,4.52,.59l-.02,.03c.67,.02,1.26,.16,1.79,.38,.48,.02,.92,.1,1.32,.23,.04,0,.08,0,.12,0,.36,0,.69,.04,1,.09,.01-.02,.02-.04,.03-.06,7.02,1.18,13.97,2.74,20.96,4.13,0,0,0,.02-.02,.03,.59,.01,1.11,.12,1.59,.29,.12,0,.22,.03,.33,.04,.47,.03,.9,.11,1.29,.24h0c4.46,.84,8.92,1.58,13.43,2.08h0c.11,0,.22,0,.34,0,.62,0,1.18,.1,1.68,.27,.08,0,.15-.01,.23-.01,.44,0,.85,.05,1.23,.14,0-.02,0-.04,0-.05,.69,.05,1.38,.11,2.07,.15,6.09,.31,12.19,.24,18.27-.21v.03c.15-.01,.3-.02,.46-.02,.19,0,.35,.03,.53,.05,.3-.05,.61-.08,.94-.08,.1,0,.2,0,.3,.01,.44-.12,.9-.21,1.43-.21,.07,0,.13,0,.2,0,0-.02,0-.04,0-.07,2.76-.22,5.53-.47,8.27-.72,4.1-.38,8.93-.85,12.4-3.06,.02,0,.04,0,.06,0,.36-.47,.81-.88,1.35-1.19,.8-1.31,1.67-2.53,2.55-3.64,.28-.57,.68-1.08,1.18-1.49,0,0-.01-.02-.02-.03l6.11-10.28c.12,.37,.22,.74,.35,1.12,.74,2.27,4.08,2.41,4.76,0,3.97-14.13,6.47-28.64,7.45-43.28,1.35,1.19,2.51,2.58,3.43,4.13,1.24,2.07,4.69,1.25,4.63-1.26-.46-21.31-3.54-42.33-7.95-63.14Zm-13.48-67.32c.96,.51,1.88,1.08,2.76,1.72,1.18,2.33,2.25,4.69,3.22,7.08-.59-.24-1.18-.47-1.77-.66-2.27-.71-3.54,1.77-2.77,3.6,2.51,5.92,4.66,11.99,6.45,18.16-1.83,.64-3.37,2.16-5.02,3.16-2.45,1.48-5.05,2.68-7.75,3.61-5.65,1.97-11.51,3.26-17.46,3.86-5.93,.59-12,.34-17.71-1.38-2.94-.88-5.75-2.15-8.35-3.78-1.52-.96-2.91-2.17-4.35-3.29,1.58-7.45-1.03-15.16-6.79-20.13,8.01-9.61,15.66-20.61,29.49-21.02,7.23-.22,14.29,2.24,20.9,4.93,3.13,1.21,6.18,2.59,9.15,4.14Zm-57.12,31.16s.01,.04,.02,.05c.06,.14,.13,.28,.19,.42-1.75,7.08-8.05,12.1-15.35,12.22-8.42,.09-14.76-6.62-17.34-14.21-1.7-4.73-.57-10.02,2.92-13.64,.23-.25,.47-.5,.71-.73,2.83-1.45,5.48-3.16,8.67-3.88,3.8-.91,7.8-.5,11.32,1.18,6.49,3.2,10.56,10.33,9.38,17.53-.44,.15-.68,.63-.53,1.07Zm-5.35-21.37c.67-1.77,1.06-3.75,1.84-5.31,1.53-2.95,3.42-5.69,5.64-8.17,4.53-5.18,9.83-10.72,16.57-12.8,6.62-2.04,14.13-1.18,20.63,.94,3.01,1,5.9,2.34,8.61,3.99,2.53,1.53,4.78,4.13,7.51,5.24,.11,.18,.21,.36,.32,.54-1.44-.63-2.9-1.18-4.33-1.81-7.54-3.15-15.62-5.8-23.9-5.46-14.35,.59-25.25,11.5-32.32,23.18l-.57-.34Zm40.58-70.69c4.21-1.81,8.59-3.2,13.07-4.17,4-.88,8.58-1.94,12.67-1.29,5.14,.82,5.67,5.56,5.57,9.91-.15,4.82-.91,9.6-2.24,14.24-2.41,8.72-6.31,16.9-10.32,24.97-1.2-1.57-2.45-3.13-3.75-4.65,2.05-2.23,3-6.19,3.99-8.86,1.5-3.74,2.73-7.58,3.68-11.5,1.35-6.12,.71-13.67-5.19-17.29-5.55-3.4-13.14-.1-18.4,2.44-5.48,2.64-10.7,6.43-14.41,11.3-1.64-.81-3.3-1.57-4.98-2.28,6.44-4.91,12.78-9.56,20.3-12.82Zm14.61,29.48c-.71,1.84-2.03,3.99-2.69,6.09-5.09-5.44-10.76-10.3-16.93-14.48-2.53-1.71-5.14-3.28-7.82-4.72,3.4-3.04,7.14-5.68,11.14-7.88,2.56-1.35,5.24-2.45,8.01-3.28,2.73-.82,6.06-1.9,8.71-.35,5.62,3.28,4.13,10.98,2.56,16.06-.9,2.9-1.91,5.75-2.99,8.57Zm-56.33-18.11c21.79,3.68,41,16.05,54.79,33.12-2.76-1.48-5.66-2.67-8.67-3.54-7.26-2.11-15.7-2.67-22.92-.08-7.21,2.59-13.1,8.51-17.81,14.33-2.34,2.78-4.3,5.86-5.84,9.15-.73,1.5-1.3,3.06-1.71,4.68-3.08-1.21-6.39-1.67-9.68-1.35-3.12,.28-6.15,1.25-8.86,2.83-7.46-9.91-19.4-17.71-31.37-20.53-6.49-1.51-13.22-1.67-19.77-.48-3.96,.71-8.92,2.03-12.78,4.41,.77-1.7,1.59-3.38,2.48-5.04,5.18-9.55,12.18-17.99,20.62-24.84,18.4-11.37,39.91-16.3,61.52-12.65Zm-82.31,15.49c-.73-5.71-.93-11.48-.59-17.23,.18-2.95,.62-6.08,4.44-5.09,2.66,.7,5.03,2.76,7.21,4.35,4.32,3.15,8.45,6.49,12.47,10.04-.92,.59-1.81,1.24-2.69,1.9-7.49,4.07-13.7,10.33-18.67,17.32-.24-.93-.49-1.86-.68-2.77-.6-2.82-1.12-5.66-1.48-8.51Zm-9.18,.88c-.53-4.27-.75-8.57-.67-12.87,.1-3.87,.15-8.41,1.91-11.96,4.09-8.23,14.66-4.17,20.73-1.09,6.68,3.41,12.91,7.63,18.54,12.56-1.44,.72-2.86,1.49-4.24,2.3-5.27-4.6-10.8-8.89-16.58-12.84-3.91-2.65-10.97-5.72-13.86,0-1.23,2.45-1.15,5.64-1.24,8.32-.13,3.72-.01,7.45,.34,11.16,.35,3.54,.94,7.05,1.77,10.5,.59,2.45,1.18,5.31,2.36,7.73-.88,1.39-1.72,2.79-2.52,4.2-.76,1.37-1.48,2.76-2.17,4.17-1.43-7.4-3.52-14.63-4.39-22.19Zm4.89,30.75c2.36-.89,4.54-2.23,6.89-3.07,2.87-1.05,5.84-1.81,8.86-2.28,6.17-.89,12.47-.48,18.47,1.23,5.71,1.62,11.11,4.18,15.97,7.57,4.72,3.29,8.51,7.34,12.33,11.57-.08,.11-.17,.21-.25,.32-.33,.3-.64,.59-.96,.93-3.18-4.83-9.3-8.68-14.25-11.29h0c-5.49-2.9-11.46-4.8-17.62-5.6-10.48-1.35-22.34,.71-31.55,6.43,.65-1.97,1.35-3.9,2.11-5.8Zm-3.51,10.33c10.23-5.44,21.03-8.66,32.85-6.93,8.56,1.29,16.62,4.86,23.33,10.32,2.15,1.77,3.97,3.93,6.15,5.66-2.05,3.05-2.92,6.74-2.46,10.39,.48,3.43,1.68,6.72,3.54,9.65-1.77,1.18-3.27,3.08-4.81,4.32-2.58,2.1-5.46,3.82-8.53,5.1-6.45,2.63-13.51,2.75-20.37,2.31-6.14-.33-12.21-1.48-18.05-3.42-2.97-1.01-5.83-2.32-8.54-3.91-1.97-1.18-3.64-2.76-5.47-4.13,1.25-3.71,2.78-7.32,4.59-10.79,.5-.94,.15-2.1-.79-2.61-.72-.39-1.61-.27-2.22,.29l-3.54,3.23c1.06-6.57,2.5-13.07,4.31-19.47Zm166.16,113.25c-1.16-.63-2.62-.2-3.25,.96-.18,.33-.28,.7-.29,1.08-.68,13.14-2.61,26.19-5.78,38.97-.93-.91-2.43-.9-3.34,.03-.14,.14-.25,.29-.35,.46l-11.74,19.73c-1.5,.72-3.09,1.23-4.72,1.52-3.97,.81-8.11,.95-12.14,1.28-9.2,.76-18.46,1.23-27.68,.4-17.58-1.57-34.51-7.26-52.14-8.51-3.06-.21-6.16-.3-9.25-.21-4.74-3.98-8.55-8.96-11.13-14.58h0c-.76-1.69-3.76-1.29-4.07,.53-.28,1.66-.49,3.32-.63,4.98-12.46-17.06-15.12-39.44-16.04-60.08-.02-1.06-.9-1.89-1.96-1.87-.65,.02-1.25,.36-1.59,.91-.79,1.32-1.51,2.69-2.14,4.09-4.39-15.86-3.84-32.47,2.3-48,.74-1.88-1.91-3.03-3.18-1.85-1.2,1.11-2.34,2.3-3.41,3.54-.26-7.71,.64-15.41,2.65-22.85,1.49,1.21,3.07,2.32,4.72,3.3,2.75,1.7,5.66,3.11,8.7,4.21,6.49,2.41,13.5,3.49,20.42,3.86,7.61,.41,15.3-.03,22.35-3.14,3.01-1.34,5.83-3.1,8.35-5.22,1.49-1.24,3.5-3,4.62-4.95,3.37,4.05,7.95,7.04,13.08,7.81,8.95,1.38,17.7-3.48,21.25-11.81,2.95,2.95,7.14,5.12,10.59,6.49,6.35,2.54,13.3,3.18,20.07,2.72,6.68-.46,13.28-1.79,19.61-3.98,2.8-.95,5.5-2.17,8.06-3.64,1.41-.82,3.34-1.93,4.65-3.34,2.42,9.23,4.17,18.63,5.21,28.12-1.3-.57-2.68-.95-4.09-1.12-1.64-.22-2.67,1.72-2.36,3.08,4.72,19.48,7.12,39.47,8.27,59.45-1.13-.91-2.36-1.7-3.65-2.36Z"/><path class="j" d="M898.21,268.42c.74-.02,1.45-.3,2.01-.79l.5,2.36c.41,1.99,.48,5.25,2.76,6.1,2,.74,3.16-.5,3.86-2.36,.96,2.05,2.36,3.44,4.49,2.69,1.89-.68,2.36-2.66,2.36-4.45s-.18-3.75-.35-5.63c1.52,.83,3.22,.87,4.67-.9,.97-1.18,1.03-2.81,.75-4.26-.54-2.88-1.77-5.71-2.67-8.48l-11.07-33.95c-.86-2.62-2.41-8.16-6.38-6.73-3.83,1.38-4.06,8.35-4.36,11.65-.54,5.84-.67,11.71-1.02,17.56-.34,5.74-.98,11.57-.67,17.33,.14,3.03,.53,10.19,5.14,9.87Zm-1.77-23.03c.29-4.53,.68-9.05,1.11-13.58s.48-9.38,1.77-13.8c.17-.59,.47-2.43,1.13-2.5,.51-.04,1.18,2.36,1.24,2.6,.82,2.36,1.54,4.72,2.3,7.08,1.42,4.39,2.85,8.78,4.27,13.17,1.42,4.39,2.85,8.78,4.28,13.18,.79,2.36,1.56,4.74,2.31,7.13,.37,.87,.66,1.77,.86,2.7,.57,1.26,0,1.56-1.73,.93-.31-.48-.59-.98-.84-1.49-.74-1.42-3.26-.82-3.11,.84,.28,3.13,.55,6.26,.82,9.39,.04,.5,.27,1.26-.05,1.69-.48,.64-.94-1.36-1.15-1.96-.58-1.72-.92-3.5-1.02-5.31-.11-1.64-2.79-2.26-3.06-.41s-.54,3.61-.8,5.43c-.06,.69-.17,1.37-.32,2.05-.41,0-.66-2.17-.68-2.29-.78-3.79-1.48-7.6-2.36-11.36-.06-.36-.28-.68-.59-.87v-.08c-.15-1.11-1.81-.76-1.87,.25v.29c-.25,.34-.35,.77-.27,1.18,.05,.28,.11,.59,.16,.86-.03,.56-.06,1.13-.08,1.69,0,.47,.18,2.21-.13,2.5-2.1,1.96-2.53-5.6-2.56-6.15-.29-4.39,.11-8.79,.38-13.16h-.02Z"/><path class="j" d="M956.47,263.23c.31,2.6,1.47,7.79,5.11,7.43,1.55-.15,2.53-1.49,3.16-3.22,.27,1.18,.53,2.33,.8,3.5,.38,1.64,.89,3.58,2.95,3.54,1.61-.03,2.59-1.11,3.2-2.63,.09,.21,.17,.41,.27,.63,.89,1.97,2.14,5.02,4.85,4.25,2.44-.69,2.57-3.28,2.26-5.37-.33-2.27-.7-4.53-1.08-6.79,1.46,.74,3.09,1.1,4.72,1.03,.78,0,1.46-.53,1.68-1.28,1.26-4.22-1.18-8.27-2.95-11.95-2.26-4.75-4.56-9.49-6.85-14.22-2.36-4.9-4.75-9.78-7.16-14.65-1.58-3.2-3.54-8.36-7.04-9.99-7.92-3.72-5.85,14.85-5.8,17.85,.08,10.65,.7,21.29,1.87,31.87Zm1.66-45.46c.98-1.89,2.18,.11,2.95,1.28,1,1.57,1.89,3.21,2.66,4.91,2.11,4.39,4.13,8.83,6.25,13.22l5.93,12.33c1.06,2.22,2.14,4.43,3.22,6.63,.94,1.94,2,3.88,2,6.03-1.86-.3-3.43-1.55-4.13-3.3-.29-.89-1.24-1.37-2.13-1.08-.83,.27-1.31,1.12-1.12,1.97,.65,4.13,1.66,8.33,2.01,12.49,.15,1.77-.14,.43-.64-.59-.47-.98-.88-1.99-1.22-3.02-.63-1.9-1.06-3.86-1.29-5.85-.24-2.01-3.24-2.14-3.24,0,0,1.61-.06,3.21-.22,4.82-.04,.97-.2,1.93-.46,2.86-.06,.22-.08,.46-.05,.69,0-.1-.06-.4-.2-1.04-.73-3.41-1.54-6.8-2.3-10.19-.06-.26-.18-.5-.37-.69-.48-.98-2.31-1.07-2.52,.21-.32,2.31-.84,4.58-1.55,6.8-.53,1.54-.92,1.22-1.52,0-.51-1.22-.79-2.52-.83-3.84-.47-4.53-.67-9.13-.9-13.68-.47-9.48-.75-18.99-.54-28.48,.02-.63-.11-1.82,.22-2.48Z"/><path class="j" d="M859.41,181.88c-1.22,.7-1.83,1.96-2.77,2.95-.82,.89-1.7,1.71-2.64,2.47,.07-1.44,.37-2.85,.87-4.2,.63-1.67,2.05-3.11,2.44-4.81,.05-.24-.17-.55-.44-.44-1.66,.66-2.6,2.63-3.26,4.19-.93,2.2-1.36,4.57-1.27,6.95,0,.46,.38,.83,.84,.82,.14,0,.27-.04,.4-.11,1.45-1,2.8-2.13,4.02-3.4,1.02-1.07,2.36-2.36,2.59-3.87,.05-.28-.13-.56-.42-.62-.12-.02-.24,0-.35,.05Z"/><path class="j" d="M874.48,215.23c-.09-.29-.39-.45-.68-.37-.18,.05-.31,.19-.37,.37-.53,1.77-.54,3.66-1.1,5.45-.41,1.29-.97,2.52-1.66,3.68-.38-2.87-.35-5.72-.66-8.61,0-.18-.16-.32-.35-.31-.14,0-.25,.1-.3,.22-1.02,3.51-.53,7.53,.08,11.07,.12,.42,.56,.67,.98,.56,.13-.04,.25-.11,.35-.2,2.36-3.02,4.77-7.92,3.7-11.85Z"/><path class="j" d="M913.36,198.21c1.64-3.69,2.65-7.63,2.99-11.65,.06-.87-1.42-1.09-1.55-.21-.44,3.38-1.23,6.7-2.36,9.92-1.02-1.42-1.68-3.07-1.93-4.8-.27-1.85,.19-3.57,.19-5.41,0-.22-.32-.4-.48-.19-2.83,3.54-.68,9.45,1.92,12.5,.31,.3,.8,.3,1.1,0,.05-.05,.09-.1,.12-.16Z"/><path class="j" d="M959.13,187.59c1.7-3.45,3.11-8.22,1.84-12.03-.12-.35-.5-.54-.85-.42-.26,.09-.45,.33-.46,.61-.14,1.77,.07,3.54-.19,5.36-.22,1.46-.61,2.88-1.15,4.25-1.61-3.1-1.93-6.16-2.44-9.73-.06-.41-.66-.34-.77,0-1.18,3.98,.45,8.61,2.59,11.97,.23,.4,.74,.53,1.14,.29,.12-.07,.22-.17,.29-.29Z"/><path class="j" d="M983.6,181.07c.39-1.75,.61-3.53,.67-5.31,.04-1.52,.18-3.34-.67-4.66-.14-.22-.42-.29-.64-.15-.1,.06-.17,.15-.2,.26-.44,1.33-.11,2.82-.13,4.22-.02,1.22-.13,2.44-.33,3.65-1.55-1.87-2.54-3.93-3.74-6.13-.22-.41-.97-.25-.92,.25,.35,3.16,2.39,6.04,4.59,8.24,.33,.32,.85,.32,1.17-.01,.09-.09,.16-.21,.2-.34Z"/><path class="j" d="M938.24,247.62c1.36-3.51,2.3-7.75,1.54-11.5-.15-.74-1.18-.5-1.23,.17-.3,3.31-.45,6.34-1.33,9.48-2.43-3.57-2.95-7.68-2.43-12,.04-.31-.42-.32-.51-.07-1.8,4.79-.48,10.15,2.57,14.11,.23,.36,.71,.47,1.08,.24,.15-.1,.27-.25,.32-.42Z"/><path class="j" d="M991.95,228.46c1.58-.04,1.87-2.32,2.14-3.41,.7-2.78,1.64-6.05,1.34-8.94,.04-.33-.18-.63-.51-.67-.33-.04-.63,.18-.67,.51-.5,1.54-.59,3.18-.88,4.77-.25,1.42-.37,3.48-1.05,4.76-.46,.87-.37,1.13-1.26,.11-.46-.68-.79-1.45-.96-2.26-.44-1.65-.69-3.35-.73-5.06,0-.2-.15-.36-.35-.36-.16,0-.3,.11-.35,.26-.55,2.19-.42,4.5,.39,6.61,.42,1.16,1.25,3.71,2.88,3.67Z"/></g></g></svg>