<svg width="563" height="307" viewBox="0 0 563 307" fill="none" xmlns="http://www.w3.org/2000/svg">
<rect width="562.5" height="307" fill="white"/>
<path d="M39.8 41.152C41.576 41.152 43.128 41.504 44.456 42.208C45.784 42.912 46.808 43.904 47.528 45.184C48.264 46.448 48.632 47.912 48.632 49.576C48.632 51.224 48.264 52.688 47.528 53.968C46.808 55.248 45.776 56.24 44.432 56.944C43.104 57.648 41.56 58 39.8 58H33.488V41.152H39.8ZM39.536 54.448C41.088 54.448 42.296 54.024 43.16 53.176C44.024 52.328 44.456 51.128 44.456 49.576C44.456 48.024 44.024 46.816 43.16 45.952C42.296 45.088 41.088 44.656 39.536 44.656H37.592V54.448H39.536ZM55.0295 46.84C55.5095 46.104 56.1095 45.528 56.8295 45.112C57.5495 44.68 58.3495 44.464 59.2295 44.464V48.808H58.1015C57.0775 48.808 56.3095 49.032 55.7975 49.48C55.2855 49.912 55.0295 50.68 55.0295 51.784V58H50.9255V44.608H55.0295V46.84ZM67.2871 58.192C65.9751 58.192 64.7911 57.912 63.7351 57.352C62.6951 56.792 61.8711 55.992 61.2631 54.952C60.6711 53.912 60.3751 52.696 60.3751 51.304C60.3751 49.928 60.6791 48.72 61.2871 47.68C61.8951 46.624 62.7271 45.816 63.7831 45.256C64.8391 44.696 66.0231 44.416 67.3351 44.416C68.6471 44.416 69.8311 44.696 70.8871 45.256C71.9431 45.816 72.7751 46.624 73.3831 47.68C73.9911 48.72 74.2951 49.928 74.2951 51.304C74.2951 52.68 73.9831 53.896 73.3591 54.952C72.7511 55.992 71.9111 56.792 70.8391 57.352C69.7831 57.912 68.5991 58.192 67.2871 58.192ZM67.2871 54.64C68.0711 54.64 68.7351 54.352 69.2791 53.776C69.8391 53.2 70.1191 52.376 70.1191 51.304C70.1191 50.232 69.8471 49.408 69.3031 48.832C68.7751 48.256 68.1191 47.968 67.3351 47.968C66.5351 47.968 65.8711 48.256 65.3431 48.832C64.8151 49.392 64.5511 50.216 64.5511 51.304C64.5511 52.376 64.8071 53.2 65.3191 53.776C65.8471 54.352 66.5031 54.64 67.2871 54.64ZM80.5764 46.504C80.9764 45.88 81.5284 45.376 82.2324 44.992C82.9364 44.608 83.7604 44.416 84.7044 44.416C85.8084 44.416 86.8084 44.696 87.7044 45.256C88.6004 45.816 89.3044 46.616 89.8164 47.656C90.3444 48.696 90.6084 49.904 90.6084 51.28C90.6084 52.656 90.3444 53.872 89.8164 54.928C89.3044 55.968 88.6004 56.776 87.7044 57.352C86.8084 57.912 85.8084 58.192 84.7044 58.192C83.7764 58.192 82.9524 58 82.2324 57.616C81.5284 57.232 80.9764 56.736 80.5764 56.128V64.384H76.4724V44.608H80.5764V46.504ZM86.4324 51.28C86.4324 50.256 86.1444 49.456 85.5684 48.88C85.0084 48.288 84.3124 47.992 83.4804 47.992C82.6644 47.992 81.9684 48.288 81.3924 48.88C80.8324 49.472 80.5524 50.28 80.5524 51.304C80.5524 52.328 80.8324 53.136 81.3924 53.728C81.9684 54.32 82.6644 54.616 83.4804 54.616C84.2964 54.616 84.9924 54.32 85.5684 53.728C86.1444 53.12 86.4324 52.304 86.4324 51.28ZM103.081 47.872V51.28H92.5214V47.872H103.081ZM114.651 58.168C113.067 58.168 111.611 57.8 110.283 57.064C108.971 56.328 107.923 55.304 107.139 53.992C106.371 52.664 105.987 51.176 105.987 49.528C105.987 47.88 106.371 46.4 107.139 45.088C107.923 43.776 108.971 42.752 110.283 42.016C111.611 41.28 113.067 40.912 114.651 40.912C116.235 40.912 117.683 41.28 118.995 42.016C120.323 42.752 121.363 43.776 122.115 45.088C122.883 46.4 123.267 47.88 123.267 49.528C123.267 51.176 122.883 52.664 122.115 53.992C121.347 55.304 120.307 56.328 118.995 57.064C117.683 57.8 116.235 58.168 114.651 58.168ZM114.651 54.424C115.995 54.424 117.067 53.976 117.867 53.08C118.683 52.184 119.091 51 119.091 49.528C119.091 48.04 118.683 46.856 117.867 45.976C117.067 45.08 115.995 44.632 114.651 44.632C113.291 44.632 112.203 45.072 111.387 45.952C110.587 46.832 110.187 48.024 110.187 49.528C110.187 51.016 110.587 52.208 111.387 53.104C112.203 53.984 113.291 54.424 114.651 54.424ZM132.271 48.016H130.062V58H125.959V48.016H124.471V44.608H125.959V44.224C125.959 42.576 126.431 41.328 127.375 40.48C128.319 39.616 129.703 39.184 131.527 39.184C131.831 39.184 132.055 39.192 132.199 39.208V42.688C131.415 42.64 130.863 42.752 130.543 43.024C130.223 43.296 130.062 43.784 130.062 44.488V44.608H132.271V48.016ZM140.919 48.016H138.711V58H134.607V48.016H133.119V44.608H134.607V44.224C134.607 42.576 135.079 41.328 136.023 40.48C136.967 39.616 138.351 39.184 140.175 39.184C140.479 39.184 140.703 39.192 140.847 39.208V42.688C140.063 42.64 139.511 42.752 139.191 43.024C138.871 43.296 138.711 43.784 138.711 44.488V44.608H140.919V48.016ZM148.295 58.192C147.127 58.192 146.087 57.992 145.175 57.592C144.263 57.192 143.543 56.648 143.015 55.96C142.487 55.256 142.191 54.472 142.127 53.608H146.183C146.231 54.072 146.447 54.448 146.831 54.736C147.215 55.024 147.687 55.168 148.247 55.168C148.759 55.168 149.151 55.072 149.423 54.88C149.711 54.672 149.855 54.408 149.855 54.088C149.855 53.704 149.655 53.424 149.255 53.248C148.855 53.056 148.207 52.848 147.311 52.624C146.351 52.4 145.551 52.168 144.911 51.928C144.271 51.672 143.719 51.28 143.255 50.752C142.791 50.208 142.559 49.48 142.559 48.568C142.559 47.8 142.767 47.104 143.183 46.48C143.615 45.84 144.239 45.336 145.055 44.968C145.887 44.6 146.871 44.416 148.007 44.416C149.687 44.416 151.007 44.832 151.967 45.664C152.943 46.496 153.503 47.6 153.647 48.976H149.855C149.791 48.512 149.583 48.144 149.231 47.872C148.895 47.6 148.447 47.464 147.887 47.464C147.407 47.464 147.039 47.56 146.783 47.752C146.527 47.928 146.399 48.176 146.399 48.496C146.399 48.88 146.599 49.168 146.999 49.36C147.415 49.552 148.055 49.744 148.919 49.936C149.911 50.192 150.719 50.448 151.343 50.704C151.967 50.944 152.511 51.344 152.975 51.904C153.455 52.448 153.703 53.184 153.719 54.112C153.719 54.896 153.495 55.6 153.047 56.224C152.615 56.832 151.983 57.312 151.151 57.664C150.335 58.016 149.383 58.192 148.295 58.192Z" fill="#B5BFC8"/>
<path d="M38.072 72.636V73.524H35.792V81H34.7V73.524H32.408V72.636H38.072ZM42.6802 74.304C43.1762 74.304 43.6242 74.412 44.0242 74.628C44.4242 74.836 44.7362 75.152 44.9602 75.576C45.1922 76 45.3082 76.516 45.3082 77.124V81H44.2282V77.28C44.2282 76.624 44.0642 76.124 43.7362 75.78C43.4082 75.428 42.9602 75.252 42.3922 75.252C41.8162 75.252 41.3562 75.432 41.0122 75.792C40.6762 76.152 40.5082 76.676 40.5082 77.364V81H39.4162V72.12H40.5082V75.36C40.7242 75.024 41.0202 74.764 41.3962 74.58C41.7802 74.396 42.2082 74.304 42.6802 74.304ZM53.092 77.46C53.092 77.668 53.08 77.888 53.056 78.12H47.8C47.84 78.768 48.06 79.276 48.46 79.644C48.868 80.004 49.36 80.184 49.936 80.184C50.408 80.184 50.8 80.076 51.112 79.86C51.432 79.636 51.656 79.34 51.784 78.972H52.96C52.784 79.604 52.432 80.12 51.904 80.52C51.376 80.912 50.72 81.108 49.936 81.108C49.312 81.108 48.752 80.968 48.256 80.688C47.768 80.408 47.384 80.012 47.104 79.5C46.824 78.98 46.684 78.38 46.684 77.7C46.684 77.02 46.82 76.424 47.092 75.912C47.364 75.4 47.744 75.008 48.232 74.736C48.728 74.456 49.296 74.316 49.936 74.316C50.56 74.316 51.112 74.452 51.592 74.724C52.072 74.996 52.44 75.372 52.696 75.852C52.96 76.324 53.092 76.86 53.092 77.46ZM51.964 77.232C51.964 76.816 51.872 76.46 51.688 76.164C51.504 75.86 51.252 75.632 50.932 75.48C50.62 75.32 50.272 75.24 49.888 75.24C49.336 75.24 48.864 75.416 48.472 75.768C48.088 76.12 47.868 76.608 47.812 77.232H51.964ZM57.3246 77.688C57.3246 77.016 57.4606 76.428 57.7326 75.924C58.0046 75.412 58.3766 75.016 58.8486 74.736C59.3286 74.456 59.8646 74.316 60.4566 74.316C61.0246 74.316 61.5206 74.444 61.9446 74.7C62.3766 74.948 62.6926 75.256 62.8926 75.624V74.424H63.9966V84.12H62.8926V79.788C62.6846 80.156 62.3646 80.468 61.9326 80.724C61.5006 80.98 60.9966 81.108 60.4206 81.108C59.8446 81.108 59.3206 80.964 58.8486 80.676C58.3766 80.388 58.0046 79.984 57.7326 79.464C57.4606 78.944 57.3246 78.352 57.3246 77.688ZM62.8926 77.7C62.8926 77.204 62.7926 76.772 62.5926 76.404C62.3926 76.036 62.1206 75.756 61.7766 75.564C61.4406 75.364 61.0686 75.264 60.6606 75.264C60.2526 75.264 59.8806 75.36 59.5446 75.552C59.2086 75.744 58.9406 76.024 58.7406 76.392C58.5406 76.76 58.4406 77.192 58.4406 77.688C58.4406 78.192 58.5406 78.632 58.7406 79.008C58.9406 79.376 59.2086 79.66 59.5446 79.86C59.8806 80.052 60.2526 80.148 60.6606 80.148C61.0686 80.148 61.4406 80.052 61.7766 79.86C62.1206 79.66 62.3926 79.376 62.5926 79.008C62.7926 78.632 62.8926 78.196 62.8926 77.7ZM71.674 74.424V81H70.582V80.028C70.374 80.364 70.082 80.628 69.706 80.82C69.338 81.004 68.93 81.096 68.482 81.096C67.97 81.096 67.51 80.992 67.102 80.784C66.694 80.568 66.37 80.248 66.13 79.824C65.898 79.4 65.782 78.884 65.782 78.276V74.424H66.862V78.132C66.862 78.78 67.026 79.28 67.354 79.632C67.682 79.976 68.13 80.148 68.698 80.148C69.282 80.148 69.742 79.968 70.078 79.608C70.414 79.248 70.582 78.724 70.582 78.036V74.424H71.674ZM79.5178 77.46C79.5178 77.668 79.5058 77.888 79.4818 78.12H74.2258C74.2658 78.768 74.4858 79.276 74.8858 79.644C75.2938 80.004 75.7858 80.184 76.3618 80.184C76.8338 80.184 77.2258 80.076 77.5378 79.86C77.8578 79.636 78.0818 79.34 78.2098 78.972H79.3858C79.2098 79.604 78.8578 80.12 78.3298 80.52C77.8018 80.912 77.1458 81.108 76.3618 81.108C75.7378 81.108 75.1778 80.968 74.6818 80.688C74.1938 80.408 73.8098 80.012 73.5298 79.5C73.2498 78.98 73.1098 78.38 73.1098 77.7C73.1098 77.02 73.2458 76.424 73.5178 75.912C73.7898 75.4 74.1698 75.008 74.6578 74.736C75.1538 74.456 75.7218 74.316 76.3618 74.316C76.9858 74.316 77.5378 74.452 78.0178 74.724C78.4978 74.996 78.8658 75.372 79.1218 75.852C79.3858 76.324 79.5178 76.86 79.5178 77.46ZM78.3898 77.232C78.3898 76.816 78.2978 76.46 78.1138 76.164C77.9298 75.86 77.6778 75.632 77.3578 75.48C77.0458 75.32 76.6978 75.24 76.3138 75.24C75.7618 75.24 75.2898 75.416 74.8978 75.768C74.5138 76.12 74.2938 76.608 74.2378 77.232H78.3898ZM83.2872 81.108C82.7832 81.108 82.3312 81.024 81.9312 80.856C81.5312 80.68 81.2152 80.44 80.9832 80.136C80.7512 79.824 80.6232 79.468 80.5992 79.068H81.7272C81.7592 79.396 81.9112 79.664 82.1832 79.872C82.4632 80.08 82.8272 80.184 83.2752 80.184C83.6912 80.184 84.0192 80.092 84.2592 79.908C84.4992 79.724 84.6192 79.492 84.6192 79.212C84.6192 78.924 84.4912 78.712 84.2352 78.576C83.9792 78.432 83.5832 78.292 83.0472 78.156C82.5592 78.028 82.1592 77.9 81.8472 77.772C81.5432 77.636 81.2792 77.44 81.0552 77.184C80.8392 76.92 80.7312 76.576 80.7312 76.152C80.7312 75.816 80.8312 75.508 81.0312 75.228C81.2312 74.948 81.5152 74.728 81.8832 74.568C82.2512 74.4 82.6712 74.316 83.1432 74.316C83.8712 74.316 84.4592 74.5 84.9072 74.868C85.3552 75.236 85.5952 75.74 85.6272 76.38H84.5352C84.5112 76.036 84.3712 75.76 84.1152 75.552C83.8672 75.344 83.5312 75.24 83.1072 75.24C82.7152 75.24 82.4032 75.324 82.1712 75.492C81.9392 75.66 81.8232 75.88 81.8232 76.152C81.8232 76.368 81.8912 76.548 82.0272 76.692C82.1712 76.828 82.3472 76.94 82.5552 77.028C82.7712 77.108 83.0672 77.2 83.4432 77.304C83.9152 77.432 84.2992 77.56 84.5952 77.688C84.8912 77.808 85.1432 77.992 85.3512 78.24C85.5672 78.488 85.6792 78.812 85.6872 79.212C85.6872 79.572 85.5872 79.896 85.3872 80.184C85.1872 80.472 84.9032 80.7 84.5352 80.868C84.1752 81.028 83.7592 81.108 83.2872 81.108ZM88.5607 75.324V79.2C88.5607 79.52 88.6287 79.748 88.7647 79.884C88.9007 80.012 89.1367 80.076 89.4727 80.076H90.2767V81H89.2927C88.6847 81 88.2287 80.86 87.9247 80.58C87.6207 80.3 87.4687 79.84 87.4687 79.2V75.324H86.6167V74.424H87.4687V72.768H88.5607V74.424H90.2767V75.324H88.5607ZM92.1638 73.356C91.9558 73.356 91.7798 73.284 91.6358 73.14C91.4918 72.996 91.4198 72.82 91.4198 72.612C91.4198 72.404 91.4918 72.228 91.6358 72.084C91.7798 71.94 91.9558 71.868 92.1638 71.868C92.3638 71.868 92.5318 71.94 92.6678 72.084C92.8118 72.228 92.8838 72.404 92.8838 72.612C92.8838 72.82 92.8118 72.996 92.6678 73.14C92.5318 73.284 92.3638 73.356 92.1638 73.356ZM92.6918 74.424V81H91.5998V74.424H92.6918ZM97.4209 81.108C96.8049 81.108 96.2449 80.968 95.7409 80.688C95.2449 80.408 94.8529 80.012 94.5649 79.5C94.2849 78.98 94.1449 78.38 94.1449 77.7C94.1449 77.028 94.2889 76.436 94.5769 75.924C94.8729 75.404 95.2729 75.008 95.7769 74.736C96.2809 74.456 96.8449 74.316 97.4689 74.316C98.0929 74.316 98.6569 74.456 99.1609 74.736C99.6649 75.008 100.061 75.4 100.349 75.912C100.645 76.424 100.793 77.02 100.793 77.7C100.793 78.38 100.641 78.98 100.337 79.5C100.041 80.012 99.6369 80.408 99.1249 80.688C98.6129 80.968 98.0449 81.108 97.4209 81.108ZM97.4209 80.148C97.8129 80.148 98.1809 80.056 98.5249 79.872C98.8689 79.688 99.1449 79.412 99.3529 79.044C99.5689 78.676 99.6769 78.228 99.6769 77.7C99.6769 77.172 99.5729 76.724 99.3649 76.356C99.1569 75.988 98.8849 75.716 98.5489 75.54C98.2129 75.356 97.8489 75.264 97.4569 75.264C97.0569 75.264 96.6889 75.356 96.3529 75.54C96.0249 75.716 95.7609 75.988 95.5609 76.356C95.3609 76.724 95.2609 77.172 95.2609 77.7C95.2609 78.236 95.3569 78.688 95.5489 79.056C95.7489 79.424 96.0129 79.7 96.3409 79.884C96.6689 80.06 97.0289 80.148 97.4209 80.148ZM105.433 74.304C106.233 74.304 106.881 74.548 107.377 75.036C107.873 75.516 108.121 76.212 108.121 77.124V81H107.041V77.28C107.041 76.624 106.877 76.124 106.549 75.78C106.221 75.428 105.773 75.252 105.205 75.252C104.629 75.252 104.169 75.432 103.825 75.792C103.489 76.152 103.321 76.676 103.321 77.364V81H102.229V74.424H103.321V75.36C103.537 75.024 103.829 74.764 104.197 74.58C104.573 74.396 104.985 74.304 105.433 74.304ZM112.232 81.108C111.728 81.108 111.276 81.024 110.876 80.856C110.476 80.68 110.16 80.44 109.928 80.136C109.696 79.824 109.568 79.468 109.544 79.068H110.672C110.704 79.396 110.856 79.664 111.128 79.872C111.408 80.08 111.772 80.184 112.22 80.184C112.636 80.184 112.964 80.092 113.204 79.908C113.444 79.724 113.564 79.492 113.564 79.212C113.564 78.924 113.436 78.712 113.18 78.576C112.924 78.432 112.528 78.292 111.992 78.156C111.504 78.028 111.104 77.9 110.792 77.772C110.488 77.636 110.224 77.44 110 77.184C109.784 76.92 109.676 76.576 109.676 76.152C109.676 75.816 109.776 75.508 109.976 75.228C110.176 74.948 110.46 74.728 110.828 74.568C111.196 74.4 111.616 74.316 112.088 74.316C112.816 74.316 113.404 74.5 113.852 74.868C114.3 75.236 114.54 75.74 114.572 76.38H113.48C113.456 76.036 113.316 75.76 113.06 75.552C112.812 75.344 112.476 75.24 112.052 75.24C111.66 75.24 111.348 75.324 111.116 75.492C110.884 75.66 110.768 75.88 110.768 76.152C110.768 76.368 110.836 76.548 110.972 76.692C111.116 76.828 111.292 76.94 111.5 77.028C111.716 77.108 112.012 77.2 112.388 77.304C112.86 77.432 113.244 77.56 113.54 77.688C113.836 77.808 114.088 77.992 114.296 78.24C114.512 78.488 114.624 78.812 114.632 79.212C114.632 79.572 114.532 79.896 114.332 80.184C114.132 80.472 113.848 80.7 113.48 80.868C113.12 81.028 112.704 81.108 112.232 81.108ZM128.133 74.424L126.081 81H124.953L123.369 75.78L121.785 81H120.657L118.593 74.424H119.709L121.221 79.944L122.853 74.424H123.969L125.565 79.956L127.053 74.424H128.133ZM132.481 74.304C132.977 74.304 133.425 74.412 133.825 74.628C134.225 74.836 134.537 75.152 134.761 75.576C134.993 76 135.109 76.516 135.109 77.124V81H134.029V77.28C134.029 76.624 133.865 76.124 133.537 75.78C133.209 75.428 132.761 75.252 132.193 75.252C131.617 75.252 131.157 75.432 130.813 75.792C130.477 76.152 130.309 76.676 130.309 77.364V81H129.217V72.12H130.309V75.36C130.525 75.024 130.821 74.764 131.197 74.58C131.581 74.396 132.009 74.304 132.481 74.304ZM142.893 77.46C142.893 77.668 142.881 77.888 142.857 78.12H137.601C137.641 78.768 137.861 79.276 138.261 79.644C138.669 80.004 139.161 80.184 139.737 80.184C140.209 80.184 140.601 80.076 140.913 79.86C141.233 79.636 141.457 79.34 141.585 78.972H142.761C142.585 79.604 142.233 80.12 141.705 80.52C141.177 80.912 140.521 81.108 139.737 81.108C139.113 81.108 138.553 80.968 138.057 80.688C137.569 80.408 137.185 80.012 136.905 79.5C136.625 78.98 136.485 78.38 136.485 77.7C136.485 77.02 136.621 76.424 136.893 75.912C137.165 75.4 137.545 75.008 138.033 74.736C138.529 74.456 139.097 74.316 139.737 74.316C140.361 74.316 140.913 74.452 141.393 74.724C141.873 74.996 142.241 75.372 142.497 75.852C142.761 76.324 142.893 76.86 142.893 77.46ZM141.765 77.232C141.765 76.816 141.673 76.46 141.489 76.164C141.305 75.86 141.053 75.632 140.733 75.48C140.421 75.32 140.073 75.24 139.689 75.24C139.137 75.24 138.665 75.416 138.273 75.768C137.889 76.12 137.669 76.608 137.613 77.232H141.765ZM145.426 75.492C145.618 75.116 145.89 74.824 146.242 74.616C146.602 74.408 147.038 74.304 147.55 74.304V75.432H147.262C146.038 75.432 145.426 76.096 145.426 77.424V81H144.334V74.424H145.426V75.492ZM154.811 77.46C154.811 77.668 154.799 77.888 154.775 78.12H149.519C149.559 78.768 149.779 79.276 150.179 79.644C150.587 80.004 151.079 80.184 151.655 80.184C152.127 80.184 152.519 80.076 152.831 79.86C153.151 79.636 153.375 79.34 153.503 78.972H154.679C154.503 79.604 154.151 80.12 153.623 80.52C153.095 80.912 152.439 81.108 151.655 81.108C151.031 81.108 150.471 80.968 149.975 80.688C149.487 80.408 149.103 80.012 148.823 79.5C148.543 78.98 148.403 78.38 148.403 77.7C148.403 77.02 148.539 76.424 148.811 75.912C149.083 75.4 149.463 75.008 149.951 74.736C150.447 74.456 151.015 74.316 151.655 74.316C152.279 74.316 152.831 74.452 153.311 74.724C153.791 74.996 154.159 75.372 154.415 75.852C154.679 76.324 154.811 76.86 154.811 77.46ZM153.683 77.232C153.683 76.816 153.591 76.46 153.407 76.164C153.223 75.86 152.971 75.632 152.651 75.48C152.339 75.32 151.991 75.24 151.607 75.24C151.055 75.24 150.583 75.416 150.191 75.768C149.807 76.12 149.587 76.608 149.531 77.232H153.683ZM160.543 75.636C160.759 75.26 161.079 74.948 161.503 74.7C161.935 74.444 162.435 74.316 163.003 74.316C163.587 74.316 164.115 74.456 164.587 74.736C165.067 75.016 165.443 75.412 165.715 75.924C165.987 76.428 166.123 77.016 166.123 77.688C166.123 78.352 165.987 78.944 165.715 79.464C165.443 79.984 165.067 80.388 164.587 80.676C164.115 80.964 163.587 81.108 163.003 81.108C162.443 81.108 161.947 80.984 161.515 80.736C161.091 80.48 160.767 80.164 160.543 79.788V84.12H159.451V74.424H160.543V75.636ZM165.007 77.688C165.007 77.192 164.907 76.76 164.707 76.392C164.507 76.024 164.235 75.744 163.891 75.552C163.555 75.36 163.183 75.264 162.775 75.264C162.375 75.264 162.003 75.364 161.659 75.564C161.323 75.756 161.051 76.04 160.843 76.416C160.643 76.784 160.543 77.212 160.543 77.7C160.543 78.196 160.643 78.632 160.843 79.008C161.051 79.376 161.323 79.66 161.659 79.86C162.003 80.052 162.375 80.148 162.775 80.148C163.183 80.148 163.555 80.052 163.891 79.86C164.235 79.66 164.507 79.376 164.707 79.008C164.907 78.632 165.007 78.192 165.007 77.688ZM173.561 77.46C173.561 77.668 173.549 77.888 173.525 78.12H168.269C168.309 78.768 168.529 79.276 168.929 79.644C169.337 80.004 169.829 80.184 170.405 80.184C170.877 80.184 171.269 80.076 171.581 79.86C171.901 79.636 172.125 79.34 172.253 78.972H173.429C173.253 79.604 172.901 80.12 172.373 80.52C171.845 80.912 171.189 81.108 170.405 81.108C169.781 81.108 169.221 80.968 168.725 80.688C168.237 80.408 167.853 80.012 167.573 79.5C167.293 78.98 167.153 78.38 167.153 77.7C167.153 77.02 167.289 76.424 167.561 75.912C167.833 75.4 168.213 75.008 168.701 74.736C169.197 74.456 169.765 74.316 170.405 74.316C171.029 74.316 171.581 74.452 172.061 74.724C172.541 74.996 172.909 75.372 173.165 75.852C173.429 76.324 173.561 76.86 173.561 77.46ZM172.433 77.232C172.433 76.816 172.341 76.46 172.157 76.164C171.973 75.86 171.721 75.632 171.401 75.48C171.089 75.32 170.741 75.24 170.357 75.24C169.805 75.24 169.333 75.416 168.941 75.768C168.557 76.12 168.337 76.608 168.281 77.232H172.433ZM177.87 81.108C177.254 81.108 176.694 80.968 176.19 80.688C175.694 80.408 175.302 80.012 175.014 79.5C174.734 78.98 174.594 78.38 174.594 77.7C174.594 77.028 174.738 76.436 175.026 75.924C175.322 75.404 175.722 75.008 176.226 74.736C176.73 74.456 177.294 74.316 177.918 74.316C178.542 74.316 179.106 74.456 179.61 74.736C180.114 75.008 180.51 75.4 180.798 75.912C181.094 76.424 181.242 77.02 181.242 77.7C181.242 78.38 181.09 78.98 180.786 79.5C180.49 80.012 180.086 80.408 179.574 80.688C179.062 80.968 178.494 81.108 177.87 81.108ZM177.87 80.148C178.262 80.148 178.63 80.056 178.974 79.872C179.318 79.688 179.594 79.412 179.802 79.044C180.018 78.676 180.126 78.228 180.126 77.7C180.126 77.172 180.022 76.724 179.814 76.356C179.606 75.988 179.334 75.716 178.998 75.54C178.662 75.356 178.298 75.264 177.906 75.264C177.506 75.264 177.138 75.356 176.802 75.54C176.474 75.716 176.21 75.988 176.01 76.356C175.81 76.724 175.71 77.172 175.71 77.7C175.71 78.236 175.806 78.688 175.998 79.056C176.198 79.424 176.462 79.7 176.79 79.884C177.118 80.06 177.478 80.148 177.87 80.148ZM183.77 75.636C183.986 75.26 184.306 74.948 184.73 74.7C185.162 74.444 185.662 74.316 186.23 74.316C186.814 74.316 187.342 74.456 187.814 74.736C188.294 75.016 188.67 75.412 188.942 75.924C189.214 76.428 189.35 77.016 189.35 77.688C189.35 78.352 189.214 78.944 188.942 79.464C188.67 79.984 188.294 80.388 187.814 80.676C187.342 80.964 186.814 81.108 186.23 81.108C185.67 81.108 185.174 80.984 184.742 80.736C184.318 80.48 183.994 80.164 183.77 79.788V84.12H182.678V74.424H183.77V75.636ZM188.234 77.688C188.234 77.192 188.134 76.76 187.934 76.392C187.734 76.024 187.462 75.744 187.118 75.552C186.782 75.36 186.41 75.264 186.002 75.264C185.602 75.264 185.23 75.364 184.886 75.564C184.55 75.756 184.278 76.04 184.07 76.416C183.87 76.784 183.77 77.212 183.77 77.7C183.77 78.196 183.87 78.632 184.07 79.008C184.278 79.376 184.55 79.66 184.886 79.86C185.23 80.052 185.602 80.148 186.002 80.148C186.41 80.148 186.782 80.052 187.118 79.86C187.462 79.66 187.734 79.376 187.934 79.008C188.134 78.632 188.234 78.192 188.234 77.688ZM191.879 72.12V81H190.787V72.12H191.879ZM199.74 77.46C199.74 77.668 199.728 77.888 199.704 78.12H194.448C194.488 78.768 194.708 79.276 195.108 79.644C195.516 80.004 196.008 80.184 196.584 80.184C197.056 80.184 197.448 80.076 197.76 79.86C198.08 79.636 198.304 79.34 198.432 78.972H199.608C199.432 79.604 199.08 80.12 198.552 80.52C198.024 80.912 197.368 81.108 196.584 81.108C195.96 81.108 195.4 80.968 194.904 80.688C194.416 80.408 194.032 80.012 193.752 79.5C193.472 78.98 193.332 78.38 193.332 77.7C193.332 77.02 193.468 76.424 193.74 75.912C194.012 75.4 194.392 75.008 194.88 74.736C195.376 74.456 195.944 74.316 196.584 74.316C197.208 74.316 197.76 74.452 198.24 74.724C198.72 74.996 199.088 75.372 199.344 75.852C199.608 76.324 199.74 76.86 199.74 77.46ZM198.612 77.232C198.612 76.816 198.52 76.46 198.336 76.164C198.152 75.86 197.9 75.632 197.58 75.48C197.268 75.32 196.92 75.24 196.536 75.24C195.984 75.24 195.512 75.416 195.12 75.768C194.736 76.12 194.516 76.608 194.46 77.232H198.612ZM203.973 77.688C203.973 77.016 204.109 76.428 204.381 75.924C204.653 75.412 205.025 75.016 205.497 74.736C205.977 74.456 206.513 74.316 207.105 74.316C207.617 74.316 208.093 74.436 208.533 74.676C208.973 74.908 209.309 75.216 209.541 75.6V72.12H210.645V81H209.541V79.764C209.325 80.156 209.005 80.48 208.581 80.736C208.157 80.984 207.661 81.108 207.093 81.108C206.509 81.108 205.977 80.964 205.497 80.676C205.025 80.388 204.653 79.984 204.381 79.464C204.109 78.944 203.973 78.352 203.973 77.688ZM209.541 77.7C209.541 77.204 209.441 76.772 209.241 76.404C209.041 76.036 208.769 75.756 208.425 75.564C208.089 75.364 207.717 75.264 207.309 75.264C206.901 75.264 206.529 75.36 206.193 75.552C205.857 75.744 205.589 76.024 205.389 76.392C205.189 76.76 205.089 77.192 205.089 77.688C205.089 78.192 205.189 78.632 205.389 79.008C205.589 79.376 205.857 79.66 206.193 79.86C206.529 80.052 206.901 80.148 207.309 80.148C207.717 80.148 208.089 80.052 208.425 79.86C208.769 79.66 209.041 79.376 209.241 79.008C209.441 78.632 209.541 78.196 209.541 77.7ZM213.582 75.492C213.774 75.116 214.046 74.824 214.398 74.616C214.758 74.408 215.194 74.304 215.706 74.304V75.432H215.418C214.194 75.432 213.582 76.096 213.582 77.424V81H212.49V74.424H213.582V75.492ZM219.835 81.108C219.219 81.108 218.659 80.968 218.155 80.688C217.659 80.408 217.267 80.012 216.979 79.5C216.699 78.98 216.559 78.38 216.559 77.7C216.559 77.028 216.703 76.436 216.991 75.924C217.287 75.404 217.687 75.008 218.191 74.736C218.695 74.456 219.259 74.316 219.883 74.316C220.507 74.316 221.071 74.456 221.575 74.736C222.079 75.008 222.475 75.4 222.763 75.912C223.059 76.424 223.207 77.02 223.207 77.7C223.207 78.38 223.055 78.98 222.751 79.5C222.455 80.012 222.051 80.408 221.539 80.688C221.027 80.968 220.459 81.108 219.835 81.108ZM219.835 80.148C220.227 80.148 220.595 80.056 220.939 79.872C221.283 79.688 221.559 79.412 221.767 79.044C221.983 78.676 222.091 78.228 222.091 77.7C222.091 77.172 221.987 76.724 221.779 76.356C221.571 75.988 221.299 75.716 220.963 75.54C220.627 75.356 220.263 75.264 219.871 75.264C219.471 75.264 219.103 75.356 218.767 75.54C218.439 75.716 218.175 75.988 217.975 76.356C217.775 76.724 217.675 77.172 217.675 77.7C217.675 78.236 217.771 78.688 217.963 79.056C218.163 79.424 218.427 79.7 218.755 79.884C219.083 80.06 219.443 80.148 219.835 80.148ZM225.735 75.636C225.951 75.26 226.271 74.948 226.695 74.7C227.127 74.444 227.627 74.316 228.195 74.316C228.779 74.316 229.307 74.456 229.779 74.736C230.259 75.016 230.635 75.412 230.907 75.924C231.179 76.428 231.315 77.016 231.315 77.688C231.315 78.352 231.179 78.944 230.907 79.464C230.635 79.984 230.259 80.388 229.779 80.676C229.307 80.964 228.779 81.108 228.195 81.108C227.635 81.108 227.139 80.984 226.707 80.736C226.283 80.48 225.959 80.164 225.735 79.788V84.12H224.643V74.424H225.735V75.636ZM230.199 77.688C230.199 77.192 230.099 76.76 229.899 76.392C229.699 76.024 229.427 75.744 229.083 75.552C228.747 75.36 228.375 75.264 227.967 75.264C227.567 75.264 227.195 75.364 226.851 75.564C226.515 75.756 226.243 76.04 226.035 76.416C225.835 76.784 225.735 77.212 225.735 77.7C225.735 78.196 225.835 78.632 226.035 79.008C226.243 79.376 226.515 79.66 226.851 79.86C227.195 80.052 227.567 80.148 227.967 80.148C228.375 80.148 228.747 80.052 229.083 79.86C229.427 79.66 229.699 79.376 229.899 79.008C230.099 78.632 230.199 78.192 230.199 77.688ZM238.819 81.108C238.203 81.108 237.643 80.968 237.139 80.688C236.643 80.408 236.251 80.012 235.963 79.5C235.683 78.98 235.543 78.38 235.543 77.7C235.543 77.028 235.687 76.436 235.975 75.924C236.271 75.404 236.671 75.008 237.175 74.736C237.679 74.456 238.243 74.316 238.867 74.316C239.491 74.316 240.055 74.456 240.559 74.736C241.063 75.008 241.459 75.4 241.747 75.912C242.043 76.424 242.191 77.02 242.191 77.7C242.191 78.38 242.039 78.98 241.735 79.5C241.439 80.012 241.035 80.408 240.523 80.688C240.011 80.968 239.443 81.108 238.819 81.108ZM238.819 80.148C239.211 80.148 239.579 80.056 239.923 79.872C240.267 79.688 240.543 79.412 240.751 79.044C240.967 78.676 241.075 78.228 241.075 77.7C241.075 77.172 240.971 76.724 240.763 76.356C240.555 75.988 240.283 75.716 239.947 75.54C239.611 75.356 239.247 75.264 238.855 75.264C238.455 75.264 238.087 75.356 237.751 75.54C237.423 75.716 237.159 75.988 236.959 76.356C236.759 76.724 236.659 77.172 236.659 77.7C236.659 78.236 236.755 78.688 236.947 79.056C237.147 79.424 237.411 79.7 237.739 79.884C238.067 80.06 238.427 80.148 238.819 80.148ZM246.303 75.324H244.923V81H243.831V75.324H242.979V74.424H243.831V73.956C243.831 73.22 244.019 72.684 244.395 72.348C244.779 72.004 245.391 71.832 246.231 71.832V72.744C245.751 72.744 245.411 72.84 245.211 73.032C245.019 73.216 244.923 73.524 244.923 73.956V74.424H246.303V75.324ZM250.252 75.324H248.872V81H247.78V75.324H246.928V74.424H247.78V73.956C247.78 73.22 247.968 72.684 248.344 72.348C248.728 72.004 249.34 71.832 250.18 71.832V72.744C249.7 72.744 249.36 72.84 249.16 73.032C248.968 73.216 248.872 73.524 248.872 73.956V74.424H250.252V75.324ZM260.389 74.424L256.429 84.096H255.301L256.597 80.928L253.945 74.424H255.157L257.221 79.752L259.261 74.424H260.389ZM264.355 81.108C263.739 81.108 263.179 80.968 262.675 80.688C262.179 80.408 261.787 80.012 261.499 79.5C261.219 78.98 261.079 78.38 261.079 77.7C261.079 77.028 261.223 76.436 261.511 75.924C261.807 75.404 262.207 75.008 262.711 74.736C263.215 74.456 263.779 74.316 264.403 74.316C265.027 74.316 265.591 74.456 266.095 74.736C266.599 75.008 266.995 75.4 267.283 75.912C267.579 76.424 267.727 77.02 267.727 77.7C267.727 78.38 267.575 78.98 267.271 79.5C266.975 80.012 266.571 80.408 266.059 80.688C265.547 80.968 264.979 81.108 264.355 81.108ZM264.355 80.148C264.747 80.148 265.115 80.056 265.459 79.872C265.803 79.688 266.079 79.412 266.287 79.044C266.503 78.676 266.611 78.228 266.611 77.7C266.611 77.172 266.507 76.724 266.299 76.356C266.091 75.988 265.819 75.716 265.483 75.54C265.147 75.356 264.783 75.264 264.391 75.264C263.991 75.264 263.623 75.356 263.287 75.54C262.959 75.716 262.695 75.988 262.495 76.356C262.295 76.724 262.195 77.172 262.195 77.7C262.195 78.236 262.291 78.688 262.483 79.056C262.683 79.424 262.947 79.7 263.275 79.884C263.603 80.06 263.963 80.148 264.355 80.148ZM274.994 74.424V81H273.902V80.028C273.694 80.364 273.402 80.628 273.026 80.82C272.658 81.004 272.25 81.096 271.802 81.096C271.29 81.096 270.83 80.992 270.422 80.784C270.014 80.568 269.69 80.248 269.45 79.824C269.218 79.4 269.102 78.884 269.102 78.276V74.424H270.182V78.132C270.182 78.78 270.346 79.28 270.674 79.632C271.002 79.976 271.45 80.148 272.018 80.148C272.602 80.148 273.062 79.968 273.398 79.608C273.734 79.248 273.902 78.724 273.902 78.036V74.424H274.994ZM277.93 75.492C278.122 75.116 278.394 74.824 278.746 74.616C279.106 74.408 279.542 74.304 280.054 74.304V75.432H279.766C278.542 75.432 277.93 76.096 277.93 77.424V81H276.838V74.424H277.93V75.492ZM287.19 75.324H285.81V81H284.718V75.324H283.866V74.424H284.718V73.956C284.718 73.22 284.906 72.684 285.282 72.348C285.666 72.004 286.278 71.832 287.118 71.832V72.744C286.638 72.744 286.298 72.84 286.098 73.032C285.906 73.216 285.81 73.524 285.81 73.956V74.424H287.19V75.324ZM291.331 81.108C290.715 81.108 290.155 80.968 289.651 80.688C289.155 80.408 288.763 80.012 288.475 79.5C288.195 78.98 288.055 78.38 288.055 77.7C288.055 77.028 288.199 76.436 288.487 75.924C288.783 75.404 289.183 75.008 289.687 74.736C290.191 74.456 290.755 74.316 291.379 74.316C292.003 74.316 292.567 74.456 293.071 74.736C293.575 75.008 293.971 75.4 294.259 75.912C294.555 76.424 294.703 77.02 294.703 77.7C294.703 78.38 294.551 78.98 294.247 79.5C293.951 80.012 293.547 80.408 293.035 80.688C292.523 80.968 291.955 81.108 291.331 81.108ZM291.331 80.148C291.723 80.148 292.091 80.056 292.435 79.872C292.779 79.688 293.055 79.412 293.263 79.044C293.479 78.676 293.587 78.228 293.587 77.7C293.587 77.172 293.483 76.724 293.275 76.356C293.067 75.988 292.795 75.716 292.459 75.54C292.123 75.356 291.759 75.264 291.367 75.264C290.967 75.264 290.599 75.356 290.263 75.54C289.935 75.716 289.671 75.988 289.471 76.356C289.271 76.724 289.171 77.172 289.171 77.7C289.171 78.236 289.267 78.688 289.459 79.056C289.659 79.424 289.923 79.7 290.251 79.884C290.579 80.06 290.939 80.148 291.331 80.148ZM297.231 75.492C297.423 75.116 297.695 74.824 298.047 74.616C298.407 74.408 298.843 74.304 299.355 74.304V75.432H299.067C297.843 75.432 297.231 76.096 297.231 77.424V81H296.139V74.424H297.231V75.492ZM308.523 74.304C309.035 74.304 309.491 74.412 309.891 74.628C310.291 74.836 310.607 75.152 310.839 75.576C311.071 76 311.187 76.516 311.187 77.124V81H310.107V77.28C310.107 76.624 309.943 76.124 309.615 75.78C309.295 75.428 308.859 75.252 308.307 75.252C307.739 75.252 307.287 75.436 306.951 75.804C306.615 76.164 306.447 76.688 306.447 77.376V81H305.367V77.28C305.367 76.624 305.203 76.124 304.875 75.78C304.555 75.428 304.119 75.252 303.567 75.252C302.999 75.252 302.547 75.436 302.211 75.804C301.875 76.164 301.707 76.688 301.707 77.376V81H300.615V74.424H301.707V75.372C301.923 75.028 302.211 74.764 302.571 74.58C302.939 74.396 303.343 74.304 303.783 74.304C304.335 74.304 304.823 74.428 305.247 74.676C305.671 74.924 305.987 75.288 306.195 75.768C306.379 75.304 306.683 74.944 307.107 74.688C307.531 74.432 308.003 74.304 308.523 74.304ZM313.327 81.072C313.119 81.072 312.943 81 312.799 80.856C312.655 80.712 312.583 80.536 312.583 80.328C312.583 80.12 312.655 79.944 312.799 79.8C312.943 79.656 313.119 79.584 313.327 79.584C313.527 79.584 313.695 79.656 313.831 79.8C313.975 79.944 314.047 80.12 314.047 80.328C314.047 80.536 313.975 80.712 313.831 80.856C313.695 81 313.527 81.072 313.327 81.072Z" fill="#B5BFC8"/>
<path d="M32.6169 118.507C31.8617 118.166 30.9734 118.502 30.6327 119.257C30.292 120.012 30.628 120.901 31.3831 121.241L32.6169 118.507ZM149.756 173L149.139 174.367L149.512 174.536L149.92 174.491L149.756 173ZM280.857 158.601L281.021 160.092L281.263 160.066L281.483 159.965L280.857 158.601ZM404.109 102L404.774 100.656L404.133 100.338L403.483 100.637L404.109 102ZM529.835 165.904C530.577 166.271 531.477 165.967 531.844 165.225C532.212 164.482 531.908 163.583 531.165 163.215L529.835 165.904ZM31.3831 121.241L149.139 174.367L150.373 171.633L32.6169 118.507L31.3831 121.241ZM149.92 174.491L281.021 160.092L280.694 157.11L149.592 171.509L149.92 174.491ZM281.483 159.965L404.735 103.363L403.483 100.637L280.231 157.238L281.483 159.965ZM403.443 103.344L529.835 165.904L531.165 163.215L404.774 100.656L403.443 103.344Z" fill="#E5EAEF"/>
<path d="M149.756 173.5L32 120V223H530.5V165L404.109 102L280.857 159L149.756 173.5Z" fill="#DFE6E9" fill-opacity="0.5"/>
<path d="M45.488 267.88L43.328 264.976C42.688 265.104 42.064 265.168 41.456 265.168C39.872 265.168 38.416 264.8 37.088 264.064C35.776 263.328 34.728 262.304 33.944 260.992C33.176 259.664 32.792 258.176 32.792 256.528C32.792 254.88 33.176 253.4 33.944 252.088C34.728 250.776 35.776 249.752 37.088 249.016C38.416 248.28 39.872 247.912 41.456 247.912C43.04 247.912 44.488 248.28 45.8 249.016C47.128 249.752 48.168 250.776 48.92 252.088C49.688 253.4 50.072 254.88 50.072 256.528C50.072 257.968 49.776 259.288 49.184 260.488C48.608 261.672 47.8 262.656 46.76 263.44L50.456 267.88H45.488ZM36.992 256.528C36.992 258.016 37.392 259.208 38.192 260.104C39.008 260.984 40.096 261.424 41.456 261.424C42.8 261.424 43.872 260.976 44.672 260.08C45.488 259.184 45.896 258 45.896 256.528C45.896 255.04 45.488 253.856 44.672 252.976C43.872 252.08 42.8 251.632 41.456 251.632C40.096 251.632 39.008 252.072 38.192 252.952C37.392 253.832 36.992 255.024 36.992 256.528ZM51.5621 251.296V247.48H58.2101V265H53.9381V251.296H51.5621Z" fill="#B5BFC8"/>
<path d="M156.613 267.88L154.453 264.976C153.813 265.104 153.189 265.168 152.581 265.168C150.997 265.168 149.541 264.8 148.213 264.064C146.901 263.328 145.853 262.304 145.069 260.992C144.301 259.664 143.917 258.176 143.917 256.528C143.917 254.88 144.301 253.4 145.069 252.088C145.853 250.776 146.901 249.752 148.213 249.016C149.541 248.28 150.997 247.912 152.581 247.912C154.165 247.912 155.613 248.28 156.925 249.016C158.253 249.752 159.293 250.776 160.045 252.088C160.813 253.4 161.197 254.88 161.197 256.528C161.197 257.968 160.901 259.288 160.309 260.488C159.733 261.672 158.925 262.656 157.885 263.44L161.581 267.88H156.613ZM148.117 256.528C148.117 258.016 148.517 259.208 149.317 260.104C150.133 260.984 151.221 261.424 152.581 261.424C153.925 261.424 154.997 260.976 155.797 260.08C156.613 259.184 157.021 258 157.021 256.528C157.021 255.04 156.613 253.856 155.797 252.976C154.997 252.08 153.925 251.632 152.581 251.632C151.221 251.632 150.133 252.072 149.317 252.952C148.517 253.832 148.117 255.024 148.117 256.528ZM162.975 261.712C163.519 261.28 163.767 261.08 163.719 261.112C165.287 259.816 166.519 258.752 167.415 257.92C168.327 257.088 169.095 256.216 169.719 255.304C170.343 254.392 170.655 253.504 170.655 252.64C170.655 251.984 170.503 251.472 170.199 251.104C169.895 250.736 169.439 250.552 168.831 250.552C168.223 250.552 167.743 250.784 167.391 251.248C167.055 251.696 166.887 252.336 166.887 253.168H162.927C162.959 251.808 163.247 250.672 163.791 249.76C164.351 248.848 165.079 248.176 165.975 247.744C166.887 247.312 167.895 247.096 168.999 247.096C170.903 247.096 172.335 247.584 173.295 248.56C174.271 249.536 174.759 250.808 174.759 252.376C174.759 254.088 174.175 255.68 173.007 257.152C171.839 258.608 170.351 260.032 168.543 261.424H175.023V264.76H162.975V261.712Z" fill="#B5BFC8"/>
<path d="M272.738 267.88L270.578 264.976C269.938 265.104 269.314 265.168 268.706 265.168C267.122 265.168 265.666 264.8 264.338 264.064C263.026 263.328 261.978 262.304 261.194 260.992C260.426 259.664 260.042 258.176 260.042 256.528C260.042 254.88 260.426 253.4 261.194 252.088C261.978 250.776 263.026 249.752 264.338 249.016C265.666 248.28 267.122 247.912 268.706 247.912C270.29 247.912 271.738 248.28 273.05 249.016C274.378 249.752 275.418 250.776 276.17 252.088C276.938 253.4 277.322 254.88 277.322 256.528C277.322 257.968 277.026 259.288 276.434 260.488C275.858 261.672 275.05 262.656 274.01 263.44L277.706 267.88H272.738ZM264.242 256.528C264.242 258.016 264.642 259.208 265.442 260.104C266.258 260.984 267.346 261.424 268.706 261.424C270.05 261.424 271.122 260.976 271.922 260.08C272.738 259.184 273.146 258 273.146 256.528C273.146 255.04 272.738 253.856 271.922 252.976C271.122 252.08 270.05 251.632 268.706 251.632C267.346 251.632 266.258 252.072 265.442 252.952C264.642 253.832 264.242 255.024 264.242 256.528ZM279.388 252.424C279.452 250.712 280.012 249.392 281.068 248.464C282.124 247.536 283.556 247.072 285.364 247.072C286.564 247.072 287.588 247.28 288.436 247.696C289.3 248.112 289.948 248.68 290.38 249.4C290.828 250.12 291.052 250.928 291.052 251.824C291.052 252.88 290.788 253.744 290.26 254.416C289.732 255.072 289.116 255.52 288.412 255.76V255.856C289.324 256.16 290.044 256.664 290.572 257.368C291.1 258.072 291.364 258.976 291.364 260.08C291.364 261.072 291.132 261.952 290.668 262.72C290.22 263.472 289.556 264.064 288.676 264.496C287.812 264.928 286.78 265.144 285.58 265.144C283.66 265.144 282.124 264.672 280.972 263.728C279.836 262.784 279.236 261.36 279.172 259.456H283.156C283.172 260.16 283.372 260.72 283.756 261.136C284.14 261.536 284.7 261.736 285.436 261.736C286.06 261.736 286.54 261.56 286.876 261.208C287.228 260.84 287.404 260.36 287.404 259.768C287.404 259 287.156 258.448 286.66 258.112C286.18 257.76 285.404 257.584 284.332 257.584H283.564V254.248H284.332C285.148 254.248 285.804 254.112 286.3 253.84C286.812 253.552 287.068 253.048 287.068 252.328C287.068 251.752 286.908 251.304 286.588 250.984C286.268 250.664 285.828 250.504 285.268 250.504C284.66 250.504 284.204 250.688 283.9 251.056C283.612 251.424 283.444 251.88 283.396 252.424H279.388Z" fill="#B5BFC8"/>
<path d="M389.863 267.88L387.703 264.976C387.063 265.104 386.439 265.168 385.831 265.168C384.247 265.168 382.791 264.8 381.463 264.064C380.151 263.328 379.103 262.304 378.319 260.992C377.551 259.664 377.167 258.176 377.167 256.528C377.167 254.88 377.551 253.4 378.319 252.088C379.103 250.776 380.151 249.752 381.463 249.016C382.791 248.28 384.247 247.912 385.831 247.912C387.415 247.912 388.863 248.28 390.175 249.016C391.503 249.752 392.543 250.776 393.295 252.088C394.063 253.4 394.447 254.88 394.447 256.528C394.447 257.968 394.151 259.288 393.559 260.488C392.983 261.672 392.175 262.656 391.135 263.44L394.831 267.88H389.863ZM381.367 256.528C381.367 258.016 381.767 259.208 382.567 260.104C383.383 260.984 384.471 261.424 385.831 261.424C387.175 261.424 388.247 260.976 389.047 260.08C389.863 259.184 390.271 258 390.271 256.528C390.271 255.04 389.863 253.856 389.047 252.976C388.247 252.08 387.175 251.632 385.831 251.632C384.471 251.632 383.383 252.072 382.567 252.952C381.767 253.832 381.367 255.024 381.367 256.528ZM396.465 261.88V258.568L404.049 247.72H408.633V258.328H410.601V261.88H408.633V265H404.529V261.88H396.465ZM404.817 252.232L400.785 258.328H404.817V252.232Z" fill="#B5BFC8"/>
<path d="M508.988 267.88L506.828 264.976C506.188 265.104 505.564 265.168 504.956 265.168C503.372 265.168 501.916 264.8 500.588 264.064C499.276 263.328 498.228 262.304 497.444 260.992C496.676 259.664 496.292 258.176 496.292 256.528C496.292 254.88 496.676 253.4 497.444 252.088C498.228 250.776 499.276 249.752 500.588 249.016C501.916 248.28 503.372 247.912 504.956 247.912C506.54 247.912 507.988 248.28 509.3 249.016C510.628 249.752 511.668 250.776 512.42 252.088C513.188 253.4 513.572 254.88 513.572 256.528C513.572 257.968 513.276 259.288 512.684 260.488C512.108 261.672 511.3 262.656 510.26 263.44L513.956 267.88H508.988ZM500.492 256.528C500.492 258.016 500.892 259.208 501.692 260.104C502.508 260.984 503.596 261.424 504.956 261.424C506.3 261.424 507.372 260.976 508.172 260.08C508.988 259.184 509.396 258 509.396 256.528C509.396 255.04 508.988 253.856 508.172 252.976C507.372 252.08 506.3 251.632 504.956 251.632C503.596 251.632 502.508 252.072 501.692 252.952C500.892 253.832 500.492 255.024 500.492 256.528ZM527.83 251.056H520.342V254.368C520.662 254.016 521.11 253.728 521.686 253.504C522.262 253.28 522.886 253.168 523.558 253.168C524.758 253.168 525.75 253.44 526.534 253.984C527.334 254.528 527.918 255.232 528.286 256.096C528.654 256.96 528.838 257.896 528.838 258.904C528.838 260.776 528.31 262.264 527.254 263.368C526.198 264.456 524.71 265 522.79 265C521.51 265 520.398 264.784 519.454 264.352C518.51 263.904 517.782 263.288 517.27 262.504C516.758 261.72 516.478 260.816 516.43 259.792H520.438C520.534 260.288 520.766 260.704 521.134 261.04C521.502 261.36 522.006 261.52 522.646 261.52C523.398 261.52 523.958 261.28 524.326 260.8C524.694 260.32 524.878 259.68 524.878 258.88C524.878 258.096 524.686 257.496 524.302 257.08C523.918 256.664 523.358 256.456 522.622 256.456C522.078 256.456 521.63 256.592 521.278 256.864C520.926 257.12 520.694 257.464 520.582 257.896H516.622V247.456H527.83V251.056Z" fill="#B5BFC8"/>
</svg>
