<?xml version="1.0" encoding="UTF-8" standalone="no"?><!DOCTYPE svg PUBLIC "-//W3C//DTD SVG 1.1//EN" "http://www.w3.org/Graphics/SVG/1.1/DTD/svg11.dtd"><svg width="100%" height="100%" viewBox="0 0 1839 327" version="1.1" xmlns="http://www.w3.org/2000/svg" xmlns:xlink="http://www.w3.org/1999/xlink" xml:space="preserve" xmlns:serif="http://www.serif.com/" style="fill-rule:evenodd;clip-rule:evenodd;stroke-linejoin:round;stroke-miterlimit:2;"><g id="a"><g><path d="M167.21,157.86c9.27,6.63 13.9,16.58 13.9,29.84c0,13.26 -6.73,24.02 -20.2,32.26c-13.47,8.24 -31.33,12.36 -53.6,12.36c-22.27,0 -39.57,-4.06 -51.9,-12.18c-12.33,-8.12 -18.5,-18.13 -18.5,-30.02c0,-2.91 1.53,-4.36 4.6,-4.36l41,0c2.8,0 5.07,0.82 6.8,2.46c3.73,3.41 10.2,5.11 19.4,5.11c12.67,0 19,-1.87 19,-5.6c0,-2.32 -2,-4.15 -6,-5.51c-4,-1.35 -11.93,-2.67 -23.8,-3.96c-37.73,-4.38 -56.6,-18.35 -56.6,-41.91c0,-13.26 6.07,-23.98 18.2,-32.16c12.13,-8.17 28.37,-12.27 48.7,-12.27c20.33,0 36.77,4.4 49.3,13.19c12.53,8.79 18.8,18.08 18.8,27.87c0,1.32 -0.43,2.38 -1.3,3.17c-0.87,0.79 -2.03,1.19 -3.5,1.19l-43,0c-2.4,0 -4.47,-0.76 -6.2,-2.27c-3.2,-2.77 -8,-4.16 -14.4,-4.16c-8.93,0 -13.4,1.8 -13.4,5.41c0,1.93 1.73,3.44 5.2,4.54c3.47,1.09 10.4,2.22 20.8,3.38c21.87,2.45 37.43,6.98 46.7,13.62Z" style="fill-rule:nonzero;"/><path d="M286.91,92.11l37.2,0c1.47,0 2.73,0.53 3.8,1.6c1.07,1.07 1.6,2.33 1.6,3.8l0,129.2c0,1.47 -0.53,2.73 -1.6,3.8c-1.07,1.07 -2.33,1.6 -3.8,1.6l-32.2,0c-3.2,0 -5.87,-1.4 -8,-4.2l-43.6,-55.6l0,54.4c0,1.47 -0.53,2.73 -1.6,3.8c-1.07,1.07 -2.33,1.6 -3.8,1.6l-37.2,0c-1.47,0 -2.73,-0.53 -3.8,-1.6c-1.07,-1.07 -1.6,-2.33 -1.6,-3.8l0,-129.2c0,-1.46 0.53,-2.73 1.6,-3.8c1.07,-1.07 2.33,-1.6 3.8,-1.6l32.4,-0c3.2,-0 5.8,1.33 7.8,4l43.6,60.2l0,-58.8c0,-1.46 0.53,-2.73 1.6,-3.8c1.07,-1.07 2.33,-1.6 3.8,-1.6Z" style="fill-rule:nonzero;"/><path d="M487.91,150.22l0,23.79c0,13.39 -3.33,24.58 -10,33.54c-6.67,8.97 -15.4,15.34 -26.2,19.11c-10.8,3.77 -23.53,5.65 -38.2,5.65c-14.67,0 -27.4,-1.88 -38.2,-5.65c-10.8,-3.77 -19.53,-10.14 -26.2,-19.11c-6.67,-8.97 -10,-20.28 -10,-33.93l0,-23.01c0,-19.63 6.9,-34.32 20.7,-44.07c13.8,-9.75 31.7,-14.62 53.7,-14.62c22,0 39.9,4.88 53.7,14.62c13.8,9.75 20.7,24.31 20.7,43.68Zm-94.8,-3.24l0,30.27c0,5.17 1.83,9.14 5.5,11.91c3.67,2.78 8.63,4.16 14.9,4.16c6.27,0 11.23,-1.42 14.9,-4.25c3.67,-2.84 5.5,-6.84 5.5,-12.01l0,-29.88c0,-5.17 -1.83,-9.17 -5.5,-12.01c-3.67,-2.84 -8.63,-4.26 -14.9,-4.26c-6.27,0 -11.23,1.39 -14.9,4.16c-3.67,2.78 -5.5,6.74 -5.5,11.91Z" style="fill-rule:nonzero;"/><path d="M639.91,150.22l0,23.79c0,13.39 -3.33,24.58 -10,33.54c-6.67,8.97 -15.4,15.34 -26.2,19.11c-10.8,3.77 -23.53,5.65 -38.2,5.65c-14.67,0 -27.4,-1.88 -38.2,-5.65c-10.8,-3.77 -19.53,-10.14 -26.2,-19.11c-6.67,-8.97 -10,-20.28 -10,-33.93l0,-23.01c0,-19.63 6.9,-34.32 20.7,-44.07c13.8,-9.75 31.7,-14.62 53.7,-14.62c22,0 39.9,4.88 53.7,14.62c13.8,9.75 20.7,24.31 20.7,43.68Zm-94.8,-3.24l0,30.27c0,5.17 1.83,9.14 5.5,11.91c3.67,2.78 8.63,4.16 14.9,4.16c6.27,0 11.23,-1.42 14.9,-4.25c3.67,-2.84 5.5,-6.84 5.5,-12.01l0,-29.88c0,-5.17 -1.83,-9.17 -5.5,-12.01c-3.67,-2.84 -8.63,-4.26 -14.9,-4.26c-6.27,0 -11.23,1.39 -14.9,4.16c-3.67,2.78 -5.5,6.74 -5.5,11.91Z" style="fill-rule:nonzero;"/><path d="M663.1,92.11l74.8,0c18.93,0 33.93,4.6 45,13.8c11.07,9.2 16.6,21 16.6,35.4c0,14.4 -4.67,25.83 -14,34.3c-9.33,8.47 -25.2,12.7 -47.6,12.7l-26.4,0l0,38.4c0,1.47 -0.53,2.73 -1.6,3.8c-1.07,1.07 -2.33,1.6 -3.8,1.6l-43,0c-1.47,0 -2.73,-0.53 -3.8,-1.6c-1.07,-1.07 -1.6,-2.33 -1.6,-3.8l0,-129.2c0,-1.46 0.53,-2.73 1.6,-3.8c1.07,-1.07 2.33,-1.6 3.8,-1.6Zm48.6,37.2l0,22l25.4,-0c3.07,-0 5.57,-0.93 7.5,-2.8c1.93,-1.87 2.9,-4.46 2.9,-7.8c0,-3.34 -0.93,-6.07 -2.8,-8.2c-1.87,-2.13 -4.4,-3.2 -7.6,-3.2l-25.4,-0Z" style="fill-rule:nonzero;"/></g><g><path d="M1063.72,92.11l127.2,0c1.47,0 2.73,0.53 3.8,1.6c1.07,1.07 1.6,2.33 1.6,3.8l0,30.4c0,1.47 -0.53,2.73 -1.6,3.8c-1.07,1.07 -2.33,1.6 -3.8,1.6l-78.6,0l0,12.8l65.6,0c1.47,0 2.73,0.53 3.8,1.6c1.07,1.07 1.6,2.33 1.6,3.8l0,30.2c0,1.47 -0.53,2.73 -1.6,3.8c-1.07,1.07 -2.33,1.6 -3.8,1.6l-65.6,0l0,39.6c0,1.47 -0.53,2.73 -1.6,3.8c-1.07,1.07 -2.33,1.6 -3.8,1.6l-43.2,0c-1.47,0 -2.73,-0.53 -3.8,-1.6c-1.07,-1.07 -1.6,-2.33 -1.6,-3.8l0,-129.2c0,-1.46 0.53,-2.73 1.6,-3.8c1.07,-1.07 2.33,-1.6 3.8,-1.6Z" style="fill:#000111;fill-rule:nonzero;"/><path d="M1349.72,150.22l0,23.79c0,13.39 -3.33,24.58 -10,33.54c-6.67,8.97 -15.4,15.34 -26.2,19.11c-10.8,3.77 -23.53,5.65 -38.2,5.65c-14.67,0 -27.4,-1.88 -38.2,-5.65c-10.8,-3.77 -19.53,-10.14 -26.2,-19.11c-6.67,-8.97 -10,-20.28 -10,-33.93l0,-23.01c0,-19.63 6.9,-34.32 20.7,-44.07c13.8,-9.75 31.7,-14.62 53.7,-14.62c22,0 39.9,4.88 53.7,14.62c13.8,9.75 20.7,24.31 20.7,43.68Zm-94.8,-3.24l0,30.27c0,5.17 1.83,9.14 5.5,11.91c3.67,2.78 8.63,4.16 14.9,4.16c6.27,0 11.23,-1.42 14.9,-4.25c3.67,-2.84 5.5,-6.84 5.5,-12.01l0,-29.88c0,-5.17 -1.83,-9.17 -5.5,-12.01c-3.67,-2.84 -8.63,-4.26 -14.9,-4.26c-6.27,0 -11.23,1.39 -14.9,4.16c-3.67,2.78 -5.5,6.74 -5.5,11.91Z" style="fill:#000111;fill-rule:nonzero;"/><path d="M1506.71,225.91c0.27,0.53 0.4,1.27 0.4,2.2c0,0.93 -0.43,1.83 -1.3,2.7c-0.87,0.87 -1.9,1.3 -3.1,1.3l-45.4,0c-4,0 -6.8,-1.67 -8.4,-5l-17.6,-39.6l-16.8,0l0,39.2c0,1.47 -0.53,2.73 -1.6,3.8c-1.07,1.07 -2.33,1.6 -3.8,1.6l-43.2,0c-1.47,0 -2.73,-0.53 -3.8,-1.6c-1.07,-1.07 -1.6,-2.33 -1.6,-3.8l0,-129.2c0,-1.46 0.53,-2.73 1.6,-3.8c1.07,-1.07 2.33,-1.6 3.8,-1.6l77.8,0c18.27,0 32.73,4.33 43.4,13c10.67,8.67 16,20.47 16,35.4c0,18.13 -7,31.27 -21,39.4l24.6,46Zm-92.2,-96.6l-0,21.2l25,0c2.93,0 5.2,-0.96 6.8,-2.9c1.6,-1.93 2.4,-4.37 2.4,-7.3c-0,-2.93 -0.77,-5.5 -2.3,-7.7c-1.53,-2.2 -3.83,-3.3 -6.9,-3.3l-25,0Z" style="fill:#000111;fill-rule:nonzero;"/><path d="M1625.11,92.11l36.6,0c1.47,0 2.73,0.53 3.8,1.6c1.07,1.07 1.6,2.33 1.6,3.8l-0,129.2c-0,1.47 -0.53,2.73 -1.6,3.8c-1.07,1.07 -2.33,1.6 -3.8,1.6l-36.2,0c-1.47,0 -2.73,-0.53 -3.8,-1.6c-1.07,-1.07 -1.6,-2.33 -1.6,-3.8l-0,-62l-14.6,28.8c-0.8,1.6 -2,2.83 -3.6,3.7c-1.6,0.87 -3.2,1.3 -4.8,1.3l-13.6,0c-2.27,0 -4.13,-0.6 -5.6,-1.8c-1.47,-1.2 -2.4,-2.27 -2.8,-3.2l-14.6,-28.8l-0,62c-0,1.47 -0.53,2.73 -1.6,3.8c-1.07,1.07 -2.33,1.6 -3.8,1.6l-36.2,0c-1.47,0 -2.73,-0.53 -3.8,-1.6c-1.07,-1.07 -1.6,-2.33 -1.6,-3.8l-0,-129.2c-0,-1.46 0.53,-2.73 1.6,-3.8c1.07,-1.07 2.33,-1.6 3.8,-1.6l36.6,0c3.73,0 6.6,1.8 8.6,5.4l26.2,48l26.2,-48c2,-3.6 4.87,-5.4 8.6,-5.4Z" style="fill:#000111;fill-rule:nonzero;"/><path d="M1800.01,157.86c9.27,6.63 13.9,16.58 13.9,29.84c0,13.26 -6.73,24.02 -20.2,32.26c-13.47,8.24 -31.33,12.36 -53.6,12.36c-22.27,0 -39.57,-4.06 -51.9,-12.18c-12.33,-8.12 -18.5,-18.13 -18.5,-30.02c0,-2.91 1.53,-4.36 4.6,-4.36l41,0c2.8,0 5.07,0.82 6.8,2.46c3.73,3.41 10.2,5.11 19.4,5.11c12.67,0 19,-1.87 19,-5.6c0,-2.32 -2,-4.15 -6,-5.51c-4,-1.35 -11.93,-2.67 -23.8,-3.96c-37.73,-4.38 -56.6,-18.35 -56.6,-41.91c0,-13.26 6.07,-23.98 18.2,-32.16c12.13,-8.17 28.37,-12.27 48.7,-12.27c20.33,0 36.77,4.4 49.3,13.19c12.53,8.79 18.8,18.08 18.8,27.87c0,1.32 -0.43,2.38 -1.3,3.17c-0.87,0.79 -2.03,1.19 -3.5,1.19l-43,0c-2.4,0 -4.47,-0.76 -6.2,-2.27c-3.2,-2.77 -8,-4.16 -14.4,-4.16c-8.93,0 -13.4,1.8 -13.4,5.41c0,1.93 1.73,3.44 5.2,4.54c3.46,1.09 10.4,2.22 20.8,3.38c21.87,2.45 37.43,6.98 46.7,13.62Z" style="fill:#000111;fill-rule:nonzero;"/></g></g><g id="b"><g><path d="M876.02,280.35c3.09,-0.09 6.18,0 9.25,0.21c17.63,1.25 34.56,6.94 52.14,8.51c9.22,0.83 18.47,0.36 27.68,-0.4c4.03,-0.33 8.17,-0.47 12.14,-1.28c1.64,-0.29 3.23,-0.8 4.72,-1.52l11.74,-19.73c0.66,-1.12 2.11,-1.5 3.23,-0.84c0.17,0.1 0.32,0.22 0.46,0.35c3.17,-12.77 5.1,-25.82 5.78,-38.97c0.03,-1.32 1.14,-2.37 2.46,-2.33c0.38,0 0.75,0.11 1.08,0.29c1.29,0.66 2.52,1.45 3.65,2.36c-1.18,-19.99 -3.54,-39.98 -8.27,-59.45c-0.33,-1.36 0.7,-3.29 2.36,-3.08c1.41,0.17 2.79,0.55 4.09,1.12c-1.05,-9.49 -2.8,-18.89 -5.23,-28.13c-1.31,1.41 -3.24,2.52 -4.65,3.34c-2.57,1.47 -5.27,2.68 -8.06,3.63c-6.33,2.19 -12.93,3.52 -19.61,3.98c-6.78,0.47 -13.73,-0.18 -20.07,-2.72c-3.45,-1.38 -7.63,-3.54 -10.59,-6.49c-3.55,8.33 -12.3,13.19 -21.25,11.81c-5.13,-0.77 -9.72,-3.76 -13.08,-7.81c-1.12,1.95 -3.13,3.71 -4.62,4.95c-2.53,2.12 -5.35,3.87 -8.37,5.21c-7.06,3.11 -14.76,3.54 -22.35,3.14c-6.92,-0.37 -13.9,-1.45 -20.42,-3.86c-3.04,-1.1 -5.95,-2.51 -8.7,-4.21c-1.65,-0.99 -3.23,-2.09 -4.72,-3.3c-2.01,7.45 -2.9,15.17 -2.64,22.88c1.06,-1.25 2.2,-2.43 3.41,-3.54c1.27,-1.18 3.92,-0.04 3.18,1.85c-6.13,15.53 -6.69,32.14 -2.3,48c0.63,-1.4 1.35,-2.77 2.14,-4.09c0.55,-0.9 1.73,-1.18 2.63,-0.63c0.55,0.34 0.9,0.94 0.91,1.59c0.92,20.66 3.54,43.02 16.04,60.08c0.14,-1.66 0.35,-3.32 0.63,-4.98c0.31,-1.82 3.31,-2.22 4.07,-0.53c2.59,5.63 6.41,10.61 11.16,14.58l-0.02,0.01Zm112.65,-62.15c0.05,-0.19 0.24,-0.3 0.43,-0.25c0.16,0.04 0.27,0.18 0.26,0.35c0.04,1.71 0.29,3.41 0.73,5.06c0.17,0.81 0.49,1.57 0.96,2.26c0.89,1.02 0.8,0.77 1.26,-0.11c0.68,-1.28 0.8,-3.34 1.05,-4.76c0.29,-1.59 0.38,-3.24 0.88,-4.77c0.04,-0.33 0.34,-0.55 0.67,-0.51c0.33,0.04 0.55,0.34 0.51,0.67c0.3,2.89 -0.64,6.16 -1.34,8.94c-0.28,1.09 -0.59,3.37 -2.14,3.41c-1.55,0.04 -2.46,-2.52 -2.89,-3.67c-0.81,-2.12 -0.95,-4.44 -0.38,-6.64l0,0.02Zm-10.12,-45.23c1.18,2.2 2.18,4.26 3.74,6.13c0.2,-1.21 0.31,-2.43 0.33,-3.65c0,-1.39 -0.31,-2.89 0.13,-4.22c0.07,-0.25 0.33,-0.39 0.58,-0.31c0.11,0.03 0.2,0.1 0.26,0.2c0.86,1.33 0.71,3.14 0.67,4.66c-0.06,1.79 -0.28,3.57 -0.67,5.31c-0.13,0.44 -0.59,0.69 -1.03,0.56c-0.13,-0.04 -0.25,-0.11 -0.34,-0.2c-2.2,-2.2 -4.25,-5.07 -4.59,-8.24c-0.05,-0.53 0.69,-0.69 0.92,-0.28l0,0.04Zm-23.44,2.67c0.11,-0.34 0.71,-0.41 0.77,0c0.51,3.57 0.83,6.63 2.44,9.73c0.54,-1.37 0.93,-2.79 1.15,-4.25c0.27,-1.81 0.05,-3.54 0.19,-5.36c0.02,-0.37 0.33,-0.66 0.7,-0.64c0.28,0.01 0.52,0.19 0.61,0.46c1.28,3.81 -0.14,8.58 -1.84,12.03c-0.23,0.4 -0.74,0.53 -1.14,0.29c-0.12,-0.07 -0.22,-0.17 -0.29,-0.29c-2.14,-3.38 -3.77,-8.01 -2.59,-11.99l0,0.02Zm5.31,37.88c3.47,1.63 5.46,6.79 7.04,9.99c2.4,4.88 4.79,9.76 7.16,14.65c2.28,4.72 4.59,9.45 6.85,14.22c1.77,3.7 4.21,7.73 2.95,11.95c-0.23,0.74 -0.92,1.25 -1.7,1.25c-1.64,0.06 -3.26,-0.29 -4.72,-1.03c0.38,2.26 0.75,4.52 1.08,6.79c0.31,2.08 0.18,4.68 -2.26,5.37c-2.71,0.77 -3.97,-2.28 -4.85,-4.25c-0.09,-0.21 -0.18,-0.42 -0.27,-0.63c-0.59,1.52 -1.59,2.6 -3.2,2.63c-2.05,0 -2.56,-1.91 -2.95,-3.54c-0.27,-1.18 -0.54,-2.33 -0.8,-3.5c-0.63,1.73 -1.61,3.08 -3.16,3.22c-3.64,0.36 -4.8,-4.83 -5.11,-7.43c-1.16,-10.59 -1.78,-21.23 -1.86,-31.88c-0.05,-2.98 -2.12,-21.55 5.8,-17.83l0,0.02Zm-26.1,20.18c0.09,-0.25 0.55,-0.24 0.51,0.07c-0.54,4.32 0,8.43 2.43,12c0.87,-3.14 1.03,-6.17 1.33,-9.48c0.06,-0.66 1.09,-0.91 1.23,-0.17c0.76,3.75 -0.18,7.99 -1.54,11.5c-0.13,0.41 -0.57,0.64 -0.98,0.51c-0.17,-0.06 -0.32,-0.17 -0.42,-0.32c-3.08,-3.97 -4.4,-9.33 -2.57,-14.11l0.01,0Zm-24.05,-47.82c0.16,-0.2 0.48,0 0.48,0.19c0,1.84 -0.46,3.54 -0.19,5.41c0.25,1.73 0.91,3.38 1.93,4.8c1.13,-3.22 1.92,-6.54 2.36,-9.92c0.13,-0.88 1.61,-0.66 1.55,0.21c-0.34,4.02 -1.36,7.96 -2.99,11.65c-0.22,0.37 -0.7,0.49 -1.07,0.27c-0.05,-0.03 -0.1,-0.07 -0.15,-0.11c-2.64,-3.06 -4.78,-8.96 -1.95,-12.5l0.03,0Zm-16.53,55.35c0.34,-5.85 0.47,-11.73 1.02,-17.56c0.31,-3.31 0.53,-10.27 4.36,-11.65c3.96,-1.43 5.52,4.13 6.38,6.73l11.07,33.95c0.9,2.77 2.13,5.61 2.67,8.48c0.28,1.45 0.22,3.07 -0.75,4.26c-1.45,1.77 -3.15,1.73 -4.67,0.9c0.18,1.88 0.33,3.76 0.35,5.63c0.02,1.87 -0.44,3.77 -2.36,4.45c-2.11,0.76 -3.54,-0.63 -4.49,-2.69c-0.7,1.87 -1.85,3.11 -3.86,2.36c-2.28,-0.85 -2.36,-4.13 -2.76,-6.1l-0.5,-2.36c-0.56,0.49 -1.27,0.77 -2.01,0.79c-4.61,0.32 -5.01,-6.84 -5.17,-9.88c-0.3,-5.77 0.35,-11.59 0.68,-17.33l0.02,0.02l0.02,0Zm-33.53,-58.74c-0.21,1.5 -1.57,2.79 -2.59,3.87c-1.22,1.27 -2.57,2.41 -4.02,3.4c-0.4,0.23 -0.91,0.08 -1.13,-0.32c-0.07,-0.12 -0.1,-0.26 -0.11,-0.4c-0.09,-2.38 0.34,-4.76 1.27,-6.95c0.67,-1.56 1.61,-3.54 3.26,-4.19c0.27,-0.11 0.5,0.2 0.44,0.44c-0.4,1.7 -1.82,3.14 -2.44,4.81c-0.5,1.35 -0.79,2.77 -0.87,4.2c0.94,-0.76 1.82,-1.59 2.64,-2.47c0.94,-1.02 1.56,-2.28 2.77,-2.95c0.26,-0.13 0.58,-0.02 0.7,0.24c0.04,0.09 0.06,0.19 0.05,0.29l0.03,0.03Zm9.28,44.28c-0.59,-3.54 -1.1,-7.56 -0.08,-11.07c0.06,-0.17 0.25,-0.27 0.42,-0.21c0.13,0.04 0.22,0.16 0.22,0.3c0.3,2.9 0.27,5.74 0.66,8.61c0.69,-1.16 1.25,-2.39 1.66,-3.68c0.56,-1.77 0.59,-3.67 1.1,-5.45c0.09,-0.29 0.39,-0.45 0.68,-0.37c0.18,0.05 0.31,0.19 0.37,0.37c1.07,3.93 -1.34,8.86 -3.7,11.85c-0.31,0.31 -0.81,0.31 -1.13,0c-0.11,-0.11 -0.19,-0.25 -0.22,-0.41l0.02,0.05l0,0.01Z" style="fill:url(#_Linear1);fill-rule:nonzero;"/><path d="M898.57,264.69c0.31,-0.28 0.12,-2.03 0.13,-2.5c0,-0.56 0.05,-1.13 0.08,-1.69c-0.05,-0.28 -0.11,-0.59 -0.16,-0.86c-0.08,-0.41 0.01,-0.84 0.27,-1.18l0,-0.29c0.06,-1.01 1.71,-1.36 1.87,-0.25l0,0.08c0.31,0.19 0.53,0.51 0.59,0.87c0.89,3.76 1.59,7.57 2.36,11.36c0.03,0.12 0.27,2.29 0.68,2.29c0.16,-0.67 0.27,-1.36 0.32,-2.05c0.27,-1.81 0.54,-3.62 0.8,-5.43c0.26,-1.81 2.95,-1.22 3.06,0.41c0.1,1.81 0.44,3.6 1.02,5.31c0.21,0.59 0.67,2.6 1.15,1.96c0.32,-0.44 0.09,-1.18 0.05,-1.69c-0.27,-3.15 -0.55,-6.28 -0.82,-9.39c-0.15,-1.66 2.36,-2.26 3.11,-0.84c0.25,0.51 0.53,1.01 0.84,1.49c1.72,0.64 2.3,0.33 1.73,-0.93c-0.2,-0.92 -0.49,-1.83 -0.86,-2.7c-0.79,-2.36 -1.56,-4.74 -2.31,-7.13c-1.42,-4.39 -2.85,-8.79 -4.28,-13.18c-1.43,-4.39 -2.86,-8.78 -4.27,-13.17c-0.77,-2.36 -1.48,-4.72 -2.3,-7.08c-0.08,-0.22 -0.73,-2.65 -1.24,-2.6c-0.66,0.06 -0.97,1.91 -1.13,2.5c-1.26,4.42 -1.32,9.25 -1.77,13.8c-0.45,4.56 -0.82,9.05 -1.11,13.58c-0.27,4.37 -0.67,8.77 -0.44,13.15c0.11,0.55 0.54,8.1 2.64,6.14l-0.01,0.02Z" style="fill:#58595b;fill-rule:nonzero;"/><path d="M937.68,133.55c1.18,-7.2 -2.9,-14.33 -9.38,-17.53c-3.53,-1.68 -7.53,-2.1 -11.32,-1.18c-3.19,0.72 -5.84,2.43 -8.67,3.88c-0.24,0.24 -0.48,0.48 -0.71,0.73c-3.48,3.62 -4.61,8.91 -2.92,13.64c2.57,7.59 8.92,14.31 17.34,14.21c7.3,-0.12 13.6,-5.14 15.35,-12.22c-0.06,-0.14 -0.14,-0.28 -0.19,-0.42c-0.18,-0.43 0.03,-0.92 0.46,-1.1c0.02,0 0.04,-0.01 0.05,-0.02l-0.01,0.01Zm-8.09,-8.18c-1.62,6.36 -13.22,5.67 -17.26,2.53c-0.82,-0.67 -0.95,-1.88 -0.3,-2.71c0.07,-0.25 0.21,-0.48 0.4,-0.66c1.77,-1.66 4.92,-1.62 7.2,-2.17c2.72,-0.66 5.35,-1.08 8.09,-0.28c1.41,0.42 2.24,1.88 1.87,3.3l-0,-0.01Z" style="fill:#fff;fill-rule:nonzero;"/><path d="M964.19,94.37c-13.83,0.42 -21.48,11.42 -29.49,21.02c5.76,4.97 8.37,12.69 6.79,20.13c1.43,1.12 2.82,2.33 4.35,3.29c2.6,1.63 5.41,2.9 8.35,3.78c5.73,1.72 11.81,1.95 17.71,1.38c5.95,-0.59 11.81,-1.88 17.46,-3.84c2.71,-0.92 5.3,-2.13 7.75,-3.61c1.65,-1 3.19,-2.52 5.02,-3.16c-1.78,-6.18 -3.93,-12.25 -6.43,-18.17c-0.77,-1.81 0.5,-4.32 2.77,-3.6c0.59,0.19 1.18,0.41 1.77,0.66c-0.98,-2.41 -2.05,-4.77 -3.22,-7.08c-0.88,-0.64 -1.8,-1.21 -2.76,-1.72c-2.98,-1.55 -6.04,-2.93 -9.17,-4.13c-6.61,-2.72 -13.67,-5.18 -20.9,-4.94l-0,-0.01Zm-7.49,24.4c-2.65,3.81 -8.69,4.42 -10.78,-0.26c-0.35,-0.92 -0.54,-1.89 -0.55,-2.88c-0.02,-0.04 -0.04,-0.07 -0.05,-0.11c-1.59,-5.08 2.95,-9.62 8.01,-7.59c3.73,1.44 5.58,5.63 4.13,9.36c-0.2,0.51 -0.45,1 -0.76,1.45l-0,0.03Z" style="fill:#e5e5e5;fill-rule:nonzero;"/><path d="M950.64,112.2c-0.89,0.21 -0.83,1.18 -1.21,1.95c-0.12,0.23 -0.25,0.44 -0.4,0.65c0.03,0.76 0.28,1.49 0.73,2.1c1.27,1.41 3.35,-0.35 3.54,-1.83c0.15,-1.22 -1.19,-3.21 -2.66,-2.88l0,0.01Z" style="fill:#fff;fill-rule:nonzero;"/><path d="M842.75,129.95c-1.81,3.47 -3.35,7.08 -4.59,10.79c1.83,1.35 3.51,2.95 5.47,4.13c2.7,1.6 5.56,2.91 8.54,3.91c5.84,1.93 11.91,3.08 18.05,3.42c6.86,0.44 13.92,0.31 20.37,-2.31c3.09,-1.27 5.98,-2.99 8.58,-5.1c1.54,-1.25 3.06,-3.16 4.81,-4.32c-1.86,-2.93 -3.07,-6.21 -3.54,-9.65c-0.46,-3.65 0.41,-7.34 2.46,-10.39c-2.18,-1.72 -4,-3.88 -6.15,-5.66c-6.72,-5.46 -14.77,-9.03 -23.33,-10.32c-11.81,-1.74 -22.62,1.48 -32.85,6.93c-1.83,6.41 -3.28,12.91 -4.36,19.48l3.54,-3.23c0.79,-0.72 2,-0.66 2.72,0.13c0.54,0.6 0.66,1.47 0.29,2.18l-0.01,0.01Zm34.69,-9.15c-0.05,-1.53 1.42,-2.88 2.83,-3.26c1.91,-0.49 3.94,-0.03 5.44,1.25c3,2.58 3.07,7.68 0.76,10.72c-2.95,3.9 -8.27,1.91 -9.76,-2.25c-0.66,-2.16 -0.4,-4.5 0.73,-6.45l0,-0.01Z" style="fill:#e5e5e5;fill-rule:nonzero;"/><path d="M882.88,125.95c0.41,-1.02 0.5,-2.95 -0.7,-3.54c-0.21,-0.09 -0.45,-0.14 -0.68,-0.13c-0.46,0.66 -0.7,1.44 -0.7,2.24c0.05,1.22 1.3,3.34 2.07,1.43l0.01,0Z" style="fill:#fff;fill-rule:nonzero;"/><path d="M906.56,116.05c-3.83,-4.22 -7.59,-8.27 -12.33,-11.57c-4.86,-3.4 -10.26,-5.96 -15.97,-7.57c-6,-1.7 -12.29,-2.12 -18.47,-1.23c-3.02,0.47 -5.99,1.24 -8.86,2.28c-2.36,0.84 -4.56,2.18 -6.89,3.07c-0.76,1.91 -1.46,3.85 -2.11,5.8c9.22,-5.72 21.07,-7.78 31.55,-6.43c6.16,0.8 12.13,2.69 17.62,5.6c4.94,2.61 11.07,6.46 14.24,11.29c0.31,-0.32 0.63,-0.63 0.96,-0.93c0.09,-0.11 0.18,-0.21 0.26,-0.32l0,0.01Z" style="fill:#fff;fill-rule:nonzero;"/><path d="M845.69,88.32c0.79,-1.42 1.63,-2.82 2.52,-4.2c-1.18,-2.41 -1.77,-5.31 -2.36,-7.73c-0.83,-3.46 -1.42,-6.97 -1.77,-10.5c-0.36,-3.71 -0.47,-7.44 -0.34,-11.16c0.09,-2.67 0,-5.87 1.24,-8.32c2.89,-5.73 9.95,-2.66 13.86,-0c5.77,3.95 11.31,8.24 16.58,12.84c1.39,-0.81 2.8,-1.57 4.25,-2.3c-5.63,-4.94 -11.85,-9.16 -18.52,-12.58c-6.07,-3.08 -16.64,-7.14 -20.73,1.09c-1.77,3.54 -1.81,8.09 -1.91,11.96c-0.08,4.3 0.15,8.6 0.67,12.87c0.86,7.53 2.95,14.76 4.36,22.2c0.68,-1.41 1.41,-2.8 2.17,-4.17l-0.02,-0Z" style="fill:#58595b;fill-rule:nonzero;"/><path d="M958.47,248.75c0.22,4.55 0.43,9.15 0.9,13.68c0.04,1.32 0.33,2.62 0.83,3.84c0.59,1.18 1,1.52 1.52,0c0.71,-2.22 1.23,-4.49 1.55,-6.8c0.21,-1.29 2.03,-1.18 2.52,-0.21c0.18,0.19 0.31,0.43 0.37,0.69c0.77,3.39 1.58,6.78 2.3,10.19c0.14,0.64 0.19,0.94 0.2,1.04c-0.03,-0.23 0,-0.47 0.05,-0.69c0.26,-0.93 0.42,-1.89 0.46,-2.86c0.16,-1.61 0.22,-3.21 0.22,-4.82c0,-2.14 3,-2.01 3.24,0c0.23,1.99 0.66,3.95 1.29,5.85c0.35,1.03 0.75,2.04 1.22,3.02c0.5,1.03 0.79,2.36 0.64,0.59c-0.35,-4.13 -1.36,-8.36 -2.01,-12.49c-0.2,-0.91 0.37,-1.81 1.28,-2.01c0.85,-0.19 1.7,0.3 1.97,1.12c0.7,1.75 2.27,3 4.13,3.3c0,-2.15 -1.05,-4.09 -2,-6.03c-1.08,-2.21 -2.15,-4.42 -3.22,-6.63l-5.94,-12.34c-2.11,-4.39 -4.13,-8.83 -6.25,-13.22c-0.77,-1.7 -1.65,-3.34 -2.66,-4.91c-0.78,-1.18 -1.98,-3.16 -2.95,-1.28c-0.34,0.64 -0.19,1.84 -0.21,2.49c-0.22,9.48 0.06,19 0.53,28.48l0.02,-0Z" style="fill:#58595b;fill-rule:nonzero;"/><path d="M964.66,90.39c8.27,-0.34 16.36,2.31 23.9,5.46c1.43,0.59 2.89,1.18 4.33,1.81c-0.11,-0.18 -0.22,-0.36 -0.32,-0.54c-2.73,-1.1 -4.98,-3.71 -7.51,-5.24c-2.7,-1.65 -5.58,-2.99 -8.58,-4c-6.49,-2.14 -14,-2.98 -20.63,-0.94c-6.74,2.08 -12.04,7.62 -16.57,12.8c-2.22,2.49 -4.11,5.25 -5.64,8.21c-0.78,1.55 -1.18,3.54 -1.84,5.31l0.54,0.34c7.07,-11.72 17.98,-22.64 32.32,-23.22l0,0.01Z" style="fill:#fff;fill-rule:nonzero;"/><path d="M971.46,46.36c5.25,-2.54 12.85,-5.84 18.4,-2.44c5.9,3.63 6.54,11.17 5.19,17.29c-0.95,3.92 -2.18,7.76 -3.68,11.5c-0.99,2.64 -1.94,6.61 -3.99,8.86c1.29,1.52 2.54,3.07 3.75,4.65c4.01,-8.07 7.91,-16.25 10.32,-24.97c1.34,-4.64 2.09,-9.42 2.24,-14.24c0.1,-4.35 -0.44,-9.09 -5.57,-9.91c-4.09,-0.66 -8.67,0.41 -12.67,1.29c-4.48,0.97 -8.86,2.37 -13.07,4.17c-7.53,3.24 -13.86,7.88 -20.3,12.85c1.68,0.71 3.34,1.47 4.98,2.28c3.71,-4.9 8.93,-8.69 14.41,-11.33l-0.01,-0Z" style="fill:#58595b;fill-rule:nonzero;"/><path d="M848.49,91.42c-0.89,1.66 -1.71,3.34 -2.48,5.04c3.87,-2.36 8.82,-3.7 12.78,-4.41c6.55,-1.19 13.28,-1.02 19.77,0.48c11.97,2.79 23.91,10.63 31.37,20.53c2.71,-1.58 5.73,-2.54 8.86,-2.83c3.29,-0.32 6.61,0.14 9.68,1.35c0.41,-1.61 0.98,-3.18 1.71,-4.68c1.54,-3.29 3.5,-6.36 5.84,-9.15c4.72,-5.82 10.63,-11.75 17.81,-14.33c7.19,-2.57 15.66,-2.03 22.92,0.08c3,0.88 5.91,2.06 8.67,3.54c-13.79,-17.07 -33,-29.44 -54.79,-33.12c-21.61,-3.65 -43.1,1.28 -61.54,12.67c-8.43,6.84 -15.43,15.27 -20.61,24.81l0.01,0.02Z" style="fill:url(#_Linear2);fill-rule:nonzero;"/><path d="M850.5,80.69c4.98,-6.98 11.18,-13.25 18.66,-17.32c0.88,-0.66 1.77,-1.29 2.69,-1.9c-4.01,-3.54 -8.15,-6.89 -12.47,-10.04c-2.18,-1.59 -4.55,-3.65 -7.21,-4.35c-3.82,-0.99 -4.26,2.14 -4.44,5.09c-0.33,5.75 -0.14,11.52 0.59,17.23c0.36,2.86 0.88,5.69 1.48,8.51c0.21,0.92 0.45,1.84 0.7,2.77l0,0.01Z" style="fill:#fff;fill-rule:nonzero;"/><path d="M987.39,47.41c-2.65,-1.55 -5.98,-0.47 -8.71,0.35c-2.77,0.83 -5.46,1.93 -8.01,3.28c-4,2.21 -7.73,4.86 -11.14,7.91c2.69,1.44 5.3,3.02 7.82,4.72c6.17,4.18 11.85,9.04 16.94,14.48c0.66,-2.1 1.98,-4.26 2.69,-6.09c1.08,-2.82 2.09,-5.67 2.95,-8.55c1.58,-5.14 3.08,-12.82 -2.54,-16.09l-0,-0.01Z" style="fill:#fff;fill-rule:nonzero;"/><path d="M927.69,122.07c-2.73,-0.8 -5.37,-0.38 -8.09,0.28c-2.28,0.55 -5.43,0.51 -7.2,2.17c-0.19,0.18 -0.33,0.41 -0.4,0.66c-0.65,0.83 -0.52,2.04 0.3,2.71c4.04,3.15 15.64,3.83 17.26,-2.53c0.37,-1.42 -0.46,-2.88 -1.87,-3.3l0,0.01Z" style="fill:#231f20;fill-rule:nonzero;"/><path d="M953.33,107.9c-5.05,-2.03 -9.6,2.51 -8.01,7.59c0.01,0.04 0.03,0.08 0.05,0.11c0.01,0.98 0.2,1.96 0.55,2.88c2.09,4.68 8.14,4.07 10.78,0.26c2.26,-3.29 1.42,-7.8 -1.88,-10.05c-0.47,-0.32 -0.97,-0.58 -1.49,-0.79Zm-0.05,7.18c-0.18,1.48 -2.26,3.24 -3.54,1.83c-0.44,-0.61 -0.7,-1.34 -0.73,-2.1c0.15,-0.21 0.28,-0.42 0.4,-0.65c0.38,-0.76 0.32,-1.77 1.21,-1.95c1.48,-0.34 2.82,1.65 2.66,2.88l0,-0.01Z" style="fill:#231f20;fill-rule:nonzero;"/><path d="M886.48,129.51c2.31,-3.05 2.24,-8.14 -0.76,-10.72c-1.51,-1.27 -3.53,-1.74 -5.44,-1.25c-1.42,0.38 -2.89,1.73 -2.83,3.26c-1.13,1.96 -1.39,4.29 -0.73,6.45c1.45,4.16 6.81,6.15 9.76,2.25l0,0.01Zm-4.97,-7.22c0.23,0 0.46,0.04 0.68,0.13c1.18,0.55 1.11,2.51 0.7,3.54c-0.77,1.91 -2.02,-0.21 -2.07,-1.42c-0.01,-0.8 0.23,-1.59 0.68,-2.26l0.01,0l0,0.01Z" style="fill:#231f20;fill-rule:nonzero;"/><path d="M1007.75,170.75c0.64,0.46 1.21,1.02 1.68,1.66c1.31,1.81 4.85,1.46 4.66,-1.26c-1.24,-17.64 -5.31,-34.87 -11.42,-51.41c0.3,0.3 0.59,0.59 0.89,0.93c1.65,1.89 4.92,-0.11 4.19,-2.44c-1.19,-3.74 -2.58,-7.41 -4.17,-11c0.08,-1.52 -0.76,-2.89 -1.9,-4.06c-2.18,-4.38 -4.66,-8.6 -7.42,-12.63c3.86,-7.77 7.68,-15.6 10.44,-23.85c2.52,-7.6 4.67,-16.53 3.41,-24.57c-1.22,-7.82 -7.75,-10.34 -14.94,-9.57c-7.75,0.94 -15.31,3.07 -22.41,6.31c-7.95,3.54 -16.11,8.5 -21.84,15.14c-0.02,0.02 -0.03,0.04 -0.05,0.06c-15.54,-5.87 -32.42,-7.29 -48.72,-4.08c-5.56,1.09 -10.99,2.75 -16.21,4.95c-0.05,-0.06 -0.1,-0.12 -0.16,-0.17c-7,-6.09 -14.83,-11.14 -23.27,-14.99c-6.74,-3.02 -15.98,-5.1 -21.6,1.26c-2.72,3.07 -3.38,7.27 -3.78,11.22c-0.48,4.8 -0.48,9.63 0,14.42c0.95,9.75 3.1,20.07 6.84,29.16c-2.16,4.9 -3.97,9.95 -5.41,15.1c-0.15,0.2 -0.22,0.44 -0.19,0.69c-2.11,7.84 -3.73,15.81 -4.84,23.86c-0.27,1.87 1.72,3.32 3.27,1.9l0.87,-0.8c-0.37,0.98 -0.72,1.97 -1.05,2.95c-0.74,0.44 -1.03,1.35 -0.69,2.14c-3.14,10.2 -4.22,20.93 -3.18,31.55c0.03,1.06 0.92,1.88 1.97,1.85c0.57,-0.02 1.1,-0.29 1.45,-0.74c-3.98,15.32 -3.42,31.97 2.24,46.74c0.67,1.74 3.37,2.08 3.89,0c0.18,-0.73 0.38,-1.44 0.59,-2.14c1.61,21.47 4.84,43.39 19.79,60.04c1.3,1.45 3.91,0.31 3.85,-1.59c-0.04,-1.11 -0.04,-2.22 0,-3.32c1.52,2.24 3.25,4.32 5.17,6.23c0.64,0.4 1.19,0.96 1.57,1.71c0.52,1 1.13,2.01 1.47,3.1c5.48,-0.38 10.98,-0.24 16.44,0.41c1.51,0.17 3.02,0.36 4.52,0.59l-0.02,0.03c0.67,0.02 1.26,0.16 1.79,0.38c0.48,0.02 0.92,0.1 1.32,0.23l0.12,0c0.36,0 0.69,0.04 1,0.09c0.01,-0.02 0.02,-0.04 0.03,-0.06c7.02,1.18 13.97,2.74 20.96,4.13c0,0 0,0.02 -0.02,0.03c0.59,0.01 1.11,0.12 1.59,0.29c0.12,0 0.22,0.03 0.33,0.04c0.47,0.03 0.9,0.11 1.29,0.24c4.46,0.84 8.92,1.58 13.43,2.08l0.34,0c0.62,0 1.18,0.1 1.68,0.27c0.08,0 0.15,-0.01 0.23,-0.01c0.44,0 0.85,0.05 1.23,0.14l0,-0.05c0.69,0.05 1.38,0.11 2.07,0.15c6.09,0.31 12.19,0.24 18.27,-0.21l0,0.03c0.15,-0.01 0.3,-0.02 0.46,-0.02c0.19,0 0.35,0.03 0.53,0.05c0.3,-0.05 0.61,-0.08 0.94,-0.08c0.1,0 0.2,0 0.3,0.01c0.44,-0.12 0.9,-0.21 1.43,-0.21l0.2,0l0,-0.07c2.76,-0.22 5.53,-0.47 8.27,-0.72c4.1,-0.38 8.93,-0.85 12.4,-3.06l0.06,0c0.36,-0.47 0.81,-0.88 1.35,-1.19c0.8,-1.31 1.67,-2.53 2.55,-3.64c0.28,-0.57 0.68,-1.08 1.18,-1.49c0,0 -0.01,-0.02 -0.02,-0.03l6.11,-10.28c0.12,0.37 0.22,0.74 0.35,1.12c0.74,2.27 4.08,2.41 4.76,0c3.97,-14.13 6.47,-28.64 7.45,-43.28c1.35,1.19 2.51,2.58 3.43,4.13c1.24,2.07 4.69,1.25 4.63,-1.26c-0.46,-21.31 -3.54,-42.33 -7.95,-63.14l-0.02,0.01Zm-13.48,-67.32c0.96,0.51 1.88,1.08 2.76,1.72c1.18,2.33 2.25,4.69 3.22,7.08c-0.59,-0.24 -1.18,-0.47 -1.77,-0.66c-2.27,-0.71 -3.54,1.77 -2.77,3.6c2.51,5.92 4.66,11.99 6.45,18.16c-1.83,0.64 -3.37,2.16 -5.02,3.16c-2.45,1.48 -5.05,2.68 -7.75,3.61c-5.65,1.97 -11.51,3.26 -17.46,3.86c-5.93,0.59 -12,0.34 -17.71,-1.38c-2.94,-0.88 -5.75,-2.15 -8.35,-3.78c-1.52,-0.96 -2.91,-2.17 -4.35,-3.29c1.58,-7.45 -1.03,-15.16 -6.79,-20.13c8.01,-9.61 15.66,-20.61 29.49,-21.02c7.23,-0.22 14.29,2.24 20.9,4.93c3.13,1.21 6.18,2.59 9.15,4.14Zm-57.12,31.16c-0,-0 0.01,0.04 0.02,0.05c0.06,0.14 0.13,0.28 0.19,0.42c-1.75,7.08 -8.05,12.1 -15.35,12.22c-8.42,0.09 -14.76,-6.62 -17.34,-14.21c-1.7,-4.73 -0.57,-10.02 2.92,-13.64c0.23,-0.25 0.47,-0.5 0.71,-0.73c2.83,-1.45 5.48,-3.16 8.67,-3.88c3.8,-0.91 7.8,-0.5 11.32,1.18c6.49,3.2 10.56,10.33 9.38,17.53c-0.44,0.15 -0.68,0.63 -0.53,1.07l0.01,-0.01Zm-5.35,-21.37c0.67,-1.77 1.06,-3.75 1.84,-5.31c1.53,-2.95 3.42,-5.69 5.64,-8.17c4.53,-5.18 9.83,-10.72 16.57,-12.8c6.62,-2.04 14.13,-1.18 20.63,0.94c3.01,1 5.9,2.34 8.61,3.99c2.53,1.53 4.78,4.13 7.51,5.24c0.11,0.18 0.21,0.36 0.32,0.54c-1.44,-0.63 -2.9,-1.18 -4.33,-1.81c-7.54,-3.15 -15.62,-5.8 -23.9,-5.46c-14.35,0.59 -25.25,11.5 -32.32,23.18l-0.57,-0.34Zm40.58,-70.69c4.21,-1.81 8.59,-3.2 13.07,-4.17c4,-0.88 8.58,-1.94 12.67,-1.29c5.14,0.82 5.67,5.56 5.57,9.91c-0.15,4.82 -0.91,9.6 -2.24,14.24c-2.41,8.72 -6.31,16.9 -10.32,24.97c-1.2,-1.57 -2.45,-3.13 -3.75,-4.65c2.05,-2.23 3,-6.19 3.99,-8.86c1.5,-3.74 2.73,-7.58 3.68,-11.5c1.35,-6.12 0.71,-13.67 -5.19,-17.29c-5.55,-3.4 -13.14,-0.1 -18.4,2.44c-5.48,2.64 -10.7,6.43 -14.41,11.3c-1.64,-0.81 -3.3,-1.57 -4.98,-2.28c6.44,-4.91 12.78,-9.56 20.3,-12.82l0.01,-0Zm14.61,29.48c-0.71,1.84 -2.03,3.99 -2.69,6.09c-5.09,-5.44 -10.76,-10.3 -16.93,-14.48c-2.53,-1.71 -5.14,-3.28 -7.82,-4.72c3.4,-3.04 7.14,-5.68 11.14,-7.88c2.56,-1.35 5.24,-2.45 8.01,-3.28c2.73,-0.82 6.06,-1.9 8.71,-0.35c5.62,3.28 4.13,10.98 2.56,16.06c-0.9,2.9 -1.91,5.75 -2.99,8.57l0.01,-0.01Zm-56.33,-18.11c21.79,3.68 41,16.05 54.79,33.12c-2.76,-1.48 -5.66,-2.67 -8.67,-3.54c-7.26,-2.11 -15.7,-2.67 -22.92,-0.08c-7.21,2.59 -13.1,8.51 -17.81,14.33c-2.34,2.78 -4.3,5.86 -5.84,9.15c-0.73,1.5 -1.3,3.06 -1.71,4.68c-3.08,-1.21 -6.39,-1.67 -9.68,-1.35c-3.12,0.28 -6.15,1.25 -8.86,2.83c-7.46,-9.91 -19.4,-17.71 -31.37,-20.53c-6.49,-1.51 -13.22,-1.67 -19.77,-0.48c-3.96,0.71 -8.92,2.03 -12.78,4.41c0.77,-1.7 1.59,-3.38 2.48,-5.04c5.18,-9.55 12.18,-17.99 20.62,-24.84c18.4,-11.37 39.91,-16.3 61.52,-12.65l-0,-0.01Zm-82.31,15.49c-0.73,-5.71 -0.93,-11.48 -0.59,-17.23c0.18,-2.95 0.62,-6.08 4.44,-5.09c2.66,0.7 5.03,2.76 7.21,4.35c4.32,3.15 8.45,6.49 12.47,10.04c-0.92,0.59 -1.81,1.24 -2.69,1.9c-7.49,4.07 -13.7,10.33 -18.67,17.32c-0.24,-0.93 -0.49,-1.86 -0.68,-2.77c-0.6,-2.82 -1.12,-5.66 -1.48,-8.51l-0.01,-0.01Zm-9.18,0.88c-0.53,-4.27 -0.75,-8.57 -0.67,-12.87c0.1,-3.87 0.15,-8.41 1.91,-11.96c4.09,-8.23 14.66,-4.17 20.73,-1.09c6.68,3.41 12.91,7.63 18.54,12.56c-1.44,0.72 -2.86,1.49 -4.24,2.3c-5.27,-4.6 -10.8,-8.89 -16.58,-12.84c-3.91,-2.65 -10.97,-5.72 -13.86,-0c-1.23,2.45 -1.15,5.64 -1.24,8.32c-0.13,3.72 -0.01,7.45 0.34,11.16c0.35,3.54 0.94,7.05 1.77,10.5c0.59,2.45 1.18,5.31 2.36,7.73c-0.88,1.39 -1.72,2.79 -2.52,4.2c-0.76,1.37 -1.48,2.76 -2.17,4.17c-1.43,-7.4 -3.52,-14.63 -4.39,-22.19l0.02,0.01Zm4.89,30.75c2.36,-0.89 4.54,-2.23 6.89,-3.07c2.87,-1.05 5.84,-1.81 8.86,-2.28c6.17,-0.89 12.47,-0.48 18.47,1.23c5.71,1.62 11.11,4.18 15.97,7.57c4.72,3.29 8.51,7.34 12.33,11.57c-0.08,0.11 -0.17,0.21 -0.25,0.32c-0.33,0.3 -0.64,0.59 -0.96,0.93c-3.18,-4.83 -9.3,-8.68 -14.25,-11.29c-5.49,-2.9 -11.46,-4.8 -17.62,-5.6c-10.48,-1.35 -22.34,0.71 -31.55,6.43c0.65,-1.97 1.35,-3.9 2.11,-5.8l-0,-0.01Zm-3.51,10.33c10.23,-5.44 21.03,-8.66 32.85,-6.93c8.56,1.29 16.62,4.86 23.33,10.32c2.15,1.77 3.97,3.93 6.15,5.66c-2.05,3.05 -2.92,6.74 -2.46,10.39c0.48,3.43 1.68,6.72 3.54,9.65c-1.77,1.18 -3.27,3.08 -4.81,4.32c-2.58,2.1 -5.46,3.82 -8.53,5.1c-6.45,2.63 -13.51,2.75 -20.37,2.31c-6.14,-0.33 -12.21,-1.48 -18.05,-3.42c-2.97,-1.01 -5.83,-2.32 -8.54,-3.91c-1.97,-1.18 -3.64,-2.76 -5.47,-4.13c1.25,-3.71 2.78,-7.32 4.59,-10.79c0.5,-0.94 0.15,-2.1 -0.79,-2.61c-0.72,-0.39 -1.61,-0.27 -2.22,0.29l-3.54,3.23c1.06,-6.57 2.5,-13.07 4.31,-19.47l0.01,-0.01Zm166.16,113.25c-1.16,-0.63 -2.62,-0.2 -3.25,0.96c-0.18,0.33 -0.28,0.7 -0.29,1.08c-0.68,13.14 -2.61,26.19 -5.78,38.97c-0.93,-0.91 -2.43,-0.9 -3.34,0.03c-0.14,0.14 -0.25,0.29 -0.35,0.46l-11.74,19.73c-1.5,0.72 -3.09,1.23 -4.72,1.52c-3.97,0.81 -8.11,0.95 -12.14,1.28c-9.2,0.76 -18.46,1.23 -27.68,0.4c-17.58,-1.57 -34.51,-7.26 -52.14,-8.51c-3.06,-0.21 -6.16,-0.3 -9.25,-0.21c-4.74,-3.98 -8.55,-8.96 -11.13,-14.58c-0.76,-1.69 -3.76,-1.29 -4.07,0.53c-0.28,1.66 -0.49,3.32 -0.63,4.98c-12.46,-17.06 -15.12,-39.44 -16.04,-60.08c-0.02,-1.06 -0.9,-1.89 -1.96,-1.87c-0.65,0.02 -1.25,0.36 -1.59,0.91c-0.79,1.32 -1.51,2.69 -2.14,4.09c-4.39,-15.86 -3.84,-32.47 2.3,-48c0.74,-1.88 -1.91,-3.03 -3.18,-1.85c-1.2,1.11 -2.34,2.3 -3.41,3.54c-0.26,-7.71 0.64,-15.41 2.65,-22.85c1.49,1.21 3.07,2.32 4.72,3.3c2.75,1.7 5.66,3.11 8.7,4.21c6.49,2.41 13.5,3.49 20.42,3.86c7.61,0.41 15.3,-0.03 22.35,-3.14c3.01,-1.34 5.83,-3.1 8.35,-5.22c1.49,-1.24 3.5,-3 4.62,-4.95c3.37,4.05 7.95,7.04 13.08,7.81c8.95,1.38 17.7,-3.48 21.25,-11.81c2.95,2.95 7.14,5.12 10.59,6.49c6.35,2.54 13.3,3.18 20.07,2.72c6.68,-0.46 13.28,-1.79 19.61,-3.98c2.8,-0.95 5.5,-2.17 8.06,-3.64c1.41,-0.82 3.34,-1.93 4.65,-3.34c2.42,9.23 4.17,18.63 5.21,28.12c-1.3,-0.57 -2.68,-0.95 -4.09,-1.12c-1.64,-0.22 -2.67,1.72 -2.36,3.08c4.72,19.48 7.12,39.47 8.27,59.45c-1.13,-0.91 -2.36,-1.7 -3.65,-2.36l0.03,-0.01Z" style="fill:#231f20;fill-rule:nonzero;"/><path d="M898.21,268.42c0.74,-0.02 1.45,-0.3 2.01,-0.79l0.5,2.36c0.41,1.99 0.48,5.25 2.76,6.1c2,0.74 3.16,-0.5 3.86,-2.36c0.96,2.05 2.36,3.44 4.49,2.69c1.89,-0.68 2.36,-2.66 2.36,-4.45c0,-1.79 -0.18,-3.75 -0.35,-5.63c1.52,0.83 3.22,0.87 4.67,-0.9c0.97,-1.18 1.03,-2.81 0.75,-4.26c-0.54,-2.88 -1.77,-5.71 -2.67,-8.48l-11.07,-33.95c-0.86,-2.62 -2.41,-8.16 -6.38,-6.73c-3.83,1.38 -4.06,8.35 -4.36,11.65c-0.54,5.84 -0.67,11.71 -1.02,17.56c-0.34,5.74 -0.98,11.57 -0.67,17.33c0.14,3.03 0.53,10.19 5.14,9.87l-0.02,-0.01Zm-1.77,-23.03c0.29,-4.53 0.68,-9.05 1.11,-13.58c0.43,-4.53 0.48,-9.38 1.77,-13.8c0.17,-0.59 0.47,-2.43 1.13,-2.5c0.51,-0.04 1.18,2.36 1.24,2.6c0.82,2.36 1.54,4.72 2.3,7.08c1.42,4.39 2.85,8.78 4.27,13.17c1.42,4.39 2.85,8.78 4.28,13.18c0.79,2.36 1.56,4.74 2.31,7.13c0.37,0.87 0.66,1.77 0.86,2.7c0.57,1.26 0,1.56 -1.73,0.93c-0.31,-0.48 -0.59,-0.98 -0.84,-1.49c-0.74,-1.42 -3.26,-0.82 -3.11,0.84c0.28,3.13 0.55,6.26 0.82,9.39c0.04,0.5 0.27,1.26 -0.05,1.69c-0.48,0.64 -0.94,-1.36 -1.15,-1.96c-0.58,-1.72 -0.92,-3.5 -1.02,-5.31c-0.11,-1.64 -2.79,-2.26 -3.06,-0.41c-0.27,1.85 -0.54,3.61 -0.8,5.43c-0.06,0.69 -0.17,1.37 -0.32,2.05c-0.41,-0 -0.66,-2.17 -0.68,-2.29c-0.78,-3.79 -1.48,-7.6 -2.36,-11.36c-0.06,-0.36 -0.28,-0.68 -0.59,-0.87l0,-0.08c-0.15,-1.11 -1.81,-0.76 -1.87,0.25l0,0.29c-0.25,0.34 -0.35,0.77 -0.27,1.18c0.05,0.28 0.11,0.59 0.16,0.86c-0.03,0.56 -0.06,1.13 -0.08,1.69c0,0.47 0.18,2.21 -0.13,2.5c-2.1,1.96 -2.53,-5.6 -2.56,-6.15c-0.29,-4.39 0.11,-8.79 0.38,-13.16l-0.02,-0l0.01,-0Z" style="fill:#231f20;fill-rule:nonzero;"/><path d="M956.47,263.23c0.31,2.6 1.47,7.79 5.11,7.43c1.55,-0.15 2.53,-1.49 3.16,-3.22c0.27,1.18 0.53,2.33 0.8,3.5c0.38,1.64 0.89,3.58 2.95,3.54c1.61,-0.03 2.59,-1.11 3.2,-2.63c0.09,0.21 0.17,0.41 0.27,0.63c0.89,1.97 2.14,5.02 4.85,4.25c2.44,-0.69 2.57,-3.28 2.26,-5.37c-0.33,-2.27 -0.7,-4.53 -1.08,-6.79c1.46,0.74 3.09,1.1 4.72,1.03c0.78,0 1.46,-0.53 1.68,-1.28c1.26,-4.22 -1.18,-8.27 -2.95,-11.95c-2.26,-4.75 -4.56,-9.49 -6.85,-14.22c-2.36,-4.9 -4.75,-9.78 -7.16,-14.65c-1.58,-3.2 -3.54,-8.36 -7.04,-9.99c-7.92,-3.72 -5.85,14.85 -5.8,17.85c0.08,10.65 0.7,21.29 1.87,31.87l0.01,0Zm1.66,-45.46c0.98,-1.89 2.18,0.11 2.95,1.28c1,1.57 1.89,3.21 2.66,4.91c2.11,4.39 4.13,8.83 6.25,13.22l5.93,12.33c1.06,2.22 2.14,4.43 3.22,6.63c0.94,1.94 2,3.88 2,6.03c-1.86,-0.3 -3.43,-1.55 -4.13,-3.3c-0.29,-0.89 -1.24,-1.37 -2.13,-1.08c-0.83,0.27 -1.31,1.12 -1.12,1.97c0.65,4.13 1.66,8.33 2.01,12.49c0.15,1.77 -0.14,0.43 -0.64,-0.59c-0.47,-0.98 -0.88,-1.99 -1.22,-3.02c-0.63,-1.9 -1.06,-3.86 -1.29,-5.85c-0.24,-2.01 -3.24,-2.14 -3.24,0c0,1.61 -0.06,3.21 -0.22,4.82c-0.04,0.97 -0.2,1.93 -0.46,2.86c-0.06,0.22 -0.08,0.46 -0.05,0.69c0,-0.1 -0.06,-0.4 -0.2,-1.04c-0.73,-3.41 -1.54,-6.8 -2.3,-10.19c-0.06,-0.26 -0.18,-0.5 -0.37,-0.69c-0.48,-0.98 -2.31,-1.07 -2.52,0.21c-0.32,2.31 -0.84,4.58 -1.55,6.8c-0.53,1.54 -0.92,1.22 -1.52,0c-0.51,-1.22 -0.79,-2.52 -0.83,-3.84c-0.47,-4.53 -0.67,-9.13 -0.9,-13.68c-0.47,-9.48 -0.75,-18.99 -0.54,-28.48c0.02,-0.63 -0.11,-1.82 0.22,-2.48l-0.01,-0Z" style="fill:#231f20;fill-rule:nonzero;"/><path d="M859.41,181.88c-1.22,0.7 -1.83,1.96 -2.77,2.95c-0.82,0.89 -1.7,1.71 -2.64,2.47c0.07,-1.44 0.37,-2.85 0.87,-4.2c0.63,-1.67 2.05,-3.11 2.44,-4.81c0.05,-0.24 -0.17,-0.55 -0.44,-0.44c-1.66,0.66 -2.6,2.63 -3.26,4.19c-0.93,2.2 -1.36,4.57 -1.27,6.95c0,0.46 0.38,0.83 0.84,0.82c0.14,0 0.27,-0.04 0.4,-0.11c1.45,-1 2.8,-2.13 4.02,-3.4c1.02,-1.07 2.36,-2.36 2.59,-3.87c0.05,-0.28 -0.13,-0.56 -0.42,-0.62c-0.12,-0.02 -0.24,0 -0.35,0.05l-0.01,0.02Z" style="fill:#231f20;fill-rule:nonzero;"/><path d="M874.48,215.23c-0.09,-0.29 -0.39,-0.45 -0.68,-0.37c-0.18,0.05 -0.31,0.19 -0.37,0.37c-0.53,1.77 -0.54,3.66 -1.1,5.45c-0.41,1.29 -0.97,2.52 -1.66,3.68c-0.38,-2.87 -0.35,-5.72 -0.66,-8.61c0,-0.18 -0.16,-0.32 -0.35,-0.31c-0.14,0 -0.25,0.1 -0.3,0.22c-1.02,3.51 -0.53,7.53 0.08,11.07c0.12,0.42 0.56,0.67 0.98,0.56c0.13,-0.04 0.25,-0.11 0.35,-0.2c2.36,-3.02 4.77,-7.92 3.7,-11.85l0.01,-0.01Z" style="fill:#231f20;fill-rule:nonzero;"/><path d="M913.36,198.21c1.64,-3.69 2.65,-7.63 2.99,-11.65c0.06,-0.87 -1.42,-1.09 -1.55,-0.21c-0.44,3.38 -1.23,6.7 -2.36,9.92c-1.02,-1.42 -1.68,-3.07 -1.93,-4.8c-0.27,-1.85 0.19,-3.57 0.19,-5.41c0,-0.22 -0.32,-0.4 -0.48,-0.19c-2.83,3.54 -0.68,9.45 1.92,12.5c0.31,0.3 0.8,0.3 1.1,0c0.05,-0.05 0.09,-0.1 0.12,-0.16Z" style="fill:#231f20;fill-rule:nonzero;"/><path d="M959.13,187.59c1.7,-3.45 3.11,-8.22 1.84,-12.03c-0.12,-0.35 -0.5,-0.54 -0.85,-0.42c-0.26,0.09 -0.45,0.33 -0.46,0.61c-0.14,1.77 0.07,3.54 -0.19,5.36c-0.22,1.46 -0.61,2.88 -1.15,4.25c-1.61,-3.1 -1.93,-6.16 -2.44,-9.73c-0.06,-0.41 -0.66,-0.34 -0.77,0c-1.18,3.98 0.45,8.61 2.59,11.97c0.23,0.4 0.74,0.53 1.14,0.29c0.12,-0.07 0.22,-0.17 0.29,-0.29l0,-0.01Z" style="fill:#231f20;fill-rule:nonzero;"/><path d="M983.6,181.07c0.39,-1.75 0.61,-3.53 0.67,-5.31c0.04,-1.52 0.18,-3.34 -0.67,-4.66c-0.14,-0.22 -0.42,-0.29 -0.64,-0.15c-0.1,0.06 -0.17,0.15 -0.2,0.26c-0.44,1.33 -0.11,2.82 -0.13,4.22c-0.02,1.22 -0.13,2.44 -0.33,3.65c-1.55,-1.87 -2.54,-3.93 -3.74,-6.13c-0.22,-0.41 -0.97,-0.25 -0.92,0.25c0.35,3.16 2.39,6.04 4.59,8.24c0.33,0.32 0.85,0.32 1.17,-0.01c0.09,-0.09 0.16,-0.21 0.2,-0.34l0,-0.02Z" style="fill:#231f20;fill-rule:nonzero;"/><path d="M938.24,247.62c1.36,-3.51 2.3,-7.75 1.54,-11.5c-0.15,-0.74 -1.18,-0.5 -1.23,0.17c-0.3,3.31 -0.45,6.34 -1.33,9.48c-2.43,-3.57 -2.95,-7.68 -2.43,-12c0.04,-0.31 -0.42,-0.32 -0.51,-0.07c-1.8,4.79 -0.48,10.15 2.57,14.11c0.23,0.36 0.71,0.47 1.08,0.24c0.15,-0.1 0.27,-0.25 0.32,-0.42l-0.01,-0.01Z" style="fill:#231f20;fill-rule:nonzero;"/><path d="M991.95,228.46c1.58,-0.04 1.87,-2.32 2.14,-3.41c0.7,-2.78 1.64,-6.05 1.34,-8.94c0.04,-0.33 -0.18,-0.63 -0.51,-0.67c-0.33,-0.04 -0.63,0.18 -0.67,0.51c-0.5,1.54 -0.59,3.18 -0.88,4.77c-0.25,1.42 -0.37,3.48 -1.05,4.76c-0.46,0.87 -0.37,1.13 -1.26,0.11c-0.46,-0.68 -0.79,-1.45 -0.96,-2.26c-0.44,-1.65 -0.69,-3.35 -0.73,-5.06c0,-0.2 -0.15,-0.36 -0.35,-0.36c-0.16,0 -0.3,0.11 -0.35,0.26c-0.55,2.19 -0.42,4.5 0.39,6.61c0.42,1.16 1.25,3.71 2.88,3.67l0.01,0.01Z" style="fill:#231f20;fill-rule:nonzero;"/></g></g><defs><linearGradient id="_Linear1" x1="0" y1="0" x2="1" y2="0" gradientUnits="userSpaceOnUse" gradientTransform="matrix(138.47,-138.48,138.48,138.47,856.88,268)"><stop offset="0" style="stop-color:#f53b57;stop-opacity:1"/><stop offset="0.52" style="stop-color:#f53b57;stop-opacity:1"/><stop offset="1" style="stop-color:#ef5777;stop-opacity:1"/></linearGradient><linearGradient id="_Linear2" x1="0" y1="0" x2="1" y2="0" gradientUnits="userSpaceOnUse" gradientTransform="matrix(108.63,-62.72,62.72,108.63,857.81,116.9)"><stop offset="0" style="stop-color:#f53b57;stop-opacity:1"/><stop offset="0.51" style="stop-color:#f53b57;stop-opacity:1"/><stop offset="0.72" style="stop-color:#f24461;stop-opacity:1"/><stop offset="1" style="stop-color:#ef5777;stop-opacity:1"/></linearGradient></defs></svg>