<svg width="1200" height="630" viewBox="0 0 1200 630" fill="none" xmlns="http://www.w3.org/2000/svg"><g clip-path="url(#clip0_2515_5856)"><path fill="#fff" d="M0 0h1200v630H0z"/><rect width="1200" height="630" rx="16" fill="url(#paint0_linear_2515_5856)"/><path fill="#DFE6E9" fill-opacity=".1" d="M0 0h1200v630H0z"/><path d="M306.3 290.78v5.37h-11.2v17.66h11.2V376h20.73v-62.19h16.28v-17.66h-16.28v-5.06c0-6.3 2.92-9.52 9.06-9.52h5.38V263.9h-8.6c-16.13 0-26.57 10.75-26.57 26.87zM384.28 378c24.72 0 42.53-18.74 42.53-41.77 0-23.03-17.8-41.92-42.53-41.92-24.72 0-42.53 18.89-42.53 41.92S359.55 378 384.28 378zm-21.8-41.77c0-12.44 8.6-23.03 21.8-23.03 13.2 0 21.8 10.6 21.8 23.03 0 12.44-8.6 22.88-21.8 22.88-13.2 0-21.8-10.44-21.8-22.88zM434.45 376h20.73v-40.84c0-13.36 9.21-21.35 21.2-21.35h2.9v-19.5c-13.81-.77-21.95 5.53-24.71 17.05v-15.2h-20.12V376zm50.2 0h20.73v-43.76c0-13.82 7.83-19.81 16.58-19.81 10.29 0 17.2 5.99 17.2 19.8V376h20.73v-43.76c0-15.36 6.6-19.81 16.27-19.81 9.37 0 15.97 5.99 15.97 19.8V376h20.73v-48.83c0-20.11-13.2-32.86-30.4-32.86-13.97 0-21.65 5.38-27.02 15.05-5.23-9.67-14.75-15.05-25.95-15.05-12.29 0-20.27 4.6-24.42 13.51v-11.67h-20.42V376zm184.13 2c21.96 0 39.46-18.58 39.46-41.62 0-23.03-17.5-41.92-39.46-41.92-13.67 0-20.88 5.53-25.18 13.98V263.9h-20.73V376h20.11v-13.05c4.3 9.06 11.52 15.05 25.8 15.05zm-25.8-41.62c0-12.43 8.75-23.18 22.42-23.18 13.2 0 22.11 10.6 22.11 23.03 0 12.13-8.9 23.03-22.1 23.03-13.67 0-22.43-10.44-22.43-22.88zM715.95 376h20.73v-40.84c0-13.36 9.21-21.35 21.2-21.35h2.9v-19.5c-13.81-.77-21.95 5.53-24.71 17.05v-15.2h-20.12V376zm50.2 0h20.73v-79.85h-20.73V376zM764 277.27c0 6.75 5.37 12.28 12.44 12.28 7.21 0 12.43-5.37 12.43-12.28 0-6.6-5.22-12.13-12.43-12.13A12.23 12.23 0 00764 277.27zM835.68 378c15.67 0 26.72-5.69 34.25-15.36l-15.05-13.05c-4.15 5.53-9.37 9.52-17.35 9.52-13.21 0-22.27-10.6-22.27-23.03 0-12.44 8.6-23.03 21.8-23.03 7.07 0 13.21 3.53 16.9 9.05l15.96-13.05c-6.75-9.36-18.57-15.05-33.16-14.9-24.42.16-42.23 18.74-42.23 41.93 0 23.18 18.27 41.92 41.15 41.92zm93.73-2h27.49l-37.78-42.69 37.62-37.16h-29.48l-29.94 32.25v-64.5h-20.73V376h20.73v-37.93l32.1 37.93zm54.1 2c17.66 0 31.02-11.06 31.02-25.8 0-11.98-5.38-20.58-28.56-26.56-9.52-2.46-10.75-4.92-10.75-7.68 0-4.91 4.3-7.06 9.98-7.06 5.37 0 10.29 2.45 14.13 8.6l15.04-11.52c-8.13-10.6-16.73-13.82-29.63-13.82-18.73 0-29.79 10.44-29.79 24.41 0 10.14 3.22 19.81 24.57 24.88 12.59 2.92 14.59 5.22 14.59 9.36 0 4.76-4 8.3-11.06 8.3-6.76 0-12.9-3.23-18.73-9.83l-13.98 12.74C959.1 373.4 970 378 983.51 378z" fill="#000A1C"/><path fill-rule="evenodd" clip-rule="evenodd" d="M200.53 267.28c0-1.36 0-2.04.27-2.56.22-.43.58-.79 1.02-1.02.52-.27 1.2-.27 2.56-.27h12.46c1.36 0 2.04 0 2.56.27.43.23.79.59 1.02 1.02.27.52.27 1.2.27 2.56v2.68l-.01 1.17h11.41l-.01-1.17v-2.68c0-1.36 0-2.04.27-2.56.22-.43.58-.79 1.02-1.02.52-.27 1.2-.27 2.56-.27h12.46c1.36 0 2.04 0 2.56.27.44.23.8.59 1.02 1.02.27.52.27 1.2.27 2.56v2.68l-.01 1.17h6.9a9.56 9.56 0 019.56 9.56v15.7a9.56 9.56 0 01-9.56 9.56h-66.57a9.56 9.56 0 01-9.56-9.57v-15.7a9.56 9.56 0 019.56-9.55h7.98l-.01-1.17v-2.68z" fill="#00E5CA"/><path fill-rule="evenodd" clip-rule="evenodd" d="M200.53 267.28c0-1.36 0-2.04.27-2.56.22-.43.58-.79 1.02-1.02.52-.27 1.2-.27 2.56-.27h12.46c1.36 0 2.04 0 2.56.27.43.23.79.59 1.02 1.02.27.52.27 1.2.27 2.56v2.68l-.01 1.17h11.41l-.01-1.17v-2.68c0-1.36 0-2.04.27-2.56.22-.43.58-.79 1.02-1.02.52-.27 1.2-.27 2.56-.27h12.46c1.36 0 2.04 0 2.56.27.44.23.8.59 1.02 1.02.27.52.27 1.2.27 2.56v2.68l-.01 1.17h6.9a9.56 9.56 0 019.56 9.56v15.7a9.56 9.56 0 01-9.56 9.56h-66.57a9.56 9.56 0 01-9.56-9.57v-15.7a9.56 9.56 0 019.56-9.55h7.98l-.01-1.17v-2.68z" fill="url(#paint1_linear_2515_5856)" fill-opacity=".05"/><path d="M183 315.5a9.56 9.56 0 019.56-9.56h66.57a9.56 9.56 0 019.56 9.57v16.66a9.56 9.56 0 01-9.56 9.56h-66.57a9.56 9.56 0 01-9.56-9.56V315.5z" fill="#002941"/><path d="M183 315.5a9.56 9.56 0 019.56-9.56h66.57a9.56 9.56 0 019.56 9.57v16.66a9.56 9.56 0 01-9.56 9.56h-66.57a9.56 9.56 0 01-9.56-9.56V315.5z" fill="url(#paint2_linear_2515_5856)" fill-opacity=".05"/><path d="M183 351.3a9.56 9.56 0 019.56-9.57h66.57a9.56 9.56 0 019.56 9.56V367a9.56 9.56 0 01-9.56 9.56h-66.57a9.56 9.56 0 01-9.56-9.56v-15.7z" fill="#000A1C"/><path d="M183 351.3a9.56 9.56 0 019.56-9.57h66.57a9.56 9.56 0 019.56 9.56V367a9.56 9.56 0 01-9.56 9.56h-66.57a9.56 9.56 0 01-9.56-9.56v-15.7z" fill="url(#paint3_linear_2515_5856)" fill-opacity=".05"/></g><defs><linearGradient id="paint0_linear_2515_5856" x1="600" y1="630" x2="600" y2="0" gradientUnits="userSpaceOnUse"><stop offset=".65" stop-color="#E5EAEF"/><stop offset="1" stop-color="#D3DDE7"/></linearGradient><linearGradient id="paint1_linear_2515_5856" x1="225.85" y1="265.32" x2="225.85" y2="305.94" gradientUnits="userSpaceOnUse"><stop/><stop offset="1" stop-opacity="0"/></linearGradient><linearGradient id="paint2_linear_2515_5856" x1="225.85" y1="305.94" x2="225.85" y2="341.73" gradientUnits="userSpaceOnUse"><stop/><stop offset="1" stop-opacity="0"/></linearGradient><linearGradient id="paint3_linear_2515_5856" x1="225.85" y1="341.73" x2="225.85" y2="376.55" gradientUnits="userSpaceOnUse"><stop/><stop offset="1" stop-opacity="0"/></linearGradient><clipPath id="clip0_2515_5856"><path fill="#fff" d="M0 0h1200v630H0z"/></clipPath></defs></svg>