<svg width="500" height="500" viewBox="0 0 500 500" fill="none" xmlns="http://www.w3.org/2000/svg">
<rect width="500" height="500" fill="white"/>
<path d="M90 334H218V398.716C218 433.667 189.667 462 154.716 462H153.284C118.333 462 90 433.667 90 398.716V334Z" fill="url(#paint0_linear_3927_2011)"/>
<path d="M90 186H346.716C381.667 186 410 214.334 410 249.284V250.717C410 285.667 381.667 314 346.716 314H90V186Z" fill="url(#paint1_linear_3927_2011)"/>
<path d="M90 101.284C90 66.333 118.333 38 153.284 38H346.716C381.667 38 410 66.333 410 101.284V102.716C410 137.667 381.667 166 346.716 166H90V101.284Z" fill="url(#paint2_linear_3927_2011)"/>
<mask id="mask0_3927_2011" style="mask-type:alpha" maskUnits="userSpaceOnUse" x="90" y="38" width="320" height="424">
<path d="M90 334H218V398.716C218 433.667 189.667 462 154.716 462H153.284C118.333 462 90 433.667 90 398.716V334Z" fill="url(#paint3_linear_3927_2011)"/>
<path d="M90 186H346.716C381.667 186 410 214.334 410 249.284V250.717C410 285.667 381.667 314 346.716 314H90V186Z" fill="url(#paint4_linear_3927_2011)"/>
<path d="M90 101.284C90 66.333 118.333 38 153.284 38H346.716C381.667 38 410 66.333 410 101.284V102.716C410 137.667 381.667 166 346.716 166H90V101.284Z" fill="url(#paint5_linear_3927_2011)"/>
</mask>
<g mask="url(#mask0_3927_2011)">
<g filter="url(#filter0_d_3927_2011)">
<mask id="mask1_3927_2011" style="mask-type:alpha" maskUnits="userSpaceOnUse" x="90" y="38" width="320" height="424">
<path d="M90 334H218V398.716C218 433.667 189.667 462 154.716 462H153.284C118.333 462 90 433.667 90 398.716V334Z" fill="black" fill-opacity="0.1"/>
<path d="M90 101.284C90 66.333 118.333 38 153.284 38H346.716C381.667 38 410 66.333 410 101.284V102.716C410 137.667 381.667 166 346.716 166H90V101.284Z" fill="black" fill-opacity="0.1"/>
<path d="M90 186H346.716C381.667 186 410 214.334 410 249.284V250.717C410 285.667 381.667 314 346.716 314H90V186Z" fill="black" fill-opacity="0.1"/>
</mask>
<g mask="url(#mask1_3927_2011)">
<path d="M96.7149 -72.2506C146.856 -121.187 273.999 -72.2506 273.999 -72.2506H96.7149C84.3998 -60.2313 76.7298 -42.3079 76.7298 -16.3051C76.7298 115.567 219.58 163.522 219.58 255.433C219.58 345.407 82.6888 400.915 76.9176 523.174H273.999C273.999 523.174 76.7298 659.043 76.7298 531.166C76.7298 528.471 76.7933 525.807 76.9176 523.174H-10.0007L7.00526 -72.2506H96.7149Z" fill="black" fill-opacity="0.1"/>
</g>
</g>
<g filter="url(#filter1_f_3927_2011)">
<circle cx="50.0005" cy="406" r="120" fill="#00C4B8"/>
</g>
<g filter="url(#filter2_f_3927_2011)">
<circle cx="50.0005" cy="102" r="120" fill="#00C4B8"/>
</g>
</g>
<defs>
<filter id="filter0_d_3927_2011" x="83.6716" y="0.0298538" width="259.94" height="499.94" filterUnits="userSpaceOnUse" color-interpolation-filters="sRGB">
<feFlood flood-opacity="0" result="BackgroundImageFix"/>
<feColorMatrix in="SourceAlpha" type="matrix" values="0 0 0 0 0 0 0 0 0 0 0 0 0 0 0 0 0 0 127 0" result="hardAlpha"/>
<feOffset dx="31.6418"/>
<feGaussianBlur stdDeviation="18.9851"/>
<feComposite in2="hardAlpha" operator="out"/>
<feColorMatrix type="matrix" values="0 0 0 0 0 0 0 0 0 0 0 0 0 0 0 0 0 0 0.25 0"/>
<feBlend mode="normal" in2="BackgroundImageFix" result="effect1_dropShadow_3927_2011"/>
<feBlend mode="normal" in="SourceGraphic" in2="effect1_dropShadow_3927_2011" result="shape"/>
</filter>
<filter id="filter1_f_3927_2011" x="-133.283" y="222.717" width="366.567" height="366.567" filterUnits="userSpaceOnUse" color-interpolation-filters="sRGB">
<feFlood flood-opacity="0" result="BackgroundImageFix"/>
<feBlend mode="normal" in="SourceGraphic" in2="BackgroundImageFix" result="shape"/>
<feGaussianBlur stdDeviation="31.6418" result="effect1_foregroundBlur_3927_2011"/>
</filter>
<filter id="filter2_f_3927_2011" x="-133.283" y="-81.2831" width="366.567" height="366.567" filterUnits="userSpaceOnUse" color-interpolation-filters="sRGB">
<feFlood flood-opacity="0" result="BackgroundImageFix"/>
<feBlend mode="normal" in="SourceGraphic" in2="BackgroundImageFix" result="shape"/>
<feGaussianBlur stdDeviation="31.6418" result="effect1_foregroundBlur_3927_2011"/>
</filter>
<linearGradient id="paint0_linear_3927_2011" x1="218.557" y1="395.681" x2="89.989" y2="396.2" gradientUnits="userSpaceOnUse">
<stop stop-color="#00E6CA"/>
<stop offset="1" stop-color="#00C4B8"/>
</linearGradient>
<linearGradient id="paint1_linear_3927_2011" x1="411.391" y1="247.682" x2="90" y2="250.928" gradientUnits="userSpaceOnUse">
<stop stop-color="#00E6CA"/>
<stop offset="1" stop-color="#00C4B8"/>
</linearGradient>
<linearGradient id="paint2_linear_3927_2011" x1="411.391" y1="99.6812" x2="90" y2="102.928" gradientUnits="userSpaceOnUse">
<stop stop-color="#00E6CA"/>
<stop offset="1" stop-color="#00C4B8"/>
</linearGradient>
<linearGradient id="paint3_linear_3927_2011" x1="218.557" y1="395.681" x2="89.989" y2="396.2" gradientUnits="userSpaceOnUse">
<stop stop-color="#00FFE1"/>
<stop offset="1" stop-color="#01E0C6"/>
</linearGradient>
<linearGradient id="paint4_linear_3927_2011" x1="411.391" y1="247.682" x2="90" y2="250.928" gradientUnits="userSpaceOnUse">
<stop stop-color="#00FFE1"/>
<stop offset="1" stop-color="#01E0C6"/>
</linearGradient>
<linearGradient id="paint5_linear_3927_2011" x1="411.391" y1="99.6812" x2="90" y2="102.928" gradientUnits="userSpaceOnUse">
<stop stop-color="#00FFE1"/>
<stop offset="1" stop-color="#01E0C6"/>
</linearGradient>
</defs>
</svg>