<svg width="32" height="50" viewBox="0 0 32 50" fill="none" xmlns="http://www.w3.org/2000/svg">
<path d="M8.59947 48.1181C9.09296 48.1181 9.38736 47.8022 9.47458 47.4725L9.17472 47.3736C9.10928 47.5934 8.92393 47.8022 8.59947 47.8022C8.26962 47.8022 7.95884 47.5605 7.95884 47.1044C7.95884 46.6318 8.27784 46.3983 8.59677 46.3983C8.92117 46.3983 9.10112 46.5879 9.15834 46.8241L9.46642 46.7198C9.37921 46.3791 9.0875 46.0879 8.59677 46.0879C8.09519 46.0879 7.62354 46.4698 7.62354 47.1044C7.62354 47.739 8.07881 48.1181 8.59947 48.1181ZM10.0062 47.1016C10.0062 46.6319 10.3279 46.3983 10.6523 46.3983C10.9795 46.3983 11.3012 46.6319 11.3012 47.1016C11.3012 47.5715 10.9795 47.805 10.6523 47.805C10.3279 47.805 10.0062 47.5715 10.0062 47.1016ZM9.67091 47.1016C9.67091 47.7418 10.1453 48.1181 10.6523 48.1181C11.1593 48.1181 11.6365 47.7418 11.6365 47.1016C11.6365 46.4643 11.1593 46.0879 10.6523 46.0879C10.1453 46.0879 9.67091 46.4643 9.67091 47.1016ZM14.1244 48.0769V46.1291H13.68L13.0612 47.6154L12.4341 46.1291H11.9979V48.0769H12.3169V46.6483L12.914 48.0769H13.1974L13.7999 46.6428V48.0769H14.1244ZM14.9367 47.0247V46.4203H15.2775C15.4847 46.4203 15.6101 46.5385 15.6101 46.7253C15.6101 46.9093 15.4847 47.0247 15.2775 47.0247H14.9367ZM15.3266 47.316C15.6973 47.316 15.9427 47.066 15.9427 46.7225C15.9427 46.3819 15.6973 46.1291 15.3266 46.1291H14.6096V48.0769H14.9367V47.316H15.3266ZM17.4735 48.0769V47.7637H16.5874V46.1291H16.2603V48.0769H17.4735ZM18.0944 48.0769V46.1291H17.7619V48.0769H18.0944ZM19.8987 48.0769H20.2558L19.5033 46.1291H19.1244L18.372 48.0769H18.7182L18.8981 47.5879H19.716L19.8987 48.0769ZM19.307 46.4863L19.6015 47.283H19.0126L19.307 46.4863ZM22.1554 48.0769V46.1291H21.8282V47.511L20.9504 46.1291H20.5333V48.0769H20.8604V46.6016L21.8146 48.0769H22.1554ZM24.0293 46.4396V46.1291H22.4454V46.4396H23.0724V48.0769H23.3996V46.4396H24.0293Z" fill="#64748b"/>
<path d="M7.4822 43.2638C9.40139 43.2638 10.2215 41.9451 10.4221 41.0836L9.10479 40.7055C8.98269 41.1539 8.55521 41.8748 7.4822 41.8748C6.55747 41.8748 5.70255 41.1978 5.70255 40.0287C5.70255 38.7187 6.63596 38.121 7.46476 38.121C8.55521 38.121 8.9478 38.8506 9.04374 39.2814L10.3436 38.8682C10.1429 37.9715 9.32289 36.7671 7.46476 36.7671C5.73744 36.7671 4.27185 38.0858 4.27185 40.0287C4.27185 41.9715 5.70254 43.2638 7.4822 43.2638ZM13.8911 43.2638C15.8104 43.2638 16.6304 41.9451 16.831 41.0836L15.5138 40.7055C15.3916 41.1539 14.9641 41.8748 13.8911 41.8748C12.9664 41.8748 12.1115 41.1978 12.1115 40.0287C12.1115 38.7187 13.0449 38.121 13.8737 38.121C14.9641 38.121 15.3567 38.8506 15.4527 39.2814L16.7525 38.8682C16.5519 37.9715 15.7319 36.7671 13.8737 36.7671C12.1464 36.7671 10.6808 38.0858 10.6808 40.0287C10.6808 41.9715 12.1115 43.2638 13.8911 43.2638ZM18.8345 39.6946V38.1033H19.6371C20.1605 38.1033 20.5182 38.4023 20.5182 38.9033C20.5182 39.3868 20.1605 39.6946 19.6371 39.6946H18.8345ZM19.7767 40.8902C21.0329 40.8902 21.8965 40.0726 21.8965 38.8945C21.8965 37.7341 21.0329 36.899 19.7767 36.899H17.4474V43.1319H18.8258V40.8902H19.7767ZM26.1414 43.1319H27.6419L25.3388 36.899H23.7424L21.4132 43.1319H22.8613L23.3062 41.866H25.6965L26.1414 43.1319ZM24.5188 38.4462L25.2603 40.6H23.7599L24.5188 38.4462Z" fill="#64748b"/>
<path d="M14.393 7.2895V0.507324H6.22569V2.47134L5.29443 5.16282L6.22569 6.10842V8.80019L8.08849 10.6914V11.5645L9.73642 14.2559V15.4197L12.4588 18.9114V21.8213H15.3962L19.838 24.3672V26.3315L26.2859 25.3131V20.8757L21.7725 16.0466H12.3824V7.2895H14.393Z" fill="#64748b"/>
<path d="M15.1082 23.3091V22.4849H12.3821V23.3091H15.1082Z" fill="#64748b"/>
<path d="M15.3815 25.5071V24.4082H16.1993V25.5071H15.3815Z" fill="#64748b"/>
<path d="M16.1989 24.4082V23.584H17.0167V24.4082H16.1989Z" fill="#64748b"/>
<path d="M13.7455 9.20666C13.7455 8.90341 13.9895 8.65723 14.2907 8.65723H21.3787C21.68 8.65723 21.924 8.90341 21.924 9.20666V14.1284C21.924 14.432 21.68 14.6779 21.3787 14.6779H14.2907C13.9895 14.6779 13.7455 14.432 13.7455 14.1284V9.20666Z" fill="#64748b"/>
<path d="M17.0931 12.9479L16.017 11.9471C15.896 11.8345 15.896 11.6528 16.017 11.5402C16.1373 11.4284 16.3327 11.4278 16.4538 11.5386C16.4541 11.5391 16.4546 11.5394 16.4551 11.5399L17.3501 12.3699L19.4863 10.3833C19.6063 10.2718 19.8015 10.2713 19.9223 10.382C19.9231 10.3825 19.9239 10.3833 19.9247 10.3842C20.046 10.4977 20.0458 10.68 19.9239 10.7932L17.6072 12.9479C17.4663 13.079 17.237 13.0795 17.0953 12.9495C17.0944 12.949 17.0939 12.9485 17.0931 12.9479Z" fill="#131212"/>
<path d="M19.7595 8.79228V7.27003C19.7595 6.26615 18.9517 5.45215 17.9553 5.45215C16.9589 5.45215 16.1511 6.26615 16.1511 7.27003V8.79228" stroke="#64748b" stroke-width="2"/>
</svg>
