<svg width="588" height="452" viewBox="0 0 588 452" fill="none" xmlns="http://www.w3.org/2000/svg"><rect width="588" height="452" rx="24" fill="url(#paint0_linear_2419_5944)"/><path transform="rotate(-90 377 240)" fill="url(#paint1_linear_2419_5944)" d="M377 240h27v211h-27z"/><path stroke="url(#paint2_linear_2419_5944)" stroke-width="3" d="M199.17 110.06l42 52"/><path stroke="url(#paint3_linear_2419_5944)" stroke-width="3" d="M241.18 285.93l-42 53"/><path stroke="url(#paint4_linear_2419_5944)" stroke-width="3" d="M221.42 250.44l-78 23"/><path transform="scale(1 -1) rotate(-16.43 -590.03 -590.78)" stroke="url(#paint5_linear_2419_5944)" stroke-width="3" d="M0-1.5h81.32"/><g filter="url(#filter0_d_2419_5944)"><g filter="url(#filter1_d_2419_5944)"><circle cx="179.5" cy="77.5" r="43.5" fill="url(#paint6_linear_2419_5944)"/></g><path d="M148.87 83v-9.13h6.06v1.74h-4v2.11h3.42v1.74h-3.42V83h-2.06zm10.85.17a3.44 3.44 0 01-3.54-3.64c0-.77.16-1.42.5-1.96a3.6 3.6 0 016.08 0c.33.54.5 1.2.5 1.96s-.17 1.42-.5 1.97a3.43 3.43 0 01-3.04 1.67zm0-1.67c.31 0 .57-.08.78-.24.22-.15.37-.38.48-.68.1-.3.16-.65.16-1.05s-.05-.75-.16-1.05c-.1-.3-.26-.53-.48-.69-.2-.16-.47-.24-.78-.24-.32 0-.59.08-.8.24-.2.16-.37.39-.48.69-.1.3-.15.65-.15 1.05s.05.75.15 1.05c.11.3.27.53.48.68.21.16.48.24.8.24zm5.53 1.5v-6.94h1.69l.16 1.5h.05c.34-.56.76-.98 1.24-1.25.5-.28 1.02-.42 1.57-.42a3.17 3.17 0 011.34.28l-.42 1.72a4.42 4.42 0 00-1.23-.2c-.43 0-.85.13-1.27.38a3 3 0 00-1.07 1.32V83h-2.06zm6.99 0v-6.94h1.55l.14.85h.06c.13-.28.3-.52.54-.71.23-.2.55-.31.95-.31.3 0 .56.1.77.3.22.18.36.46.44.83.13-.32.31-.58.56-.8.25-.22.58-.33.98-.33.5 0 .88.2 1.15.6.27.4.4.95.4 1.64V83h-1.96v-4.73c0-.42-.13-.63-.38-.63a.47.47 0 00-.35.17c-.09.1-.18.27-.28.5V83h-1.6v-4.73a.9.9 0 00-.1-.48.32.32 0 00-.3-.15.43.43 0 00-.34.17c-.09.1-.18.27-.28.5V83h-1.95zm8.6 0v-9.13h2.52c.89 0 1.66.16 2.31.48.66.32 1.18.81 1.54 1.48.36.66.55 1.52.55 2.56 0 1.05-.19 1.91-.55 2.6a3.48 3.48 0 01-1.5 1.52c-.64.33-1.38.49-2.22.49h-2.65zm2.07-1.67h.34c.48 0 .9-.09 1.26-.28.35-.18.63-.5.82-.92.2-.43.31-1 .31-1.74 0-.72-.1-1.3-.3-1.7-.2-.42-.48-.72-.83-.89a2.79 2.79 0 00-1.26-.26h-.34v5.8zm8.2 1.84c-.47 0-.87-.1-1.22-.28a2.03 2.03 0 01-1.06-1.82c0-.78.35-1.37 1.05-1.78.7-.41 1.88-.66 3.53-.76-.03-.21-.1-.4-.21-.54a1 1 0 00-.5-.34 2.76 2.76 0 00-1.46-.04c-.21.05-.45.12-.69.22-.23.1-.48.2-.74.34l-.73-1.34a7.5 7.5 0 012.09-.82 5.4 5.4 0 011.16-.12c.65 0 1.21.11 1.68.35.47.22.83.57 1.08 1.03.25.46.38 1.04.38 1.75V83h-1.69l-.15-.78h-.06c-.34.26-.72.48-1.14.67a3.2 3.2 0 01-1.32.28zm.66-1.6c.3 0 .6-.06.87-.18.27-.13.52-.29.77-.48v-1.14c-.69.03-1.22.1-1.6.2-.37.1-.63.24-.78.4a.77.77 0 00-.23.54c0 .14.04.27.11.37.09.1.2.18.34.22.15.05.32.07.52.07zm9.75 1.6c-.74 0-1.32-.13-1.76-.38a2.3 2.3 0 01-.94-1.08c-.2-.46-.3-.99-.3-1.6v-2.44h-1.73v-1.53l1.83-.08.27-2.13h1.7v2.13h2.93v1.6h-2.94v2.44c0 .35.05.63.16.84.1.22.26.38.47.48.22.1.5.14.83.14a3.64 3.64 0 001.39-.25l.36 1.48c-.3.1-.65.18-1.02.25-.37.09-.78.13-1.25.13zm5.82 0c-.47 0-.87-.1-1.22-.28a2.03 2.03 0 01-1.06-1.82c0-.78.35-1.37 1.05-1.78.7-.41 1.88-.66 3.53-.76-.03-.21-.1-.4-.21-.54a1 1 0 00-.5-.34 2.76 2.76 0 00-1.46-.04c-.21.05-.45.12-.69.22-.23.1-.48.2-.74.34l-.73-1.34a7.5 7.5 0 012.09-.82 5.4 5.4 0 011.16-.12c.65 0 1.21.11 1.68.35.46.22.82.57 1.08 1.03.25.46.37 1.04.37 1.75V83h-1.68l-.15-.78h-.06c-.34.26-.72.48-1.14.67a3.2 3.2 0 01-1.32.28zm.66-1.6c.3 0 .6-.06.87-.18.27-.13.52-.29.77-.48v-1.14c-.69.03-1.22.1-1.6.2-.37.1-.63.24-.78.4a.77.77 0 00-.23.54c0 .14.04.27.11.37.09.1.2.18.34.22.15.05.32.07.52.07z" fill="#002941"/></g><g filter="url(#filter2_d_2419_5944)"><circle cx="179.5" cy="373.5" r="43.5" fill="url(#paint7_linear_2419_5944)"/></g><path d="M163.37 374.22a5.4 5.4 0 01-2.04-.44c-.7-.28-1.3-.79-1.81-1.5l1.53-1.65c.33.42.7.75 1.08.98.38.21.76.32 1.15.32.6 0 1.05-.16 1.35-.47.31-.31.47-.87.47-1.67v-5.31h-4.6v-2.22h7.24V370c0 .77-.14 1.47-.43 2.11a3.3 3.3 0 01-1.37 1.53 4.9 4.9 0 01-2.57.58zm10.88 0a6.76 6.76 0 01-4.46-1.7l1.53-1.81c.44.36.93.65 1.46.88.53.23 1.09.34 1.65.34.56 0 .98-.1 1.24-.29.28-.19.42-.44.42-.74 0-.27-.08-.49-.22-.64a1.71 1.71 0 00-.63-.44 22 22 0 00-.97-.43l-1.51-.65a5.52 5.52 0 01-1.23-.66c-.38-.29-.7-.64-.93-1.05a3.09 3.09 0 01-.34-1.49c0-.65.18-1.23.53-1.75.38-.52.88-.94 1.52-1.26a5.76 5.76 0 016.16 1.06l-1.36 1.68c-.4-.3-.81-.53-1.22-.68-.4-.17-.9-.26-1.48-.26-.43 0-.78.1-1.06.27a.89.89 0 00-.41.8c0 .22.08.42.25.57.17.16.4.3.68.42l1 .4 1.41.6c.53.2.98.44 1.35.72a2.85 2.85 0 011.18 2.47c0 .65-.19 1.25-.55 1.8-.34.55-.86 1-1.54 1.33-.68.34-1.5.5-2.47.5zm10.47 0c-.94 0-1.76-.24-2.47-.7a4.6 4.6 0 01-1.65-2.06 8.5 8.5 0 01-.6-3.38c0-1.31.2-2.4.6-3.3.4-.9.95-1.57 1.65-2.03.71-.47 1.53-.7 2.47-.7.94 0 1.76.23 2.47.7.7.46 1.26 1.13 1.65 2.03.4.9.6 1.99.6 3.3a8.5 8.5 0 01-.6 3.38 4.6 4.6 0 01-1.65 2.05c-.71.47-1.53.7-2.47.7zm0-2.29c.4 0 .76-.14 1.06-.43.3-.3.53-.73.69-1.3.16-.57.25-1.28.25-2.12 0-.82-.09-1.5-.25-2.05a2.74 2.74 0 00-.69-1.26c-.3-.3-.65-.44-1.06-.44-.4 0-.76.15-1.06.44-.3.28-.54.7-.7 1.26a7.66 7.66 0 00-.24 2.05c0 .84.08 1.55.24 2.12.16.57.4 1 .7 1.3.3.29.65.43 1.06.43zm6.22 2.07v-11.74h2.72l2.47 5.84 1 2.59h.08c-.06-.63-.14-1.32-.24-2.09-.1-.77-.14-1.5-.14-2.18v-4.16h2.53V374h-2.71l-2.47-5.85-1-2.56h-.08c.06.64.14 1.34.24 2.1.1.74.14 1.46.14 2.15V374h-2.54zm-27.1 15l3.65-11.74h3.16l3.66 11.74h-2.8l-1.52-5.94-.47-1.87-.47-1.91h-.07a1936.95 1936.95 0 01-.92 3.78l-1.53 5.94h-2.7zm2.4-2.79v-2.07h5.62v2.07h-5.62zm9.21 2.79v-11.74h4.16c.85 0 1.62.12 2.3.36.7.23 1.25.62 1.66 1.17.42.56.63 1.3.63 2.25 0 .92-.2 1.67-.63 2.25a3.79 3.79 0 01-1.67 1.32c-.7.27-1.46.41-2.29.41h-1.51V389h-2.65zm2.65-6.08h1.35c.73 0 1.27-.17 1.62-.49.36-.32.54-.79.54-1.39 0-.62-.19-1.05-.56-1.3a2.8 2.8 0 00-1.6-.37h-1.35v3.55zm7.77 6.08v-2.23h2.73v-7.27h-2.73v-2.24H194v2.24h-2.73v7.27H194V389h-8.13z" fill="#002941"/><g filter="url(#filter3_d_2419_5944)"><circle cx="104.5" cy="171.5" r="43.5" fill="url(#paint8_linear_2419_5944)"/></g><path d="M78.39 178.22a6.76 6.76 0 01-4.47-1.7l1.53-1.81c.45.36.93.65 1.46.88.54.23 1.1.34 1.66.34.56 0 .97-.1 1.24-.29.27-.19.41-.44.41-.74 0-.27-.07-.49-.21-.64a1.71 1.71 0 00-.63-.44 22 22 0 00-.98-.43l-1.5-.65a5.52 5.52 0 01-1.23-.66c-.39-.29-.7-.64-.94-1.05a3.09 3.09 0 01-.34-1.49c0-.65.18-1.23.54-1.75.37-.52.88-.94 1.51-1.26a5.76 5.76 0 016.16 1.06l-1.35 1.68c-.41-.3-.82-.53-1.23-.68-.4-.17-.9-.26-1.47-.26-.43 0-.79.1-1.06.27a.89.89 0 00-.42.8c0 .22.09.42.25.57.17.16.4.3.69.42l.99.4 1.42.6c.53.2.98.44 1.35.72a2.85 2.85 0 011.17 2.47c0 .65-.18 1.25-.54 1.8-.35.55-.86 1-1.55 1.33-.67.34-1.5.5-2.46.5zm11.24 0c-.94 0-1.78-.18-2.54-.54a4.42 4.42 0 01-1.78-1.6 4.78 4.78 0 01-.65-2.54 4.33 4.33 0 012.61-4.13 5.94 5.94 0 014.48-.21c.58.21 1.05.5 1.42.86l-1.22 1.64a4.05 4.05 0 00-1-.52 2.9 2.9 0 00-2.32.13c-.4.2-.71.5-.93.88a2.7 2.7 0 00-.32 1.35c0 .51.1.96.3 1.35.22.38.51.67.89.88a3.15 3.15 0 002.6.05c.38-.17.74-.36 1.07-.6l1.06 1.68a5.96 5.96 0 01-3.67 1.31zm5.55-.22v-12.62h2.65v3.1l-.14 1.7h.05a5.1 5.1 0 011.22-.91c.5-.28 1.08-.41 1.75-.41 1 0 1.74.32 2.2.97.46.65.7 1.53.7 2.66V178h-2.65v-5.17c0-.6-.1-1.03-.3-1.31-.2-.28-.53-.41-1.01-.41-.36 0-.68.08-.96.25-.26.15-.55.38-.86.68V178h-2.65zm15.08.22c-.92 0-1.76-.18-2.52-.54a4.42 4.42 0 01-1.78-1.6 4.78 4.78 0 01-.65-2.54 4.55 4.55 0 014.64-4.68c.93 0 1.7.19 2.33.57.62.37 1.09.88 1.4 1.53a4.73 4.73 0 01.43 2.88c-.02.22-.05.38-.07.49h-6.77v-1.78h4.99l-.42.5c0-.72-.15-1.26-.46-1.62-.3-.37-.75-.56-1.34-.56-.43 0-.8.1-1.13.29-.32.2-.58.49-.76.88-.18.4-.27.9-.27 1.5s.11 1.11.33 1.5c.21.4.53.68.93.87a3.99 3.99 0 002.63.13c.37-.11.76-.27 1.15-.47l.89 1.6a6.6 6.6 0 01-3.55 1.04zm5.12-.22v-8.93h2l.18 1.1h.07c.17-.36.4-.67.7-.92.3-.26.71-.4 1.23-.4.38 0 .71.13.99.38.28.24.46.6.56 1.08.17-.4.4-.75.72-1.02.32-.29.74-.43 1.26-.43.63 0 1.13.25 1.47.77.35.52.52 1.22.52 2.1V178h-2.52v-6.08c0-.54-.16-.81-.48-.81a.6.6 0 00-.45.21c-.12.13-.24.35-.36.65V178h-2.07v-6.08c0-.28-.04-.48-.13-.62a.42.42 0 00-.38-.2.55.55 0 00-.43.22c-.12.13-.24.35-.36.65V178h-2.52zm13.84.22c-.6 0-1.12-.12-1.57-.36a2.62 2.62 0 01-1.37-2.34c0-1 .45-1.76 1.35-2.29.92-.53 2.43-.85 4.54-.97a1.46 1.46 0 00-.27-.7c-.14-.2-.35-.34-.63-.44a3.55 3.55 0 00-1.87-.05c-.29.06-.59.16-.9.29-.3.12-.62.26-.96.43l-.93-1.73a8.2 8.2 0 014.18-1.2c.83 0 1.55.15 2.15.45.6.28 1.07.73 1.39 1.33.32.59.49 1.34.49 2.25V178h-2.16l-.2-1h-.07c-.45.33-.94.62-1.48.86s-1.1.36-1.7.36zm.84-2.06c.4 0 .77-.07 1.12-.23.35-.17.68-.37.99-.61v-1.48c-.88.05-1.56.14-2.05.27-.48.13-.82.3-1.01.5a1 1 0 00-.29.7c0 .19.05.34.15.48.1.13.25.22.43.28.19.06.41.1.66.1z" fill="#002941"/><g filter="url(#filter4_d_2419_5944)"><circle cx="104.5" cy="279.5" r="43.5" fill="url(#paint9_linear_2419_5944)"/></g><path d="M74.68 287v-11.74h7.77v2.24h-5.1v2.35h4.33v2.22h-4.34v2.7h5.3V287h-7.96zm12.7 0L84 278.07h2.67l1.4 4.21a44.34 44.34 0 01.81 2.76h.07l.38-1.4.41-1.36 1.4-4.2h2.55L90.42 287h-3.04zm12.45.22c-.93 0-1.77-.18-2.52-.54a4.42 4.42 0 01-1.78-1.6 4.78 4.78 0 01-.65-2.54 4.55 4.55 0 014.64-4.68c.92 0 1.7.19 2.32.57.63.37 1.1.88 1.4 1.53a4.73 4.73 0 01.44 2.88l-.07.49h-6.77v-1.78h4.98l-.4.5c0-.72-.17-1.26-.48-1.62-.3-.37-.74-.56-1.33-.56-.43 0-.8.1-1.13.29-.33.2-.58.49-.76.88-.18.4-.27.9-.27 1.5s.1 1.11.33 1.5c.21.4.52.68.93.87a3.99 3.99 0 002.63.13c.37-.11.75-.27 1.15-.47l.88 1.6a6.6 6.6 0 01-3.55 1.04zm5.79-.22v-8.93h2.16l.2 1.19h.07a6 6 0 011.31-.99c.5-.28 1.1-.41 1.76-.41 1.01 0 1.75.32 2.22.97.47.65.7 1.53.7 2.66V287h-2.65v-5.17c0-.6-.1-1.03-.3-1.31-.2-.28-.53-.41-1.01-.41-.36 0-.68.08-.95.25-.27.15-.56.38-.87.68V287h-2.64zm16.12.22c-.95 0-1.7-.17-2.27-.49-.55-.34-.95-.8-1.2-1.39a5.17 5.17 0 01-.38-2.05v-3.15h-2.24v-1.96l2.36-.1.34-2.74h2.18v2.73h3.78v2.07h-3.78v3.13c0 .45.07.8.2 1.08s.33.48.61.62c.28.12.63.18 1.06.18a4.69 4.69 0 001.78-.33l.47 1.91c-.4.12-.83.23-1.31.32-.47.11-1 .17-1.6.17zm8.77 0c-.79 0-1.57-.14-2.35-.4a9.27 9.27 0 01-2.02-.97l1.13-1.66a6.7 6.7 0 003.6 1.06c.5 0 .86-.07 1.08-.21.23-.16.35-.34.35-.54a.48.48 0 00-.11-.33.73.73 0 00-.34-.25 2.98 2.98 0 00-.67-.23c-.28-.07-.64-.16-1.08-.25a6.01 6.01 0 01-2.61-1.08 2.17 2.17 0 01-.8-1.71c0-.84.37-1.52 1.1-2.02a5.14 5.14 0 013.01-.77c.8 0 1.53.13 2.18.4.66.24 1.22.52 1.7.82l-1.2 1.58a5.59 5.59 0 00-2.91-.84c-.28 0-.5.03-.69.09a.76.76 0 00-.41.25c-.1.1-.14.23-.14.36 0 .24.15.42.46.54.32.1.85.25 1.6.41.92.2 1.63.44 2.15.7.51.27.87.58 1.06.92.2.34.3.75.3 1.25 0 .54-.16 1.02-.5 1.45-.32.44-.81.78-1.47 1.05a6.7 6.7 0 01-2.42.38z" fill="#002941"/><g filter="url(#filter5_d_2419_5944)"><circle cx="294" cy="227" r="86" transform="rotate(-90 294 227)" fill="url(#paint10_linear_2419_5944)"/></g><path d="M243 248.25h8.5m21.25 21.25v8.5m0-102v8.5m21.25 85v8.5m0-102v8.5m21.25 85v8.5m0-102v8.5m21.25 63.75h8.5M243 227h8.5m85 0h8.5m-102-21.25h8.5m85 0h8.5m-8.5 51v-59.5a12.75 12.75 0 00-12.75-12.75h-59.5a12.75 12.75 0 00-12.75 12.75v59.5a12.75 12.75 0 0012.75 12.75h59.5a12.75 12.75 0 0012.75-12.75zm-68-4.25v-51h51v51h-51z" stroke="url(#paint11_linear_2419_5944)" stroke-width="1.5" strokeLinecap="round" stroke-linejoin="round"/><defs><linearGradient id="paint0_linear_2419_5944" x1="294" y1="452" x2="294" y2="0" gradientUnits="userSpaceOnUse"><stop offset=".65" stop-color="#E5EAEF"/><stop offset="1" stop-color="#D3DDE7"/></linearGradient><linearGradient id="paint1_linear_2419_5944" x1="377" y1="240" x2="431.84" y2="247.5" gradientUnits="userSpaceOnUse"><stop offset=".05" stop-color="#00E5CA"/><stop offset="1" stop-color="#0FD0B9"/><stop offset="1" stop-color="#0EDAC2"/></linearGradient><linearGradient id="paint2_linear_2419_5944" x1="198" y1="111" x2="196.51" y2="112.24" gradientUnits="userSpaceOnUse"><stop offset=".05" stop-color="#00E5CA"/><stop offset="1" stop-color="#0FD0B9"/><stop offset="1" stop-color="#0EDAC2"/></linearGradient><linearGradient id="paint3_linear_2419_5944" x1="240" y1="285" x2="238.47" y2="283.82" gradientUnits="userSpaceOnUse"><stop offset=".05" stop-color="#00E5CA"/><stop offset="1" stop-color="#0FD0B9"/><stop offset="1" stop-color="#0EDAC2"/></linearGradient><linearGradient id="paint4_linear_2419_5944" x1="221" y1="249" x2="220.43" y2="247.15" gradientUnits="userSpaceOnUse"><stop offset=".05" stop-color="#00E5CA"/><stop offset="1" stop-color="#0FD0B9"/><stop offset="1" stop-color="#0EDAC2"/></linearGradient><linearGradient id="paint5_linear_2419_5944" x1="0" y1="0" x2=".02" y2="1.94" gradientUnits="userSpaceOnUse"><stop offset=".05" stop-color="#00E5CA"/><stop offset="1" stop-color="#0FD0B9"/><stop offset="1" stop-color="#0EDAC2"/></linearGradient><linearGradient id="paint6_linear_2419_5944" x1="179.5" y1="121" x2="179.5" y2="34" gradientUnits="userSpaceOnUse"><stop offset=".65" stop-color="#E5EAEF"/><stop offset="1" stop-color="#D3DDE7"/></linearGradient><linearGradient id="paint7_linear_2419_5944" x1="179.5" y1="417" x2="179.5" y2="330" gradientUnits="userSpaceOnUse"><stop offset=".65" stop-color="#E5EAEF"/><stop offset="1" stop-color="#D3DDE7"/></linearGradient><linearGradient id="paint8_linear_2419_5944" x1="104.5" y1="215" x2="104.5" y2="128" gradientUnits="userSpaceOnUse"><stop offset=".65" stop-color="#E5EAEF"/><stop offset="1" stop-color="#D3DDE7"/></linearGradient><linearGradient id="paint9_linear_2419_5944" x1="104.5" y1="323" x2="104.5" y2="236" gradientUnits="userSpaceOnUse"><stop offset=".65" stop-color="#E5EAEF"/><stop offset="1" stop-color="#D3DDE7"/></linearGradient><linearGradient id="paint10_linear_2419_5944" x1="237.74" y1="152.25" x2="351.06" y2="299.34" gradientUnits="userSpaceOnUse"><stop stop-color="#000A1C"/><stop offset=".36" stop-color="#002941"/></linearGradient><linearGradient id="paint11_linear_2419_5944" x1="243" y1="278" x2="348.28" y2="179.51" gradientUnits="userSpaceOnUse"><stop offset=".05" stop-color="#00E5CA"/><stop offset="1" stop-color="#0FD0B9"/><stop offset="1" stop-color="#0EDAC2"/></linearGradient><filter id="filter0_d_2419_5944" x="120" y="22" width="119" height="119" filterUnits="userSpaceOnUse" color-interpolation-filters="sRGB"><feFlood flood-opacity="0" result="BackgroundImageFix"/><feColorMatrix in="SourceAlpha" values="0 0 0 0 0 0 0 0 0 0 0 0 0 0 0 0 0 0 127 0" result="hardAlpha"/><feOffset dy="4"/><feGaussianBlur stdDeviation="8"/><feComposite in2="hardAlpha" operator="out"/><feColorMatrix values="0 0 0 0 0 0 0 0 0 0 0 0 0 0 0 0 0 0 0.05 0"/><feBlend in2="BackgroundImageFix" result="effect1_dropShadow_2419_5944"/><feBlend in="SourceGraphic" in2="effect1_dropShadow_2419_5944" result="shape"/></filter><filter id="filter1_d_2419_5944" x="120" y="22" width="119" height="119" filterUnits="userSpaceOnUse" color-interpolation-filters="sRGB"><feFlood flood-opacity="0" result="BackgroundImageFix"/><feColorMatrix in="SourceAlpha" values="0 0 0 0 0 0 0 0 0 0 0 0 0 0 0 0 0 0 127 0" result="hardAlpha"/><feMorphology radius="4" operator="dilate" in="SourceAlpha" result="effect1_dropShadow_2419_5944"/><feOffset dy="4"/><feGaussianBlur stdDeviation="6"/><feComposite in2="hardAlpha" operator="out"/><feColorMatrix values="0 0 0 0 0 0 0 0 0 0 0 0 0 0 0 0 0 0 0.05 0"/><feBlend in2="BackgroundImageFix" result="effect1_dropShadow_2419_5944"/><feBlend in="SourceGraphic" in2="effect1_dropShadow_2419_5944" result="shape"/></filter><filter id="filter2_d_2419_5944" x="120" y="318" width="119" height="119" filterUnits="userSpaceOnUse" color-interpolation-filters="sRGB"><feFlood flood-opacity="0" result="BackgroundImageFix"/><feColorMatrix in="SourceAlpha" values="0 0 0 0 0 0 0 0 0 0 0 0 0 0 0 0 0 0 127 0" result="hardAlpha"/><feMorphology radius="4" operator="dilate" in="SourceAlpha" result="effect1_dropShadow_2419_5944"/><feOffset dy="4"/><feGaussianBlur stdDeviation="6"/><feComposite in2="hardAlpha" operator="out"/><feColorMatrix values="0 0 0 0 0 0 0 0 0 0 0 0 0 0 0 0 0 0 0.05 0"/><feBlend in2="BackgroundImageFix" result="effect1_dropShadow_2419_5944"/><feBlend in="SourceGraphic" in2="effect1_dropShadow_2419_5944" result="shape"/></filter><filter id="filter3_d_2419_5944" x="41" y="112" width="127" height="127" filterUnits="userSpaceOnUse" color-interpolation-filters="sRGB"><feFlood flood-opacity="0" result="BackgroundImageFix"/><feColorMatrix in="SourceAlpha" values="0 0 0 0 0 0 0 0 0 0 0 0 0 0 0 0 0 0 127 0" result="hardAlpha"/><feMorphology radius="4" operator="dilate" in="SourceAlpha" result="effect1_dropShadow_2419_5944"/><feOffset dy="4"/><feGaussianBlur stdDeviation="8"/><feComposite in2="hardAlpha" operator="out"/><feColorMatrix values="0 0 0 0 0 0 0 0 0 0 0 0 0 0 0 0 0 0 0.05 0"/><feBlend in2="BackgroundImageFix" result="effect1_dropShadow_2419_5944"/><feBlend in="SourceGraphic" in2="effect1_dropShadow_2419_5944" result="shape"/></filter><filter id="filter4_d_2419_5944" x="41" y="220" width="127" height="127" filterUnits="userSpaceOnUse" color-interpolation-filters="sRGB"><feFlood flood-opacity="0" result="BackgroundImageFix"/><feColorMatrix in="SourceAlpha" values="0 0 0 0 0 0 0 0 0 0 0 0 0 0 0 0 0 0 127 0" result="hardAlpha"/><feMorphology radius="4" operator="dilate" in="SourceAlpha" result="effect1_dropShadow_2419_5944"/><feOffset dy="4"/><feGaussianBlur stdDeviation="8"/><feComposite in2="hardAlpha" operator="out"/><feColorMatrix values="0 0 0 0 0 0 0 0 0 0 0 0 0 0 0 0 0 0 0.05 0"/><feBlend in2="BackgroundImageFix" result="effect1_dropShadow_2419_5944"/><feBlend in="SourceGraphic" in2="effect1_dropShadow_2419_5944" result="shape"/></filter><filter id="filter5_d_2419_5944" x="190" y="127" width="208" height="208" filterUnits="userSpaceOnUse" color-interpolation-filters="sRGB"><feFlood flood-opacity="0" result="BackgroundImageFix"/><feColorMatrix in="SourceAlpha" values="0 0 0 0 0 0 0 0 0 0 0 0 0 0 0 0 0 0 127 0" result="hardAlpha"/><feMorphology radius="2" operator="dilate" in="SourceAlpha" result="effect1_dropShadow_2419_5944"/><feOffset dy="4"/><feGaussianBlur stdDeviation="8"/><feComposite in2="hardAlpha" operator="out"/><feColorMatrix values="0 0 0 0 0 0 0 0 0 0 0 0 0 0 0 0 0 0 0.05 0"/><feBlend in2="BackgroundImageFix" result="effect1_dropShadow_2419_5944"/><feBlend in="SourceGraphic" in2="effect1_dropShadow_2419_5944" result="shape"/></filter></defs></svg>