<svg width="588" height="452" viewBox="0 0 588 452" fill="none" xmlns="http://www.w3.org/2000/svg"><rect width="588" height="452" rx="24" transform="matrix(-1 0 0 1 588 0)" fill="url(#paint0_linear_2461_5828)"/><path stroke="url(#paint1_linear_2461_5828)" stroke-width="3" d="M299.15 226.76l191-131"/><path transform="scale(-1 1) rotate(-34.44 335.18 971.99)" stroke="url(#paint2_linear_2461_5828)" stroke-width="3" d="M0-1.5h231.61"/><path stroke="url(#paint3_linear_2461_5828)" stroke-width="3" d="M295.29 231.53l195 38"/><path transform="scale(-1 1) rotate(11.03 -1223.99 -2443.62)" stroke="url(#paint4_linear_2461_5828)" stroke-width="3" d="M0-1.5h198.67"/><path transform="rotate(90 213 212)" fill="url(#paint5_linear_2461_5828)" d="M213 212h27v213h-27z"/><g filter="url(#filter0_d_2461_5828)"><circle cx="294" cy="226" r="86" fill="url(#paint6_linear_2461_5828)"/></g><path d="M341.94 200.19v51.62a11.06 11.06 0 01-11.06 11.06h-73.75a11.06 11.06 0 01-11.07-11.06V200.2m95.88 0a11.06 11.06 0 00-11.06-11.06h-73.75a11.06 11.06 0 00-11.07 11.06m95.88 0v1.2a11.05 11.05 0 01-5.26 9.41l-36.88 22.7a11.07 11.07 0 01-11.6 0l-36.88-22.7a11.05 11.05 0 01-5.26-9.41v-1.2" stroke="url(#paint7_linear_2461_5828)" stroke-width="1.5" stroke-linecap="round" stroke-linejoin="round"/><g filter="url(#filter1_d_2461_5828)"><circle cx="492.5" cy="92.5" r="28.5" fill="url(#paint8_linear_2461_5828)"/></g><path d="M498.25 83.77a5.78 5.78 0 01-5.75 5.77 5.74 5.74 0 01-5.75-5.77A5.78 5.78 0 01492.5 78a5.74 5.74 0 015.75 5.77v0zM481 105.49a11.56 11.56 0 0111.5-11.35 11.48 11.48 0 0111.5 11.35 27.43 27.43 0 01-11.5 2.51c-4.1 0-8-.9-11.5-2.51z" stroke="#002941" stroke-width="1.5" stroke-linecap="round" stroke-linejoin="round"/><g filter="url(#filter2_d_2461_5828)"><circle cx="492.5" cy="181.5" r="28.5" fill="url(#paint9_linear_2461_5828)"/></g><path d="M503 174.5v5m0 0v5m0-5h5m-5 0h-5m-3.75-6.88a5.62 5.62 0 11-11.24 0 5.62 5.62 0 0111.24 0v0zM478 194.06v-.19a10.62 10.62 0 1121.25 0v.19a20.54 20.54 0 01-10.63 2.94c-3.88 0-7.52-1.07-10.62-2.94v0z" stroke="#002941" stroke-width="1.5" stroke-linecap="round" stroke-linejoin="round"/><g filter="url(#filter3_d_2461_5828)"><circle cx="492.5" cy="270.5" r="28.5" fill="url(#paint10_linear_2461_5828)"/></g><path d="M503 263.5v5m0 0v5m0-5h5m-5 0h-5m-3.75-6.88a5.62 5.62 0 11-11.24 0 5.62 5.62 0 0111.24 0v0zM478 283.06v-.19a10.62 10.62 0 1121.25 0v.19a20.54 20.54 0 01-10.63 2.94c-3.88 0-7.52-1.07-10.62-2.94v0z" stroke="#002941" stroke-width="1.5" stroke-linecap="round" stroke-linejoin="round"/><g filter="url(#filter4_d_2461_5828)"><circle cx="492.5" cy="359.5" r="28.5" fill="url(#paint11_linear_2461_5828)"/></g><path d="M503 352.5v5m0 0v5m0-5h5m-5 0h-5m-3.75-6.88a5.62 5.62 0 11-11.24 0 5.62 5.62 0 0111.24 0v0zM478 372.06v-.19a10.62 10.62 0 1121.25 0v.19a20.54 20.54 0 01-10.63 2.94c-3.88 0-7.52-1.07-10.62-2.94v0z" stroke="#002941" stroke-width="1.5" stroke-linecap="round" stroke-linejoin="round"/><defs><linearGradient id="paint0_linear_2461_5828" x1="294" y1="452" x2="294" y2="0" gradientUnits="userSpaceOnUse"><stop offset=".65" stop-color="#E5EAEF"/><stop offset="1" stop-color="#D3DDE7"/></linearGradient><linearGradient id="paint1_linear_2461_5828" x1="300" y1="228" x2="301.1" y2="229.59" gradientUnits="userSpaceOnUse"><stop offset=".05" stop-color="#00E5CA"/><stop offset="1" stop-color="#0FD0B9"/><stop offset="1" stop-color="#0EDAC2"/></linearGradient><linearGradient id="paint2_linear_2461_5828" x1="0" y1="0" x2=".01" y2="1.94" gradientUnits="userSpaceOnUse"><stop offset=".05" stop-color="#00E5CA"/><stop offset="1" stop-color="#0FD0B9"/><stop offset="1" stop-color="#0EDAC2"/></linearGradient><linearGradient id="paint3_linear_2461_5828" x1="295" y1="233" x2="294.64" y2="234.9" gradientUnits="userSpaceOnUse"><stop offset=".05" stop-color="#00E5CA"/><stop offset="1" stop-color="#0FD0B9"/><stop offset="1" stop-color="#0EDAC2"/></linearGradient><linearGradient id="paint4_linear_2461_5828" x1="0" y1="0" x2=".01" y2="1.94" gradientUnits="userSpaceOnUse"><stop offset=".05" stop-color="#00E5CA"/><stop offset="1" stop-color="#0FD0B9"/><stop offset="1" stop-color="#0EDAC2"/></linearGradient><linearGradient id="paint5_linear_2461_5828" x1="213" y1="212" x2="267.85" y2="219.43" gradientUnits="userSpaceOnUse"><stop offset=".05" stop-color="#00E5CA"/><stop offset="1" stop-color="#0FD0B9"/><stop offset="1" stop-color="#0EDAC2"/></linearGradient><linearGradient id="paint6_linear_2461_5828" x1="237.74" y1="151.25" x2="351.06" y2="298.34" gradientUnits="userSpaceOnUse"><stop stop-color="#000A1C"/><stop offset=".36" stop-color="#002941"/></linearGradient><linearGradient id="paint7_linear_2461_5828" x1="246.06" y1="189.13" x2="313.74" y2="283.17" gradientUnits="userSpaceOnUse"><stop offset=".05" stop-color="#00E5CA"/><stop offset="1" stop-color="#0FD0B9"/><stop offset="1" stop-color="#0EDAC2"/></linearGradient><linearGradient id="paint8_linear_2461_5828" x1="492.5" y1="121" x2="492.5" y2="64" gradientUnits="userSpaceOnUse"><stop offset=".65" stop-color="#E5EAEF"/><stop offset="1" stop-color="#D3DDE7"/></linearGradient><linearGradient id="paint9_linear_2461_5828" x1="492.5" y1="210" x2="492.5" y2="153" gradientUnits="userSpaceOnUse"><stop offset=".65" stop-color="#E5EAEF"/><stop offset="1" stop-color="#D3DDE7"/></linearGradient><linearGradient id="paint10_linear_2461_5828" x1="492.5" y1="299" x2="492.5" y2="242" gradientUnits="userSpaceOnUse"><stop offset=".65" stop-color="#E5EAEF"/><stop offset="1" stop-color="#D3DDE7"/></linearGradient><linearGradient id="paint11_linear_2461_5828" x1="492.5" y1="388" x2="492.5" y2="331" gradientUnits="userSpaceOnUse"><stop offset=".65" stop-color="#E5EAEF"/><stop offset="1" stop-color="#D3DDE7"/></linearGradient><filter id="filter0_d_2461_5828" x="190" y="126" width="208" height="208" filterUnits="userSpaceOnUse" color-interpolation-filters="sRGB"><feFlood flood-opacity="0" result="BackgroundImageFix"/><feColorMatrix in="SourceAlpha" values="0 0 0 0 0 0 0 0 0 0 0 0 0 0 0 0 0 0 127 0" result="hardAlpha"/><feMorphology radius="2" operator="dilate" in="SourceAlpha" result="effect1_dropShadow_2461_5828"/><feOffset dy="4"/><feGaussianBlur stdDeviation="8"/><feComposite in2="hardAlpha" operator="out"/><feColorMatrix values="0 0 0 0 0 0 0 0 0 0 0 0 0 0 0 0 0 0 0.08 0"/><feBlend in2="BackgroundImageFix" result="effect1_dropShadow_2461_5828"/><feBlend in="SourceGraphic" in2="effect1_dropShadow_2461_5828" result="shape"/></filter><filter id="filter1_d_2461_5828" x="448" y="52" width="89" height="89" filterUnits="userSpaceOnUse" color-interpolation-filters="sRGB"><feFlood flood-opacity="0" result="BackgroundImageFix"/><feColorMatrix in="SourceAlpha" values="0 0 0 0 0 0 0 0 0 0 0 0 0 0 0 0 0 0 127 0" result="hardAlpha"/><feMorphology radius="4" operator="dilate" in="SourceAlpha" result="effect1_dropShadow_2461_5828"/><feOffset dy="4"/><feGaussianBlur stdDeviation="6"/><feComposite in2="hardAlpha" operator="out"/><feColorMatrix values="0 0 0 0 0 0 0 0 0 0 0 0 0 0 0 0 0 0 0.05 0"/><feBlend in2="BackgroundImageFix" result="effect1_dropShadow_2461_5828"/><feBlend in="SourceGraphic" in2="effect1_dropShadow_2461_5828" result="shape"/></filter><filter id="filter2_d_2461_5828" x="448" y="141" width="89" height="89" filterUnits="userSpaceOnUse" color-interpolation-filters="sRGB"><feFlood flood-opacity="0" result="BackgroundImageFix"/><feColorMatrix in="SourceAlpha" values="0 0 0 0 0 0 0 0 0 0 0 0 0 0 0 0 0 0 127 0" result="hardAlpha"/><feMorphology radius="4" operator="dilate" in="SourceAlpha" result="effect1_dropShadow_2461_5828"/><feOffset dy="4"/><feGaussianBlur stdDeviation="6"/><feComposite in2="hardAlpha" operator="out"/><feColorMatrix values="0 0 0 0 0 0 0 0 0 0 0 0 0 0 0 0 0 0 0.05 0"/><feBlend in2="BackgroundImageFix" result="effect1_dropShadow_2461_5828"/><feBlend in="SourceGraphic" in2="effect1_dropShadow_2461_5828" result="shape"/></filter><filter id="filter3_d_2461_5828" x="448" y="230" width="89" height="89" filterUnits="userSpaceOnUse" color-interpolation-filters="sRGB"><feFlood flood-opacity="0" result="BackgroundImageFix"/><feColorMatrix in="SourceAlpha" values="0 0 0 0 0 0 0 0 0 0 0 0 0 0 0 0 0 0 127 0" result="hardAlpha"/><feMorphology radius="4" operator="dilate" in="SourceAlpha" result="effect1_dropShadow_2461_5828"/><feOffset dy="4"/><feGaussianBlur stdDeviation="6"/><feComposite in2="hardAlpha" operator="out"/><feColorMatrix values="0 0 0 0 0 0 0 0 0 0 0 0 0 0 0 0 0 0 0.05 0"/><feBlend in2="BackgroundImageFix" result="effect1_dropShadow_2461_5828"/><feBlend in="SourceGraphic" in2="effect1_dropShadow_2461_5828" result="shape"/></filter><filter id="filter4_d_2461_5828" x="448" y="319" width="89" height="89" filterUnits="userSpaceOnUse" color-interpolation-filters="sRGB"><feFlood flood-opacity="0" result="BackgroundImageFix"/><feColorMatrix in="SourceAlpha" values="0 0 0 0 0 0 0 0 0 0 0 0 0 0 0 0 0 0 127 0" result="hardAlpha"/><feMorphology radius="4" operator="dilate" in="SourceAlpha" result="effect1_dropShadow_2461_5828"/><feOffset dy="4"/><feGaussianBlur stdDeviation="6"/><feComposite in2="hardAlpha" operator="out"/><feColorMatrix values="0 0 0 0 0 0 0 0 0 0 0 0 0 0 0 0 0 0 0.05 0"/><feBlend in2="BackgroundImageFix" result="effect1_dropShadow_2461_5828"/><feBlend in="SourceGraphic" in2="effect1_dropShadow_2461_5828" result="shape"/></filter></defs></svg>