<svg width="34" height="50" viewBox="0 0 34 50" fill="none" xmlns="http://www.w3.org/2000/svg">
<path d="M12.1891 49.1803H12.5685L11.7691 47.2431H11.3665L10.567 49.1803H10.9349L11.126 48.694H11.995L12.1891 49.1803ZM11.5606 47.5983L11.8734 48.3907H11.2477L11.5606 47.5983ZM14.1523 49.1803V48.8688H13.2109V47.2431H12.8633V49.1803H14.1523ZM14.8121 49.1803V47.2431H14.4588V49.1803H14.8121ZM17.1461 49.1803V48.1995H16.141V48.4863H16.8188C16.8014 48.653 16.645 48.9208 16.2308 48.9208C15.8774 48.9208 15.553 48.683 15.553 48.2104C15.553 47.7295 15.9006 47.5055 16.2336 47.5055C16.561 47.5055 16.7638 47.6913 16.8332 47.9098L17.1606 47.7923C17.0505 47.4726 16.7319 47.2021 16.2336 47.2021C15.7007 47.2021 15.1997 47.5738 15.1997 48.2104C15.1997 48.8497 15.6746 49.2213 16.2105 49.2213C16.5378 49.2213 16.7492 49.0765 16.839 48.9344L16.8651 49.1803H17.1461ZM19.3023 49.1803V47.2431H18.9547V48.6175L18.022 47.2431H17.5788V49.1803H17.9264V47.7131L18.9402 49.1803H19.3023ZM21.0877 49.1803V48.8743H20.1666V48.3606H21.0008V48.0628H20.1666V47.5491H21.0877V47.2431H19.819V49.1803H21.0877ZM21.8469 48.8798V47.5437H22.2148C22.571 47.5437 22.8636 47.7623 22.8636 48.2158C22.8636 48.6639 22.5681 48.8798 22.2118 48.8798H21.8469ZM22.2234 49.1803C22.7796 49.1803 23.2256 48.8361 23.2256 48.2158C23.2256 47.5929 22.7854 47.2431 22.2263 47.2431H21.4993V49.1803H22.2234Z" fill="#64748b"/>
<path d="M11.1576 44.2621V40.9485H7.81151V42.1201H9.78584C9.70237 42.4698 9.24824 43.1343 8.16377 43.1343C7.09784 43.1343 6.18945 42.4611 6.18945 41.1671C6.18945 39.7856 7.23684 39.2261 8.12664 39.2261C9.22037 39.2261 9.65604 39.9256 9.75804 40.3103L11.1669 39.8469C10.8796 38.9813 10.0082 37.9321 8.12664 37.9321C6.27287 37.9321 4.70642 39.2173 4.70642 41.1671C4.70642 43.1256 6.20799 44.3933 8.03397 44.3933C8.97017 44.3933 9.59117 44.0261 9.87851 43.6326L9.97117 44.2621H11.1576ZM13.5866 42.9594V39.366H14.4394C15.4497 39.366 16.2746 39.9256 16.2746 41.1671C16.2746 42.4086 15.4497 42.9594 14.4394 42.9594H13.5866ZM14.495 44.2621C16.4786 44.2621 17.804 43.0818 17.804 41.1671C17.804 39.2523 16.4786 38.0633 14.5043 38.0633H12.1222V44.2621H14.495ZM20.1248 40.8436V39.2611H20.9775C21.5336 39.2611 21.9137 39.5583 21.9137 40.0567C21.9137 40.5376 21.5336 40.8436 20.9775 40.8436H20.1248ZM21.1258 42.0326C22.4606 42.0326 23.3782 41.2195 23.3782 40.0479C23.3782 38.8938 22.4606 38.0633 21.1258 38.0633H18.651V44.2621H20.1155V42.0326H21.1258ZM27.2181 44.2621H28.8309L27.4962 41.7529C28.3026 41.4818 28.7938 40.8436 28.7938 40.0043C28.7938 38.9026 27.9596 38.0633 26.662 38.0633H24.0574V44.2621H25.5219V41.9539H26.041L27.2181 44.2621ZM25.5219 40.7649V39.2611H26.3839C26.9864 39.2611 27.3108 39.5496 27.3108 40.0129C27.3108 40.4501 26.9864 40.7649 26.3839 40.7649H25.5219Z" fill="#64748b"/>
<path d="M16.8006 1.87061L17.3072 3.38312H18.9472L17.6206 4.31787L18.1272 5.83039L16.8006 4.89506L15.4739 5.83039L15.9808 4.31787L14.6536 3.38312H16.2936L16.8006 1.87061Z" fill="#64748b"/>
<path d="M16.8006 26.7607L17.3072 28.2736H18.9472L17.6206 29.2083L18.1272 30.7206L16.8006 29.7859L15.4739 30.7206L15.9808 29.2083L14.6536 28.2736H16.2936L16.8006 26.7607Z" fill="#64748b"/>
<path d="M23.5467 4.13281L24.053 5.6453H25.6933L24.3664 6.58044L24.8733 8.09257L23.5467 7.15744L22.2195 8.09257L22.7264 6.58044L21.3998 5.6453H23.0401L23.5467 4.13281Z" fill="#64748b"/>
<path d="M29.0669 8.42285L29.5731 9.93523H31.2135L29.8866 10.8702L30.3935 12.3827L29.0669 11.448L27.7399 12.3827L28.2468 10.8702L26.9199 9.93523H28.5597L29.0669 8.42285Z" fill="#64748b"/>
<path d="M29.0669 20.5381L29.5735 22.0512H31.2135L29.8866 22.9859L30.3937 24.498L29.0669 23.5635L27.7399 24.498L28.2468 22.9859L26.9199 22.0512H28.5599L29.0669 20.5381Z" fill="#64748b"/>
<path d="M4.53114 8.42285L5.03772 9.93523H6.67777L5.35101 10.8702L5.85758 12.3827L4.53114 11.448L3.20412 12.3827L3.71092 10.8702L2.38416 9.93523H4.02459L4.53114 8.42285Z" fill="#64748b"/>
<path d="M30.294 14.3154L30.8006 15.8279H32.4406L31.1138 16.7626L31.6206 18.2751L30.294 17.341L28.9671 18.2751L29.4743 16.7626L28.1471 15.8279H29.7868L30.294 14.3154Z" fill="#64748b"/>
<path d="M3.30594 14.3154L3.81249 15.8279H5.45246L4.12549 16.7626L4.63265 18.2751L3.30594 17.341L1.97889 18.2751L2.48578 16.7626L1.15881 15.8279H2.79905L3.30594 14.3154Z" fill="#64748b"/>
<path d="M4.53128 20.5381L5.0378 22.0512H6.67777L5.35118 22.9859L5.85764 24.498L4.53128 23.5635L3.20432 24.498L3.71112 22.9859L2.38416 22.0512H4.02448L4.53128 20.5381Z" fill="#64748b"/>
<path d="M24.7739 25.6294L25.2805 27.1417H26.9206L25.5934 28.077L26.1006 29.5893L24.7739 28.6546L23.4467 29.5893L23.9539 28.077L22.627 27.1417H24.2673L24.7739 25.6294Z" fill="#64748b"/>
<path d="M10.0512 4.13281L10.5576 5.6453H12.198L10.871 6.58044L11.3782 8.09257L10.0512 7.15744L8.7245 8.09257L9.2313 6.58044L7.9043 5.6453H9.5443L10.0512 4.13281Z" fill="#64748b"/>
<path d="M8.82574 25.6294L9.33248 27.1425H10.9727L9.64581 28.0767L10.1526 29.5893L8.82574 28.6551L7.49914 29.5893L8.00588 28.0767L6.67908 27.1425H8.31888L8.82574 25.6294Z" fill="#64748b"/>
<path d="M12.4551 15.3887C12.4551 15.0869 12.7145 14.8423 13.0344 14.8423H20.5654C20.8855 14.8423 21.1447 15.0869 21.1447 15.3887V20.2604C21.1447 20.5623 20.8855 20.8068 20.5654 20.8068H13.0344C12.7145 20.8068 12.4551 20.5623 12.4551 20.2604V15.3887Z" fill="#64748b"/>
<path d="M16.0118 19.1917L14.8686 18.2004C14.7399 18.0887 14.7399 17.9087 14.8686 17.7972C14.9962 17.6865 15.2039 17.6857 15.3325 17.7956C15.333 17.7961 15.3334 17.7964 15.334 17.7969L16.285 18.6193L18.5547 16.6513C18.6822 16.5406 18.8896 16.5401 19.0179 16.6496C19.0188 16.6504 19.0196 16.651 19.0205 16.6518C19.1494 16.7644 19.1491 16.9453 19.0196 17.0573L16.5581 19.1917C16.4084 19.3215 16.1648 19.3223 16.0142 19.1934C16.0133 19.1928 16.0127 19.1923 16.0118 19.1917Z" fill="#64748b"/>
<path d="M18.8449 14.9775V13.4766C18.8449 12.478 17.9867 11.6685 16.928 11.6685C15.8693 11.6685 15.0111 12.478 15.0111 13.4766V14.9775" stroke="#64748b" stroke-width="2"/>
</svg>
