<svg width="835" height="184" viewBox="0 0 835 184" fill="none" xmlns="http://www.w3.org/2000/svg">
<path d="M123.303 67.78V73.1542H112.094V90.8124H123.303V153H144.032V90.8124H160.308V73.1542H144.032V68.0871C144.032 61.7916 146.95 58.567 153.092 58.567H158.466V40.9088H149.867C133.744 40.9088 123.303 51.6573 123.303 67.78ZM201.28 154.996C226.001 154.996 243.813 136.263 243.813 113.231C243.813 90.1982 226.001 71.3116 201.28 71.3116C176.558 71.3116 158.747 90.1982 158.747 113.231C158.747 136.263 176.558 154.996 201.28 154.996ZM179.476 113.231C179.476 100.793 188.075 90.1982 201.28 90.1982C214.485 90.1982 223.084 100.793 223.084 113.231C223.084 125.668 214.485 136.11 201.28 136.11C188.075 136.11 179.476 125.668 179.476 113.231ZM251.452 153H272.181V112.156C272.181 98.797 281.394 90.8124 293.371 90.8124H296.289V71.3116C282.469 70.5439 274.331 76.8394 271.567 88.3556V73.1542H251.452V153ZM301.65 153H322.379V109.238C322.379 95.4189 330.21 89.4305 338.962 89.4305C349.25 89.4305 356.16 95.4189 356.16 109.238V153H376.889V109.238C376.889 93.8834 383.492 89.4305 393.165 89.4305C402.532 89.4305 409.134 95.4189 409.134 109.238V153H429.863V104.171C429.863 84.0563 416.658 71.3116 399.461 71.3116C385.488 71.3116 377.81 76.6859 372.436 86.3595C367.215 76.6859 357.695 71.3116 346.486 71.3116C334.202 71.3116 326.218 75.9181 322.072 84.824V73.1542H301.65V153ZM485.779 154.996C507.737 154.996 525.242 136.417 525.242 113.384C525.242 90.3518 507.737 71.4652 485.779 71.4652C472.114 71.4652 464.897 76.993 460.597 85.4382V40.9088H439.868V153H459.983V139.948C464.283 149.008 471.499 154.996 485.779 154.996ZM459.983 113.384C459.983 100.947 468.735 90.1982 482.401 90.1982C495.607 90.1982 504.513 100.793 504.513 113.231C504.513 125.361 495.607 136.263 482.401 136.263C468.735 136.263 459.983 125.822 459.983 113.384ZM532.952 153H553.681V112.156C553.681 98.797 562.894 90.8124 574.871 90.8124H577.788V71.3116C563.969 70.5439 555.83 76.8394 553.067 88.3556V73.1542H532.952V153ZM583.149 153H603.878V73.1542H583.149V153ZM580.999 54.2677C580.999 61.0238 586.374 66.5516 593.437 66.5516C600.654 66.5516 605.874 61.1774 605.874 54.2677C605.874 47.665 600.654 42.1372 593.437 42.1372C586.374 42.1372 580.999 47.665 580.999 54.2677ZM652.683 154.996C668.345 154.996 679.401 149.315 686.925 139.641L671.877 126.589C667.731 132.117 662.51 136.11 654.526 136.11C641.32 136.11 632.261 125.515 632.261 113.077C632.261 100.64 640.86 90.0447 654.065 90.0447C661.128 90.0447 667.27 93.5763 670.955 99.1041L686.925 86.0524C680.168 76.6859 668.345 71.0045 653.758 71.1581C629.343 71.3116 611.532 89.8911 611.532 113.077C611.532 136.263 629.804 154.996 652.683 154.996ZM746.412 153H773.897L736.124 110.313L773.744 73.1542H744.262L714.32 105.4V40.9088H693.591V153H714.32V115.073L746.412 153ZM800.51 154.996C818.169 154.996 831.527 143.941 831.527 129.2C831.527 117.223 826.153 108.624 802.967 102.636C793.447 100.179 792.219 97.7222 792.219 94.9583C792.219 90.0447 796.518 87.895 802.199 87.895C807.574 87.895 812.487 90.3518 816.326 96.4938L831.374 84.9776C823.236 74.3826 814.637 71.1581 801.739 71.1581C783.006 71.1581 771.95 81.5995 771.95 95.5725C771.95 105.707 775.175 115.38 796.518 120.447C809.109 123.365 811.105 125.668 811.105 129.814C811.105 134.574 807.113 138.106 800.05 138.106C793.294 138.106 787.152 134.881 781.317 128.279L767.344 141.023C776.096 150.39 786.998 154.996 800.51 154.996Z" fill="#000A1C"/>
<path fill-rule="evenodd" clip-rule="evenodd" d="M17.5279 44.2825C17.5279 42.921 17.5279 42.2403 17.7971 41.7222C18.0239 41.2856 18.3799 40.9296 18.8165 40.7027C19.3346 40.4336 20.0153 40.4336 21.3768 40.4336H33.8367C35.1982 40.4336 35.8789 40.4336 36.397 40.7027C36.8336 40.9296 37.1896 41.2856 37.4164 41.7222C37.6856 42.2403 37.6856 42.921 37.6856 44.2825V46.9623C37.6856 47.4208 37.6856 47.8022 37.6753 48.1261H49.0895C49.0792 47.8022 49.0792 47.4208 49.0792 46.9623V44.2825C49.0792 42.921 49.0792 42.2403 49.3484 41.7222C49.5752 41.2856 49.9312 40.9296 50.3678 40.7027C50.886 40.4336 51.5667 40.4336 52.9281 40.4336H65.3881C66.7495 40.4336 67.4302 40.4336 67.9483 40.7027C68.385 40.9296 68.741 41.2856 68.9678 41.7222C69.2369 42.2403 69.2369 42.921 69.2369 44.2825V46.9623C69.2369 47.4208 69.2369 47.8022 69.2266 48.1261H76.1321C81.4133 48.1261 85.6945 52.4073 85.6945 57.6885V73.3823C85.6945 78.6634 81.4133 82.9446 76.1321 82.9446H9.56237C4.28121 82.9446 0 78.6634 0 73.3823V57.6885C0 52.4073 4.28122 48.1261 9.56238 48.1261H17.5382C17.5279 47.8022 17.5279 47.4208 17.5279 46.9623V44.2825Z" fill="#00E5CA"/>
<path fill-rule="evenodd" clip-rule="evenodd" d="M17.5279 44.2825C17.5279 42.921 17.5279 42.2403 17.7971 41.7222C18.0239 41.2856 18.3799 40.9296 18.8165 40.7027C19.3346 40.4336 20.0153 40.4336 21.3768 40.4336H33.8367C35.1982 40.4336 35.8789 40.4336 36.397 40.7027C36.8336 40.9296 37.1896 41.2856 37.4164 41.7222C37.6856 42.2403 37.6856 42.921 37.6856 44.2825V46.9623C37.6856 47.4208 37.6856 47.8022 37.6753 48.1261H49.0895C49.0792 47.8022 49.0792 47.4208 49.0792 46.9623V44.2825C49.0792 42.921 49.0792 42.2403 49.3484 41.7222C49.5752 41.2856 49.9312 40.9296 50.3678 40.7027C50.886 40.4336 51.5667 40.4336 52.9281 40.4336H65.3881C66.7495 40.4336 67.4302 40.4336 67.9483 40.7027C68.385 40.9296 68.741 41.2856 68.9678 41.7222C69.2369 42.2403 69.2369 42.921 69.2369 44.2825V46.9623C69.2369 47.4208 69.2369 47.8022 69.2266 48.1261H76.1321C81.4133 48.1261 85.6945 52.4073 85.6945 57.6885V73.3823C85.6945 78.6634 81.4133 82.9446 76.1321 82.9446H9.56237C4.28121 82.9446 0 78.6634 0 73.3823V57.6885C0 52.4073 4.28122 48.1261 9.56238 48.1261H17.5382C17.5279 47.8022 17.5279 47.4208 17.5279 46.9623V44.2825Z" fill="url(#paint0_linear_2303_6099)" fill-opacity="0.05"/>
<path d="M0 92.5072C0 87.2261 4.28122 82.9448 9.56238 82.9448H76.1321C81.4133 82.9448 85.6945 87.226 85.6945 92.5072V109.168C85.6945 114.449 81.4133 118.731 76.1321 118.731H9.56237C4.28121 118.731 0 114.449 0 109.168V92.5072Z" fill="#002941"/>
<path d="M0 92.5072C0 87.2261 4.28122 82.9448 9.56238 82.9448H76.1321C81.4133 82.9448 85.6945 87.226 85.6945 92.5072V109.168C85.6945 114.449 81.4133 118.731 76.1321 118.731H9.56237C4.28121 118.731 0 114.449 0 109.168V92.5072Z" fill="url(#paint1_linear_2303_6099)" fill-opacity="0.05"/>
<path d="M0 128.293C0 123.012 4.28122 118.731 9.56238 118.731H76.1321C81.4133 118.731 85.6945 123.012 85.6945 128.293V143.987C85.6945 149.268 81.4133 153.549 76.1321 153.549H9.56237C4.28121 153.549 0 149.268 0 143.987V128.293Z" fill="#000A1C"/>
<path d="M0 128.293C0 123.012 4.28122 118.731 9.56238 118.731H76.1321C81.4133 118.731 85.6945 123.012 85.6945 128.293V143.987C85.6945 149.268 81.4133 153.549 76.1321 153.549H9.56237C4.28121 153.549 0 149.268 0 143.987V128.293Z" fill="url(#paint2_linear_2303_6099)" fill-opacity="0.05"/>
<defs>
<linearGradient id="paint0_linear_2303_6099" x1="42.8473" y1="42.3228" x2="42.8473" y2="82.9447" gradientUnits="userSpaceOnUse">
<stop/>
<stop offset="1" stop-opacity="0"/>
</linearGradient>
<linearGradient id="paint1_linear_2303_6099" x1="42.8473" y1="82.9448" x2="42.8473" y2="118.731" gradientUnits="userSpaceOnUse">
<stop/>
<stop offset="1" stop-opacity="0"/>
</linearGradient>
<linearGradient id="paint2_linear_2303_6099" x1="42.8473" y1="118.731" x2="42.8473" y2="153.549" gradientUnits="userSpaceOnUse">
<stop/>
<stop offset="1" stop-opacity="0"/>
</linearGradient>
</defs>
</svg>
