<svg width="301" height="302" viewBox="0 0 301 302" fill="none" xmlns="http://www.w3.org/2000/svg">
<path fill-rule="evenodd" clip-rule="evenodd" d="M99.2803 43.0414C99.2803 40.2394 99.2803 38.8385 99.8342 37.7721C100.301 36.8735 101.034 36.1408 101.932 35.674C102.999 35.1201 104.4 35.1201 107.201 35.1201H132.845C135.647 35.1201 137.048 35.1201 138.114 35.674C139.013 36.1408 139.746 36.8735 140.212 37.7721C140.766 38.8385 140.766 40.2394 140.766 43.0414V48.5566C140.766 49.5003 140.766 50.2851 140.745 50.9518H164.232C164.211 50.2851 164.211 49.5003 164.211 48.5566V43.0414C164.211 40.2394 164.211 38.8385 164.765 37.7721C165.232 36.8735 165.965 36.1408 166.863 35.674C167.93 35.1201 169.33 35.1201 172.132 35.1201H197.776C200.578 35.1201 201.979 35.1201 203.045 35.674C203.944 36.1408 204.676 36.8735 205.143 37.7721C205.697 38.8385 205.697 40.2394 205.697 43.0414V48.5566C205.697 49.5003 205.697 50.2851 205.676 50.9518H219.89C230.759 50.9518 239.57 59.7628 239.57 70.6318V102.931C239.57 113.8 230.759 122.611 219.89 122.611H82.8842C72.0152 122.611 63.2041 113.8 63.2041 102.931V70.6319C63.2041 59.7628 72.0152 50.9518 82.8842 50.9518H99.3014C99.2803 50.2851 99.2803 49.5003 99.2803 48.5566V43.0414Z" fill="#00E5CA"/>
<path fill-rule="evenodd" clip-rule="evenodd" d="M99.2803 43.0414C99.2803 40.2394 99.2803 38.8385 99.8342 37.7721C100.301 36.8735 101.034 36.1408 101.932 35.674C102.999 35.1201 104.4 35.1201 107.201 35.1201H132.845C135.647 35.1201 137.048 35.1201 138.114 35.674C139.013 36.1408 139.746 36.8735 140.212 37.7721C140.766 38.8385 140.766 40.2394 140.766 43.0414V48.5566C140.766 49.5003 140.766 50.2851 140.745 50.9518H164.232C164.211 50.2851 164.211 49.5003 164.211 48.5566V43.0414C164.211 40.2394 164.211 38.8385 164.765 37.7721C165.232 36.8735 165.965 36.1408 166.863 35.674C167.93 35.1201 169.33 35.1201 172.132 35.1201H197.776C200.578 35.1201 201.979 35.1201 203.045 35.674C203.944 36.1408 204.676 36.8735 205.143 37.7721C205.697 38.8385 205.697 40.2394 205.697 43.0414V48.5566C205.697 49.5003 205.697 50.2851 205.676 50.9518H219.89C230.759 50.9518 239.57 59.7628 239.57 70.6318V102.931C239.57 113.8 230.759 122.611 219.89 122.611H82.8842C72.0152 122.611 63.2041 113.8 63.2041 102.931V70.6319C63.2041 59.7628 72.0152 50.9518 82.8842 50.9518H99.3014C99.2803 50.2851 99.2803 49.5003 99.2803 48.5566V43.0414Z" fill="url(#paint0_linear_2240_5955)" fill-opacity="0.05"/>
<path d="M63.2041 142.291C63.2041 131.422 72.0152 122.611 82.8842 122.611H219.89C230.759 122.611 239.57 131.422 239.57 142.291V176.581C239.57 187.45 230.759 196.261 219.89 196.261H82.8842C72.0152 196.261 63.2041 187.45 63.2041 176.581V142.291Z" fill="#002941"/>
<path d="M63.2041 142.291C63.2041 131.422 72.0152 122.611 82.8842 122.611H219.89C230.759 122.611 239.57 131.422 239.57 142.291V176.581C239.57 187.45 230.759 196.261 219.89 196.261H82.8842C72.0152 196.261 63.2041 187.45 63.2041 176.581V142.291Z" fill="url(#paint1_linear_2240_5955)" fill-opacity="0.05"/>
<path d="M63.2041 215.941C63.2041 205.072 72.0152 196.261 82.8842 196.261H219.89C230.759 196.261 239.57 205.072 239.57 215.941V248.24C239.57 259.109 230.759 267.92 219.89 267.92H82.8842C72.0152 267.92 63.2041 259.109 63.2041 248.24V215.941Z" fill="#000A1C"/>
<path d="M63.2041 215.941C63.2041 205.072 72.0152 196.261 82.8842 196.261H219.89C230.759 196.261 239.57 205.072 239.57 215.941V248.24C239.57 259.109 230.759 267.92 219.89 267.92H82.8842C72.0152 267.92 63.2041 259.109 63.2041 248.24V215.941Z" fill="url(#paint2_linear_2240_5955)" fill-opacity="0.05"/>
<defs>
<linearGradient id="paint0_linear_2240_5955" x1="151.387" y1="39.0083" x2="151.387" y2="122.611" gradientUnits="userSpaceOnUse">
<stop/>
<stop offset="1" stop-opacity="0"/>
</linearGradient>
<linearGradient id="paint1_linear_2240_5955" x1="151.387" y1="122.611" x2="151.387" y2="196.261" gradientUnits="userSpaceOnUse">
<stop/>
<stop offset="1" stop-opacity="0"/>
</linearGradient>
<linearGradient id="paint2_linear_2240_5955" x1="151.387" y1="196.261" x2="151.387" y2="267.92" gradientUnits="userSpaceOnUse">
<stop/>
<stop offset="1" stop-opacity="0"/>
</linearGradient>
</defs>
</svg>
