<svg width="829" height="180" viewBox="0 0 829 180" fill="none" xmlns="http://www.w3.org/2000/svg">
<path d="M120.077 66.7213V71.9731H109.123V89.229H120.077V150H140.334V89.229H156.24V71.9731H140.334V67.0214C140.334 60.8693 143.185 57.7182 149.187 57.7182H154.439V40.4622H146.036C130.281 40.4622 120.077 50.9658 120.077 66.7213ZM197.778 151.951C221.936 151.951 239.342 133.644 239.342 111.137C239.342 88.6288 221.936 70.1725 197.778 70.1725C173.62 70.1725 156.214 88.6288 156.214 111.137C156.214 133.644 173.62 151.951 197.778 151.951ZM176.471 111.137C176.471 98.9824 184.874 88.6288 197.778 88.6288C210.683 88.6288 219.085 98.9824 219.085 111.137C219.085 123.291 210.683 133.494 197.778 133.494C184.874 133.494 176.471 123.291 176.471 111.137ZM248.308 150H268.565V110.086C268.565 97.0317 277.568 89.229 289.272 89.229H292.123V70.1725C278.618 69.4222 270.666 75.5743 267.965 86.8282V71.9731H248.308V150ZM298.863 150H319.12V107.235C319.12 93.7306 326.772 87.8786 335.325 87.8786C345.379 87.8786 352.131 93.7306 352.131 107.235V150H372.388V107.235C372.388 92.2301 378.84 87.8786 388.293 87.8786C397.447 87.8786 403.899 93.7306 403.899 107.235V150H424.156V102.284C424.156 82.6268 411.251 70.1725 394.446 70.1725C380.791 70.1725 373.288 75.4243 368.036 84.8775C362.935 75.4243 353.631 70.1725 342.678 70.1725C330.674 70.1725 322.871 74.674 318.819 83.377V71.9731H298.863V150ZM480.299 151.951C501.756 151.951 518.862 133.794 518.862 111.287C518.862 88.7789 501.756 70.3225 480.299 70.3225C466.944 70.3225 459.892 75.7244 455.69 83.9772V40.4622H435.433V150H455.09V137.246C459.291 146.099 466.344 151.951 480.299 151.951ZM455.09 111.287C455.09 99.1325 463.643 88.6288 476.997 88.6288C489.902 88.6288 498.605 98.9824 498.605 111.137C498.605 122.991 489.902 133.644 476.997 133.644C463.643 133.644 455.09 123.441 455.09 111.287ZM527.897 150H548.154V110.086C548.154 97.0317 557.157 89.229 568.861 89.229H571.712V70.1725C558.207 69.4222 550.254 75.5743 547.553 86.8282V71.9731H527.897V150ZM578.451 150H598.708V71.9731H578.451V150ZM576.35 53.5167C576.35 60.119 581.602 65.5209 588.505 65.5209C595.557 65.5209 600.659 60.2691 600.659 53.5167C600.659 47.0645 595.557 41.6626 588.505 41.6626C581.602 41.6626 576.35 47.0645 576.35 53.5167ZM647.902 151.951C663.207 151.951 674.011 146.399 681.363 136.945L666.658 124.191C662.607 129.593 657.505 133.494 649.702 133.494C636.798 133.494 627.945 123.141 627.945 110.987C627.945 98.8324 636.348 88.4788 649.252 88.4788C656.155 88.4788 662.157 91.93 665.758 97.3318L681.363 84.5774C674.761 75.4243 663.207 69.8724 648.952 70.0224C625.094 70.1725 607.688 88.3287 607.688 110.987C607.688 133.644 625.544 151.951 647.902 151.951ZM740.996 150H767.855L730.942 108.286L767.705 71.9731H738.895L709.635 103.484V40.4622H689.378V150H709.635V112.937L740.996 150ZM795.363 151.951C812.619 151.951 825.673 141.147 825.673 126.742C825.673 115.038 820.421 106.635 797.763 100.783C788.46 98.3822 787.26 95.9814 787.26 93.2804C787.26 88.4788 791.461 86.3781 797.013 86.3781C802.265 86.3781 807.067 88.7789 810.818 94.781L825.523 83.5271C817.57 73.1735 809.167 70.0224 796.563 70.0224C778.257 70.0224 767.453 80.2259 767.453 93.8806C767.453 103.784 770.604 113.237 791.461 118.189C803.766 121.04 805.716 123.291 805.716 127.342C805.716 131.994 801.815 135.445 794.912 135.445C788.31 135.445 782.308 132.294 776.606 125.842L762.951 138.296C771.504 147.449 782.158 151.951 795.363 151.951Z" fill="#EEF3F7"/>
<path fill-rule="evenodd" clip-rule="evenodd" d="M17.0536 43.7753C17.0536 42.4449 17.0536 41.7797 17.3166 41.2734C17.5382 40.8467 17.8861 40.4988 18.3128 40.2772C18.8191 40.0142 19.4843 40.0142 20.8148 40.0142H32.9017C34.2321 40.0142 34.8973 40.0142 35.4037 40.2772C35.8303 40.4988 36.1782 40.8467 36.3999 41.2734C36.6629 41.7797 36.6629 42.4449 36.6629 43.7753V46.3482C36.6629 46.8016 36.6629 47.1778 36.6525 47.4967H47.7532C47.7427 47.1778 47.7427 46.8016 47.7427 46.3482V43.7753C47.7427 42.4449 47.7427 41.7797 48.0058 41.2734C48.2274 40.8467 48.5753 40.4988 49.002 40.2772C49.5083 40.0142 50.1735 40.0142 51.5039 40.0142H63.5909C64.9213 40.0142 65.5865 40.0142 66.0928 40.2772C66.5195 40.4988 66.8674 40.8467 67.0891 41.2734C67.3521 41.7797 67.3521 42.4449 67.3521 43.7753V46.3482C67.3521 46.8016 67.3521 47.1778 67.3417 47.4967H74.0188C79.1796 47.4967 83.3633 51.6804 83.3633 56.8413V72.0235C83.3633 77.1844 79.1796 81.3681 74.0188 81.3681H9.34456C4.1837 81.3681 0 77.1844 0 72.0235V56.8413C0 51.6804 4.1837 47.4967 9.34455 47.4967H17.064C17.0536 47.1778 17.0536 46.8016 17.0536 46.3482V43.7753Z" fill="#00E5CA"/>
<path fill-rule="evenodd" clip-rule="evenodd" d="M17.0536 43.7753C17.0536 42.4449 17.0536 41.7797 17.3166 41.2734C17.5382 40.8467 17.8861 40.4988 18.3128 40.2772C18.8191 40.0142 19.4843 40.0142 20.8148 40.0142H32.9017C34.2321 40.0142 34.8973 40.0142 35.4037 40.2772C35.8303 40.4988 36.1782 40.8467 36.3999 41.2734C36.6629 41.7797 36.6629 42.4449 36.6629 43.7753V46.3482C36.6629 46.8016 36.6629 47.1778 36.6525 47.4967H47.7532C47.7427 47.1778 47.7427 46.8016 47.7427 46.3482V43.7753C47.7427 42.4449 47.7427 41.7797 48.0058 41.2734C48.2274 40.8467 48.5753 40.4988 49.002 40.2772C49.5083 40.0142 50.1735 40.0142 51.5039 40.0142H63.5909C64.9213 40.0142 65.5865 40.0142 66.0928 40.2772C66.5195 40.4988 66.8674 40.8467 67.0891 41.2734C67.3521 41.7797 67.3521 42.4449 67.3521 43.7753V46.3482C67.3521 46.8016 67.3521 47.1778 67.3417 47.4967H74.0188C79.1796 47.4967 83.3633 51.6804 83.3633 56.8413V72.0235C83.3633 77.1844 79.1796 81.3681 74.0188 81.3681H9.34456C4.1837 81.3681 0 77.1844 0 72.0235V56.8413C0 51.6804 4.1837 47.4967 9.34455 47.4967H17.064C17.0536 47.1778 17.0536 46.8016 17.0536 46.3482V43.7753Z" fill="url(#paint0_linear_2344_5715)" fill-opacity="0.05"/>
<path d="M0 90.7132C0 85.5524 4.1837 81.3687 9.34455 81.3687H74.0188C79.1796 81.3687 83.3633 85.5524 83.3633 90.7132V106.836C83.3633 111.997 79.1796 116.181 74.0188 116.181H9.34456C4.1837 116.181 0 111.997 0 106.836V90.7132Z" fill="#D3E3ED"/>
<path d="M0 90.7132C0 85.5524 4.1837 81.3687 9.34455 81.3687H74.0188C79.1796 81.3687 83.3633 85.5524 83.3633 90.7132V106.836C83.3633 111.997 79.1796 116.181 74.0188 116.181H9.34456C4.1837 116.181 0 111.997 0 106.836V90.7132Z" fill="url(#paint1_linear_2344_5715)" fill-opacity="0.05"/>
<path d="M0 125.526C0 120.365 4.1837 116.181 9.34455 116.181H74.0188C79.1796 116.181 83.3633 120.365 83.3633 125.526V140.708C83.3633 145.869 79.1796 150.052 74.0188 150.052H9.34456C4.1837 150.052 0 145.869 0 140.708V125.526Z" fill="#8B94A4"/>
<path d="M0 125.526C0 120.365 4.1837 116.181 9.34455 116.181H74.0188C79.1796 116.181 83.3633 120.365 83.3633 125.526V140.708C83.3633 145.869 79.1796 150.052 74.0188 150.052H9.34456C4.1837 150.052 0 145.869 0 140.708V125.526Z" fill="url(#paint2_linear_2344_5715)" fill-opacity="0.05"/>
<defs>
<linearGradient id="paint0_linear_2344_5715" x1="41.6817" y1="41.852" x2="41.6817" y2="81.3681" gradientUnits="userSpaceOnUse">
<stop/>
<stop offset="1" stop-opacity="0"/>
</linearGradient>
<linearGradient id="paint1_linear_2344_5715" x1="41.6817" y1="81.3687" x2="41.6817" y2="116.181" gradientUnits="userSpaceOnUse">
<stop/>
<stop offset="1" stop-opacity="0"/>
</linearGradient>
<linearGradient id="paint2_linear_2344_5715" x1="41.6817" y1="116.181" x2="41.6817" y2="150.052" gradientUnits="userSpaceOnUse">
<stop/>
<stop offset="1" stop-opacity="0"/>
</linearGradient>
</defs>
</svg>
