<svg width="301" height="301" viewBox="0 0 301 301" fill="none" xmlns="http://www.w3.org/2000/svg">
<g clip-path="url(#clip0_2472_5836)">
<rect x="-0.000976562" width="300.216" height="300.216" rx="42.1355" fill="url(#paint0_linear_2472_5836)"/>
<path fill-rule="evenodd" clip-rule="evenodd" d="M88.9434 19.4156C88.9434 16.6137 88.9434 15.2128 89.4973 14.1464C89.9641 13.2478 90.6968 12.5151 91.5954 12.0483C92.6618 11.4944 94.0627 11.4944 96.8646 11.4944H130.425C133.227 11.4944 134.628 11.4944 135.695 12.0483C136.593 12.5151 137.326 13.2478 137.793 14.1464C138.347 15.2128 138.347 16.6137 138.347 19.4156V29.0068C138.347 29.494 138.347 29.9389 138.344 30.3471H166.264C166.261 29.9389 166.261 29.494 166.261 29.0068V19.4156C166.261 16.6137 166.261 15.2128 166.815 14.1464C167.281 13.2478 168.014 12.5151 168.913 12.0483C169.979 11.4944 171.38 11.4944 174.182 11.4944H207.743C210.544 11.4944 211.945 11.4944 213.012 12.0483C213.91 12.5151 214.643 13.2478 215.11 14.1464C215.664 15.2128 215.664 16.6137 215.664 19.4156V29.0068C215.664 29.494 215.664 29.9389 215.661 30.3471H236.321C247.19 30.3471 256.001 39.1581 256.001 50.0272V96.0014C256.001 106.87 247.19 115.681 236.321 115.681H65.6576C54.7886 115.681 45.9775 106.87 45.9775 96.0014V50.0271C45.9775 39.1581 54.7886 30.3471 65.6576 30.3471H88.9463C88.9434 29.9389 88.9434 29.494 88.9434 29.0068V19.4156Z" fill="#00E5CA"/>
<path fill-rule="evenodd" clip-rule="evenodd" d="M88.9434 19.4156C88.9434 16.6137 88.9434 15.2128 89.4973 14.1464C89.9641 13.2478 90.6968 12.5151 91.5954 12.0483C92.6618 11.4944 94.0627 11.4944 96.8646 11.4944H130.425C133.227 11.4944 134.628 11.4944 135.695 12.0483C136.593 12.5151 137.326 13.2478 137.793 14.1464C138.347 15.2128 138.347 16.6137 138.347 19.4156V29.0068C138.347 29.494 138.347 29.9389 138.344 30.3471H166.264C166.261 29.9389 166.261 29.494 166.261 29.0068V19.4156C166.261 16.6137 166.261 15.2128 166.815 14.1464C167.281 13.2478 168.014 12.5151 168.913 12.0483C169.979 11.4944 171.38 11.4944 174.182 11.4944H207.743C210.544 11.4944 211.945 11.4944 213.012 12.0483C213.91 12.5151 214.643 13.2478 215.11 14.1464C215.664 15.2128 215.664 16.6137 215.664 19.4156V29.0068C215.664 29.494 215.664 29.9389 215.661 30.3471H236.321C247.19 30.3471 256.001 39.1581 256.001 50.0272V96.0014C256.001 106.87 247.19 115.681 236.321 115.681H65.6576C54.7886 115.681 45.9775 106.87 45.9775 96.0014V50.0271C45.9775 39.1581 54.7886 30.3471 65.6576 30.3471H88.9463C88.9434 29.9389 88.9434 29.494 88.9434 29.0068V19.4156Z" fill="url(#paint1_linear_2472_5836)" fill-opacity="0.05"/>
<path d="M45.9766 135.362C45.9766 124.493 54.7876 115.682 65.6567 115.682H236.32C247.189 115.682 256 124.493 256 135.362V183.707C256 194.576 247.189 203.387 236.32 203.387H65.6567C54.7876 203.387 45.9766 194.576 45.9766 183.707V135.362Z" fill="#D3E3ED"/>
<path d="M45.9766 135.362C45.9766 124.493 54.7876 115.682 65.6567 115.682H236.32C247.189 115.682 256 124.493 256 135.362V183.707C256 194.576 247.189 203.387 236.32 203.387H65.6567C54.7876 203.387 45.9766 194.576 45.9766 183.707V135.362Z" fill="url(#paint2_linear_2472_5836)" fill-opacity="0.05"/>
<path d="M45.9766 223.068C45.9766 212.199 54.7876 203.388 65.6567 203.388H236.32C247.189 203.388 256 212.199 256 223.068V269.042C256 279.911 247.189 288.722 236.32 288.722H65.6567C54.7876 288.722 45.9766 279.911 45.9766 269.042V223.068Z" fill="#8B94A4"/>
<path d="M45.9766 223.068C45.9766 212.199 54.7876 203.388 65.6567 203.388H236.32C247.189 203.388 256 212.199 256 223.068V269.042C256 279.911 247.189 288.722 236.32 288.722H65.6567C54.7876 288.722 45.9766 279.911 45.9766 269.042V223.068Z" fill="url(#paint3_linear_2472_5836)" fill-opacity="0.05"/>
</g>
<defs>
<linearGradient id="paint0_linear_2472_5836" x1="51.9054" y1="19.6403" x2="249.711" y2="276.367" gradientUnits="userSpaceOnUse">
<stop offset="0.315625" stop-color="#000A1C"/>
<stop offset="1" stop-color="#002941"/>
</linearGradient>
<linearGradient id="paint1_linear_2472_5836" x1="150.989" y1="16.1246" x2="150.989" y2="115.681" gradientUnits="userSpaceOnUse">
<stop/>
<stop offset="1" stop-opacity="0"/>
</linearGradient>
<linearGradient id="paint2_linear_2472_5836" x1="150.988" y1="115.682" x2="150.988" y2="203.387" gradientUnits="userSpaceOnUse">
<stop/>
<stop offset="1" stop-opacity="0"/>
</linearGradient>
<linearGradient id="paint3_linear_2472_5836" x1="150.988" y1="203.388" x2="150.988" y2="288.722" gradientUnits="userSpaceOnUse">
<stop/>
<stop offset="1" stop-opacity="0"/>
</linearGradient>
<clipPath id="clip0_2472_5836">
<rect width="300.216" height="300.216" fill="white"/>
</clipPath>
</defs>
</svg>
