<svg width="301" height="301" viewBox="0 0 301 301" fill="none" xmlns="http://www.w3.org/2000/svg">
<g clip-path="url(#clip0_2472_5827)">
<rect width="300.216" height="300.216" rx="42.1355" fill="url(#paint0_linear_2472_5827)"/>
<path fill-rule="evenodd" clip-rule="evenodd" d="M87.7994 16.5089C87.7994 13.707 87.7994 12.306 88.3533 11.2397C88.8201 10.3411 89.5528 9.60836 90.4514 9.14157C91.5178 8.58765 92.9187 8.58765 95.7206 8.58765H130.505C133.307 8.58765 134.708 8.58765 135.774 9.14157C136.673 9.60836 137.405 10.3411 137.872 11.2397C138.426 12.306 138.426 13.707 138.426 16.5089V26.73C138.426 27.1532 138.426 27.5445 138.424 27.9074H167.038C167.037 27.5445 167.037 27.1532 167.037 26.73V16.5089C167.037 13.707 167.037 12.306 167.59 11.2397C168.057 10.3411 168.79 9.60836 169.689 9.14157C170.755 8.58765 172.156 8.58765 174.958 8.58765H209.742C212.544 8.58765 213.945 8.58765 215.011 9.14157C215.91 9.60836 216.643 10.3411 217.109 11.2397C217.663 12.306 217.663 13.707 217.663 16.5089V26.73C217.663 27.1532 217.663 27.5445 217.661 27.9074H239.319C250.188 27.9074 258.999 36.7185 258.999 47.5875V95.6754C258.999 106.544 250.188 115.355 239.319 115.355H63.4545C52.5855 115.355 43.7744 106.544 43.7744 95.6754V47.5875C43.7744 36.7185 52.5855 27.9074 63.4545 27.9074H87.8013C87.7994 27.5445 87.7994 27.1532 87.7994 26.73V16.5089Z" fill="#00E5CA"/>
<path fill-rule="evenodd" clip-rule="evenodd" d="M87.7994 16.5089C87.7994 13.707 87.7994 12.306 88.3533 11.2397C88.8201 10.3411 89.5528 9.60836 90.4514 9.14157C91.5178 8.58765 92.9187 8.58765 95.7206 8.58765H130.505C133.307 8.58765 134.708 8.58765 135.774 9.14157C136.673 9.60836 137.405 10.3411 137.872 11.2397C138.426 12.306 138.426 13.707 138.426 16.5089V26.73C138.426 27.1532 138.426 27.5445 138.424 27.9074H167.038C167.037 27.5445 167.037 27.1532 167.037 26.73V16.5089C167.037 13.707 167.037 12.306 167.59 11.2397C168.057 10.3411 168.79 9.60836 169.689 9.14157C170.755 8.58765 172.156 8.58765 174.958 8.58765H209.742C212.544 8.58765 213.945 8.58765 215.011 9.14157C215.91 9.60836 216.643 10.3411 217.109 11.2397C217.663 12.306 217.663 13.707 217.663 16.5089V26.73C217.663 27.1532 217.663 27.5445 217.661 27.9074H239.319C250.188 27.9074 258.999 36.7185 258.999 47.5875V95.6754C258.999 106.544 250.188 115.355 239.319 115.355H63.4545C52.5855 115.355 43.7744 106.544 43.7744 95.6754V47.5875C43.7744 36.7185 52.5855 27.9074 63.4545 27.9074H87.8013C87.7994 27.5445 87.7994 27.1532 87.7994 26.73V16.5089Z" fill="url(#paint1_linear_2472_5827)" fill-opacity="0.05"/>
<path d="M43.7744 135.036C43.7744 124.167 52.5855 115.356 63.4545 115.356H239.319C250.188 115.356 258.999 124.167 258.999 135.036V185.553C258.999 196.422 250.188 205.233 239.319 205.233H63.4545C52.5855 205.233 43.7744 196.422 43.7744 185.553V135.036Z" fill="#002941"/>
<path d="M43.7744 135.036C43.7744 124.167 52.5855 115.356 63.4545 115.356H239.319C250.188 115.356 258.999 124.167 258.999 135.036V185.553C258.999 196.422 250.188 205.233 239.319 205.233H63.4545C52.5855 205.233 43.7744 196.422 43.7744 185.553V135.036Z" fill="url(#paint2_linear_2472_5827)" fill-opacity="0.05"/>
<path d="M43.7744 224.913C43.7744 214.044 52.5855 205.233 63.4545 205.233H239.319C250.188 205.233 258.999 214.044 258.999 224.913V273.001C258.999 283.87 250.188 292.681 239.319 292.681H63.4545C52.5855 292.681 43.7744 283.87 43.7744 273.001V224.913Z" fill="#000A1C"/>
<path d="M43.7744 224.913C43.7744 214.044 52.5855 205.233 63.4545 205.233H239.319C250.188 205.233 258.999 214.044 258.999 224.913V273.001C258.999 283.87 250.188 292.681 239.319 292.681H63.4545C52.5855 292.681 43.7744 283.87 43.7744 273.001V224.913Z" fill="url(#paint3_linear_2472_5827)" fill-opacity="0.05"/>
</g>
<defs>
<linearGradient id="paint0_linear_2472_5827" x1="150.108" y1="300.216" x2="150.108" y2="-6.37745e-06" gradientUnits="userSpaceOnUse">
<stop offset="0.648958" stop-color="#E5EAEF"/>
<stop offset="1" stop-color="#D3DDE7"/>
</linearGradient>
<linearGradient id="paint1_linear_2472_5827" x1="151.387" y1="13.3326" x2="151.387" y2="115.356" gradientUnits="userSpaceOnUse">
<stop/>
<stop offset="1" stop-opacity="0"/>
</linearGradient>
<linearGradient id="paint2_linear_2472_5827" x1="151.387" y1="115.356" x2="151.387" y2="205.233" gradientUnits="userSpaceOnUse">
<stop/>
<stop offset="1" stop-opacity="0"/>
</linearGradient>
<linearGradient id="paint3_linear_2472_5827" x1="151.387" y1="205.233" x2="151.387" y2="292.681" gradientUnits="userSpaceOnUse">
<stop/>
<stop offset="1" stop-opacity="0"/>
</linearGradient>
<clipPath id="clip0_2472_5827">
<rect width="300.216" height="300.216" fill="white"/>
</clipPath>
</defs>
</svg>
