<svg xmlns="http://www.w3.org/2000/svg" fill="none" viewBox="0 0 203 180"><g clip-path="url(#a)"><path d="M85.88 3.254a.796.796 0 0 1 1.17.353.77.77 0 0 1 .06.3.78.78 0 0 1-.594.764.787.787 0 0 1-.346.008.78.78 0 0 1-.6-1.071.803.803 0 0 1 .31-.354ZM70.189 89.327a.796.796 0 0 1 1.17.353.77.77 0 0 1 .06.3.78.78 0 0 1-.595.764.787.787 0 0 1-.345.008.78.78 0 0 1-.575-1.07.803.803 0 0 1 .285-.355Zm.435 7.694a.788.788 0 0 0-.555 1.345.791.791 0 0 0 .86.17.779.779 0 0 0 .44-1.027.752.752 0 0 0-.17-.259.79.79 0 0 0-.575-.23Zm-.55 8.062a.774.774 0 0 1 .55-.234.788.788 0 0 1 .777.62.781.781 0 0 1-.987.913.784.784 0 0 1-.561-.82.782.782 0 0 1 .221-.479Zm.55 7.639a.797.797 0 0 0-.435.129.787.787 0 1 0 1.13.285.785.785 0 0 0-.695-.414Zm-.435 7.913a.759.759 0 0 1 .435-.135.796.796 0 0 1 .56.229.757.757 0 0 1 .17.259.807.807 0 0 1-.07.738.794.794 0 0 1-.81.334.832.832 0 0 1-.405-.22.776.776 0 0 1-.17-.852.772.772 0 0 1 .29-.353Zm.435 7.693a.772.772 0 0 0-.724.483.788.788 0 0 0 .574 1.072c.153.03.31.014.455-.045a.78.78 0 0 0-.305-1.51Zm-.435 7.973a.766.766 0 0 1 .435-.135c.21.001.41.084.56.229a.797.797 0 0 1 .23.558.777.777 0 0 1-.5.728.794.794 0 0 1-.455.045.757.757 0 0 1-.405-.22.777.777 0 0 1-.17-.857.788.788 0 0 1 .305-.363v.015Zm.435 7.698a.793.793 0 0 0-.725.488.788.788 0 0 0 1.03 1.027.78.78 0 0 0 .27-1.281.798.798 0 0 0-.575-.249v.015Zm-.435 7.973a.766.766 0 0 1 .435-.135c.21.002.41.084.56.229a.797.797 0 0 1 .23.558.807.807 0 0 1-.13.439.794.794 0 0 1-.81.334.832.832 0 0 1-.405-.22.777.777 0 0 1-.17-.857.786.786 0 0 1 .29-.383v.035Zm.435 7.688a.801.801 0 0 0-.725.488.788.788 0 0 0 .575 1.072c.153.03.31.014.455-.045a.78.78 0 0 0 .27-1.281.784.784 0 0 0-.575-.269v.035Zm-.435 7.973a.766.766 0 0 1 .435-.135.905.905 0 0 1 .305.055.788.788 0 0 1 .424.424.81.81 0 0 1-.065.737.78.78 0 0 1-.576.354.776.776 0 0 1-.638-.224.756.756 0 0 1-.22-.404.788.788 0 0 1 .046-.454.744.744 0 0 1 .29-.398v.045Zm.435-86.203a.788.788 0 0 0-.555 1.345.791.791 0 0 0 .86.17.779.779 0 0 0 .44-1.027.752.752 0 0 0-.17-.26.874.874 0 0 0-.255-.169.791.791 0 0 0-.32-.12v.06Zm-.55-7.59a.78.78 0 0 1 .55-.224.77.77 0 0 1 .74.479.786.786 0 0 1-.576 1.079.79.79 0 0 1-.814-.342.765.765 0 0 1-.124-.443.775.775 0 0 1 .224-.608v.06Zm.55-8.052a.761.761 0 0 0-.435.135.743.743 0 0 0-.29.354.785.785 0 0 0-.044.453.79.79 0 0 0 1.434.274.81.81 0 0 0 .064-.737.783.783 0 0 0-.424-.424.89.89 0 0 0-.305-.114v.06Zm-.435-7.693c.13-.085.28-.13.435-.13a.707.707 0 0 1 .305.055.784.784 0 0 1 .481.798.82.82 0 0 1-.122.363.786.786 0 0 1-.81.339.775.775 0 0 1-.624-.613.8.8 0 0 1 .046-.458.768.768 0 0 1 .29-.414v.06Zm.435-15.78a.791.791 0 0 0-.435.129.767.767 0 0 0-.29.354.8.8 0 0 0-.044.458.752.752 0 0 0 .22.404.74.74 0 0 0 .404.209.785.785 0 0 0 .81-.339.821.821 0 0 0 .064-.742.782.782 0 0 0-.425-.419.706.706 0 0 0-.304-.114v.06Zm-.435-7.7a.79.79 0 0 1 .435-.129.706.706 0 0 1 .305.055.784.784 0 0 1 .484.723.76.76 0 0 1-.125.438.789.789 0 0 1-.354.294.78.78 0 0 1-.86-.164.752.752 0 0 1-.22-.404.8.8 0 0 1 .335-.812Zm.435-7.972a.76.76 0 0 0-.435.135.743.743 0 0 0-.29.354.786.786 0 0 0-.044.453.79.79 0 0 0 1.434.274.81.81 0 0 0 .064-.737.782.782 0 0 0-.17-.255.77.77 0 0 0-.254-.164.79.79 0 0 0-.305-.104v.044Zm-.435-7.693a.79.79 0 0 1 .435-.13.706.706 0 0 1 .305.055.784.784 0 0 1 .484.723.761.761 0 0 1-.125.438.786.786 0 0 1-.81.339.74.74 0 0 1-.404-.21.752.752 0 0 1-.22-.403.8.8 0 0 1 .335-.812Zm.435-7.973a.788.788 0 0 0-.555 1.345.791.791 0 0 0 .86.17.78.78 0 0 0 .44-1.03.78.78 0 0 0-.17-.255.81.81 0 0 0-.575-.26v.03Zm-16.127 78.38a.79.79 0 0 1 1.15.99.781.781 0 0 1-.865.435.78.78 0 0 1-.575-1.07.803.803 0 0 1 .29-.385v.03Zm.445 9.268a.79.79 0 0 0 .78-.937.787.787 0 0 0-1.076-.578.788.788 0 0 0-.489.728.786.786 0 0 0 .785.758v.03Zm.789 7.041a.789.789 0 1 1 0-.03v.03Zm30.15-94.584a.761.761 0 0 1 .435-.135.783.783 0 0 1 .29 1.515.791.791 0 0 1-.86-.17.784.784 0 0 1 .12-1.21h.015Zm.435 7.693a.791.791 0 0 0-.434.13.777.777 0 0 0-.355.837c.03.154.106.295.22.404a.74.74 0 0 0 .404.209.786.786 0 0 0 .81-.339.795.795 0 0 0-.11-.996.785.785 0 0 0-.535-.245Zm-.434 7.973a.76.76 0 0 1 .434-.135c.208 0 .408.083.555.23a.786.786 0 0 1 .11.996.784.784 0 0 1-1.214.13.752.752 0 0 1-.22-.404.83.83 0 0 1 .04-.453.788.788 0 0 1 .294-.394v.03Zm.434 7.693a.79.79 0 0 0-.728.484.775.775 0 0 0-.041.458c.03.154.106.295.22.404a.74.74 0 0 0 .404.21.786.786 0 0 0 .81-.34.795.795 0 0 0-.11-.996.785.785 0 0 0-.555-.235v.015Zm-.434 7.973a.791.791 0 0 1 .989.095.766.766 0 0 1 .234.548.776.776 0 0 1-.934.782.775.775 0 0 1-.624-.613.84.84 0 0 1 .334-.842v.03Zm.434 7.694a.761.761 0 0 0-.434.134.789.789 0 0 0-.295.354.83.83 0 0 0-.04.453.789.789 0 0 0 1.434.274.79.79 0 0 0-.665-1.215Zm-.434 7.972a.791.791 0 0 1 .434-.13.785.785 0 1 1-.145 1.555.776.776 0 0 1-.624-.613.84.84 0 0 1 .04-.458c.054-.16.157-.3.294-.399v.045Zm.434 7.694a.761.761 0 0 0-.434.134.788.788 0 0 0-.295.354.83.83 0 0 0-.04.453.79.79 0 0 0 1.434.274.791.791 0 0 0-.665-1.216Zm-.3 7.882a.695.695 0 0 1 .3-.054.706.706 0 0 1 .305.054.786.786 0 0 1 .483.797.78.78 0 0 1-.788.708.777.777 0 0 1-.77-.632.786.786 0 0 1 .046-.454.713.713 0 0 1 .17-.25.784.784 0 0 1 .264-.213l-.01.044Zm.3 7.759a.787.787 0 1 0 .305 1.515.779.779 0 0 0 .44-1.027.752.752 0 0 0-.425-.428.792.792 0 0 0-.32-.105v.045Zm-.434 7.972a.796.796 0 0 1 1.17.353.77.77 0 0 1 .058.3.78.78 0 0 1-.593.764.787.787 0 0 1-.346.008.78.78 0 0 1-.574-1.071.803.803 0 0 1 .284-.414v.06Zm0 7.828a.79.79 0 0 1 .994.095.752.752 0 0 1 .17.259.776.776 0 0 1-.44 1.026.791.791 0 0 1-.86-.169.796.796 0 0 1-.22-.453.784.784 0 0 1 .335-.808l.02.05Zm.434 7.694a.769.769 0 0 0-.555.229.787.787 0 0 0 .555 1.34.794.794 0 0 0 .598-.206.787.787 0 0 0-.598-1.363Zm-.434 8.002a.794.794 0 0 1 .994.1.784.784 0 0 1-.255 1.28.796.796 0 0 1-.455.05.822.822 0 0 1-.404-.219.783.783 0 0 1-.17-.857.808.808 0 0 1 .29-.414v.06Zm.434 7.649a.793.793 0 0 0-.77.942.78.78 0 0 0 .216.398.786.786 0 1 0 .86-1.28.783.783 0 0 0-.306-.12v.06Zm-.434 7.972a.8.8 0 0 1 .999.1.764.764 0 0 1 .23.553.785.785 0 0 1-.94.772.776.776 0 0 1-.644-.692.788.788 0 0 1 .045-.454.772.772 0 0 1 .31-.353v.074Zm.434 7.694a.792.792 0 0 0-.724.483.78.78 0 0 0 .17.857.786.786 0 0 0 .86.175.783.783 0 0 0 .269-1.286.813.813 0 0 0-.575-.304v.075Zm-.434 7.972a.785.785 0 0 1 1.17.353.76.76 0 0 1 .058.3.785.785 0 0 1-1.342.557.787.787 0 0 1 .118-1.21h-.005Zm.434 7.684a.792.792 0 0 0-.724.483.78.78 0 0 0 .17.857c.11.11.251.186.404.22a.795.795 0 0 0 .81-.334.807.807 0 0 0 .07-.741.779.779 0 0 0-.17-.256.818.818 0 0 0-.56-.324v.095Zm-.434 7.972a.785.785 0 0 1 1.17.353.76.76 0 0 1 .058.3.783.783 0 0 1-.5.728.795.795 0 0 1-.859-.169.786.786 0 0 1-.17-.858.774.774 0 0 1 .3-.448v.094Zm.434 7.694a.751.751 0 0 0-.434.135.789.789 0 0 0-.295.353.832.832 0 0 0-.04.454.796.796 0 0 0 .858.625.781.781 0 0 0 .313-1.454.79.79 0 0 0-.402-.113Zm-.434 7.933a.766.766 0 0 1 .836-.022.796.796 0 0 1 .385.705.782.782 0 0 1-1.043.712.781.781 0 0 1-.293-.185.75.75 0 0 1-.24-.488.828.828 0 0 1 .04-.453.79.79 0 0 1 .314-.364v.095ZM54.94 12.522a.791.791 0 0 0 .732-.483.785.785 0 0 0-.572-1.076.792.792 0 0 0-.945.772.786.786 0 0 0 .785.787Zm.789 7.036a.786.786 0 0 1-.94.777.79.79 0 0 1-.58-1.072.787.787 0 0 1 .73-.488.787.787 0 0 1 .73.482c.04.095.06.198.06.3Zm-.8 7.04a.76.76 0 0 0-.434.135.788.788 0 0 0-.295.354.83.83 0 0 0-.04.453.79.79 0 0 0 1.434.274.811.811 0 0 0 .065-.737.782.782 0 0 0-.17-.254.771.771 0 0 0-.255-.165.79.79 0 0 0-.304-.06Zm.8 8.61a.786.786 0 0 1-.94.779.79.79 0 0 1-.623-.618.786.786 0 0 1 .774-.943.785.785 0 0 1 .789.763v.02Zm-.79 8.616a.79.79 0 0 0 .78-.938.787.787 0 0 0-1.075-.577.79.79 0 0 0-.26 1.284.784.784 0 0 0 .556.231Zm.79 7.04a.786.786 0 0 1-.943.773.79.79 0 0 1-.576-1.073.788.788 0 0 1 .73-.486.79.79 0 0 1 .789.787Zm-.79 8.611a.79.79 0 0 0 .78-.938.787.787 0 0 0-1.075-.577.79.79 0 0 0-.26 1.284.784.784 0 0 0 .556.231Zm-.444 6.388a.761.761 0 0 1 .435-.134.89.89 0 0 1 .304.055.782.782 0 0 1 .481.8.782.782 0 0 1-1.042.675.786.786 0 0 1-.293-.185.752.752 0 0 1-.22-.404.83.83 0 0 1 .04-.453.788.788 0 0 1 .295-.354Zm.445 9.253a.791.791 0 0 0 .732-.482.785.785 0 0 0-.572-1.077.792.792 0 0 0-.945.772.78.78 0 0 0 .785.787Zm.789 7.041a.786.786 0 0 1-.943.772.79.79 0 0 1-.576-1.073.788.788 0 0 1 .73-.486.79.79 0 0 1 .789.787Zm-.79 32.09a.79.79 0 0 0 .78-.938.79.79 0 0 0-1.43-.288.787.787 0 0 0 .65 1.226Zm0 7.828a.79.79 0 0 0 .78-.938.79.79 0 0 0-1.43-.288.787.787 0 0 0 .65 1.226Zm-.444 6.383a.79.79 0 0 1 .435-.13.88.88 0 0 1 .304.055.8.8 0 0 1 .485.727.778.778 0 0 1-.285.609.79.79 0 0 1-.654.164.78.78 0 0 1-.575-1.072.772.772 0 0 1 .29-.353Zm.445 9.268a.79.79 0 0 0 .78-.938.784.784 0 0 0-.62-.621.785.785 0 0 0-.811.334.783.783 0 0 0 .096.992.792.792 0 0 0 .555.233Zm.789 7.035a.786.786 0 0 1-.94.778.79.79 0 0 1-.623-.617.787.787 0 0 1 .774-.943.789.789 0 0 1 .789.782Zm-.8 7.026a.766.766 0 0 0-.434.135.786.786 0 0 0-.29.349.783.783 0 0 0 .17.857c.111.11.252.186.405.219a.795.795 0 0 0 .81-.334.804.804 0 0 0-.1-.997.796.796 0 0 0-.56-.229Zm.8 8.611a.785.785 0 0 1-.487.727.791.791 0 0 1-1.077-.574.786.786 0 0 1 .775-.941.795.795 0 0 1 .735.496.78.78 0 0 1 .054.307v-.015Zm-.79 8.615a.79.79 0 0 0 .78-.938.784.784 0 0 0-.618-.621.785.785 0 0 0-.812.334.784.784 0 0 0-.134.438.784.784 0 0 0 .48.739.8.8 0 0 0 .305.063v-.015ZM38.8 89.288a.81.81 0 0 1 .744-.07.784.784 0 0 1 .485.722.756.756 0 0 1-.135.439.79.79 0 0 1-.81.334.785.785 0 0 1-.4-.215.752.752 0 0 1-.219-.403.786.786 0 0 1 .045-.454.802.802 0 0 1 .29-.314v-.04Zm.44 7.693a.791.791 0 0 0-.73.498.776.776 0 0 0 .175.857.785.785 0 0 0 1.209-.12.771.771 0 0 0 .075-.737.832.832 0 0 0-.17-.259.874.874 0 0 0-.255-.17.811.811 0 0 0-.305-.03v-.039Zm-.55 8.062a.775.775 0 0 1 .55-.234.788.788 0 0 1 .777.62.781.781 0 0 1-.987.913.782.782 0 0 1-.34-1.299Zm.55 7.639a.784.784 0 0 0-.73.498.787.787 0 0 0-.045.454.75.75 0 0 0 .22.403c.11.109.248.185.4.22a.791.791 0 0 0 .884-1.077.79.79 0 0 0-.425-.423.807.807 0 0 0-.305-.035v-.04Zm-.44 7.913a.775.775 0 0 1 .44-.135c.104 0 .207.021.304.06a.87.87 0 0 1 .255.169c.072.075.13.163.17.259a.771.771 0 0 1-.075.738.826.826 0 0 1-.35.289.812.812 0 0 1-.46.045.844.844 0 0 1-.4-.219.761.761 0 0 1-.219-.399.785.785 0 0 1 .335-.807Zm.44 7.693a.807.807 0 0 0-.44.13.784.784 0 0 0 .285 1.425.81.81 0 0 0 .48.02.79.79 0 0 0 .349-.289.784.784 0 0 0-.095-.992.807.807 0 0 0-.255-.214.915.915 0 0 0-.325-.04v-.04Zm-.44 7.973a.782.782 0 0 1 .744-.075.789.789 0 0 1 .425.424c.04.096.06.199.06.303a.791.791 0 0 1-.485.728.812.812 0 0 1-.46.045.816.816 0 0 1-.619-.618.8.8 0 0 1 .045-.458.782.782 0 0 1 .29-.324v-.025Zm.44 7.698a.818.818 0 0 0-.44.135.77.77 0 0 0-.29.354.779.779 0 0 0 .175.857.789.789 0 0 0 1.34-.479.78.78 0 0 0-.226-.633.76.76 0 0 0-.56-.234Zm-.44 7.973a.782.782 0 0 1 .744-.075.789.789 0 0 1 .425.424.8.8 0 0 1 .06.304.77.77 0 0 1-.135.438.826.826 0 0 1-.35.289.812.812 0 0 1-.46.045.844.844 0 0 1-.4-.219.761.761 0 0 1-.219-.399.8.8 0 0 1 .045-.458.783.783 0 0 1 .29-.344v-.005Zm.44 7.688a.818.818 0 0 0-.44.135.784.784 0 0 0 .285 1.425c.154.03.314.015.46-.045a.791.791 0 0 0 .424-1.026.82.82 0 0 0-.425-.429.932.932 0 0 0-.305-.055v-.005Zm-.44-78.09a.776.776 0 0 1 .44-.135.796.796 0 0 1 .559.229c.072.075.13.163.17.26a.771.771 0 0 1-.075.737.79.79 0 0 1-.81.333.786.786 0 0 1-.4-.214.772.772 0 0 1-.174-.858.788.788 0 0 1 .29-.353Zm.44-7.948a.772.772 0 0 0-.775.772.766.766 0 0 0 .125.444.792.792 0 0 0 1.436-.28.785.785 0 0 0-.342-.812.771.771 0 0 0-.445-.15v.026Zm-.435-7.694a.761.761 0 0 1 .434-.134c.104 0 .208.018.305.054a.78.78 0 0 1 .481.8.784.784 0 0 1-1.336.49.752.752 0 0 1-.219-.403.83.83 0 0 1 .335-.832v.025Zm.434-7.972a.79.79 0 0 0-.729.483.84.84 0 0 0-.04.458.775.775 0 0 0 .624.613.786.786 0 0 0 .81-.339.822.822 0 0 0 .065-.742.784.784 0 0 0-.425-.419.707.707 0 0 0-.305-.064v.01Zm-.434-7.694a.76.76 0 0 1 .434-.134.89.89 0 0 1 .305.054.78.78 0 0 1 .481.8.784.784 0 0 1-1.336.49.752.752 0 0 1-.219-.403.788.788 0 0 1 .335-.817v.01Zm.434-7.972a.79.79 0 0 0-.729.483.84.84 0 0 0-.04.458c.03.154.106.295.22.404a.74.74 0 0 0 .404.21.786.786 0 0 0 .81-.34.822.822 0 0 0 .065-.742.784.784 0 0 0-.425-.419.708.708 0 0 0-.305-.05v-.004Zm0-23.48a.791.791 0 0 0-.728.484.775.775 0 0 0-.041.458c.03.154.106.295.22.404a.74.74 0 0 0 .404.21.786.786 0 0 0 .81-.34.761.761 0 0 0 .125-.438.804.804 0 0 0-.06-.304.784.784 0 0 0-.425-.419.707.707 0 0 0-.305-.05v-.005Zm-.434 7.973a.761.761 0 0 1 .434-.135c.105 0 .209.02.305.06a.768.768 0 0 1 .255.165.78.78 0 0 1 .227.63.784.784 0 0 1-1.336.49.752.752 0 0 1-.22-.403.83.83 0 0 1 .335-.832v.025Zm0 7.823a.789.789 0 0 1 .434-.13.706.706 0 0 1 .305.055.784.784 0 0 1 .485.723.762.762 0 0 1-.125.438.79.79 0 0 1-.355.294.78.78 0 0 1-.86-.165.752.752 0 0 1-.219-.403.775.775 0 0 1 .335-.812ZM23.106 89.327a.81.81 0 0 1 .745-.07.785.785 0 0 1 .485.723.756.756 0 0 1-.135.439.789.789 0 0 1-.81.334.785.785 0 0 1-.4-.215.752.752 0 0 1-.22-.403.785.785 0 0 1 .335-.808Zm.45 9.269a.79.79 0 0 0 .774-.941.786.786 0 0 0-.62-.619.792.792 0 0 0-.943.772.787.787 0 0 0 .81.787h-.02Zm0 15.651a.795.795 0 0 0 .73-.486.786.786 0 0 0-.576-1.074.79.79 0 0 0-.943.772.787.787 0 0 0 .81.788h-.02Zm.79-8.611a.788.788 0 0 1-1.355.549.785.785 0 0 1 .585-1.336.787.787 0 0 1 .77.787Zm0 15.651a.789.789 0 1 1-1.578 0 .789.789 0 0 1 1.578 0Zm-.8 7.041a.773.773 0 0 0-.73.483.788.788 0 0 0-.044.454c.03.154.106.295.22.403a.783.783 0 0 0 1.209-.119.784.784 0 0 0-.095-.992.8.8 0 0 0-.255-.174.906.906 0 0 0-.305-.055Zm.8 8.61a.789.789 0 1 1-1.578 0 .789.789 0 0 1 1.578 0Zm-.77 8.611a.787.787 0 1 0-.656-1.225.788.788 0 0 0 .656 1.225Zm.79-63.392a.786.786 0 0 1-.944.772.79.79 0 0 1-.575-1.073.788.788 0 0 1 .73-.486.79.79 0 0 1 .768.787h.02Zm-.79-7.04a.791.791 0 0 0 .73-.487.785.785 0 0 0-.576-1.073.791.791 0 0 0-.943.772.786.786 0 0 0 .79.787Zm-.45-9.254a.776.776 0 0 1 .44-.134c.103 0 .204.019.3.055a.9.9 0 0 1 .26.169.87.87 0 0 1 .17.254.805.805 0 0 1-.07.738.787.787 0 0 1-1.389-.728.774.774 0 0 1 .27-.354h.02Zm.45-6.388a.791.791 0 0 0 .73-.486.785.785 0 0 0-.576-1.073.791.791 0 0 0-.943.772.785.785 0 0 0 .79.787Zm.79-8.61a.786.786 0 0 1-.944.772.79.79 0 0 1-.575-1.073.788.788 0 0 1 .73-.486.79.79 0 0 1 .768.787h.02Zm-.79-7.04a.791.791 0 0 0 .73-.487.785.785 0 0 0-.576-1.073.791.791 0 0 0-.943.772.785.785 0 0 0 .79.787Zm.77-8.636a.786.786 0 0 1-.94.778.79.79 0 0 1-.58-1.073.788.788 0 0 1 1.287-.259.786.786 0 0 1 .233.554Zm77.666 8.635a.788.788 0 1 0-.784-.787.777.777 0 0 0 .483.727c.096.04.198.06.301.06Zm.79 7.04a.792.792 0 0 1-.488.728.79.79 0 0 1-1.076-.573.787.787 0 1 1 1.559-.154h.005ZM7.879 65.73a.811.811 0 0 0-.44.13.758.758 0 0 0-.295.353.74.74 0 0 0-.05.453.806.806 0 0 0 .625.623.791.791 0 0 0 .455-.05.76.76 0 0 0 .354-.293.781.781 0 0 0-.65-1.216Zm-.3 7.883a.697.697 0 0 1 .3-.055.778.778 0 0 1 .72.475.77.77 0 0 1 .06.297.81.81 0 0 1-.46.827.787.787 0 0 1-.91-.194.772.772 0 0 1-.164-.284.815.815 0 0 1-.035-.329.78.78 0 0 1 .06-.299.823.823 0 0 1 .43-.418v-.02Zm.3 7.758a.81.81 0 0 0-.44.13.78.78 0 0 0-.13 1.21c.112.11.252.186.405.22.153.03.31.014.455-.045a.784.784 0 0 0 .457-.953.8.8 0 0 0-.762-.562h.015Zm-.44 7.972a.791.791 0 0 1 1.21.587.786.786 0 0 1-.126.51.791.791 0 0 1-.81.334.787.787 0 0 1-.275-1.43Zm94.573-29.867a.788.788 0 1 0-.784-.787.776.776 0 0 0 .483.727c.096.04.198.06.301.06ZM7.424 97.15a.78.78 0 0 1 1 .105.781.781 0 0 1-.27 1.28.791.791 0 0 1-.455.046.825.825 0 0 1-.405-.22.782.782 0 0 1 .13-1.21Zm.44 7.699a.781.781 0 0 0-.3 1.51.797.797 0 0 0 .86-.17.787.787 0 0 0 .17-.857.777.777 0 0 0-.73-.498v.015Zm-.44 8.002a.771.771 0 0 1 .44-.129.796.796 0 0 1 .78.787.773.773 0 0 1-.136.439.817.817 0 0 1-.354.289.746.746 0 0 1-.455.039.779.779 0 0 1-.57-1.076.774.774 0 0 1 .295-.349Zm94.149-23.524a.794.794 0 0 1 1.229.653.783.783 0 0 1-.94.772.784.784 0 0 1-.574-1.07.805.805 0 0 1 .285-.355Zm.434 9.269a.788.788 0 1 0-.553-.231.79.79 0 0 0 .558.23h-.005Zm.79 14.863a.791.791 0 0 0-.944-.772.791.791 0 0 0-.62.619.788.788 0 0 0 1.077.882.777.777 0 0 0 .487-.729Zm0 7.828a.794.794 0 0 1-.133.438.794.794 0 0 1-.811.334.79.79 0 0 1-.62-.618.787.787 0 0 1 .774-.941.79.79 0 0 1 .79.787Zm-.785 7.041a.776.776 0 0 0-.724.483.785.785 0 0 0 1.029 1.027.781.781 0 0 0-.305-1.51Zm-.784-22.692a.788.788 0 0 1 1.356-.528.787.787 0 0 1-.572 1.335.77.77 0 0 1-.567-.236.776.776 0 0 1-.222-.571h.005Zm1.574 31.302a.794.794 0 0 1-.133.438.794.794 0 0 1-.811.335.792.792 0 0 1-.575-1.074.784.784 0 0 1 .729-.486.79.79 0 0 1 .785.787h.005Zm-.79 8.611a.795.795 0 0 0 .733-.483.78.78 0 0 0-.168-.859.786.786 0 0 0-1.349.554.785.785 0 0 0 .784.788Zm-.434 6.388a.756.756 0 0 1 .434-.15c.21.002.41.084.56.229a.796.796 0 0 1 .1.997.796.796 0 0 1-.81.334.819.819 0 0 1-.404-.219.782.782 0 0 1-.17-.857.783.783 0 0 1 .285-.334h.005Zm1.219 16.294a.791.791 0 0 1-.944.772.792.792 0 0 1-.575-1.074.79.79 0 0 1 1.519.302Zm-.785 7.02a.763.763 0 0 0-.434.135.784.784 0 0 0-.295.354.833.833 0 0 0-.04.453.752.752 0 0 0 .22.404.786.786 0 0 0 1.214-.13.778.778 0 0 0 .122-.398.78.78 0 0 0-.096-.404.803.803 0 0 0-.691-.414Zm0-14.051a.787.787 0 1 0-.651-1.225.784.784 0 0 0-.075.738.775.775 0 0 0 .425.427.8.8 0 0 0 .301.06Zm.79-79.043a.792.792 0 0 1-.488.728.79.79 0 0 1-1.076-.574.787.787 0 1 1 1.559-.154h.005Zm-.79-7.04a.79.79 0 0 0 .78-.938.789.789 0 1 0-1.081.877c.096.04.198.06.301.06Zm-.434-9.254a.758.758 0 0 1 .434-.134.794.794 0 0 1 .665 1.216.786.786 0 0 1-1.214.13.748.748 0 0 1-.22-.405.835.835 0 0 1 .04-.453.783.783 0 0 1 .29-.354h.005Zm.434-62.739a.79.79 0 0 0-.434.13.782.782 0 0 0-.335.807.777.777 0 0 0 .619.618c.153.03.311.014.455-.045a.78.78 0 0 0 .006-1.454.785.785 0 0 0-.311-.056Zm.79 8.61a.792.792 0 0 1-.488.728.79.79 0 0 1-1.031-1.029.788.788 0 0 1 1.514.302h.005Zm-.79 8.611a.788.788 0 1 0-.784-.787.776.776 0 0 0 .483.727c.096.04.198.06.301.06Zm-.439 6.373a.757.757 0 0 1 .434-.134c.208 0 .408.082.555.229a.789.789 0 1 1-1.104 1.126.748.748 0 0 1-.22-.404.787.787 0 0 1 .335-.817Zm1.224 8.47a.787.787 0 0 1-.941.779.79.79 0 0 1-.622-.618.781.781 0 0 1 .334-.81.792.792 0 0 1 1.229.65Zm14.488 54.114a.79.79 0 0 1 1.21.587.786.786 0 0 1-.126.51.744.744 0 0 1-.355.289.803.803 0 0 1-.459.045.761.761 0 0 1-.4-.22.785.785 0 0 1-.215-.403.751.751 0 0 1 .05-.454.758.758 0 0 1 .275-.334l.02-.02Zm.44 7.699a.812.812 0 0 0-.44.13.74.74 0 0 0-.295.348.767.767 0 0 0-.05.459.805.805 0 0 0 .615.623.804.804 0 0 0 .769-.27.784.784 0 0 0 .148-.728.786.786 0 0 0-.198-.328.811.811 0 0 0-.569-.214l.02-.02Zm-.305 7.888a.811.811 0 0 1 .744.07.832.832 0 0 1 .29.353.787.787 0 0 1-.036.67.792.792 0 0 1-.998.357.79.79 0 0 1-.425-1.027.87.87 0 0 1 .17-.254.782.782 0 0 1 .235-.149l.02-.02Zm.305 7.813a.779.779 0 0 0-.44.129.744.744 0 0 0-.295.349.753.753 0 0 0-.05.454.789.789 0 0 0 .615.623c.153.034.314.02.459-.04a.793.793 0 0 0 .399-1.094.792.792 0 0 0-.688-.421Zm-.44 7.908a.809.809 0 0 1 .44-.13.788.788 0 0 1 .549.234.78.78 0 0 1 .095.997.774.774 0 0 1-.355.289.81.81 0 0 1-.459.045.837.837 0 0 1-.4-.22.79.79 0 0 1-.165-.862.74.74 0 0 1 .275-.333l.02-.02Zm.44 7.698a.777.777 0 0 0-.735.498.746.746 0 0 0-.05.454c.03.153.105.293.215.403a.76.76 0 0 0 .4.22.808.808 0 0 0 .444-.02.774.774 0 0 0 .355-.289.78.78 0 0 0-.644-1.221l.015-.045Zm-.44 7.973a.809.809 0 0 1 .44-.13.788.788 0 0 1 .549.234.78.78 0 0 1 .095.997.774.774 0 0 1-.355.289.768.768 0 0 1-.459.04.787.787 0 0 1-.615-.618.77.77 0 0 1 .05-.459.743.743 0 0 1 .275-.353h.02Zm.44 7.708a.777.777 0 0 0-.735.498.746.746 0 0 0-.05.454.797.797 0 0 0 .615.623.81.81 0 0 0 .459-.045.774.774 0 0 0 .355-.289.782.782 0 0 0-.644-1.221v-.02Zm-.44 7.943a.809.809 0 0 1 .44-.13.793.793 0 0 1 .744.563.78.78 0 0 1-.147.725.786.786 0 0 1-.308.227.81.81 0 0 1-.459.045.797.797 0 0 1-.615-.628.75.75 0 0 1 .05-.453.74.74 0 0 1 .275-.349h.02Zm.44 7.693a.809.809 0 0 0-.44.13.751.751 0 0 0-.295.354.742.742 0 0 0-.05.453c.03.153.105.294.215.404a.765.765 0 0 0 .4.219.81.81 0 0 0 .459-.045.768.768 0 0 0 .355-.289.783.783 0 0 0-.095-.992.812.812 0 0 0-.569-.234h.02Zm-.44 7.973a.787.787 0 0 1 .994.095.775.775 0 0 1 .095.991.762.762 0 0 1-.355.294.782.782 0 0 1-.864-.169.786.786 0 0 1-.215-.404.75.75 0 0 1 .05-.453.75.75 0 0 1 .275-.369l.02.015Zm.44-86.203a.812.812 0 0 0-.44.13.74.74 0 0 0-.295.348.767.767 0 0 0-.05.459.804.804 0 0 0 .615.622.804.804 0 0 0 .769-.27.785.785 0 0 0 .148-.727.787.787 0 0 0-.198-.328.817.817 0 0 0-.569-.26l.02.026Zm-.305-7.758c.096-.041.2-.06.305-.055a.772.772 0 0 1 .779.772.814.814 0 0 1-.035.329.797.797 0 0 1-.43.498.781.781 0 0 1-.644 0 .8.8 0 0 1-.43-.498.83.83 0 0 1-.03-.329.786.786 0 0 1 .5-.718h-.015Zm.305-7.883a.812.812 0 0 0-.44.13.756.756 0 0 0-.295.353.744.744 0 0 0-.05.453.796.796 0 0 0 .625.623.794.794 0 0 0 .809-.344.777.777 0 0 0-.248-1.103.784.784 0 0 0-.401-.112Zm-.44-7.699a.767.767 0 0 1 .44-.124.786.786 0 1 1-.16 1.555.813.813 0 0 1-.41-.215.804.804 0 0 1-.215-.404.767.767 0 0 1 .05-.458.783.783 0 0 1 .275-.379l.02.025Zm.44-7.972a.812.812 0 0 0-.44.13.756.756 0 0 0-.295.353.751.751 0 0 0-.05.453.797.797 0 0 0 .625.623.794.794 0 0 0 .809-.344.777.777 0 0 0-.248-1.103.785.785 0 0 0-.401-.112Zm-.44-7.699a.766.766 0 0 1 .44-.124.787.787 0 0 1 .779.772.781.781 0 0 1-.939.782.815.815 0 0 1-.41-.214.804.804 0 0 1-.215-.404.767.767 0 0 1 .05-.458.78.78 0 0 1 .275-.359l.02.005Zm.44-7.972a.776.776 0 0 0-.735.478.785.785 0 0 0 .165.862c.113.11.255.184.41.214a.784.784 0 0 0 .809-.339.81.81 0 0 0 .125-.438.78.78 0 0 0-.779-.777h.005Zm-.46-7.694a.786.786 0 0 1 1.22.574.796.796 0 0 1-1.35.643.77.77 0 0 1-.215-.41.798.798 0 0 1 .345-.807Zm.44-7.973a.776.776 0 0 0-.735.478.785.785 0 0 0 .165.862c.113.11.255.185.41.215a.784.784 0 0 0 .939-.777.78.78 0 0 0-.779-.777Zm-.44-7.698a.781.781 0 0 1 .999.105.786.786 0 1 1-1.119 1.106.805.805 0 0 1-.215-.404.768.768 0 0 1 .05-.458.748.748 0 0 1 .285-.32v-.029Zm16.132 78.121a.768.768 0 0 0-.44.124.795.795 0 0 0-.243.248.795.795 0 0 0-.072.67.798.798 0 0 0 .59.513.792.792 0 0 0 .944-.768.777.777 0 0 0-.23-.553.77.77 0 0 0-.549-.204v-.03Zm-.44 7.972a.793.793 0 0 1 .987.111.78.78 0 0 1 .223.476.78.78 0 0 1-.935.844.791.791 0 0 1-.62-.625.784.784 0 0 1 .05-.457.781.781 0 0 1 .295-.339v-.01Zm.44 7.699a.79.79 0 0 0-.56.229.811.811 0 0 0-.23.558.796.796 0 0 0 .485.723.79.79 0 0 0 .859-.17.745.745 0 0 0 .22-.403.784.784 0 0 0-.045-.454.782.782 0 0 0-.729-.498v.015Zm-.44 8.002a.787.787 0 0 1 .999.105.779.779 0 0 1-.269 1.281.755.755 0 0 1-.455.04.793.793 0 0 1-.405-.215.817.817 0 0 1-.215-.408.802.802 0 0 1 .05-.454.788.788 0 0 1 .295-.339v-.01Zm.44 7.649a.809.809 0 0 0-.44.13.775.775 0 0 0-.344.804.79.79 0 0 0 1.074.581.776.776 0 0 0 .354-.289.808.808 0 0 0 .135-.439.791.791 0 0 0-.779-.787Zm-.44 7.973a.764.764 0 0 1 .44-.125.784.784 0 0 1 .644 1.226.796.796 0 0 1-.809.334.793.793 0 0 1-.627-.856.786.786 0 0 1 .352-.574v-.005Zm.44 7.698a.809.809 0 0 0-.44.13.775.775 0 0 0-.295.348.81.81 0 0 0-.05.459.785.785 0 0 0 .62.618.776.776 0 0 0 .809-.329.808.808 0 0 0 .135-.439.791.791 0 0 0-.779-.787Zm-.44 7.973a.764.764 0 0 1 .44-.125.784.784 0 0 1 .644 1.226.787.787 0 0 1-1.397-.179.798.798 0 0 1 .072-.669.782.782 0 0 1 .241-.248v-.005Zm.44 7.688a.809.809 0 0 0-.44.13.772.772 0 0 0-.295.349.79.79 0 0 0 .165.862.834.834 0 0 0 .405.219.796.796 0 0 0 .809-.334.808.808 0 0 0 .135-.439.795.795 0 0 0-.779-.787Zm-.44 7.973a.794.794 0 0 1 .987.111.781.781 0 0 1-.712 1.319.756.756 0 0 1-.405-.219.797.797 0 0 1-.222-.637.777.777 0 0 1 .352-.574Zm.44-78.385a.812.812 0 0 0-.44.13.784.784 0 0 0 .275 1.43.792.792 0 0 0 .944-.773.787.787 0 0 0-.23-.553.81.81 0 0 0-.549-.274v.04Zm-.305-7.759c.096-.04.2-.059.305-.054a.778.778 0 0 1 .72.475.774.774 0 0 1 .059.297.814.814 0 0 1-.035.329.769.769 0 0 1-.165.284.79.79 0 0 1-.909.194.799.799 0 0 1-.43-.498.831.831 0 0 1-.03-.329.788.788 0 0 1 .5-.718l-.015.02Zm.305-7.882a.791.791 0 0 0-.74.498.78.78 0 0 0 .576 1.078c.155.03.314.011.459-.052a.753.753 0 0 0 .354-.294.777.777 0 0 0-.247-1.103.79.79 0 0 0-.402-.112v-.015Zm-.445-7.699a.78.78 0 0 1 .445-.124.787.787 0 0 1 .548.227c.146.144.229.34.231.545a.803.803 0 0 1-.13.443.78.78 0 0 1-.809.34.818.818 0 0 1-.41-.215.793.793 0 0 1-.17-.862.854.854 0 0 1 .295-.394v.04Zm.445-7.973a.791.791 0 0 0-.74.499.78.78 0 0 0 .576 1.078c.155.03.314.011.459-.052a.753.753 0 0 0 .354-.294.777.777 0 0 0-.247-1.103.791.791 0 0 0-.402-.113v-.015Zm-.445-7.698a.78.78 0 0 1 .445-.124.787.787 0 0 1 .548.227c.146.144.229.34.231.545a.803.803 0 0 1-.13.443.78.78 0 0 1-.809.34.818.818 0 0 1-.41-.215.793.793 0 0 1-.17-.862.852.852 0 0 1 .295-.374v.02Zm.445-7.973a.78.78 0 0 0-.445.125.851.851 0 0 0-.295.354.808.808 0 0 0-.045.458c.03.153.105.294.215.404a.81.81 0 0 0 .41.214.789.789 0 0 0 .809-.339.783.783 0 0 0-.649-1.216Zm-.445-7.708a.827.827 0 0 1 .445-.13.79.79 0 0 1 .689.415.785.785 0 0 1-.394 1.095.752.752 0 0 1-.455.05.777.777 0 0 1-.625-.623.79.79 0 0 1 .045-.453.824.824 0 0 1 .295-.354Zm.445-7.973a.78.78 0 0 0-.445.125.851.851 0 0 0-.295.354.808.808 0 0 0-.045.458c.03.153.105.294.215.404a.81.81 0 0 0 .41.214.789.789 0 0 0 .809-.339.783.783 0 0 0-.649-1.216Zm15.297 70.547a.785.785 0 0 1 .445-.124.773.773 0 0 1 .55.234.78.78 0 0 1-.26 1.276.808.808 0 0 1-.46.045.772.772 0 0 1-.404-.22.732.732 0 0 1-.21-.403.774.774 0 0 1 .045-.454.816.816 0 0 1 .294-.324v-.03Zm.445 7.699a.827.827 0 0 0-.445.13.773.773 0 0 0-.339.807c.026.153.1.294.21.403a.85.85 0 0 0 .404.22.796.796 0 0 0 .815-.334.806.806 0 0 0 .134-.439.794.794 0 0 0-.779-.787Zm-.559 8.057a.79.79 0 0 1 .892-.155.782.782 0 0 1 .436.863.777.777 0 0 1-.619.618.796.796 0 0 1-.809-.334.786.786 0 0 1 .1-.997v.005Zm.559 7.644a.79.79 0 0 0-.739.478.784.784 0 0 0-.045.454.755.755 0 0 0 .21.408c.111.11.251.184.404.215.154.034.314.02.46-.04a.849.849 0 0 0 .355-.289.782.782 0 0 0-.095-.992.77.77 0 0 0-.55-.204v-.03Zm-.445 7.908a.825.825 0 0 1 .445-.13.795.795 0 0 1 .779.787.807.807 0 0 1-.134.439.805.805 0 0 1-.357.29.806.806 0 0 1-.458.044.861.861 0 0 1-.404-.219.75.75 0 0 1-.21-.409.785.785 0 0 1 .045-.454.804.804 0 0 1 .294-.318v-.03Zm.445 7.698a.782.782 0 0 0-.445.125.812.812 0 0 0-.294.354.773.773 0 0 0-.045.453.737.737 0 0 0 .21.404.786.786 0 0 0 1.257-.178.781.781 0 0 0-.133-.929.789.789 0 0 0-.55-.199v-.03Zm-.445 7.973a.825.825 0 0 1 .445-.13.795.795 0 0 1 .779.787.804.804 0 0 1-.134.439.803.803 0 0 1-.355.289.771.771 0 0 1-.46.04.771.771 0 0 1-.614-.618.766.766 0 0 1 .339-.807Zm.445 7.708a.782.782 0 0 0-.445.125.812.812 0 0 0-.294.354.773.773 0 0 0-.045.453.781.781 0 0 0 .766.638.785.785 0 0 0 .733-.481.802.802 0 0 0 .004-.603.803.803 0 0 0-.169-.257.792.792 0 0 0-.55-.219v-.01Zm-.445 7.943a.825.825 0 0 1 .445-.13.795.795 0 0 1 .779.788.803.803 0 0 1-.134.438.798.798 0 0 1-.815.334.853.853 0 0 1-.404-.219.747.747 0 0 1-.21-.409.78.78 0 0 1 .045-.453.8.8 0 0 1 .294-.339v-.01Zm.445-70.562a.826.826 0 0 0-.445.13.773.773 0 0 0-.339.807c.026.153.1.294.21.403a.85.85 0 0 0 .404.22.797.797 0 0 0 .815-.334.805.805 0 0 0 .134-.439.79.79 0 0 0-.229-.553.812.812 0 0 0-.55-.224v-.01Zm-.305-7.758a.697.697 0 0 1 .3-.055.794.794 0 0 1 .555.224.776.776 0 0 1 .224.548.796.796 0 0 1-.03.329.798.798 0 0 1-.429.498.78.78 0 0 1-1.074-.498.814.814 0 0 1-.035-.329.79.79 0 0 1 .235-.548.724.724 0 0 1 .254-.16v-.01Zm.305-7.883a.784.784 0 0 0-.569 1.34.772.772 0 0 0 .864.17.781.781 0 0 0 .355-.294.778.778 0 0 0-.105-.997.797.797 0 0 0-.545-.21v-.01Zm-.445-7.699a.805.805 0 0 1 1 .105.794.794 0 0 1 .234.543.787.787 0 0 1-.499.738.793.793 0 0 1-.865-.17.786.786 0 0 1-.169-.862.816.816 0 0 1 .299-.344v-.01Zm.445-7.972a.784.784 0 0 0-.569 1.34.771.771 0 0 0 .864.17.782.782 0 0 0 .355-.294.778.778 0 0 0-.105-.997.798.798 0 0 0-.545-.19v-.03Zm-.445-7.699a.805.805 0 0 1 1 .105.794.794 0 0 1 .234.543.787.787 0 0 1-.499.737.793.793 0 0 1-.865-.168.787.787 0 0 1-.169-.863.81.81 0 0 1 .299-.324v-.03Zm.445-7.972a.773.773 0 0 0-.739.478.791.791 0 0 0 .17.862.799.799 0 0 0 .864.17.79.79 0 0 0 .499-.733.796.796 0 0 0-.234-.548.777.777 0 0 0-.56-.18v-.05Zm-.445-7.659a.817.817 0 0 1 .445-.13.799.799 0 0 1 .545.23.817.817 0 0 1 .234.548.782.782 0 0 1-.484.732.768.768 0 0 1-.46.05.798.798 0 0 1-.404-.214.806.806 0 0 1-.215-.409.783.783 0 0 1 .339-.807Zm-54.53-.13a.791.791 0 0 0-.73.499.785.785 0 0 0-.045.453.79.79 0 0 0 1.564-.164.791.791 0 0 0-.79-.777v-.01Zm-.44 7.973a.8.8 0 0 1 .994.095.786.786 0 0 1 .105.996.834.834 0 0 1-.35.294.806.806 0 0 1-.46.045.755.755 0 0 1-.404-.21.776.776 0 0 1-.175-.857.813.813 0 0 1 .29-.368v.005Zm.44 7.699a.792.792 0 0 0-.767.596.786.786 0 0 0 .212.749.806.806 0 0 0 .864.164.834.834 0 0 0 .35-.294.82.82 0 0 0 .13-.443.806.806 0 0 0-.235-.548.8.8 0 0 0-.554-.23v.006Zm70.617 9.372a.793.793 0 0 0 .73-.486.795.795 0 0 0 .045-.455.793.793 0 0 0-.621-.618.791.791 0 0 0-.943.772.786.786 0 0 0 .789.787Zm.79 7.036a.788.788 0 0 1-.941.778.791.791 0 0 1-.622-.618.78.78 0 0 1 .334-.81.792.792 0 0 1 1.229.67v-.02Zm-.8 7.04a.791.791 0 0 0-.729.499.783.783 0 0 0-.045.454.786.786 0 0 0 1.082.568.792.792 0 0 0 .422-1.032.87.87 0 0 0-.17-.254.897.897 0 0 0-.26-.17.866.866 0 0 0-.3-.044v-.02Zm.8 8.601a.787.787 0 0 1-.941.778.79.79 0 0 1-.622-.617.781.781 0 0 1 .334-.81.791.791 0 0 1 1.229.67v-.02Zm-.79 8.615a.793.793 0 0 0 .73-.486.796.796 0 0 0 .045-.454.794.794 0 0 0-.621-.619.791.791 0 0 0-.943.772.788.788 0 0 0 .789.807v-.02Zm-.449 6.383a.808.808 0 0 1 .742-.07.79.79 0 0 1 .257.17.792.792 0 0 1 .23.553.762.762 0 0 1-.135.439.788.788 0 0 1-1.384-.737.8.8 0 0 1 .29-.335v-.02Zm1.239 8.471a.792.792 0 0 1-.488.728.792.792 0 0 1-1.076-.574.787.787 0 0 1 1.083-.878.78.78 0 0 1 .429.444.784.784 0 0 1 .052.31v-.03Zm-.79 8.665a.787.787 0 1 0-.658-1.221.782.782 0 0 0-.071.74.786.786 0 0 0 .729.481Zm.79 7.041a.788.788 0 0 1-.941.778.791.791 0 0 1-.622-.617.782.782 0 0 1 .334-.81.79.79 0 0 1 1.229.624v.025Zm-.79 8.616a.797.797 0 0 0 .73-.486.792.792 0 0 0-1.386-.739.783.783 0 0 0-.133.437.79.79 0 0 0 .789.763v.025Zm-.449 6.383a.805.805 0 0 1 .997.097.786.786 0 0 1 .232.555.764.764 0 0 1-.135.439.796.796 0 0 1-1.214.119.785.785 0 0 1-.17-.857.77.77 0 0 1 .29-.378v.025ZM93.724 89.327a.811.811 0 0 1 .743-.07.783.783 0 0 1-.003 1.45.79.79 0 0 1-1.075-.572.785.785 0 0 1 .335-.808Zm.44 7.694a.791.791 0 0 0-.73.498.776.776 0 0 0-.045.454.777.777 0 0 0 .62.618.79.79 0 0 0 .944-.773.762.762 0 0 0-.06-.299.758.758 0 0 0-.43-.428.765.765 0 0 0-.3-.07Zm-.3 7.888a.771.771 0 0 1 .3-.06.782.782 0 0 1 .56 1.34.792.792 0 0 1-1.35-.553.79.79 0 0 1 .23-.558.753.753 0 0 1 .26-.169Zm.3 7.813a.776.776 0 0 0-.73.498.787.787 0 0 0 1.384.738.758.758 0 0 0 .135-.434.805.805 0 0 0-.23-.558.786.786 0 0 0-.56-.244Zm-.44 7.913a.767.767 0 0 1 .44-.135.77.77 0 0 1 .3.06.768.768 0 0 1 .49.727.77.77 0 0 1-.136.439.786.786 0 0 1-.81.334.854.854 0 0 1-.404-.22.776.776 0 0 1-.17-.852.773.773 0 0 1 .29-.353Zm.44 7.693a.773.773 0 0 0-.73.483.788.788 0 0 0 .575 1.072.797.797 0 0 0 .81-.334.776.776 0 0 0-.097-.994.795.795 0 0 0-.558-.227Zm-.44 7.973a.767.767 0 0 1 .44-.135.781.781 0 0 1 .651 1.227.79.79 0 0 1-.361.288.786.786 0 0 1-1.075-.573.803.803 0 0 1 .345-.822v.015Zm.44 7.698a.819.819 0 0 0-.44.135.788.788 0 0 0-.12 1.21.797.797 0 0 0 1.214-.119.757.757 0 0 0 .135-.439.79.79 0 0 0-.79-.787Zm-.44 7.973a.775.775 0 0 1 .44-.135.781.781 0 0 1 .654 1.226.786.786 0 0 1-.81.334.854.854 0 0 1-.404-.22.776.776 0 0 1-.17-.857.787.787 0 0 1 .29-.383v.035Zm.44 7.688a.819.819 0 0 0-.44.135.788.788 0 0 0 .285 1.425.797.797 0 0 0 .81-.334.77.77 0 0 0 .134-.439.793.793 0 0 0-.79-.787Zm-.44 7.973a.788.788 0 0 1 .994.094.777.777 0 0 1 .105.997.78.78 0 0 1-.576.354.776.776 0 0 1-.638-.225.814.814 0 0 1-.22-.403.788.788 0 0 1 .045-.454.772.772 0 0 1 .29-.408v.045Zm.44 7.663a.79.79 0 0 0-.73.499.784.784 0 0 0-.045.453c.034.153.11.293.22.404a.788.788 0 0 0 .884.207.793.793 0 0 0 .441-.444.785.785 0 0 0-.216-.88.794.794 0 0 0-.554-.284v.045Zm-.44-93.767a.776.776 0 0 1 .74-.075.76.76 0 0 1 .43.43.76.76 0 0 1 .06.298.787.787 0 0 1-.5.727.782.782 0 0 1-.455.045.78.78 0 0 1-.575-1.072.788.788 0 0 1 .29-.353h.01Zm.44-7.947a.681.681 0 0 0-.3.055.804.804 0 0 0-.26.169.76.76 0 0 0-.23.548.807.807 0 0 0 .23.558.796.796 0 0 0 1.12 0 .807.807 0 0 0 .23-.558.781.781 0 0 0-.06-.299.823.823 0 0 0-.43-.419.68.68 0 0 0-.3-.08v.026Zm-.44-7.694a.785.785 0 0 1 .994.095.788.788 0 1 1-1.109 1.116.822.822 0 0 1-.22-.404.786.786 0 0 1 .045-.453.773.773 0 0 1 .29-.379v.025Zm.44-7.972a.792.792 0 0 0-.767.596.786.786 0 0 0 .212.749.806.806 0 0 0 .864.164.834.834 0 0 0 .35-.294.82.82 0 0 0 .13-.443.8.8 0 0 0-.79-.782v.01Zm-.44-7.694a.785.785 0 0 1 .994.095.785.785 0 0 1-.54 1.38.794.794 0 0 1-.569-.264.82.82 0 0 1-.22-.404.785.785 0 0 1 .045-.453.773.773 0 0 1 .29-.364v.01Zm0-46.958a.811.811 0 0 1 .743-.071.785.785 0 0 1 .486.724.789.789 0 0 1-.944.772.777.777 0 0 1-.62-.618.786.786 0 0 1 .045-.453.803.803 0 0 1 .29-.364v.01Zm.44 7.693a.791.791 0 0 0-.73.499.776.776 0 0 0-.045.453.816.816 0 0 0 .215.404.8.8 0 0 0 .86.17.789.789 0 0 0 .003-1.457.786.786 0 0 0-.303-.059v-.01Zm0 7.828a.811.811 0 0 0-.44.13.813.813 0 0 0-.29.359.776.776 0 0 0 .175.857c.11.11.252.183.405.209.154.03.314.015.46-.045a.834.834 0 0 0 .35-.294.785.785 0 0 0-.106-.996.801.801 0 0 0-.554-.23v.01ZM78.472 89.198a.78.78 0 0 0-.73.498.786.786 0 0 0 1.03 1.027.79.79 0 0 0 .489-.728.792.792 0 0 0-.23-.553.785.785 0 0 0-.56-.244Zm.789 8.61a.785.785 0 0 1-.487.728.793.793 0 0 1-.86-.171.787.787 0 0 1 .86-1.284.79.79 0 0 1 .487.727Zm-.79 8.635a.789.789 0 0 0 .774-.942.787.787 0 0 0-.623-.618.794.794 0 0 0-.94.778.787.787 0 0 0 .232.555.78.78 0 0 0 .558.227Zm.79 7.041a.787.787 0 0 1-.94.778.79.79 0 0 1-.623-.617.786.786 0 0 1 .774-.943.792.792 0 0 1 .789.757v.025Zm-.79 8.616a.796.796 0 0 0 .73-.486.787.787 0 0 0-1.032-1.029.782.782 0 0 0-.487.727.786.786 0 0 0 .79.763v.025Zm-.44 6.358a.807.807 0 0 1 .998.097.792.792 0 0 1 .232.555.787.787 0 0 1-.944.773.8.8 0 0 1-.405-.215.788.788 0 0 1 .12-1.21Zm.44 9.268a.788.788 0 1 0 .002-1.575.788.788 0 0 0-.001 1.575Zm.79 7.035a.787.787 0 0 1-.94.778.79.79 0 0 1-.623-.617.786.786 0 0 1 .774-.943.789.789 0 0 1 .789.782Zm-.79 7.026a.782.782 0 0 0-.44.135.786.786 0 0 0-.334.807c.03.151.105.29.215.399a.778.778 0 0 0 .86.174.81.81 0 0 0 .354-.289.784.784 0 0 0-.654-1.226Zm.79 8.611a.785.785 0 0 1-.487.727.791.791 0 0 1-1.077-.574.787.787 0 0 1 1.08-.879.776.776 0 0 1 .428.435.785.785 0 0 1 .056.306v-.015Zm-.79 8.615a.789.789 0 0 0 .557-1.346.79.79 0 0 0-1.346.564.788.788 0 0 0 .79.797v-.015Zm-.44 6.373a.789.789 0 0 1 1 .095.774.774 0 0 1 .105.996.77.77 0 0 1-.35.294.78.78 0 0 1-.864-.164.821.821 0 0 1-.22-.404.784.784 0 0 1 .045-.453.768.768 0 0 1 .285-.364Zm.44-92.442a.791.791 0 0 0 .73-.486.786.786 0 0 0-1.032-1.028.789.789 0 0 0-.256 1.284.79.79 0 0 0 .559.23Zm.79-8.615a.787.787 0 0 1-.94.778.79.79 0 0 1-.623-.617.785.785 0 0 1 .774-.943.79.79 0 0 1 .789.782Zm-.79-8.6a.79.79 0 0 0-.729.498.785.785 0 0 0-.045.453c.034.153.11.293.22.404a.784.784 0 0 0 1.214-.13.776.776 0 0 0-.105-.996.773.773 0 0 0-.554-.23Zm.79-7.041a.787.787 0 0 1-.94.778.79.79 0 0 1-.623-.618.785.785 0 0 1 .774-.942.79.79 0 0 1 .789.782Zm-.79-7.056a.791.791 0 0 0 .73-.486.786.786 0 0 0-.575-1.073.791.791 0 0 0-.944.772.786.786 0 0 0 .79.787Zm.79-8.615a.787.787 0 0 1-.94.778.79.79 0 0 1-.623-.618.785.785 0 0 1 .774-.942.792.792 0 0 1 .789.802v-.02Zm-.79-7.04a.791.791 0 0 0 .73-.487.786.786 0 0 0-1.032-1.029.789.789 0 0 0-.487.728.786.786 0 0 0 .79.807v-.02Zm-.44-9.259a.775.775 0 0 1 .44-.134.795.795 0 0 1 .555.229.776.776 0 0 1 .105.996.786.786 0 0 1-1.214.13.822.822 0 0 1-.22-.404.785.785 0 0 1 .045-.453.772.772 0 0 1 .29-.364Zm.44-6.388a.791.791 0 0 0 .73-.486.786.786 0 0 0-1.032-1.029.789.789 0 0 0-.487.728.785.785 0 0 0 .484.74c.097.041.2.062.306.062v-.015Zm.79-8.61a.785.785 0 0 1-.487.727.791.791 0 0 1-1.077-.574.786.786 0 0 1 1.08-.88.79.79 0 0 1 .484.742v-.015Zm-.79-8.61a.78.78 0 0 0-.729.498.786.786 0 0 0 1.03 1.026.79.79 0 0 0 .489-.727.792.792 0 0 0-.487-.724.786.786 0 0 0-.302-.059V3.11ZM62.34 89.312a.81.81 0 0 1 .742-.072.786.786 0 0 1 .487.724.789.789 0 0 1-.944.772.777.777 0 0 1-.62-.618.785.785 0 0 1 .045-.453.802.802 0 0 1 .29-.339v-.014Zm.44 7.693a.79.79 0 0 0-.73.498.775.775 0 0 0-.045.454.777.777 0 0 0 .62.618.79.79 0 0 0 .944-.773.762.762 0 0 0-.06-.299.76.76 0 0 0-.43-.428.766.766 0 0 0-.3-.055v-.015Zm-.55 8.062a.757.757 0 0 1 .55-.234.782.782 0 0 1 .56.229.694.694 0 0 1-.031 1.057.791.791 0 0 1-1.31-.499.766.766 0 0 1 .23-.538v-.015Zm.55 7.639a.776.776 0 0 0-.73.498.787.787 0 0 0 .17.857.844.844 0 0 0 .404.219.806.806 0 0 0 .81-.338.758.758 0 0 0 .135-.434.805.805 0 0 0-.23-.558.785.785 0 0 0-.56-.229v-.015Zm-.44 7.913a.767.767 0 0 1 .44-.135.77.77 0 0 1 .299.06.767.767 0 0 1 .43.428.77.77 0 0 1-.075.738.786.786 0 0 1-.81.334.854.854 0 0 1-.404-.22.776.776 0 0 1-.17-.852.775.775 0 0 1 .29-.338v-.015Zm.44-109.688a.79.79 0 0 0-.73.499.775.775 0 0 0-.045.453.818.818 0 0 0 .215.404.8.8 0 0 0 .86.17.789.789 0 0 0 .002-1.457.784.784 0 0 0-.303-.059v-.01Zm-.44 7.973a.81.81 0 0 1 .44-.13.682.682 0 0 1 .299.055c.19.08.344.23.43.419a.805.805 0 0 1-.07.742.833.833 0 0 1-.35.294.806.806 0 0 1-.46.045.755.755 0 0 1-.404-.21.822.822 0 0 1-.22-.403.78.78 0 0 1 .04-.473.812.812 0 0 1 .295-.339Zm.44 7.694a.79.79 0 0 0-.73.498.785.785 0 0 0-.045.453.79.79 0 1 0 1.504-.463.797.797 0 0 0-.43-.419.765.765 0 0 0-.3-.07Zm-.44 7.972a.811.811 0 0 1 .44-.13.68.68 0 0 1 .299.055c.19.08.344.23.43.419a.796.796 0 0 1-.42 1.036.852.852 0 0 1-.46.05.8.8 0 0 1-.624-.618.775.775 0 0 1 .045-.453.811.811 0 0 1 .29-.374v.015Zm.44 7.699a.791.791 0 0 0-.767.596.786.786 0 0 0-.008.345.82.82 0 0 0 .22.404.806.806 0 0 0 .864.164.833.833 0 0 0 .35-.294.82.82 0 0 0 .13-.443.78.78 0 0 0-.06-.3.824.824 0 0 0-.43-.418.681.681 0 0 0-.3-.07v.016Zm-.44 7.972a.776.776 0 0 1 .44-.134c.102 0 .203.019.299.054a.815.815 0 0 1 .43.424.786.786 0 0 1-.878 1.08.79.79 0 0 1-.626-.617.785.785 0 0 1 .045-.453.773.773 0 0 1 .29-.384v.03Zm.44 7.694a.793.793 0 0 0-.767.596.786.786 0 0 0-.008.345.82.82 0 0 0 .22.404.806.806 0 0 0 .864.164.833.833 0 0 0 .35-.294.82.82 0 0 0 .13-.443.781.781 0 0 0-.06-.3.824.824 0 0 0-.43-.418.68.68 0 0 0-.3-.084v.03Zm-.44 7.972a.776.776 0 0 1 .44-.135c.102.001.203.02.299.055a.812.812 0 0 1 .43.424.786.786 0 0 1-.878 1.08.79.79 0 0 1-.626-.617.785.785 0 0 1 .045-.453.77.77 0 0 1 .29-.399v.045Zm.44 7.694a.78.78 0 0 0-.72.475.81.81 0 0 0 .07.74.788.788 0 0 0 .92.308.792.792 0 0 0 .514-.587.8.8 0 0 0-.345-.812.766.766 0 0 0-.44-.17v.046Zm-.44 7.927a.776.776 0 0 1 .739-.075.758.758 0 0 1 .43.43.76.76 0 0 1 .06.298.785.785 0 0 1-.5.727.782.782 0 0 1-.455.045.78.78 0 0 1-.62-.617.786.786 0 0 1 .336-.808h.01Zm.44 46.839a.78.78 0 0 0-.73.483.787.787 0 0 0 1.03 1.027.793.793 0 0 0 .489-.728.776.776 0 0 0-.232-.555.794.794 0 0 0-.558-.227Zm0 7.823a.767.767 0 0 0-.44.135.784.784 0 0 0-.335.807c.03.151.105.29.215.398a.775.775 0 0 0 .86.175.786.786 0 0 0 .489-.728.783.783 0 0 0-.79-.787Zm-.44 7.973a.81.81 0 0 1 .44-.135.796.796 0 0 1 .789.787.793.793 0 0 1-1.349.558.78.78 0 0 1-.227-.633.79.79 0 0 1 .347-.577Zm.44 7.683a.767.767 0 0 0-.44.135.784.784 0 0 0-.335.807c.03.151.105.29.215.398a.854.854 0 0 0 .404.22.786.786 0 0 0 .81-.334.783.783 0 0 0-.654-1.226Zm-.44 7.973a.819.819 0 0 1 .44-.135.796.796 0 0 1 .789.787.79.79 0 0 1-.5.728.786.786 0 0 1-1.03-1.027.774.774 0 0 1 .3-.413v.06Zm.44 7.693a.79.79 0 0 0-.73.498.787.787 0 0 0-.045.454.785.785 0 0 0 1.082.568.792.792 0 0 0 .422-1.032.805.805 0 0 0-.43-.423.881.881 0 0 0-.3-.125v.06ZM46.646 89.327a.81.81 0 0 1 .743-.07.784.784 0 0 1-.002 1.45.791.791 0 0 1-1.075-.572.785.785 0 0 1 .334-.808Zm.45 9.269a.79.79 0 0 0 .774-.941.787.787 0 0 0-1.076-.574.789.789 0 0 0-.256 1.284.79.79 0 0 0 .558.23Zm-.79 7.04a.79.79 0 1 1 1.23.65.793.793 0 0 1-.995-.096.788.788 0 0 1-.234-.554Zm.79 8.611a.795.795 0 0 0 .73-.486.787.787 0 0 0-1.032-1.029.788.788 0 0 0 .302 1.515Zm.79 7.04a.788.788 0 0 1-1.348.557.786.786 0 0 1 .558-1.344.79.79 0 0 1 .79.787Zm-.8 7.041a.807.807 0 0 0-.44.13.788.788 0 0 0 .285 1.425.797.797 0 0 0 .81-.334.778.778 0 0 0-.353-1.163.78.78 0 0 0-.302-.058Zm.8 8.61a.788.788 0 0 1-1.348.557.786.786 0 0 1 .558-1.344.79.79 0 0 1 .79.787Zm-.79 8.611a.787.787 0 1 0-.656-1.225.787.787 0 0 0 .656 1.225Zm-.45 6.388a.782.782 0 0 1 .743-.076.783.783 0 0 1 .352 1.167.81.81 0 0 1-.355.289.778.778 0 0 1-.455.045.86.86 0 0 1-.404-.219.783.783 0 0 1 .12-1.206Zm.45 9.263a.787.787 0 1 0-.656-1.225.788.788 0 0 0 .656 1.225Zm.79-79.043a.785.785 0 0 1-.488.728.792.792 0 0 1-1.076-.574.786.786 0 0 1 1.076-.881.79.79 0 0 1 .487.727Zm-.79-7.04a.79.79 0 0 0 .774-.942.787.787 0 0 0-1.076-.573.789.789 0 0 0-.256 1.284.79.79 0 0 0 .558.23Zm-.45-9.254a.776.776 0 0 1 .44-.134c.102 0 .204.019.3.055a.816.816 0 0 1 .43.423.806.806 0 0 1-.07.738.774.774 0 0 1-.35.294.786.786 0 0 1-.84-.16.822.822 0 0 1-.22-.404.785.785 0 0 1 .046-.453.773.773 0 0 1 .264-.359Zm.45-6.388a.79.79 0 0 0 .774-.94.787.787 0 0 0-1.076-.574.79.79 0 0 0-.427 1.028.788.788 0 0 0 .729.486Zm.79-8.61a.785.785 0 0 1-.488.727.792.792 0 0 1-1.076-.573.786.786 0 0 1 1.076-.881.79.79 0 0 1 .487.727Zm-.79-7.04a.79.79 0 0 0 .774-.942.787.787 0 0 0-1.076-.574.789.789 0 0 0-.256 1.285.79.79 0 0 0 .558.23Zm.79-24.267a.786.786 0 0 1-.94.777.79.79 0 0 1-.624-.617.785.785 0 0 1 .774-.943.79.79 0 0 1 .79.783Zm-.8 7.04a.79.79 0 0 0-.73.499.785.785 0 0 0-.044.453.82.82 0 0 0 .22.404.784.784 0 0 0 1.213-.13.806.806 0 0 0 .07-.737.795.795 0 0 0-.43-.419.766.766 0 0 0-.299-.07Zm0 9.398a.79.79 0 0 0 .786-.927.787.787 0 0 0-1.062-.594.79.79 0 0 0-.45 1.021.787.787 0 0 0 .736.5h-.01ZM31.395 89.198a.786.786 0 1 0 .3 1.51.78.78 0 0 0-.285-1.51h-.015Zm-.44 7.972a.786.786 0 0 1 1.088 1.094.779.779 0 0 1-.363.287.79.79 0 0 1-1.075-.573.786.786 0 0 1 .335-.808h.015Zm.44 7.694a.76.76 0 0 0-.555.234.701.701 0 0 0-.154.82.697.697 0 0 0 .184.231.794.794 0 0 0 1.233-.237.696.696 0 0 0-.179-.819.774.774 0 0 0-.53-.244v.015Zm-.44 8.002a.797.797 0 0 1 .994.1.79.79 0 0 1 .1.997.808.808 0 0 1-.81.338.822.822 0 0 1-.404-.219.787.787 0 0 1-.17-.857.803.803 0 0 1 .29-.374v.015Zm.44 7.649a.752.752 0 0 0-.44.135.783.783 0 0 0-.12 1.205c.111.11.252.186.405.22a.794.794 0 0 0 .81-.334.807.807 0 0 0 .07-.738.757.757 0 0 0-.425-.428.78.78 0 0 0-.3-.075v.015Zm-.44 7.973a.79.79 0 0 1 .74-.071.77.77 0 0 1 .254.17.762.762 0 0 1 .23.553.78.78 0 0 1-.594.765.79.79 0 0 1-.92-1.064.772.772 0 0 1 .29-.383v.03Zm.44 7.693a.752.752 0 0 0-.44.135.784.784 0 0 0-.335.807c.031.151.106.29.215.398.109.114.25.19.405.22.153.03.31.014.455-.045a.777.777 0 0 0 .5-.728.781.781 0 0 0-.23-.558.808.808 0 0 0-.57-.259v.03Zm-.44 7.973a.8.8 0 0 1 .44-.135.76.76 0 0 1 .3.062.77.77 0 0 1 .254.172.762.762 0 0 1 .23.553.78.78 0 0 1-.594.765.79.79 0 0 1-.92-1.064.781.781 0 0 1 .29-.353Zm.44 7.683a.766.766 0 0 0-.44.135.784.784 0 0 0-.335.807c.031.151.106.29.215.398.111.11.252.186.405.22a.794.794 0 0 0 .81-.334.807.807 0 0 0 .07-.741.797.797 0 0 0-.17-.256.8.8 0 0 0-.555-.279v.05Zm-.44-70.308a.788.788 0 0 1 .994.095.753.753 0 0 1 .17.26.776.776 0 0 1-.44 1.026.792.792 0 0 1-.859-.17.786.786 0 0 1 .12-1.21h.015Zm.44-7.947a.79.79 0 0 0-.555.224.776.776 0 0 0-.225.548.766.766 0 0 0 .125.444c.088.13.21.232.355.293a.806.806 0 0 0 .864-.169.796.796 0 0 0 .17-.862.813.813 0 0 0-.295-.354.766.766 0 0 0-.44-.15v.026Zm-.44-7.694a.762.762 0 0 1 .44-.134c.102 0 .204.019.3.054a.782.782 0 0 1 .481.8.783.783 0 0 1-1.336.49.752.752 0 0 1-.22-.403.786.786 0 0 1 .045-.453.772.772 0 0 1 .29-.379v.025Zm.44-7.972a.792.792 0 0 0-.766.596.786.786 0 0 0 .211.749.777.777 0 0 0 .405.21.781.781 0 0 0 .824-.364.82.82 0 0 0 .065-.743.784.784 0 0 0-.425-.419.697.697 0 0 0-.314-.04v.01Zm-.44-7.694a.76.76 0 0 1 .44-.134c.102 0 .204.019.3.054a.783.783 0 0 1 .481.8.783.783 0 0 1-1.042.675.785.785 0 0 1-.294-.184.752.752 0 0 1-.22-.404.785.785 0 0 1 .045-.453.772.772 0 0 1 .29-.364v.01Zm.44-7.972a.79.79 0 0 0-.775.941c.03.154.107.295.22.404a.74.74 0 0 0 .405.21.781.781 0 0 0 .93-.703.82.82 0 0 0-.056-.38.784.784 0 0 0-.425-.419.697.697 0 0 0-.3-.048v-.005Zm-.44-7.699a.796.796 0 0 1 .44-.13.697.697 0 0 1 .3.055.784.784 0 0 1 .484.723.76.76 0 0 1-.125.438.788.788 0 0 1-.355.294.78.78 0 0 1-.86-.164.775.775 0 0 1-.175-.857.812.812 0 0 1 .291-.354v-.005Zm.44-7.973a.761.761 0 0 0-.44.135.785.785 0 0 0-.335.807.79.79 0 0 0 1.434.274.81.81 0 0 0 .065-.737.781.781 0 0 0-.17-.254.768.768 0 0 0-.255-.165.786.786 0 0 0-.3-.04v-.02ZM15.268 89.322a.78.78 0 0 1 .444-.124.77.77 0 0 1 .55.234.786.786 0 0 1 .095.987.769.769 0 0 1-.355.289.806.806 0 0 1-.46.044.755.755 0 0 1-.404-.219.737.737 0 0 1-.21-.403.78.78 0 0 1 .34-.808Zm.444 7.699a.825.825 0 0 0-.444.13.772.772 0 0 0-.34.807.75.75 0 0 0 .21.403c.111.11.252.186.405.22a.792.792 0 0 0 .937-.688.784.784 0 0 0-.451-.798.793.793 0 0 0-.316-.074Zm-.559 8.057a.769.769 0 0 1 .554-.229.778.778 0 0 1 .774.937.776.776 0 0 1-.619.618.794.794 0 0 1-.809-.334.791.791 0 0 1 .1-.997v.005Zm.56 7.644a.787.787 0 0 0-.575 1.34c.11.11.251.185.405.214a.762.762 0 0 0 .46-.039.843.843 0 0 0 .354-.289.807.807 0 0 0 .13-.439.782.782 0 0 0-.774-.787Zm-.445 7.908a.789.789 0 0 1 .995.104.784.784 0 0 1 .148.89.802.802 0 0 1-.522.428.793.793 0 0 1-.346.008.832.832 0 0 1-.405-.22.752.752 0 0 1-.21-.408.787.787 0 0 1 .045-.454.8.8 0 0 1 .295-.348Zm.444 7.698a.778.778 0 0 0-.784.932.735.735 0 0 0 .21.403.787.787 0 0 0 1.258-.177.783.783 0 0 0-.684-1.158Zm-.444-46.839a.825.825 0 0 1 .444-.13.81.81 0 0 1 .55.235.787.787 0 0 1-.064 1.162.79.79 0 0 1-1.06-.056.751.751 0 0 1-.21-.403.77.77 0 0 1 .34-.808Zm.444-7.942a.715.715 0 0 0-.304.055.774.774 0 0 0-.5.717.811.811 0 0 0 .46.827.787.787 0 0 0 .644 0 .805.805 0 0 0 .43-.498.816.816 0 0 0 .035-.329.771.771 0 0 0-.78-.772h.016Zm-.444-7.699a.816.816 0 0 1 .444-.13.782.782 0 0 1 .774.777.779.779 0 0 1-.48.733.776.776 0 0 1-.864-.17.782.782 0 0 1 .126-1.21Zm.444-7.972a.772.772 0 0 0-.739.478.785.785 0 0 0 .576 1.079.792.792 0 0 0 .94-.736.785.785 0 0 0-.777-.821Zm-.444-7.699a.816.816 0 0 1 .444-.13.782.782 0 0 1 .774.777.78.78 0 0 1-.48.732.775.775 0 0 1-.864-.17.782.782 0 0 1 .126-1.209Zm94.588 39.02a.768.768 0 0 0-.44.125.795.795 0 0 0-.243.248.795.795 0 0 0-.072.67.798.798 0 0 0 .59.513.792.792 0 0 0 .944-.768.794.794 0 0 0-.779-.787Zm-.44 7.973a.783.783 0 0 1 1 .105.78.78 0 0 1-.27 1.28.793.793 0 0 1-.455.045.791.791 0 0 1-.62-.625.784.784 0 0 1 .051-.456c.057-.15.16-.28.294-.369v.02Zm.44 7.699a.77.77 0 0 0-.555.229.79.79 0 0 0 1.115 1.117.78.78 0 0 0 .214-.404.776.776 0 0 0-.045-.454.782.782 0 0 0-.729-.498v.01Zm-.44 8.002a.793.793 0 0 1 .987.111.78.78 0 0 1 .223.476.781.781 0 0 1-.126.51.814.814 0 0 1-.354.289.747.747 0 0 1-.455.039.784.784 0 0 1-.405-.214.785.785 0 0 1-.164-.862.778.778 0 0 1 .294-.369v.02Zm.44 7.649a.809.809 0 0 0-.44.13.784.784 0 0 0-.13 1.21c.112.11.252.186.405.22.153.03.311.014.455-.045a.791.791 0 0 0 .499-.728.753.753 0 0 0-.229-.553.793.793 0 0 0-.56-.254v.02Zm-.44 7.973a.764.764 0 0 1 .44-.125.782.782 0 0 1 .779.782.75.75 0 0 1-.135.439.796.796 0 0 1-.809.334.79.79 0 0 1-.516-1.183.79.79 0 0 1 .241-.247Zm.44 7.698a.809.809 0 0 0-.44.13.767.767 0 0 0-.294.348.793.793 0 0 0-.05.459.785.785 0 0 0 .619.618.791.791 0 0 0 .954-.768.753.753 0 0 0-.229-.553.796.796 0 0 0-.56-.274v.04Zm-.44 7.973a.764.764 0 0 1 .44-.125.782.782 0 0 1 .779.782.75.75 0 0 1-.135.439.786.786 0 1 1-1.084-1.096Zm.44 7.623a.809.809 0 0 0-.44.13.782.782 0 0 0-.13 1.211c.112.11.252.186.405.219a.796.796 0 0 0 .93-.615.777.777 0 0 0-.215-.711.795.795 0 0 0-.55-.234Zm-.44 7.973a.783.783 0 0 1 1 .104.782.782 0 0 1-.26 1.281.796.796 0 0 1-.455.045.79.79 0 0 1-.516-1.182.793.793 0 0 1 .241-.248h-.01Zm.44 7.698a.809.809 0 0 0-.44.13.755.755 0 0 0-.294.354.774.774 0 0 0 .033.672.796.796 0 0 0 .541.404.798.798 0 0 0 .94-.739.784.784 0 0 0-.78-.821Zm-.44-85.954a.782.782 0 0 1 1 .105.795.795 0 0 1 .212.71.794.794 0 0 1-.472.57.792.792 0 0 1-.455.045.791.791 0 0 1-.62-.625.777.777 0 0 1 .051-.456.77.77 0 0 1 .284-.354v.005Zm0-70.422a.783.783 0 0 1 1 .105.795.795 0 0 1 .212.709.794.794 0 0 1-.472.571.792.792 0 0 1-.455.045.791.791 0 0 1-.62-.625.777.777 0 0 1 .051-.456.772.772 0 0 1 .284-.354v.005Zm.44 7.698a.768.768 0 0 0-.734.479.752.752 0 0 0-.05.458.753.753 0 0 0 .219.404.791.791 0 0 0 .966.116c.1-.06.185-.143.248-.24a.789.789 0 0 0-.649-1.22v.003Zm-.44 7.973a.787.787 0 0 1 1.191.561.781.781 0 0 1-.102.5.753.753 0 0 1-.354.294.753.753 0 0 1-.455.05.795.795 0 0 1-.624-.623.797.797 0 0 1 .344-.807v.025Zm.44 7.698a.768.768 0 0 0-.734.479.752.752 0 0 0-.05.458.753.753 0 0 0 .219.404.793.793 0 0 0 .637.227.785.785 0 0 0 .707-.79.789.789 0 0 0-.229-.548.792.792 0 0 0-.55-.255v.025Zm-.44 7.973a.768.768 0 0 1 .44-.125.787.787 0 0 1 .55.23.79.79 0 0 1 .229.543.781.781 0 0 1-.707.792.796.796 0 0 1-.637-.224.774.774 0 0 1-.169-.862.777.777 0 0 1 .294-.399v.045Zm.44 7.698a.813.813 0 0 0-.44.13.778.778 0 0 0-.261 1.026.79.79 0 0 0 .541.404.793.793 0 0 0 .455-.05.752.752 0 0 0 .354-.294.777.777 0 0 0-.247-1.103.788.788 0 0 0-.402-.113Zm-.44 7.973a.768.768 0 0 1 .44-.125.787.787 0 0 1 .55.23.79.79 0 0 1 .229.543.781.781 0 0 1-.707.792.795.795 0 0 1-.637-.224.774.774 0 0 1-.169-.862.78.78 0 0 1 .294-.419v.065Zm.44 7.698a.812.812 0 0 0-.44.13.76.76 0 0 0-.294.354.736.736 0 0 0-.05.453.802.802 0 0 0 .624.623.793.793 0 0 0 .455-.05.753.753 0 0 0 .354-.294.777.777 0 0 0-.247-1.103.788.788 0 0 0-.402-.113Zm0 7.828a.684.684 0 0 0-.3.055.82.82 0 0 0-.429.419.767.767 0 0 0-.06.299.78.78 0 0 0 .199.613.79.79 0 0 0 .91.194.784.784 0 0 0 .459-.807.756.756 0 0 0-.229-.548.789.789 0 0 0-.55-.29v.066Zm15.692 15.642a.763.763 0 0 0-.439.124.786.786 0 0 0-.295.354.77.77 0 0 0 .165.857c.108.113.25.19.404.22a.805.805 0 0 0 .815-.335.786.786 0 0 0-.65-1.22Zm.79 8.61a.792.792 0 0 1-.488.727.79.79 0 0 1-1.076-.573.787.787 0 0 1 .774-.941.792.792 0 0 1 .79.722v.065Zm0 15.651a.788.788 0 0 1-.941.778.79.79 0 0 1-.578-1.073.784.784 0 0 1 .729-.487.785.785 0 0 1 .79.717v.065Zm-.79-7.081a.787.787 0 1 0-.305-1.513.789.789 0 0 0 .305 1.513Zm0 15.657a.797.797 0 0 0 .73-.486.788.788 0 0 0-1.032-1.029.784.784 0 0 0-.487.727.79.79 0 0 0 .789.763v.025Zm-.439 6.378a.759.759 0 0 1 .439-.125.791.791 0 0 1 .688.418.78.78 0 0 1-.398 1.092.787.787 0 0 1-.455.045.754.754 0 0 1-.404-.22.768.768 0 0 1-.165-.857.78.78 0 0 1 .295-.378v.025Zm.439 9.273a.797.797 0 0 0 .73-.486.788.788 0 0 0-1.032-1.029.79.79 0 0 0-.487.727.79.79 0 0 0 .789.763v.025Zm.79 7.035a.788.788 0 0 1-.941.778.791.791 0 0 1-.623-.617.79.79 0 1 1 1.564-.186v.025Zm-.79 7.001a.805.805 0 0 0-.734.479.786.786 0 0 0 .569 1.081.78.78 0 0 0 .455-.045c.145-.06.27-.16.36-.289a.813.813 0 0 0 .13-.438.79.79 0 0 0-.225-.554.8.8 0 0 0-.555-.234Zm.79 8.611a.791.791 0 0 1-.944.772.795.795 0 0 1-.62-.619.787.787 0 0 1 .774-.941.786.786 0 0 1 .79.803v-.015Zm0-78.23a.792.792 0 0 1-.488.726.79.79 0 0 1-1.076-.573.787.787 0 0 1 .774-.941.791.791 0 0 1 .79.777v.01Zm-.79 86.86a.79.79 0 0 0 .774-.941.795.795 0 0 0-1.076-.574.786.786 0 0 0 .302 1.515Zm0-93.912a.793.793 0 0 0 .73-.486.786.786 0 0 0-.576-1.073.79.79 0 0 0-.884 1.074.778.778 0 0 0 .73.485Zm-.439-9.258a.809.809 0 0 1 .439-.13.784.784 0 0 1 .78.777.766.766 0 0 1-.125.44.808.808 0 0 1-.815.344.777.777 0 0 1-.511-1.172.786.786 0 0 1 .242-.249l-.01-.01Zm.439-6.383a.793.793 0 0 0 .73-.486.786.786 0 0 0-.576-1.073.79.79 0 0 0-.884 1.074.778.778 0 0 0 .73.485Zm.79-8.61a.792.792 0 0 1-.488.727.792.792 0 0 1-1.076-.573.787.787 0 0 1 .774-.941.789.789 0 0 1 .79.787Zm-.79-7.04a.793.793 0 0 0 .73-.487.786.786 0 0 0-.576-1.073.79.79 0 0 0-.884 1.074.778.778 0 0 0 .73.485Zm.79-8.636a.787.787 0 0 1-.941.778.79.79 0 0 1-.623-.618.79.79 0 1 1 1.564-.16Zm-.79-8.61a.81.81 0 0 0-.439.13.779.779 0 0 0-.34.806.779.779 0 0 0 1.079.573.782.782 0 0 0 .355-.294.766.766 0 0 0 .125-.438.784.784 0 0 0-.78-.778Zm.79-7.041a.787.787 0 0 1-.941.777.79.79 0 0 1-.623-.617.79.79 0 0 1 1.081-.883.777.777 0 0 1 .428.436.784.784 0 0 1 .055.307v-.02Zm-.79-7.036a.793.793 0 0 0 .73-.486.787.787 0 0 0-.576-1.073.79.79 0 0 0-.943.772.788.788 0 0 0 .789.807v-.02Zm15.253 76.8a.8.8 0 0 1 .999.11.784.784 0 0 1-.265 1.276.785.785 0 0 1-.859-.175.738.738 0 0 1-.21-.403.785.785 0 0 1 .34-.807h-.005Zm.439 9.273a.788.788 0 1 0-.784-.787.782.782 0 0 0 .222.568.795.795 0 0 0 .562.24v-.02Zm.79 7.041a.786.786 0 0 1-.944.772.79.79 0 0 1-.62-.618.787.787 0 0 1 .774-.941.79.79 0 0 1 .567.236.773.773 0 0 1 .223.571v-.02Zm-.79 8.611a.788.788 0 1 0-.784-.788.786.786 0 0 0 .784.808v-.02Zm.79 7.04a.786.786 0 0 1-.944.773.792.792 0 0 1-.575-1.074.784.784 0 0 1 .729-.486.787.787 0 0 1 .736.5.786.786 0 0 1 .054.307v-.02Zm-.79 7.041a.761.761 0 0 0-.439.125.786.786 0 1 0 1.084 1.096.764.764 0 0 0 .135-.439.796.796 0 0 0-.225-.553.788.788 0 0 0-.555-.209v-.02Zm.79 8.61a.786.786 0 0 1-.944.773.792.792 0 0 1-.575-1.074.784.784 0 0 1 .729-.486.787.787 0 0 1 .736.5.786.786 0 0 1 .054.307v-.02Zm-.79 8.611a.794.794 0 0 0 .786-.469.783.783 0 0 0-.465-1.06.794.794 0 0 0-.838.21.788.788 0 0 0 .517 1.319Zm-.439 6.383a.793.793 0 0 1 1.161.358.79.79 0 0 1-.08.74.793.793 0 0 1-.362.287.784.784 0 0 1-.859-.174.754.754 0 0 1-.21-.409.789.789 0 0 1 .045-.453.77.77 0 0 1 .305-.329v-.02Zm.439 9.268a.787.787 0 1 0-.651-1.225.792.792 0 0 0-.133.438.785.785 0 0 0 .479.744.804.804 0 0 0 .305.063v-.02Zm.79-79.043a.784.784 0 0 1-.487.728.794.794 0 0 1-.861-.171.787.787 0 0 1 .865-1.282.796.796 0 0 1 .429.438.788.788 0 0 1 .054.307v-.02Zm-.79-7.04a.788.788 0 1 0-.784-.788.782.782 0 0 0 .479.744.797.797 0 0 0 .305.063v-.02Zm-.439-9.259a.794.794 0 0 1 .989.1.783.783 0 0 1 .23.548.73.73 0 0 1-.13.439.745.745 0 0 1-.35.294.805.805 0 0 1-.459.05.755.755 0 0 1-.405-.22.777.777 0 0 1-.117-.963.786.786 0 0 1 .242-.248Zm.439-6.383a.788.788 0 1 0-.784-.787.783.783 0 0 0 .479.744.795.795 0 0 0 .305.063v-.02Zm.79-8.61a.784.784 0 0 1-.487.727.794.794 0 0 1-.861-.17.787.787 0 0 1 .865-1.282.796.796 0 0 1 .429.437.788.788 0 0 1 .054.308v-.02Zm-.79-7.04a.788.788 0 1 0-.784-.788.782.782 0 0 0 .479.744.795.795 0 0 0 .305.063v-.02Zm.79-8.616a.787.787 0 0 1-.94.778.79.79 0 0 1-.623-.618.781.781 0 0 1 .334-.81.792.792 0 0 1 1.229.65Zm-.79-8.61a.785.785 0 0 0-.159 1.56.764.764 0 0 0 .459-.05.744.744 0 0 0 .35-.295.73.73 0 0 0 .13-.438.785.785 0 0 0-.78-.777Zm.79-7.041a.787.787 0 0 1-.94.777.79.79 0 0 1-.623-.617.78.78 0 0 1 .334-.81.792.792 0 0 1 1.229.67v-.02Zm14.903 69.64a.766.766 0 0 0-.44.124.792.792 0 0 0-.345.808c.03.153.105.293.215.403.109.114.25.19.405.22a.807.807 0 0 0 .814-.334.786.786 0 0 0-.649-1.221Zm-.44 7.972a.812.812 0 0 1 .44-.13c.208.006.406.09.554.235a.795.795 0 0 1 .095.992.81.81 0 0 1-.814.334.825.825 0 0 1-.405-.22.805.805 0 0 1-.215-.403.845.845 0 0 1 .05-.459.775.775 0 0 1 .295-.349Zm.44 7.699a.776.776 0 0 0-.555.229.775.775 0 0 0-.1.997c.087.13.21.23.355.289a.79.79 0 0 0 .742-1.389.782.782 0 0 0-.442-.136v.01Zm-.44 8.002a.771.771 0 0 1 .44-.129.773.773 0 0 1 .553.232.774.774 0 0 1 .226.555.805.805 0 0 1-.13.439.857.857 0 0 1-.36.289.743.743 0 0 1-.454.039.78.78 0 0 1-.62-.622.778.778 0 0 1 .345-.803Zm.44 7.649a.809.809 0 0 0-.44.13.775.775 0 0 0-.345.802c.03.154.105.296.215.408.111.11.252.186.405.22a.81.81 0 0 0 .814-.334.805.805 0 0 0 .13-.439.782.782 0 0 0-.779-.787Zm-.44 7.973a.762.762 0 0 1 .44-.125.79.79 0 0 1 .779.825.79.79 0 0 1-.13.396.81.81 0 0 1-.814.334.757.757 0 0 1-.405-.22.783.783 0 0 1-.215-.403.83.83 0 0 1 .05-.454.792.792 0 0 1 .295-.373v.02Zm.44 7.698a.809.809 0 0 0-.44.13.775.775 0 0 0-.295.348.847.847 0 0 0-.05.459.781.781 0 0 0 .62.618c.152.034.311.02.454-.04a.81.81 0 0 0 .36-.289.805.805 0 0 0 .13-.439.782.782 0 0 0-.225-.553.8.8 0 0 0-.554-.254v.02Zm-.44 7.973a.762.762 0 0 1 .44-.125.79.79 0 0 1 .779.825.79.79 0 0 1-.13.396.81.81 0 0 1-.701.347.797.797 0 0 1-.594-.32.801.801 0 0 1-.139-.316.83.83 0 0 1 .05-.454.793.793 0 0 1 .295-.383v.03Zm.44-62.744a.812.812 0 0 0-.44.13.775.775 0 0 0-.295.348.845.845 0 0 0-.05.459.805.805 0 0 0 .215.403.779.779 0 0 0 .859.174.81.81 0 0 0 .36-.288.804.804 0 0 0 .13-.439.785.785 0 0 0-.225-.553.825.825 0 0 0-.554-.264v.03Zm-.3-7.759a.699.699 0 0 1 .3-.054.79.79 0 0 1 .554.224.772.772 0 0 1 .225.548.733.733 0 0 1-.03.329.798.798 0 0 1-.43.498.779.779 0 0 1-1.074-.498.748.748 0 0 1-.03-.329c0-.103.021-.204.06-.299a.707.707 0 0 1 .17-.25.784.784 0 0 1 .255-.198v.03Zm.3-7.882a.812.812 0 0 0-.44.13.777.777 0 0 0-.349.576.792.792 0 0 0 .629.854.804.804 0 0 0 .814-.345.758.758 0 0 0 .125-.438.78.78 0 0 0-.23-.548.794.794 0 0 0-.549-.26v.03Zm-.44-7.699a.766.766 0 0 1 .44-.125.798.798 0 0 1 .683.418.797.797 0 0 1-.029.798.807.807 0 0 1-.355.294.803.803 0 0 1-.864-.17.802.802 0 0 1-.17-.861.813.813 0 0 1 .295-.384v.03Zm.44-7.972a.812.812 0 0 0-.44.13.777.777 0 0 0-.349.576.79.79 0 0 0 .629.854.804.804 0 0 0 .814-.345.759.759 0 0 0 .125-.438.78.78 0 0 0-.23-.548.795.795 0 0 0-.549-.24v.01Zm-.44-7.699a.765.765 0 0 1 .44-.125.798.798 0 0 1 .683.418.797.797 0 0 1-.029.798.807.807 0 0 1-.355.294.805.805 0 0 1-.864-.17.802.802 0 0 1-.17-.861.816.816 0 0 1 .295-.364v.01Zm.44-7.973a.766.766 0 0 0-.44.125.816.816 0 0 0-.295.354.808.808 0 0 0-.045.458.779.779 0 0 0 .62.618.8.8 0 0 0 .459-.045.808.808 0 0 0 .355-.294.759.759 0 0 0 .125-.438.785.785 0 0 0-.779-.777Zm15.247 54.901a.8.8 0 0 1 1 .1.768.768 0 0 1 .229.553.783.783 0 0 1-.939.773.784.784 0 0 1-.574-1.072.803.803 0 0 1 .284-.344v-.01Zm.45 9.269a.793.793 0 0 0 .729-.486.779.779 0 0 0-.171-.858.789.789 0 0 0-1.347.556.775.775 0 0 0 .227.563.793.793 0 0 0 .562.234v-.01Zm-.789 7.04a.783.783 0 0 1 .483-.731.794.794 0 0 1 1.08.571.787.787 0 0 1-.774.943.79.79 0 0 1-.554-.224.78.78 0 0 1-.235-.549v-.01Zm.789 8.611a.797.797 0 0 0 .439-.133.78.78 0 0 0 .119-1.211.795.795 0 0 0-.86-.171.785.785 0 0 0-.487.727.776.776 0 0 0 .227.563.779.779 0 0 0 .562.235v-.01Zm.789-32.09a.783.783 0 0 1-.487.727.79.79 0 0 1-1.076-.573.787.787 0 0 1 1.078-.88.792.792 0 0 1 .428.432c.039.096.059.2.057.304v-.01Zm-.789-7.04a.793.793 0 0 0 .729-.487.779.779 0 0 0-.171-.858.789.789 0 0 0-1.347.557.774.774 0 0 0 .227.563.793.793 0 0 0 .562.234v-.01Zm.43-7.973a.812.812 0 0 1-.44.13.827.827 0 0 1-.555-.235.788.788 0 0 1 .275-1.28.792.792 0 0 1 .455-.045c.153.033.293.11.404.219a.788.788 0 0 1 .226.636.782.782 0 0 1-.355.575h-.01ZM70.643 50.048a.761.761 0 0 0-.435.134.744.744 0 0 0-.29.354.785.785 0 0 0-.044.453.789.789 0 0 0 1.434.274.809.809 0 0 0 .064-.737.783.783 0 0 0-.424-.424.891.891 0 0 0-.325-.024l.02-.03Z" fill="url(#b)" fill-rule="evenodd" clip-rule="evenodd"/><path d="m180.338 94.983-1.563-.085a88.614 88.614 0 0 0 0-9.806l1.563-.085a82.06 82.06 0 0 1 .14 4.983 95.842 95.842 0 0 1-.14 4.993Zm-2.842-28.024-1.499.399a88.866 88.866 0 0 0-3.033-9.318l1.459-.568a89.553 89.553 0 0 1 3.073 9.492v-.005ZM166.08 41.203l-1.319.852a88.433 88.433 0 0 0-5.795-7.923l1.219-.996a90.115 90.115 0 0 1 5.895 8.072v-.005ZM147.245 20.24l-.999 1.211a88.9 88.9 0 0 0-7.943-5.77l.849-1.31a89.926 89.926 0 0 1 8.093 5.87Zm-24.4-14.186-.564 1.46a88.521 88.521 0 0 0-9.348-3.03l.4-1.494a88.924 88.924 0 0 1 9.512 3.064ZM95.243.134 95.158 1.7a89.484 89.484 0 0 0-9.837 0L85.236.135a92.464 92.464 0 0 1 10.007 0Zm-28.098 2.84.4 1.496a88.533 88.533 0 0 0-9.347 3.03l-.565-1.46a88.973 88.973 0 0 1 9.512-3.065ZM41.321 14.36l.85 1.311a88.851 88.851 0 0 0-7.944 5.77l-.999-1.21a90.06 90.06 0 0 1 8.093-5.87ZM20.284 33.147l1.213.996c-2.07 2.535-4 5.182-5.78 7.928l-1.319-.852a90.037 90.037 0 0 1 5.886-8.072ZM6.09 57.477l1.459.568a87.862 87.862 0 0 0-3.033 9.318l-1.498-.399a89.564 89.564 0 0 1 3.072-9.487ZM.14 85.017a88.867 88.867 0 0 0 0 9.966l1.564-.085c-.074-1.604-.11-3.237-.11-4.898 0-1.66.045-3.295.135-4.903l-1.59-.08Zm2.843 28.024 1.498-.404a87.56 87.56 0 0 0 3.033 9.323l-1.424.563a89.97 89.97 0 0 1-3.107-9.487v.005Zm11.415 25.756 1.32-.852a89.526 89.526 0 0 0 5.78 7.928l-1.215.996a90.807 90.807 0 0 1-5.885-8.077v.005Zm18.835 20.978 1-1.211a88.909 88.909 0 0 0 7.943 5.77l-.85 1.31a89.939 89.939 0 0 1-8.093-5.884v.015Zm24.4 14.176.565-1.46a87.157 87.157 0 0 0 9.342 3.019l-.4 1.495a88.935 88.935 0 0 1-9.507-3.059v.005Zm27.603 5.919.085-1.564c1.628.09 3.267.134 4.916.134a89.31 89.31 0 0 0 4.92-.134l.086 1.564a92.59 92.59 0 0 1-4.996.135 97.638 97.638 0 0 1-5.011-.14v.005Zm28.097-2.84-.4-1.495a87.482 87.482 0 0 0 9.348-3.024l.564 1.46a88.996 88.996 0 0 1-9.512 3.054v.005Zm25.824-11.386-.849-1.31a88.959 88.959 0 0 0 7.943-5.77l.999 1.211a89.708 89.708 0 0 1-8.093 5.864v.005Zm21.038-18.785-1.219-.996a88.504 88.504 0 0 0 5.785-7.928l1.319.852a90.772 90.772 0 0 1-5.885 8.067v.005Zm14.208-24.331-1.449-.573a88.705 88.705 0 0 0 3.033-9.323l1.499.404a89.791 89.791 0 0 1-3.083 9.487v.005Z" fill="url(#c)" fill-rule="evenodd" clip-rule="evenodd"/><path d="M196.156 81.857v16.28h-14.673v-16.28h14.673Zm-23.072-4.11a5.479 5.479 0 0 0-.459 2.232v20.215c0 .727.155 1.445.454 2.108a5.897 5.897 0 0 0 1.224 1.739 6.186 6.186 0 0 0 1.864 1.161 5.962 5.962 0 0 0 2.318.448h18.985a5.56 5.56 0 0 0 2.093-.403 5.68 5.68 0 0 0 1.768-1.161 5.76 5.76 0 0 0 1.225-1.784c.31-.707.467-1.471.459-2.243V79.804a4.756 4.756 0 0 0-.459-2.058 5.12 5.12 0 0 0-1.225-1.739 5.615 5.615 0 0 0-1.858-1.21 6.056 6.056 0 0 0-2.318-.449H178.17a5.323 5.323 0 0 0-2.123.498 5.37 5.37 0 0 0-1.773 1.156 5.537 5.537 0 0 0-1.19 1.744Zm-16.721 20.39h-7.149v7.513h20.923v-7.514h-6.1V79.804c0-.709-.15-1.41-.44-2.058a4.778 4.778 0 0 0-1.159-1.739 5.074 5.074 0 0 0-1.733-1.21 5.394 5.394 0 0 0-2.219-.449h-9.012v7.51h6.879l.01 16.278Z" fill="url(#d)" fill-rule="evenodd" clip-rule="evenodd"/><path d="M197.17 75.344a5.007 5.007 0 0 1 1.918.379 4.638 4.638 0 0 1 1.529.996c.428.394.769.873.999 1.406v.03c.24.511.365 1.07.365 1.634v20.265a4.468 4.468 0 0 1-.375 1.834 4.618 4.618 0 0 1-2.453 2.421 4.492 4.492 0 0 1-1.718.329H178.45a5.006 5.006 0 0 1-1.903-.373 5.15 5.15 0 0 1-1.549-.967 4.694 4.694 0 0 1-.999-1.425 4.064 4.064 0 0 1-.37-1.694v-20.22a4.443 4.443 0 0 1 .38-1.84 4.557 4.557 0 0 1 .959-1.424 4.275 4.275 0 0 1 1.444-.942h.025a4.274 4.274 0 0 1 1.698-.399h19.015m-16.687 23.788h16.672V80.86h-16.652v18.272m-21.942-23.788c.611 0 1.214.126 1.774.369a4.12 4.12 0 0 1 1.394.972c.401.386.713.855.914 1.375v.03c.235.518.356 1.08.355 1.65v19.328h6.09v5.521h-18.865v-5.522h7.149V80.86h-6.879v-5.516h8.058m38.629-.996h-19.005a5.321 5.321 0 0 0-2.123.498 5.384 5.384 0 0 0-1.774 1.156 5.688 5.688 0 0 0-1.633 3.986v20.216c0 .726.155 1.445.454 2.107a5.884 5.884 0 0 0 1.224 1.739 6.147 6.147 0 0 0 1.864 1.161 6.004 6.004 0 0 0 2.273.449h19.05a5.53 5.53 0 0 0 2.068-.404 5.678 5.678 0 0 0 1.769-1.161 5.762 5.762 0 0 0 1.224-1.784c.31-.706.467-1.47.459-2.242V79.804a4.755 4.755 0 0 0-.459-2.058 5.13 5.13 0 0 0-1.224-1.739 5.628 5.628 0 0 0-1.859-1.21 6.007 6.007 0 0 0-2.288-.45h-.02Zm-15.687 23.788v-16.28h14.673v16.28h-14.673Zm-22.942-23.788h-9.057v7.509h6.879v16.279h-7.139v7.514h20.923v-7.514h-6.1V79.804c0-.71-.15-1.41-.44-2.058a4.776 4.776 0 0 0-1.159-1.739 5.073 5.073 0 0 0-1.733-1.21 5.482 5.482 0 0 0-2.164-.45h-.01Z" fill="url(#e)"/><path d="M70.623 66.52h-7.849v7.828h7.849v-7.829Zm47.082.002h-7.849v7.828h7.849v-7.828Z" fill="#D2B863"/><path d="M70.623 74.348h-7.849v7.823h7.849v-7.823Z" fill="#AD832D"/><path d="M117.705 74.35h-7.849v7.823h7.849V74.35Z" fill="#D2B863"/><path d="M70.623 82.172h-7.849V90h7.849v-7.828Z" fill="#AD832D"/><path d="M117.705 82.172h-7.849V90h7.849v-7.828Z" fill="#D2B863"/><path d="M70.623 90h-7.849v7.828h7.849V90Z" fill="#AD832D"/><path d="M117.705 90h-7.849v7.828h7.849V90Z" fill="#D2B863"/><path d="M70.623 97.828h-7.849v7.823h7.849v-7.823Z" fill="#AD832D"/><path d="M117.705 97.828h-7.849v7.823h7.849v-7.823Z" fill="#D2B863"/><path d="M70.623 105.65h-7.849v7.828h7.849v-7.828Zm47.082.002h-7.849v7.828h7.849v-7.828Zm-47.082 7.828h-7.849v7.829h7.849v-7.829Z" fill="#AD832D"/><path d="M117.705 113.479h-7.849v7.828h7.849v-7.828Zm-47.082 7.83h-7.849v7.823h7.849v-7.823Z" fill="#AD832D"/><path d="M117.705 121.307h-7.849v7.823h7.849v-7.823Z" fill="#AD832D"/><path d="M70.623 129.129h-7.849v7.828h7.849v-7.828Z" fill="#3D2E10"/><path d="M117.705 129.131h-7.849v7.828h7.849v-7.828Z" fill="#AD832D"/><path d="M70.623 136.957h-7.849v7.823h7.849v-7.823Zm47.082.002h-7.849v7.823h7.849v-7.823Z" fill="#3D2E10"/><path d="M78.467 66.52h-7.844v7.828h7.844v-7.829Z" fill="#D2B863"/><path d="M125.549 66.522h-7.844v7.828h7.844v-7.828Z" fill="#FFFBA4"/><path d="M78.467 74.348h-7.844v7.823h7.844v-7.823Zm47.082.002h-7.844v7.823h7.844V74.35Zm-47.082 7.822h-7.844V90h7.844v-7.828Z" fill="#D2B863"/><path d="M125.549 82.172h-7.844V90h7.844v-7.828Z" fill="#FFFBA4"/><path d="M78.467 90h-7.844v7.828h7.844V90Z" fill="#D2B863"/><path d="M125.549 90h-7.844v7.828h7.844V90Z" fill="#FFFBA4"/><path d="M78.467 97.828h-7.844v7.823h7.844v-7.823Zm47.082 0h-7.844v7.823h7.844v-7.823Z" fill="#D2B863"/><path d="M78.467 105.65h-7.844v7.828h7.844v-7.828Zm47.082.002h-7.844v7.828h7.844v-7.828Z" fill="#D2B863"/><path d="M78.467 113.48h-7.844v7.829h7.844v-7.829Z" fill="#AD832D"/><path d="M125.549 113.479h-7.844v7.828h7.844v-7.828Z" fill="#D2B863"/><path d="M78.467 121.309h-7.844v7.823h7.844v-7.823Z" fill="#3D2E10"/><path d="M125.549 121.307h-7.844v7.823h7.844v-7.823Z" fill="#AD832D"/><path d="M78.467 129.129h-7.844v7.828h7.844v-7.828Zm47.082.002h-7.844v7.828h7.844v-7.828Z" fill="#3D2E10"/><path d="M133.396 129.131h-7.848v7.828h7.848v-7.828Z" fill="#D2B863"/><path d="M141.245 121.307h-7.849v7.823h7.849v-7.823Z" fill="#FFFBA4"/><path d="M70.623 58.693h-7.849v7.828h7.849v-7.828Zm47.082 0h-7.849v7.828h7.849v-7.828Z" fill="#D2B863"/><path d="M78.467 58.693h-7.844v7.828h7.844v-7.828Zm47.082 0h-7.844v7.828h7.844v-7.828Z" fill="#FFFBA4"/><path d="M70.623 50.871h-7.849v7.823h7.849v-7.823Zm47.082-.001h-7.849v7.822h7.849V50.87Z" fill="#D2B863"/><path d="M78.467 50.871h-7.844v7.823h7.844v-7.823Zm47.082-.001h-7.844v7.822h7.844V50.87Z" fill="#FFFBA4"/><path d="M62.774 66.52h-7.843v7.828h7.843v-7.829Zm47.082.002h-7.843v7.828h7.843v-7.828Z" fill="#AD832D"/><path d="M62.774 74.348h-7.843v7.823h7.843v-7.823Z" fill="#3D2E10"/><path d="M109.856 74.35h-7.843v7.823h7.843V74.35Z" fill="#D2B863"/><path d="M62.774 82.172h-7.843V90h7.843v-7.828Z" fill="#3D2E10"/><path d="M109.856 82.172h-7.843V90h7.843v-7.828Z" fill="#AD832D"/><path d="M62.774 90h-7.843v7.828h7.843V90Z" fill="#3D2E10"/><path d="M109.856 90h-7.843v7.828h7.843V90Z" fill="#AD832D"/><path d="M62.774 97.828h-7.843v7.823h7.843v-7.823Zm47.082 0h-7.843v7.823h7.843v-7.823Z" fill="#3D2E10"/><path d="M62.774 105.65h-7.843v7.828h7.843v-7.828Zm47.082.002h-7.843v7.828h7.843v-7.828Zm-47.082 7.828h-7.843v7.829h7.843v-7.829Z" fill="#3D2E10"/><path d="M109.856 113.479h-7.843v7.828h7.843v-7.828Zm-47.082 7.83h-7.843v7.823h7.843v-7.823Z" fill="#3D2E10"/><path d="M109.856 121.307h-7.843v7.823h7.843v-7.823Zm-47.082 7.822h-7.843v7.828h7.843v-7.828Zm47.082.002h-7.843v7.828h7.843v-7.828Z" fill="#3D2E10"/><path d="M62.774 58.693h-7.843v7.828h7.843v-7.828Zm47.082 0h-7.843v7.828h7.843v-7.828Z" fill="#AD832D"/><path d="M78.467 43.041h-7.844v7.828h7.844v-7.828Z" fill="#FFFBA4"/><path d="M125.549 43.043h-7.844v7.828h7.844v-7.828Z" fill="#D2B863"/><path d="M62.774 50.871h-7.843v7.823h7.843v-7.823Zm47.082-.001h-7.843v7.822h7.843V50.87Z" fill="#AD832D"/><path d="M62.774 43.041h-7.843v7.828h7.843v-7.828Zm47.082.002h-7.843v7.828h7.843v-7.828Zm-39.233-.002h-7.849v7.828h7.849v-7.828Zm47.082.002h-7.849v7.828h7.849v-7.828Z" fill="#D2B863"/><path d="M70.623 35.219h-7.849v7.823h7.849v-7.823Zm47.082 0h-7.849v7.823h7.849v-7.823Zm-7.849 0h-7.843v7.823h7.843v-7.823Z" fill="#FFFBA4"/><path d="M47.082 58.693h-7.849v7.828h7.849v-7.828Z" fill="#3D2E10"/><path d="M94.164 90h-7.849v7.828h7.85V90Zm-7.849 7.828h-7.848v7.823h7.848v-7.823Z" fill="#D2B863"/><path d="M94.164 97.828h-7.849v7.823h7.85v-7.823Zm-7.849 7.824h-7.848v7.828h7.848v-7.828Z" fill="#3D2E10"/><path d="M102.013 43.041h-7.844v7.828h7.844v-7.828Zm-7.849 7.829h-7.849v7.822h7.85V50.87Zm-39.234.001h-7.848v7.823h7.849v-7.823Z" fill="#AD832D"/><path d="M102.013 82.172h-7.844V90h7.844v-7.828Z" fill="#D2B863"/><path d="M102.013 90h-7.844v7.828h7.844V90Z" fill="#3D2E10"/></g><defs><linearGradient id="c" x1="90.237" x2="90.237" y1="0" y2="180" gradientUnits="userSpaceOnUse"><stop stop-color="#FFFBA4"/><stop offset="1" stop-color="#AD832D"/></linearGradient><linearGradient id="d" x1="176.115" x2="176.115" y1="74.348" y2="105.65" gradientUnits="userSpaceOnUse"><stop stop-color="#B2E3F0"/><stop offset=".484" stop-color="#EFEDEF"/><stop offset=".484" stop-color="#0C3640"/><stop offset="1" stop-color="#33B6D8"/></linearGradient><linearGradient id="e" x1="176.102" x2="176.102" y1="74.348" y2="105.65" gradientUnits="userSpaceOnUse"><stop offset=".17" stop-color="#FFFBA4"/><stop offset=".55" stop-color="#AD832D"/><stop offset=".73" stop-color="#3D2E10"/><stop offset=".93" stop-color="#D2B863"/></linearGradient><radialGradient id="b" cx="0" cy="0" r="1" gradientTransform="matrix(-7.21473 78.6077 -75.3271 -6.91363 92.662 88.53)" gradientUnits="userSpaceOnUse"><stop stop-color="#33B6D8"/><stop offset="1" stop-color="#33B6D8" stop-opacity="0"/></radialGradient><clipPath id="a"><path d="M0 0h203v180H0z" fill="#fff"/></clipPath></defs></svg>