<svg width="20" height="20" viewBox="0 0 20 20" fill="none" xmlns="http://www.w3.org/2000/svg">
<path d="M9.12484 10.5834L7.9165 9.39586C7.76373 9.24309 7.57289 9.1667 7.344 9.1667C7.11512 9.1667 6.91706 9.25003 6.74984 9.4167C6.59706 9.56948 6.52067 9.76392 6.52067 10C6.52067 10.2361 6.59706 10.4306 6.74984 10.5834L8.5415 12.375C8.70817 12.5417 8.90262 12.625 9.12484 12.625C9.34706 12.625 9.5415 12.5417 9.70817 12.375L13.2498 8.83337C13.4165 8.6667 13.4962 8.47225 13.489 8.25003C13.4818 8.02781 13.4021 7.83336 13.2498 7.6667C13.0832 7.50003 12.8854 7.41336 12.6565 7.4067C12.4276 7.40003 12.2296 7.47975 12.0623 7.64587L9.12484 10.5834ZM6.7915 18.125L5.58317 16.0834L3.2915 15.5834C3.08317 15.5417 2.9165 15.4342 2.7915 15.2609C2.6665 15.0875 2.61789 14.8964 2.64567 14.6875L2.87484 12.3334L1.31234 10.5417C1.17345 10.3889 1.104 10.2084 1.104 10C1.104 9.7917 1.17345 9.61114 1.31234 9.45837L2.87484 7.6667L2.64567 5.31253C2.61789 5.1042 2.6665 4.91309 2.7915 4.7392C2.9165 4.56531 3.08317 4.45781 3.2915 4.4167L5.58317 3.9167L6.7915 1.87503C6.90262 1.69448 7.05539 1.57281 7.24984 1.51003C7.44428 1.44725 7.63873 1.45781 7.83317 1.5417L9.99984 2.45837L12.1665 1.5417C12.3609 1.45837 12.5554 1.44781 12.7498 1.51003C12.9443 1.57225 13.0971 1.69392 13.2082 1.87503L14.4165 3.9167L16.7082 4.4167C16.9165 4.45837 17.0832 4.56614 17.2082 4.74003C17.3332 4.91392 17.3818 5.10475 17.354 5.31253L17.1248 7.6667L18.6873 9.45837C18.8262 9.61114 18.8957 9.7917 18.8957 10C18.8957 10.2084 18.8262 10.3889 18.6873 10.5417L17.1248 12.3334L17.354 14.6875C17.3818 14.8959 17.3332 15.087 17.2082 15.2609C17.0832 15.4348 16.9165 15.5423 16.7082 15.5834L14.4165 16.0834L13.2082 18.125C13.0971 18.3056 12.9443 18.4273 12.7498 18.49C12.5554 18.5528 12.3609 18.5423 12.1665 18.4584L9.99984 17.5417L7.83317 18.4584C7.63873 18.5417 7.44428 18.5523 7.24984 18.49C7.05539 18.4278 6.90262 18.3061 6.7915 18.125Z" fill="#38B5DB"/>
</svg>
