<?xml version="1.0" standalone="no"?>
<!DOCTYPE svg PUBLIC "-//W3C//DTD SVG 20010904//EN"
 "http://www.w3.org/TR/2001/REC-SVG-20010904/DTD/svg10.dtd">
<svg version="1.0" xmlns="http://www.w3.org/2000/svg"
 width="700.000000pt" height="700.000000pt" viewBox="0 0 700.000000 700.000000"
 preserveAspectRatio="xMidYMid meet">
<metadata>
Created by potrace 1.14, written by Peter Selinger 2001-2017
</metadata>
<g transform="translate(0.000000,700.000000) scale(0.100000,-0.100000)"
fill="#000000" stroke="none">
<path d="M807 6984 c-380 -69 -683 -353 -779 -730 l-23 -89 0 -2655 0 -2655
23 -89 c27 -107 95 -254 156 -340 24 -34 82 -98 129 -142 121 -115 265 -194
438 -241 60 -16 228 -18 2699 -20 2302 -3 2646 -1 2721 12 382 65 696 364 786
745 17 71 18 222 18 2735 0 2507 -1 2664 -18 2729 -26 101 -72 211 -125 296
-56 90 -174 216 -258 276 -83 59 -231 128 -334 156 l-85 23 -2635 2 c-2229 1
-2647 -1 -2713 -13z m2370 -287 l28 -27 5 -188 5 -187 327 -3 327 -2 3 190 3
190 28 27 27 28 511 0 511 0 29 -33 29 -32 0 -185 0 -185 273 0 c304 0 352 -7
446 -63 101 -60 184 -175 210 -288 7 -27 11 -274 11 -640 0 -647 1 -639 -57
-754 -51 -100 -192 -205 -299 -221 -55 -8 -57 -20 -3 -27 65 -9 168 -65 227
-124 34 -34 66 -80 90 -130 l37 -78 3 -657 c3 -645 2 -658 -18 -719 -56 -165
-183 -276 -360 -312 l-65 -13 58 -6 c121 -13 262 -110 327 -223 58 -101 60
-123 60 -760 0 -630 -1 -638 -56 -747 -52 -102 -167 -192 -289 -224 -41 -11
-419 -14 -2090 -14 -1802 0 -2048 2 -2100 15 -174 46 -306 189 -334 365 -14
87 -14 1122 0 1210 30 193 190 354 375 378 l59 8 -65 12 c-179 35 -320 165
-365 337 -23 88 -23 1262 0 1350 42 159 176 294 326 326 73 17 79 25 23 33
-158 21 -317 181 -353 354 -7 35 -11 247 -11 623 0 636 2 658 66 766 61 103
161 178 279 209 36 10 132 14 353 14 l302 0 0 169 c0 188 8 224 54 252 30 18
53 19 528 17 l498 -3 27 -28z"/>
</g>
</svg>
