<svg id="Layer_1" data-name="Layer 1" xmlns="http://www.w3.org/2000/svg" viewBox="0 0 416 98"><defs><style>.cls-1{fill:#00bf74;}.cls-2{fill:#00e874;}.cls-3{fill:#00a774;}</style></defs><title>clovyr-logo</title><path class="cls-1" d="M47,42.88a9.85,9.85,0,0,1-5.44-1.64L12.05,22.56s-3-1.64-3-4.24S12.46,14,12.46,14L32.33,2.35c.23-.14.47-.27.71-.4a18.72,18.72,0,0,1,2-.85,18.15,18.15,0,0,1,3-.88A9.89,9.89,0,0,1,40.82,0a8.73,8.73,0,0,1,2.74.74,11.82,11.82,0,0,0,2.87.77s.28,0,.58.06Z"/><path class="cls-1" d="M42.16,50.83A9.9,9.9,0,0,0,38,46.91L7.23,30.47S4.3,28.66,2.07,30s-2,5.16-2,5.16L0,58.28a7.48,7.48,0,0,0,0,.82,19.19,19.19,0,0,0,.24,2.14,19.51,19.51,0,0,0,.72,3,10.42,10.42,0,0,0,1.28,2.59,8.57,8.57,0,0,0,2,2A12,12,0,0,1,6.36,71s.18.22.35.47Z"/><path class="cls-2" d="M47,42.88a9.85,9.85,0,0,0,5.44-1.64L82,22.56s3-1.64,3-4.24S81.56,14,81.56,14L61.69,2.35c-.23-.14-.47-.27-.71-.4a17.84,17.84,0,0,0-2-.85,18.15,18.15,0,0,0-3-.88A9.89,9.89,0,0,0,53.2,0a8.73,8.73,0,0,0-2.74.74,11.7,11.7,0,0,1-2.87.77s-.28,0-.58.06Z"/><path class="cls-2" d="M51.86,50.83A9.9,9.9,0,0,1,56,46.91L86.8,30.47S89.72,28.66,92,30s2,5.16,2,5.16L94,58.28a7.48,7.48,0,0,1,0,.82,17.09,17.09,0,0,1-.24,2.14,19.51,19.51,0,0,1-.72,3,10.42,10.42,0,0,1-1.28,2.59,8.57,8.57,0,0,1-2,2A12,12,0,0,0,87.66,71s-.18.22-.35.47Z"/><path class="cls-3" d="M42.16,50.83a10.05,10.05,0,0,1,1.31,5.57L42.18,91.51s.1,3.46-2.13,4.76-5.43-.84-5.43-.84L14.69,83.92c-.24-.13-.48-.28-.71-.43a19,19,0,0,1-1.71-1.28A18.8,18.8,0,0,1,10,80.07a10.17,10.17,0,0,1-1.59-2.41,8.77,8.77,0,0,1-.73-2.76A11.55,11.55,0,0,0,6.94,72s-.1-.27-.23-.54Z"/><path class="cls-3" d="M51.86,50.83a10.05,10.05,0,0,0-1.31,5.57l1.29,35.11S51.74,95,54,96.27s5.43-.84,5.43-.84L79.33,83.92c.25-.13.48-.28.71-.43a17.7,17.7,0,0,0,1.71-1.28A18.8,18.8,0,0,0,84,80.07a10.17,10.17,0,0,0,1.59-2.41,8.51,8.51,0,0,0,.73-2.76A12,12,0,0,1,87.08,72s.1-.27.23-.54Z"/><path class="cls-2" d="M412.05,33.37l3.65-7c.73-1.31.07-2.37-1.42-2.37H400.94c-.25,0-.49,0-.73,0A11.47,11.47,0,0,0,392,28.87a39.46,39.46,0,0,0-4,6c-.89-7.84-4.14-10-7.95-10.1a6.09,6.09,0,0,0-.74,0c-2.62,0-2.89.27-2.89,2.89V59c0,6.48,0,13,0,19.44,0,2,.39,2.38,2.37,2.39h7.44c2.25,0,2.65-.4,2.65-2.65,0-9.78,0-19.57,0-29.35a21.91,21.91,0,0,1,.38-4,11.12,11.12,0,0,1,4.94-7.6,14.88,14.88,0,0,1,6.85-1.83,43,43,0,0,1,7.35,0A3.7,3.7,0,0,0,412.05,33.37Z"/><path class="cls-2" d="M226.83,81.76c-15.66.25-29.41-13.1-29.23-29.5a29.3,29.3,0,0,1,29.66-28.83c16.06.21,29.26,13.12,29.22,29.2A29.37,29.37,0,0,1,226.83,81.76ZM243.7,53.07a18,18,0,0,0-1.55-8,16.59,16.59,0,0,0-26.27-5.55,18.32,18.32,0,0,0-3.79,21,16.35,16.35,0,0,0,22.47,7.66C240.56,65,243.37,59.75,243.7,53.07Z"/><path class="cls-2" d="M327.6,95.23c-.7,1.88-.09,2.71,1.86,2.74,2.7,0,5.41,0,8.11,0a2.65,2.65,0,0,0,2.71-1.91Q346.34,81,352.42,65.92q5.15-12.83,10.28-25.66c1.78-4.43,3.57-8.86,5.33-13.31.75-1.9.16-2.82-1.85-2.85-3,0,.23,0-2.73,0-8.08,0-10,5.2-10.66,6.84q-1.92,5.08-3.85,10.18-3.48,9.29-7,18.57c-.21.58-.51,1.13-.76,1.69l-.36,0q-2.79-7.48-5.57-15-3.81-10.27-7.6-20.54a2.29,2.29,0,0,0-2.18-1.7c-2.83,0-5.67-.08-8.49,0-1.82.07-2.4,1.09-1.74,2.8,1,2.55,2,5.08,3.05,7.61,4.89,12,9.69,24.08,14.75,36,1.51,3.54,2.67,4.81.9,8.46Z"/><path class="cls-2" d="M146.23,82c-12.76-.36-23.44-7.75-27.49-19.77a28.13,28.13,0,0,1,3.87-26.48c4.46-6.26,10.5-10.48,18.08-11.7,8.76-1.41,16.14.8,23.29,6.5,1.09.87,1,2.09.17,3.28-4.5,7.09-12.92,1.71-16.62,1.32-7.8-.81-13.26,3.4-16.23,9.52-4,8.15-1.59,19.21,7.59,23.84A16.05,16.05,0,0,0,150,69.88c2.17-.49,9.7-3.66,14.63,2.69a1.84,1.84,0,0,1-.5,2.61A27.82,27.82,0,0,1,146.23,82Z"/><path class="cls-2" d="M285.07,80.8a2.77,2.77,0,0,0,3-2.08c1.19-2.88,2.4-5.75,3.6-8.62Q296.83,57.76,302,45.41q4-9.51,7.88-19c.67-1.63.15-2.37-1.59-2.39-3,0-.09,0-3.14,0a11,11,0,0,0-11.08,8c-.24.69-.49,1.38-.74,2.06q-4,11.14-8.05,22.28c-.63,1.74-1.27,3.48-2,5.5-.27.1-.47-.56-.52-.71q-3-8.25-6-16.5c-2.23-6.17-4.49-12.35-6.71-18.53a2.85,2.85,0,0,0-3-2.07c-2.58,0-5.15,0-7.73,0s-3.19,1.07-2.26,3.33Q261.51,38.16,266,49q3.88,9.41,7.74,18.82c1.49,3.63,3,7.25,4.48,10.89a3.09,3.09,0,0,0,3.25,2.13Z"/><path class="cls-2" d="M175.71,44.2v-31c0-2.58,5.88-4,10.47-3.85,1.78,0,2.29.53,2.37,2.31,0,.38,0,.77,0,1.15V77.36c0,.51,0,1,0,1.54a1.79,1.79,0,0,1-2,1.89c-3,0-5.92,0-8.88,0-1.32,0-1.93-.71-1.94-2.17,0-4,0-8,0-12.07Z"/></svg>