<svg width="131" height="25" viewBox="0 0 131 25" fill="none" xmlns="http://www.w3.org/2000/svg">
<path d="M57.3019 1.04274C57.4086 1.06739 57.4915 1.15158 57.5145 1.25871L58.0944 3.96418C58.1278 4.12015 58.0256 4.27283 57.8686 4.30127L52.2078 5.32694C52.0202 5.36093 51.8536 5.2031 51.8773 5.01393L52.4746 0.247383C52.4954 0.0813042 52.6553 -0.030334 52.8183 0.00732826L57.3019 1.04274Z" fill="#E94F2E"/>
<path fill-rule="evenodd" clip-rule="evenodd" d="M88.9753 24.6259C90.9399 24.6259 92.6615 23.897 93.7118 22.6069C93.8882 22.3902 94.2929 22.4798 94.3217 22.7577L94.4476 23.9688C94.4625 24.1127 94.5838 24.222 94.7285 24.222H97.6708C97.8268 24.222 97.9532 24.0956 97.9532 23.9396V1.39179C97.9532 1.23582 97.8268 1.10938 97.6708 1.10938H94.4767C94.3207 1.10938 94.1943 1.23581 94.1943 1.39179V9.85822C94.1943 10.1411 93.7865 10.2737 93.5874 10.0726C92.5408 9.01541 90.9503 8.40974 89.1928 8.40974C88.3496 8.40974 87.5673 8.52313 86.8516 8.73751V12.95C87.577 12.2203 88.5844 11.7959 89.8141 11.7959C92.4546 11.7959 94.1632 13.7219 94.1632 16.4867C94.1632 19.2516 92.4546 21.1466 89.8141 21.1466C88.5844 21.1466 87.577 20.7288 86.8516 20.0064V24.3493C87.5069 24.5308 88.2167 24.6259 88.9753 24.6259ZM107.836 24.6259C111.709 24.6259 114.45 22.7405 115.219 19.5864C115.261 19.4139 115.127 19.2516 114.949 19.2516H111.992C111.867 19.2516 111.758 19.3344 111.715 19.4514C111.218 20.7852 109.883 21.5193 107.898 21.5193C105.48 21.5193 104.066 20.2572 103.712 17.7604C103.688 17.5949 103.819 17.4494 103.986 17.4489L114.948 17.4195C115.104 17.419 115.23 17.2927 115.23 17.1371V16.2693C115.23 11.4852 112.31 8.40974 107.712 8.40974C103.208 8.40974 100.07 11.7337 100.07 16.5489C100.07 21.3019 103.27 24.6259 107.836 24.6259ZM107.743 11.5163C109.908 11.5163 111.337 12.7904 111.462 14.744C111.472 14.8996 111.345 15.0267 111.189 15.0267H104.099C103.925 15.0267 103.792 14.87 103.828 14.6999C104.274 12.6132 105.615 11.5163 107.743 11.5163ZM124.813 24.0483C124.769 24.1535 124.667 24.222 124.553 24.222H121.205C121.089 24.222 120.985 24.1514 120.942 24.0438L115.078 9.26229C115.004 9.07689 115.141 8.87572 115.34 8.87572H118.768C118.885 8.87572 118.99 8.94832 119.032 9.05808L121.634 15.9276C122.045 17.0812 122.406 18.1365 122.664 18.9692C122.753 19.2573 123.25 19.2574 123.341 18.9699C123.618 18.0918 124.004 17.0229 124.43 15.9276L127.155 9.05405C127.198 8.94641 127.302 8.87572 127.418 8.87572H130.717C130.918 8.87572 131.055 9.0808 130.977 9.26683L124.813 24.0483Z" fill="url(#paint0_linear_470_15640)"/>
<path d="M0 16.5178C0 21.3951 3.04441 24.6259 7.70422 24.6259C11.5916 24.6259 14.5143 22.3166 15.1113 18.9172C15.1408 18.7493 15.0087 18.5992 14.8383 18.5992H11.5614C11.4309 18.5992 11.3183 18.6893 11.2808 18.8143C10.8175 20.3562 9.51661 21.2087 7.70422 21.2087C5.28112 21.2087 3.78998 19.4069 3.78998 16.5178C3.78998 13.6287 5.40538 11.7959 7.82848 11.7959C9.55525 11.7959 10.797 12.6233 11.2802 14.2235C11.3177 14.3476 11.4298 14.4364 11.5594 14.4364H14.8139C14.982 14.4364 15.1133 14.2901 15.0884 14.1238C14.5611 10.6088 11.7475 8.40974 7.67315 8.40974C3.1376 8.40974 0 11.7648 0 16.5178Z" fill="white"/>
<path d="M26.6791 9.03409C26.6791 8.9045 26.591 8.791 26.4645 8.7628C25.9341 8.64456 25.4678 8.59613 25.0016 8.59613C23.4122 8.59613 22.1775 9.21215 21.3988 10.1982C21.2177 10.4275 20.7605 10.3376 20.7322 10.0468L20.6462 9.16187C20.6321 9.01717 20.5105 8.90679 20.3651 8.90679H17.3312C17.1753 8.90679 17.0488 9.03323 17.0488 9.1892V23.9396C17.0488 24.0956 17.1753 24.222 17.3312 24.222H20.5564C20.7124 24.222 20.8388 24.0956 20.8388 23.9396V16.7663C20.8388 13.7841 22.5474 12.324 25.2812 12.324H26.3967C26.5527 12.324 26.6791 12.1975 26.6791 12.0416V9.03409Z" fill="white"/>
<path d="M26.8958 16.5178C26.8958 21.3019 30.3441 24.5948 35.0971 24.5948C39.8501 24.5948 43.2984 21.3019 43.2984 16.5178C43.2984 11.7337 39.8501 8.44081 35.0971 8.44081C30.3441 8.44081 26.8958 11.7337 26.8958 16.5178ZM30.6858 16.5178C30.6858 13.7219 32.4876 11.8269 35.0971 11.8269C37.7066 11.8269 39.5084 13.7219 39.5084 16.5178C39.5084 19.3137 37.7066 21.2087 35.0971 21.2087C32.4876 21.2087 30.6858 19.3137 30.6858 16.5178Z" fill="white"/>
<path d="M73.9832 24.6259C75.9478 24.6259 77.6694 23.897 78.7197 22.6069C78.8961 22.3902 79.3008 22.4798 79.3296 22.7577L79.4555 23.9688C79.4704 24.1127 79.5917 24.222 79.7364 24.222H82.6787C82.8347 24.222 82.9611 24.0956 82.9611 23.9396V1.39179C82.9611 1.23582 82.8347 1.10938 82.6787 1.10938H79.4846C79.3286 1.10938 79.2022 1.23582 79.2022 1.39179V9.85822C79.2022 10.1412 78.7944 10.2737 78.5953 10.0726C77.5487 9.01541 75.9582 8.40974 74.2007 8.40974C69.5719 8.40974 66.776 11.8269 66.776 16.611C66.776 21.364 69.5408 24.6259 73.9832 24.6259ZM74.822 21.1466C72.1814 21.1466 70.566 19.2205 70.566 16.4867C70.566 13.753 72.1814 11.7959 74.822 11.7959C77.4625 11.7959 79.1711 13.7219 79.1711 16.4867C79.1711 19.2516 77.4625 21.1466 74.822 21.1466Z" fill="white"/>
<path fill-rule="evenodd" clip-rule="evenodd" d="M44.4678 12.2829C44.2996 12.3134 44.1968 12.4852 44.2495 12.6478L47.9349 24.0266C47.9727 24.1431 48.0812 24.222 48.2036 24.222H51.489C51.6117 24.222 51.7204 24.1427 51.7579 24.0259L53.8074 17.6362C54.2018 16.3586 54.4679 15.4493 54.6548 14.7703C54.7376 14.4693 55.2536 14.4796 55.3276 14.7829C55.5103 15.5325 55.7665 16.4696 56.1063 17.574L58.1562 24.0251C58.1934 24.1424 58.3023 24.222 58.4253 24.222H61.5591C61.6794 24.222 61.7866 24.1457 61.826 24.032L66.9426 9.25051C67.0061 9.06706 66.8699 8.87572 66.6758 8.87572H63.2728C63.1492 8.87572 63.0399 8.95614 63.0031 9.07419L61.0146 15.4616C60.8322 16.09 60.5571 17.0888 60.319 18.0264C60.2429 18.3259 59.7533 18.322 59.6794 18.022C59.4281 17.0024 59.1178 15.8698 58.9954 15.4616L57.0068 9.07419C56.9701 8.95614 56.8608 8.87572 56.7372 8.87572H53.2989C53.1762 8.87572 53.0675 8.955 53.03 9.07188L50.9805 15.4616C50.6605 16.4416 50.4306 17.1899 50.2328 17.9965C50.1587 18.2989 49.6913 18.2986 49.6241 17.9947C49.4268 17.1028 49.2162 16.2555 48.9923 15.4616L47.9044 11.9134C47.8625 11.7766 47.7248 11.6928 47.5841 11.7183L44.4678 12.2829Z" fill="white"/>
<defs>
<linearGradient id="paint0_linear_470_15640" x1="93.4995" y1="15.9976" x2="84.4995" y2="16.9976" gradientUnits="userSpaceOnUse">
<stop stop-color="#E94F2E"/>
<stop offset="1" stop-color="#E94F2E" stop-opacity="0"/>
</linearGradient>
</defs>
</svg>
