<svg width="1004" height="311" viewBox="0 0 1004 311" fill="none" xmlns="http://www.w3.org/2000/svg">
<path d="M104.198 125.141L0.466736 187.097V62.9373L104.198 125.141Z" fill="#5B29FF"/>
<path fill-rule="evenodd" clip-rule="evenodd" d="M104 125.204L206.539 63L310.27 125.204V247.871L206.539 310.075V187.409L104 125.204Z" fill="#2962FF"/>
<path d="M104.198 0.00195312L0.466736 62.9526L104.198 125.157L206.737 62.9526L104.198 0.00195312Z" fill="#FFC629"/>
<path fill-rule="evenodd" clip-rule="evenodd" d="M0.466736 62.9526L104.198 125.157L206.737 62.9526L104.198 0.00195312L0.466736 62.9526ZM19.8215 62.9004L104.17 113.481L187.549 62.9006L104.17 11.7126L19.8215 62.9004Z" fill="#FAFAFA"/>
<path d="M104.189 113.486V11.7527L19.8417 62.9369L104.189 113.486Z" fill="#FFBC00"/>
<path d="M418.241 188.759H450.845V301.364H418.241V188.759ZM434.543 173.061C428.552 173.061 423.675 171.317 419.913 167.829C416.151 164.34 414.27 160.015 414.27 154.852C414.27 149.689 416.151 145.363 419.913 141.875C423.675 138.386 428.552 136.642 434.543 136.642C440.535 136.642 445.411 138.317 449.173 141.666C452.935 145.014 454.816 149.201 454.816 154.224C454.816 159.666 452.935 164.201 449.173 167.829C445.411 171.317 440.535 173.061 434.543 173.061Z" fill="#192137"/>
<path d="M538.998 187.084C552.931 187.084 564.147 191.271 572.647 199.643C581.285 208.015 585.605 220.434 585.605 236.899V301.364H553.001V241.922C553.001 232.992 551.05 226.364 547.149 222.038C543.247 217.573 537.604 215.34 530.22 215.34C521.999 215.34 515.45 217.922 510.574 223.085C505.697 228.108 503.259 235.643 503.259 245.69V301.364H470.655V188.759H501.796V201.945C506.115 197.201 511.479 193.573 517.889 191.061C524.298 188.41 531.334 187.084 538.998 187.084Z" fill="#192137"/>
<path d="M646.717 303.039C637.382 303.039 628.256 301.922 619.338 299.69C610.421 297.318 603.315 294.388 598.02 290.899L608.888 267.457C613.904 270.666 619.965 273.318 627.071 275.411C634.177 277.364 641.144 278.341 647.971 278.341C661.765 278.341 668.662 274.922 668.662 268.085C668.662 264.876 666.781 262.573 663.019 261.178C659.257 259.783 653.475 258.597 645.672 257.62C636.476 256.224 628.883 254.62 622.891 252.806C616.9 250.992 611.675 247.783 607.216 243.178C602.897 238.573 600.737 232.015 600.737 223.503C600.737 216.387 602.758 210.108 606.798 204.666C610.978 199.085 616.97 194.759 624.772 191.689C632.714 188.619 642.05 187.084 652.778 187.084C660.72 187.084 668.593 187.991 676.395 189.805C684.337 191.48 690.886 193.852 696.042 196.922L685.173 220.154C675.281 214.573 664.482 211.782 652.778 211.782C645.812 211.782 640.587 212.759 637.103 214.713C633.62 216.666 631.878 219.178 631.878 222.248C631.878 225.736 633.759 228.178 637.521 229.573C641.283 230.968 647.275 232.294 655.495 233.55C664.691 235.085 672.215 236.759 678.068 238.573C683.919 240.248 689.005 243.387 693.324 247.992C697.644 252.597 699.803 259.015 699.803 267.248C699.803 274.225 697.713 280.434 693.533 285.876C689.353 291.318 683.223 295.574 675.141 298.643C667.199 301.574 657.725 303.039 646.717 303.039Z" fill="#192137"/>
<path d="M786.173 295.922C782.968 298.295 778.997 300.108 774.26 301.364C769.662 302.481 764.785 303.039 759.63 303.039C746.254 303.039 735.873 299.62 728.489 292.783C721.243 285.946 717.621 275.899 717.621 262.643V216.387H700.274V191.271H717.621V163.852H750.225V191.271H778.231V216.387H750.225V262.225C750.225 266.969 751.409 270.666 753.778 273.318C756.286 275.829 759.769 277.085 764.228 277.085C769.383 277.085 773.772 275.69 777.395 272.899L786.173 295.922Z" fill="#192137"/>
<path d="M837.288 187.084C854.705 187.084 868.081 191.271 877.416 199.643C886.751 207.875 891.419 220.364 891.419 237.108V301.364H860.905V287.341C854.774 297.806 843.349 303.039 826.629 303.039C817.99 303.039 810.466 301.574 804.057 298.643C797.787 295.713 792.98 291.667 789.636 286.504C786.292 281.341 784.62 275.48 784.62 268.922C784.62 258.457 788.521 250.224 796.324 244.224C804.266 238.224 816.458 235.224 832.899 235.224H858.815C858.815 228.108 856.655 222.666 852.336 218.899C848.017 214.992 841.538 213.038 832.899 213.038C826.908 213.038 820.986 214.015 815.134 215.968C809.421 217.782 804.545 220.294 800.504 223.503L788.8 200.689C794.931 196.364 802.246 193.015 810.745 190.643C819.384 188.271 828.231 187.084 837.288 187.084ZM834.78 281.062C840.353 281.062 845.3 279.806 849.619 277.294C853.938 274.643 857.004 270.806 858.815 265.783V254.271H836.452C823.076 254.271 816.388 258.666 816.388 267.457C816.388 271.643 817.99 274.992 821.195 277.504C824.539 279.876 829.067 281.062 834.78 281.062Z" fill="#192137"/>
<path d="M908.387 146.061H940.991V301.364H908.387V146.061Z" fill="#192137"/>
<path d="M960.8 146.061H993.404V301.364H960.8V146.061Z" fill="#192137"/>
<path d="M419.913 167.738C423.675 171.227 428.552 172.971 434.543 172.971C440.535 172.971 445.411 171.227 449.173 167.738C452.935 164.11 454.816 159.576 454.816 154.134C454.816 149.11 452.935 144.924 449.173 141.575C445.411 138.227 440.535 136.552 434.543 136.552C428.552 136.552 423.675 138.296 419.913 141.785C416.151 145.273 414.27 149.599 414.27 154.762C414.27 159.924 416.151 164.25 419.913 167.738Z" fill="#192137"/>
<path d="M482.602 7.03833C496.533 7.03833 507.748 11.2109 516.245 19.5559C524.883 27.9009 529.201 40.2794 529.201 56.6914V120.948H496.603V61.6984C496.603 52.797 494.652 46.1905 490.752 41.8789C486.851 37.4282 481.209 35.2029 473.825 35.2029C465.606 35.2029 459.059 37.7759 454.183 42.922C449.307 47.9291 446.869 55.4396 446.869 65.4537V120.948H414.27V8.70733H445.406V21.8508C449.725 17.1219 455.088 13.5057 461.496 11.0022C467.905 8.35962 474.94 7.03833 482.602 7.03833Z" fill="#192137"/>
<path d="M660.517 65.245C660.517 65.6623 660.308 68.5831 659.89 74.0073H574.841C576.373 80.9616 579.995 86.4554 585.707 90.4888C591.419 94.5223 598.523 96.539 607.021 96.539C612.872 96.539 618.027 95.7045 622.485 94.0355C627.082 92.2274 631.331 89.4457 635.232 85.6904L652.576 104.467C641.988 116.567 626.525 122.617 606.186 122.617C593.508 122.617 582.294 120.183 572.542 115.315C562.79 110.308 555.268 103.424 549.974 94.6613C544.68 85.899 542.033 75.9545 542.033 64.8278C542.033 53.8401 544.61 43.9652 549.765 35.2029C555.059 26.3015 562.233 19.4168 571.288 14.5489C580.483 9.54184 590.722 7.03833 602.006 7.03833C613.012 7.03833 622.972 9.40276 631.888 14.1316C640.804 18.8605 647.77 25.6756 652.785 34.577C657.939 43.3393 660.517 53.562 660.517 65.245ZM602.215 31.6562C594.832 31.6562 588.632 33.7425 583.617 37.915C578.602 42.0875 575.537 47.79 574.423 55.0224H629.799C628.684 47.9291 625.619 42.2962 620.604 38.1236C615.589 33.812 609.459 31.6562 602.215 31.6562Z" fill="#192137"/>
<path d="M791.767 8.70733L744.331 120.948H710.688L663.462 8.70733H697.105L728.241 85.0645L760.422 8.70733H791.767Z" fill="#192137"/>
<path d="M912.132 65.245C912.132 65.6623 911.923 68.5831 911.506 74.0073H826.457C827.989 80.9616 831.611 86.4554 837.323 90.4888C843.034 94.5223 850.139 96.539 858.637 96.539C864.488 96.539 869.643 95.7045 874.101 94.0355C878.698 92.2274 882.947 89.4457 886.848 85.6904L904.192 104.467C893.604 116.567 878.141 122.617 857.801 122.617C845.124 122.617 833.91 120.183 824.158 115.315C814.406 110.308 806.883 103.424 801.59 94.6613C796.296 85.899 793.649 75.9545 793.649 64.8278C793.649 53.8401 796.226 43.9652 801.381 35.2029C806.674 26.3015 813.849 19.4168 822.904 14.5489C832.099 9.54184 842.338 7.03833 853.622 7.03833C864.628 7.03833 874.588 9.40276 883.504 14.1316C892.42 18.8605 899.386 25.6756 904.401 34.577C909.555 43.3393 912.132 53.562 912.132 65.245ZM853.831 31.6562C846.448 31.6562 840.248 33.7425 835.233 37.915C830.218 42.0875 827.153 47.79 826.039 55.0224H881.415C880.3 47.9291 877.235 42.2962 872.22 38.1236C867.205 33.812 861.075 31.6562 853.831 31.6562Z" fill="#192137"/>
<path d="M964.971 23.5198C968.872 18.0955 974.096 13.9925 980.644 11.2109C987.331 8.42917 994.993 7.03833 1003.63 7.03833V37.0805C1000.01 36.8023 997.57 36.6633 996.316 36.6633C986.982 36.6633 979.669 39.3059 974.375 44.591C969.081 49.7372 966.434 57.5259 966.434 67.9572V120.948H933.836V8.70733H964.971V23.5198Z" fill="#192137"/>
</svg>
