<svg width="1004" height="311" viewBox="0 0 1004 311" fill="none" xmlns="http://www.w3.org/2000/svg">
<path d="M104.272 125.141L0.541077 187.097V62.9373L104.272 125.141Z" fill="#6A51F5"/>
<path fill-rule="evenodd" clip-rule="evenodd" d="M104.271 125.131L206.81 62.9271L310.541 125.131V247.798L206.81 310.002V187.336L104.271 125.131Z" fill="#386DFF"/>
<path d="M104.272 0.00195312L0.541077 62.9526L104.272 125.157L206.811 62.9526L104.272 0.00195312Z" fill="#FFC629"/>
<path fill-rule="evenodd" clip-rule="evenodd" d="M0.541077 62.9526L104.272 125.157L206.811 62.9526L104.272 0.00195312L0.541077 62.9526ZM19.8959 62.9004L104.244 113.481L187.623 62.9006L104.244 11.7126L19.8959 62.9004Z" fill="#FAFAFA"/>
<path d="M104.263 113.486V11.7527L19.9161 62.9369L104.263 113.486Z" fill="#FFBC00"/>
<path d="M418.512 188.723H451.116V301.328H418.512V188.723ZM434.814 173.025C428.822 173.025 423.946 171.281 420.184 167.792C416.422 164.304 414.541 159.978 414.541 154.815C414.541 149.652 416.422 145.327 420.184 141.838C423.946 138.35 428.822 136.606 434.814 136.606C440.805 136.606 445.682 138.28 449.444 141.629C453.206 144.978 455.087 149.164 455.087 154.187C455.087 159.629 453.206 164.164 449.444 167.792C445.682 171.281 440.805 173.025 434.814 173.025Z" fill="#FAFAFA"/>
<path d="M539.268 187.048C553.201 187.048 564.418 191.234 572.917 199.606C581.556 207.978 585.875 220.397 585.875 236.862V301.328H553.271V241.886C553.271 232.955 551.32 226.327 547.419 222.002C543.518 217.537 537.875 215.304 530.49 215.304C522.269 215.304 515.721 217.886 510.844 223.048C505.967 228.072 503.529 235.607 503.529 245.653V301.328H470.925V188.723H502.066V201.909C506.385 197.164 511.75 193.537 518.159 191.025C524.568 188.374 531.605 187.048 539.268 187.048Z" fill="#FAFAFA"/>
<path d="M646.988 303.002C637.653 303.002 628.526 301.886 619.609 299.654C610.692 297.281 603.586 294.351 598.291 290.863L609.159 267.421C614.175 270.63 620.236 273.281 627.342 275.374C634.448 277.328 641.415 278.305 648.242 278.305C662.036 278.305 668.933 274.886 668.933 268.049C668.933 264.839 667.052 262.537 663.29 261.142C659.528 259.746 653.746 258.56 645.943 257.583C636.747 256.188 629.153 254.583 623.162 252.769C617.171 250.955 611.946 247.746 607.487 243.141C603.168 238.537 601.008 231.979 601.008 223.467C601.008 216.351 603.028 210.072 607.069 204.63C611.249 199.048 617.24 194.723 625.043 191.653C632.985 188.583 642.32 187.048 653.049 187.048C660.991 187.048 668.863 187.955 676.666 189.769C684.608 191.443 691.157 193.816 696.312 196.885L685.444 220.118C675.551 214.537 664.753 211.746 653.049 211.746C646.082 211.746 640.857 212.723 637.374 214.676C633.891 216.63 632.149 219.141 632.149 222.211C632.149 225.7 634.03 228.141 637.792 229.537C641.554 230.932 647.545 232.258 655.766 233.514C664.962 235.048 672.486 236.723 678.338 238.537C684.19 240.211 689.276 243.351 693.595 247.955C697.914 252.56 700.074 258.979 700.074 267.211C700.074 274.188 697.984 280.398 693.804 285.839C689.624 291.281 683.493 295.537 675.412 298.607C667.47 301.537 657.995 303.002 646.988 303.002Z" fill="#FAFAFA"/>
<path d="M786.443 295.886C783.239 298.258 779.268 300.072 774.53 301.328C769.932 302.444 765.056 303.002 759.9 303.002C746.524 303.002 736.144 299.584 728.759 292.747C721.514 285.909 717.891 275.863 717.891 262.607V216.351H700.544V191.234H717.891V163.815H750.495V191.234H778.501V216.351H750.495V262.188C750.495 266.932 751.68 270.63 754.048 273.281C756.556 275.793 760.04 277.049 764.498 277.049C769.654 277.049 774.043 275.653 777.665 272.863L786.443 295.886Z" fill="#FAFAFA"/>
<path d="M837.559 187.048C854.975 187.048 868.351 191.234 877.687 199.606C887.022 207.839 891.69 220.327 891.69 237.072V301.328H861.176V287.305C855.045 297.77 843.62 303.002 826.9 303.002C818.261 303.002 810.737 301.537 804.328 298.607C798.057 295.677 793.251 291.63 789.907 286.467C786.563 281.305 784.89 275.444 784.89 268.886C784.89 258.421 788.792 250.188 796.595 244.188C804.536 238.188 816.728 235.188 833.17 235.188H859.086C859.086 228.072 856.926 222.63 852.607 218.862C848.287 214.955 841.808 213.002 833.17 213.002C827.178 213.002 821.257 213.979 815.405 215.932C809.692 217.746 804.815 220.258 800.775 223.467L789.071 200.653C795.201 196.327 802.516 192.978 811.016 190.606C819.654 188.234 828.502 187.048 837.559 187.048ZM835.051 281.025C840.624 281.025 845.57 279.77 849.89 277.258C854.209 274.607 857.274 270.77 859.086 265.746V254.235H836.723C823.346 254.235 816.659 258.63 816.659 267.421C816.659 271.607 818.261 274.956 821.466 277.467C824.81 279.839 829.338 281.025 835.051 281.025Z" fill="#FAFAFA"/>
<path d="M908.658 146.025H941.262V301.328H908.658V146.025Z" fill="#FAFAFA"/>
<path d="M961.071 146.025H993.675V301.328H961.071V146.025Z" fill="#FAFAFA"/>
<path d="M420.184 167.702C423.946 171.19 428.822 172.935 434.814 172.935C440.805 172.935 445.682 171.19 449.444 167.702C453.206 164.074 455.087 159.539 455.087 154.097C455.087 149.074 453.206 144.888 449.444 141.539C445.682 138.19 440.805 136.516 434.814 136.516C428.822 136.516 423.946 138.26 420.184 141.748C416.422 145.237 414.541 149.562 414.541 154.725C414.541 159.888 416.422 164.214 420.184 167.702Z" fill="#FAFAFA"/>
<path d="M482.873 7.00195C496.804 7.00195 508.018 11.1745 516.516 19.5195C525.153 27.8646 529.472 40.2431 529.472 56.655V120.912H496.873V61.662C496.873 52.7606 494.923 46.1541 491.022 41.8425C487.122 37.3918 481.479 35.1665 474.096 35.1665C465.877 35.1665 459.329 37.7396 454.453 42.8857C449.577 47.8927 447.139 55.4032 447.139 65.4173V120.912H414.541V8.67096H445.677V21.8144C449.995 17.0856 455.359 13.4694 461.767 10.9658C468.175 8.32325 475.21 7.00195 482.873 7.00195Z" fill="#FAFAFA"/>
<path d="M660.787 65.2087C660.787 65.6259 660.578 68.5467 660.16 73.971H575.111C576.644 80.9252 580.266 86.419 585.977 90.4524C591.689 94.4859 598.794 96.5026 607.292 96.5026C613.143 96.5026 618.298 95.6681 622.755 93.9991C627.353 92.191 631.602 89.4093 635.502 85.654L652.846 104.43C642.259 116.531 626.795 122.581 606.456 122.581C593.779 122.581 582.564 120.147 572.813 115.279C563.061 110.272 555.538 103.387 550.244 94.625C544.951 85.8627 542.304 75.9181 542.304 64.7914C542.304 53.8038 544.881 43.9288 550.035 35.1665C555.329 26.2651 562.504 19.3804 571.559 14.5125C580.753 9.50546 590.993 7.00195 602.277 7.00195C613.282 7.00195 623.243 9.36639 632.159 14.0952C641.075 18.8241 648.04 25.6392 653.055 34.5406C658.21 43.3029 660.787 53.5256 660.787 65.2087ZM602.486 31.6198C595.102 31.6198 588.903 33.7061 583.888 37.8786C578.873 42.0512 575.808 47.7536 574.693 54.986H630.069C628.955 47.8927 625.89 42.2598 620.875 38.0873C615.86 33.7757 609.73 31.6198 602.486 31.6198Z" fill="#FAFAFA"/>
<path d="M792.037 8.67096L744.602 120.912H710.959L663.732 8.67096H697.376L728.512 85.0282L760.692 8.67096H792.037Z" fill="#FAFAFA"/>
<path d="M912.403 65.2087C912.403 65.6259 912.194 68.5467 911.776 73.971H826.727C828.26 80.9252 831.882 86.419 837.593 90.4524C843.305 94.4859 850.41 96.5026 858.908 96.5026C864.759 96.5026 869.913 95.6681 874.371 93.9991C878.969 92.191 883.217 89.4093 887.118 85.654L904.462 104.43C893.875 116.531 878.411 122.581 858.072 122.581C845.395 122.581 834.18 120.147 824.429 115.279C814.677 110.272 807.154 103.387 801.86 94.625C796.566 85.8627 793.92 75.9181 793.92 64.7914C793.92 53.8038 796.497 43.9288 801.651 35.1665C806.945 26.2651 814.12 19.3804 823.175 14.5125C832.369 9.50546 842.609 7.00195 853.893 7.00195C864.898 7.00195 874.859 9.36639 883.775 14.0952C892.691 18.8241 899.656 25.6392 904.671 34.5406C909.826 43.3029 912.403 53.5256 912.403 65.2087ZM854.102 31.6198C846.718 31.6198 840.519 33.7061 835.504 37.8786C830.488 42.0512 827.424 47.7536 826.309 54.986H881.685C880.571 47.8927 877.506 42.2598 872.491 38.0873C867.475 33.7757 861.346 31.6198 854.102 31.6198Z" fill="#FAFAFA"/>
<path d="M965.242 23.4834C969.143 18.0591 974.367 13.9562 980.914 11.1745C987.601 8.39279 995.263 7.00195 1003.9 7.00195V37.0441C1000.28 36.766 997.841 36.6269 996.587 36.6269C987.253 36.6269 979.939 39.2695 974.645 44.5547C969.352 49.7008 966.705 57.4895 966.705 67.9208V120.912H934.106V8.67096H965.242V23.4834Z" fill="#FAFAFA"/>
</svg>
