<svg width="586" height="186" viewBox="0 0 586 186" fill="none" xmlns="http://www.w3.org/2000/svg">
<path d="M585.414 91.4142C586.195 90.6332 586.195 89.3668 585.414 88.5858L572.686 75.8579C571.905 75.0768 570.639 75.0768 569.858 75.8579C569.077 76.6389 569.077 77.9052 569.858 78.6863L581.172 90L569.858 101.314C569.077 102.095 569.077 103.361 569.858 104.142C570.639 104.923 571.905 104.923 572.686 104.142L585.414 91.4142ZM0 92H584V88H0V92Z" fill="#CBD5E1"/>
<circle cx="115" cy="89" r="11" fill="white" stroke="#CBD5E1" stroke-width="4"/>
<circle cx="269" cy="89" r="11" fill="white" stroke="#CBD5E1" stroke-width="4"/>
<circle cx="423" cy="89" r="11" fill="white" stroke="#00C4B8" stroke-width="4"/>
<g filter="url(#filter0_d_929_61)">
<path fill-rule="evenodd" clip-rule="evenodd" d="M35 12C32.7909 12 31 13.7909 31 16V50C31 52.2091 32.7909 54 35 54H95.8191L115 67L134.181 54H194C196.209 54 198 52.2091 198 50V16C198 13.7909 196.209 12 194 12H35Z" fill="white"/>
</g>
<g filter="url(#filter1_d_929_61)">
<path fill-rule="evenodd" clip-rule="evenodd" d="M348 166C350.209 166 352 164.209 352 162L352 128C352 125.791 350.209 124 348 124L287.181 124L268 111L248.819 124L189 124C186.791 124 185 125.791 185 128L185 162C185 164.209 186.791 166 189 166L348 166Z" fill="white"/>
</g>
<g filter="url(#filter2_d_929_61)">
<path fill-rule="evenodd" clip-rule="evenodd" d="M343 12C340.791 12 339 13.7909 339 16V50C339 52.2091 340.791 54 343 54L403.819 54L423 67L442.181 54L502 54C504.209 54 506 52.2091 506 50V16C506 13.7909 504.209 12 502 12L343 12Z" fill="#00C4B8"/>
</g>
<path d="M57.136 26.832L53.04 38H50.32L46.224 26.832H48.624L51.696 35.712L54.752 26.832H57.136ZM59.215 28.08C58.8203 28.08 58.4897 27.9573 58.223 27.712C57.967 27.456 57.839 27.1413 57.839 26.768C57.839 26.3947 57.967 26.0853 58.223 25.84C58.4897 25.584 58.8203 25.456 59.215 25.456C59.6097 25.456 59.935 25.584 60.191 25.84C60.4577 26.0853 60.591 26.3947 60.591 26.768C60.591 27.1413 60.4577 27.456 60.191 27.712C59.935 27.9573 59.6097 28.08 59.215 28.08ZM60.319 29.136V38H58.079V29.136H60.319ZM70.3721 33.376C70.3721 33.696 70.3508 33.984 70.3081 34.24H63.8281C63.8815 34.88 64.1055 35.3813 64.5001 35.744C64.8948 36.1067 65.3801 36.288 65.9561 36.288C66.7881 36.288 67.3801 35.9307 67.7321 35.216H70.1481C69.8921 36.0693 69.4015 36.7733 68.6761 37.328C67.9508 37.872 67.0601 38.144 66.0041 38.144C65.1508 38.144 64.3828 37.9573 63.7001 37.584C63.0281 37.2 62.5001 36.6613 62.1161 35.968C61.7428 35.2747 61.5561 34.4747 61.5561 33.568C61.5561 32.6507 61.7428 31.8453 62.1161 31.152C62.4895 30.4587 63.0121 29.9253 63.6841 29.552C64.3561 29.1787 65.1295 28.992 66.0041 28.992C66.8468 28.992 67.5988 29.1733 68.2601 29.536C68.9321 29.8987 69.4495 30.416 69.8121 31.088C70.1855 31.7493 70.3721 32.512 70.3721 33.376ZM68.0521 32.736C68.0415 32.16 67.8335 31.7013 67.4281 31.36C67.0228 31.008 66.5268 30.832 65.9401 30.832C65.3855 30.832 64.9161 31.0027 64.5321 31.344C64.1588 31.6747 63.9295 32.1387 63.8441 32.736H68.0521ZM83.8951 29.136L81.3031 38H78.8871L77.2711 31.808L75.6551 38H73.2231L70.6151 29.136H72.8871L74.4551 35.888L76.1511 29.136H78.5191L80.1831 35.872L81.7511 29.136H83.8951ZM88.0991 38.144C87.3738 38.144 86.7231 38.016 86.1471 37.76C85.5711 37.4933 85.1125 37.136 84.7711 36.688C84.4405 36.24 84.2591 35.744 84.2271 35.2H86.4831C86.5258 35.5413 86.6911 35.824 86.9791 36.048C87.2778 36.272 87.6458 36.384 88.0831 36.384C88.5098 36.384 88.8405 36.2987 89.0751 36.128C89.3205 35.9573 89.4431 35.7387 89.4431 35.472C89.4431 35.184 89.2938 34.9707 88.9951 34.832C88.7071 34.6827 88.2431 34.5227 87.6031 34.352C86.9418 34.192 86.3978 34.0267 85.9711 33.856C85.5551 33.6853 85.1925 33.424 84.8831 33.072C84.5845 32.72 84.4351 32.2453 84.4351 31.648C84.4351 31.1573 84.5738 30.7093 84.8511 30.304C85.1391 29.8987 85.5445 29.5787 86.0671 29.344C86.6005 29.1093 87.2245 28.992 87.9391 28.992C88.9951 28.992 89.8378 29.2587 90.4671 29.792C91.0965 30.3147 91.4431 31.024 91.5071 31.92H89.3631C89.3311 31.568 89.1818 31.2907 88.9151 31.088C88.6591 30.8747 88.3125 30.768 87.8751 30.768C87.4698 30.768 87.1551 30.8427 86.9311 30.992C86.7178 31.1413 86.6111 31.3493 86.6111 31.616C86.6111 31.9147 86.7605 32.144 87.0591 32.304C87.3578 32.4533 87.8218 32.608 88.4511 32.768C89.0911 32.928 89.6191 33.0933 90.0351 33.264C90.4511 33.4347 90.8085 33.7013 91.1071 34.064C91.4165 34.416 91.5765 34.8853 91.5871 35.472C91.5871 35.984 91.4431 36.4427 91.1551 36.848C90.8778 37.2533 90.4725 37.5733 89.9391 37.808C89.4165 38.032 88.8031 38.144 88.0991 38.144ZM95.8624 33.536C95.8624 32.64 96.0384 31.8453 96.3904 31.152C96.753 30.4587 97.2437 29.9253 97.8624 29.552C98.481 29.1787 99.169 28.992 99.9264 28.992C100.502 28.992 101.052 29.12 101.574 29.376C102.097 29.6213 102.513 29.952 102.822 30.368V26.16H105.094V38H102.822V36.688C102.545 37.1253 102.156 37.4773 101.654 37.744C101.153 38.0107 100.572 38.144 99.9104 38.144C99.1637 38.144 98.481 37.952 97.8624 37.568C97.2437 37.184 96.753 36.6453 96.3904 35.952C96.0384 35.248 95.8624 34.4427 95.8624 33.536ZM102.838 33.568C102.838 33.024 102.732 32.56 102.518 32.176C102.305 31.7813 102.017 31.4827 101.654 31.28C101.292 31.0667 100.902 30.96 100.486 30.96C100.07 30.96 99.6864 31.0613 99.3344 31.264C98.9824 31.4667 98.6944 31.7653 98.4704 32.16C98.257 32.544 98.1504 33.0027 98.1504 33.536C98.1504 34.0693 98.257 34.5387 98.4704 34.944C98.6944 35.3387 98.9824 35.6427 99.3344 35.856C99.697 36.0693 100.081 36.176 100.486 36.176C100.902 36.176 101.292 36.0747 101.654 35.872C102.017 35.6587 102.305 35.36 102.518 34.976C102.732 34.5813 102.838 34.112 102.838 33.568ZM106.306 33.536C106.306 32.64 106.482 31.8453 106.834 31.152C107.197 30.4587 107.682 29.9253 108.29 29.552C108.909 29.1787 109.597 28.992 110.354 28.992C111.015 28.992 111.591 29.1253 112.082 29.392C112.583 29.6587 112.983 29.9947 113.282 30.4V29.136H115.538V38H113.282V36.704C112.994 37.12 112.594 37.4667 112.082 37.744C111.581 38.0107 110.999 38.144 110.338 38.144C109.591 38.144 108.909 37.952 108.29 37.568C107.682 37.184 107.197 36.6453 106.834 35.952C106.482 35.248 106.306 34.4427 106.306 33.536ZM113.282 33.568C113.282 33.024 113.175 32.56 112.962 32.176C112.749 31.7813 112.461 31.4827 112.098 31.28C111.735 31.0667 111.346 30.96 110.93 30.96C110.514 30.96 110.13 31.0613 109.778 31.264C109.426 31.4667 109.138 31.7653 108.914 32.16C108.701 32.544 108.594 33.0027 108.594 33.536C108.594 34.0693 108.701 34.5387 108.914 34.944C109.138 35.3387 109.426 35.6427 109.778 35.856C110.141 36.0693 110.525 36.176 110.93 36.176C111.346 36.176 111.735 36.0747 112.098 35.872C112.461 35.6587 112.749 35.36 112.962 34.976C113.175 34.5813 113.282 34.112 113.282 33.568ZM120.718 38.144C119.993 38.144 119.342 38.016 118.766 37.76C118.19 37.4933 117.731 37.136 117.39 36.688C117.059 36.24 116.878 35.744 116.846 35.2H119.102C119.145 35.5413 119.31 35.824 119.598 36.048C119.897 36.272 120.265 36.384 120.702 36.384C121.129 36.384 121.459 36.2987 121.694 36.128C121.939 35.9573 122.062 35.7387 122.062 35.472C122.062 35.184 121.913 34.9707 121.614 34.832C121.326 34.6827 120.862 34.5227 120.222 34.352C119.561 34.192 119.017 34.0267 118.59 33.856C118.174 33.6853 117.811 33.424 117.502 33.072C117.203 32.72 117.054 32.2453 117.054 31.648C117.054 31.1573 117.193 30.7093 117.47 30.304C117.758 29.8987 118.163 29.5787 118.686 29.344C119.219 29.1093 119.843 28.992 120.558 28.992C121.614 28.992 122.457 29.2587 123.086 29.792C123.715 30.3147 124.062 31.024 124.126 31.92H121.982C121.95 31.568 121.801 31.2907 121.534 31.088C121.278 30.8747 120.931 30.768 120.494 30.768C120.089 30.768 119.774 30.8427 119.55 30.992C119.337 31.1413 119.23 31.3493 119.23 31.616C119.23 31.9147 119.379 32.144 119.678 32.304C119.977 32.4533 120.441 32.608 121.07 32.768C121.71 32.928 122.238 33.0933 122.654 33.264C123.07 33.4347 123.427 33.7013 123.726 34.064C124.035 34.416 124.195 34.8853 124.206 35.472C124.206 35.984 124.062 36.4427 123.774 36.848C123.497 37.2533 123.091 37.5733 122.558 37.808C122.035 38.032 121.422 38.144 120.718 38.144ZM130.637 29.008C131.309 29.008 131.906 29.1573 132.429 29.456C132.951 29.744 133.357 30.176 133.645 30.752C133.943 31.3173 134.093 32 134.093 32.8V38H131.853V33.104C131.853 32.4 131.677 31.8613 131.325 31.488C130.973 31.104 130.493 30.912 129.885 30.912C129.266 30.912 128.775 31.104 128.413 31.488C128.061 31.8613 127.885 32.4 127.885 33.104V38H125.645V26.16H127.885V30.24C128.173 29.856 128.557 29.5573 129.037 29.344C129.517 29.12 130.05 29.008 130.637 29.008ZM138.063 30.432C138.351 30.0053 138.745 29.6587 139.247 29.392C139.759 29.1253 140.34 28.992 140.991 28.992C141.748 28.992 142.431 29.1787 143.039 29.552C143.657 29.9253 144.143 30.4587 144.495 31.152C144.857 31.8347 145.039 32.6293 145.039 33.536C145.039 34.4427 144.857 35.248 144.495 35.952C144.143 36.6453 143.657 37.184 143.039 37.568C142.431 37.952 141.748 38.144 140.991 38.144C140.329 38.144 139.748 38.016 139.247 37.76C138.756 37.4933 138.361 37.152 138.063 36.736V38H135.823V26.16H138.063V30.432ZM142.751 33.536C142.751 33.0027 142.639 32.544 142.415 32.16C142.201 31.7653 141.913 31.4667 141.551 31.264C141.199 31.0613 140.815 30.96 140.399 30.96C139.993 30.96 139.609 31.0667 139.247 31.28C138.895 31.4827 138.607 31.7813 138.383 32.176C138.169 32.5707 138.063 33.0347 138.063 33.568C138.063 34.1013 138.169 34.5653 138.383 34.96C138.607 35.3547 138.895 35.6587 139.247 35.872C139.609 36.0747 139.993 36.176 140.399 36.176C140.815 36.176 141.199 36.0693 141.551 35.856C141.913 35.6427 142.201 35.3387 142.415 34.944C142.639 34.5493 142.751 34.08 142.751 33.536ZM150.202 38.144C149.349 38.144 148.581 37.9573 147.898 37.584C147.216 37.2 146.677 36.6613 146.282 35.968C145.898 35.2747 145.706 34.4747 145.706 33.568C145.706 32.6613 145.904 31.8613 146.298 31.168C146.704 30.4747 147.253 29.9413 147.946 29.568C148.64 29.184 149.413 28.992 150.266 28.992C151.12 28.992 151.893 29.184 152.586 29.568C153.28 29.9413 153.824 30.4747 154.218 31.168C154.624 31.8613 154.826 32.6613 154.826 33.568C154.826 34.4747 154.618 35.2747 154.202 35.968C153.797 36.6613 153.242 37.2 152.538 37.584C151.845 37.9573 151.066 38.144 150.202 38.144ZM150.202 36.192C150.608 36.192 150.986 36.096 151.338 35.904C151.701 35.7013 151.989 35.4027 152.202 35.008C152.416 34.6133 152.522 34.1333 152.522 33.568C152.522 32.7253 152.298 32.08 151.85 31.632C151.413 31.1733 150.874 30.944 150.234 30.944C149.594 30.944 149.056 31.1733 148.618 31.632C148.192 32.08 147.978 32.7253 147.978 33.568C147.978 34.4107 148.186 35.0613 148.602 35.52C149.029 35.968 149.562 36.192 150.202 36.192ZM155.494 33.536C155.494 32.64 155.67 31.8453 156.022 31.152C156.384 30.4587 156.87 29.9253 157.478 29.552C158.096 29.1787 158.784 28.992 159.542 28.992C160.203 28.992 160.779 29.1253 161.27 29.392C161.771 29.6587 162.171 29.9947 162.47 30.4V29.136H164.726V38H162.47V36.704C162.182 37.12 161.782 37.4667 161.27 37.744C160.768 38.0107 160.187 38.144 159.526 38.144C158.779 38.144 158.096 37.952 157.478 37.568C156.87 37.184 156.384 36.6453 156.022 35.952C155.67 35.248 155.494 34.4427 155.494 33.536ZM162.47 33.568C162.47 33.024 162.363 32.56 162.15 32.176C161.936 31.7813 161.648 31.4827 161.286 31.28C160.923 31.0667 160.534 30.96 160.118 30.96C159.702 30.96 159.318 31.0613 158.966 31.264C158.614 31.4667 158.326 31.7653 158.102 32.16C157.888 32.544 157.782 33.0027 157.782 33.536C157.782 34.0693 157.888 34.5387 158.102 34.944C158.326 35.3387 158.614 35.6427 158.966 35.856C159.328 36.0693 159.712 36.176 160.118 36.176C160.534 36.176 160.923 36.0747 161.286 35.872C161.648 35.6587 161.936 35.36 162.15 34.976C162.363 34.5813 162.47 34.112 162.47 33.568ZM168.753 30.512C169.041 30.0427 169.415 29.6747 169.873 29.408C170.343 29.1413 170.876 29.008 171.473 29.008V31.36H170.881C170.177 31.36 169.644 31.5253 169.281 31.856C168.929 32.1867 168.753 32.7627 168.753 33.584V38H166.513V29.136H168.753V30.512ZM172.006 33.536C172.006 32.64 172.182 31.8453 172.534 31.152C172.897 30.4587 173.387 29.9253 174.006 29.552C174.625 29.1787 175.313 28.992 176.07 28.992C176.646 28.992 177.195 29.12 177.718 29.376C178.241 29.6213 178.657 29.952 178.966 30.368V26.16H181.238V38H178.966V36.688C178.689 37.1253 178.299 37.4773 177.798 37.744C177.297 38.0107 176.715 38.144 176.054 38.144C175.307 38.144 174.625 37.952 174.006 37.568C173.387 37.184 172.897 36.6453 172.534 35.952C172.182 35.248 172.006 34.4427 172.006 33.536ZM178.982 33.568C178.982 33.024 178.875 32.56 178.662 32.176C178.449 31.7813 178.161 31.4827 177.798 31.28C177.435 31.0667 177.046 30.96 176.63 30.96C176.214 30.96 175.83 31.0613 175.478 31.264C175.126 31.4667 174.838 31.7653 174.614 32.16C174.401 32.544 174.294 33.0027 174.294 33.536C174.294 34.0693 174.401 34.5387 174.614 34.944C174.838 35.3387 175.126 35.6427 175.478 35.856C175.841 36.0693 176.225 36.176 176.63 36.176C177.046 36.176 177.435 36.0747 177.798 35.872C178.161 35.6587 178.449 35.36 178.662 34.976C178.875 34.5813 178.982 34.112 178.982 33.568Z" fill="#475569"/>
<path d="M204.312 140.832V147.744C204.312 148.501 204.509 149.083 204.904 149.488C205.299 149.883 205.853 150.08 206.568 150.08C207.293 150.08 207.853 149.883 208.248 149.488C208.643 149.083 208.84 148.501 208.84 147.744V140.832H211.096V147.728C211.096 148.677 210.888 149.483 210.472 150.144C210.067 150.795 209.517 151.285 208.824 151.616C208.141 151.947 207.379 152.112 206.536 152.112C205.704 152.112 204.947 151.947 204.264 151.616C203.592 151.285 203.059 150.795 202.664 150.144C202.269 149.483 202.072 148.677 202.072 147.728V140.832H204.312ZM216.252 152.144C215.527 152.144 214.876 152.016 214.3 151.76C213.724 151.493 213.266 151.136 212.924 150.688C212.594 150.24 212.412 149.744 212.38 149.2H214.636C214.679 149.541 214.844 149.824 215.132 150.048C215.431 150.272 215.799 150.384 216.236 150.384C216.663 150.384 216.994 150.299 217.228 150.128C217.474 149.957 217.596 149.739 217.596 149.472C217.596 149.184 217.447 148.971 217.148 148.832C216.86 148.683 216.396 148.523 215.756 148.352C215.095 148.192 214.551 148.027 214.124 147.856C213.708 147.685 213.346 147.424 213.036 147.072C212.738 146.72 212.588 146.245 212.588 145.648C212.588 145.157 212.727 144.709 213.004 144.304C213.292 143.899 213.698 143.579 214.22 143.344C214.754 143.109 215.378 142.992 216.092 142.992C217.148 142.992 217.991 143.259 218.62 143.792C219.25 144.315 219.596 145.024 219.66 145.92H217.516C217.484 145.568 217.335 145.291 217.068 145.088C216.812 144.875 216.466 144.768 216.028 144.768C215.623 144.768 215.308 144.843 215.084 144.992C214.871 145.141 214.764 145.349 214.764 145.616C214.764 145.915 214.914 146.144 215.212 146.304C215.511 146.453 215.975 146.608 216.604 146.768C217.244 146.928 217.772 147.093 218.188 147.264C218.604 147.435 218.962 147.701 219.26 148.064C219.57 148.416 219.73 148.885 219.74 149.472C219.74 149.984 219.596 150.443 219.308 150.848C219.031 151.253 218.626 151.573 218.092 151.808C217.57 152.032 216.956 152.144 216.252 152.144ZM229.419 147.376C229.419 147.696 229.398 147.984 229.355 148.24H222.875C222.928 148.88 223.152 149.381 223.547 149.744C223.942 150.107 224.427 150.288 225.003 150.288C225.835 150.288 226.427 149.931 226.779 149.216H229.195C228.939 150.069 228.448 150.773 227.723 151.328C226.998 151.872 226.107 152.144 225.051 152.144C224.198 152.144 223.43 151.957 222.747 151.584C222.075 151.2 221.547 150.661 221.163 149.968C220.79 149.275 220.603 148.475 220.603 147.568C220.603 146.651 220.79 145.845 221.163 145.152C221.536 144.459 222.059 143.925 222.731 143.552C223.403 143.179 224.176 142.992 225.051 142.992C225.894 142.992 226.646 143.173 227.307 143.536C227.979 143.899 228.496 144.416 228.859 145.088C229.232 145.749 229.419 146.512 229.419 147.376ZM227.099 146.736C227.088 146.16 226.88 145.701 226.475 145.36C226.07 145.008 225.574 144.832 224.987 144.832C224.432 144.832 223.963 145.003 223.579 145.344C223.206 145.675 222.976 146.139 222.891 146.736H227.099ZM234.046 152.144C233.321 152.144 232.67 152.016 232.094 151.76C231.518 151.493 231.059 151.136 230.718 150.688C230.387 150.24 230.206 149.744 230.174 149.2H232.43C232.473 149.541 232.638 149.824 232.926 150.048C233.225 150.272 233.593 150.384 234.03 150.384C234.457 150.384 234.787 150.299 235.022 150.128C235.267 149.957 235.39 149.739 235.39 149.472C235.39 149.184 235.241 148.971 234.942 148.832C234.654 148.683 234.19 148.523 233.55 148.352C232.889 148.192 232.345 148.027 231.918 147.856C231.502 147.685 231.139 147.424 230.83 147.072C230.531 146.72 230.382 146.245 230.382 145.648C230.382 145.157 230.521 144.709 230.798 144.304C231.086 143.899 231.491 143.579 232.014 143.344C232.547 143.109 233.171 142.992 233.886 142.992C234.942 142.992 235.785 143.259 236.414 143.792C237.043 144.315 237.39 145.024 237.454 145.92H235.31C235.278 145.568 235.129 145.291 234.862 145.088C234.606 144.875 234.259 144.768 233.822 144.768C233.417 144.768 233.102 144.843 232.878 144.992C232.665 145.141 232.558 145.349 232.558 145.616C232.558 145.915 232.707 146.144 233.006 146.304C233.305 146.453 233.769 146.608 234.398 146.768C235.038 146.928 235.566 147.093 235.982 147.264C236.398 147.435 236.755 147.701 237.054 148.064C237.363 148.416 237.523 148.885 237.534 149.472C237.534 149.984 237.39 150.443 237.102 150.848C236.825 151.253 236.419 151.573 235.886 151.808C235.363 152.032 234.75 152.144 234.046 152.144ZM241.809 147.568C241.809 146.651 241.996 145.851 242.369 145.168C242.743 144.475 243.26 143.941 243.921 143.568C244.583 143.184 245.34 142.992 246.193 142.992C247.292 142.992 248.199 143.269 248.913 143.824C249.639 144.368 250.124 145.136 250.369 146.128H247.953C247.825 145.744 247.607 145.445 247.297 145.232C246.999 145.008 246.625 144.896 246.177 144.896C245.537 144.896 245.031 145.131 244.657 145.6C244.284 146.059 244.097 146.715 244.097 147.568C244.097 148.411 244.284 149.067 244.657 149.536C245.031 149.995 245.537 150.224 246.177 150.224C247.084 150.224 247.676 149.819 247.953 149.008H250.369C250.124 149.968 249.639 150.731 248.913 151.296C248.188 151.861 247.281 152.144 246.193 152.144C245.34 152.144 244.583 151.957 243.921 151.584C243.26 151.2 242.743 150.667 242.369 149.984C241.996 149.291 241.809 148.485 241.809 147.568ZM255.546 152.144C254.693 152.144 253.925 151.957 253.242 151.584C252.56 151.2 252.021 150.661 251.626 149.968C251.242 149.275 251.05 148.475 251.05 147.568C251.05 146.661 251.248 145.861 251.642 145.168C252.048 144.475 252.597 143.941 253.29 143.568C253.984 143.184 254.757 142.992 255.61 142.992C256.464 142.992 257.237 143.184 257.93 143.568C258.624 143.941 259.168 144.475 259.562 145.168C259.968 145.861 260.17 146.661 260.17 147.568C260.17 148.475 259.962 149.275 259.546 149.968C259.141 150.661 258.586 151.2 257.882 151.584C257.189 151.957 256.41 152.144 255.546 152.144ZM255.546 150.192C255.952 150.192 256.33 150.096 256.682 149.904C257.045 149.701 257.333 149.403 257.546 149.008C257.76 148.613 257.866 148.133 257.866 147.568C257.866 146.725 257.642 146.08 257.194 145.632C256.757 145.173 256.218 144.944 255.578 144.944C254.938 144.944 254.4 145.173 253.962 145.632C253.536 146.08 253.322 146.725 253.322 147.568C253.322 148.411 253.53 149.061 253.946 149.52C254.373 149.968 254.906 150.192 255.546 150.192ZM263.653 144.512C263.941 144.043 264.315 143.675 264.773 143.408C265.243 143.141 265.776 143.008 266.373 143.008V145.36H265.781C265.077 145.36 264.544 145.525 264.181 145.856C263.829 146.187 263.653 146.763 263.653 147.584V152H261.413V143.136H263.653V144.512ZM275.722 147.376C275.722 147.696 275.701 147.984 275.658 148.24H269.178C269.231 148.88 269.455 149.381 269.85 149.744C270.245 150.107 270.73 150.288 271.306 150.288C272.138 150.288 272.73 149.931 273.082 149.216H275.498C275.242 150.069 274.751 150.773 274.026 151.328C273.301 151.872 272.41 152.144 271.354 152.144C270.501 152.144 269.733 151.957 269.05 151.584C268.378 151.2 267.85 150.661 267.466 149.968C267.093 149.275 266.906 148.475 266.906 147.568C266.906 146.651 267.093 145.845 267.466 145.152C267.839 144.459 268.362 143.925 269.034 143.552C269.706 143.179 270.479 142.992 271.354 142.992C272.197 142.992 272.949 143.173 273.61 143.536C274.282 143.899 274.799 144.416 275.162 145.088C275.535 145.749 275.722 146.512 275.722 147.376ZM273.402 146.736C273.391 146.16 273.183 145.701 272.778 145.36C272.373 145.008 271.877 144.832 271.29 144.832C270.735 144.832 270.266 145.003 269.882 145.344C269.509 145.675 269.279 146.139 269.194 146.736H273.402ZM284.434 144.976H282.882V152H280.61V144.976H279.602V143.136H280.61V142.688C280.61 141.6 280.919 140.8 281.538 140.288C282.156 139.776 283.09 139.536 284.338 139.568V141.456C283.794 141.445 283.415 141.536 283.202 141.728C282.988 141.92 282.882 142.267 282.882 142.768V143.136H284.434V144.976ZM293.725 147.376C293.725 147.696 293.704 147.984 293.661 148.24H287.181C287.235 148.88 287.459 149.381 287.853 149.744C288.248 150.107 288.733 150.288 289.309 150.288C290.141 150.288 290.733 149.931 291.085 149.216H293.501C293.245 150.069 292.755 150.773 292.029 151.328C291.304 151.872 290.413 152.144 289.357 152.144C288.504 152.144 287.736 151.957 287.053 151.584C286.381 151.2 285.853 150.661 285.469 149.968C285.096 149.275 284.909 148.475 284.909 147.568C284.909 146.651 285.096 145.845 285.469 145.152C285.843 144.459 286.365 143.925 287.037 143.552C287.709 143.179 288.483 142.992 289.357 142.992C290.2 142.992 290.952 143.173 291.613 143.536C292.285 143.899 292.803 144.416 293.165 145.088C293.539 145.749 293.725 146.512 293.725 147.376ZM291.405 146.736C291.395 146.16 291.187 145.701 290.781 145.36C290.376 145.008 289.88 144.832 289.293 144.832C288.739 144.832 288.269 145.003 287.885 145.344C287.512 145.675 287.283 146.139 287.197 146.736H291.405ZM294.384 147.536C294.384 146.64 294.56 145.845 294.912 145.152C295.275 144.459 295.76 143.925 296.368 143.552C296.987 143.179 297.675 142.992 298.432 142.992C299.094 142.992 299.67 143.125 300.16 143.392C300.662 143.659 301.062 143.995 301.36 144.4V143.136H303.616V152H301.36V150.704C301.072 151.12 300.672 151.467 300.16 151.744C299.659 152.011 299.078 152.144 298.416 152.144C297.67 152.144 296.987 151.952 296.368 151.568C295.76 151.184 295.275 150.645 294.912 149.952C294.56 149.248 294.384 148.443 294.384 147.536ZM301.36 147.568C301.36 147.024 301.254 146.56 301.04 146.176C300.827 145.781 300.539 145.483 300.176 145.28C299.814 145.067 299.424 144.96 299.008 144.96C298.592 144.96 298.208 145.061 297.856 145.264C297.504 145.467 297.216 145.765 296.992 146.16C296.779 146.544 296.672 147.003 296.672 147.536C296.672 148.069 296.779 148.539 296.992 148.944C297.216 149.339 297.504 149.643 297.856 149.856C298.219 150.069 298.603 150.176 299.008 150.176C299.424 150.176 299.814 150.075 300.176 149.872C300.539 149.659 300.827 149.36 301.04 148.976C301.254 148.581 301.36 148.112 301.36 147.568ZM308.012 144.976V149.264C308.012 149.563 308.081 149.781 308.22 149.92C308.369 150.048 308.615 150.112 308.956 150.112H309.996V152H308.588C306.7 152 305.756 151.083 305.756 149.248V144.976H304.7V143.136H305.756V140.944H308.012V143.136H309.996V144.976H308.012ZM319.575 143.136V152H317.319V150.88C317.031 151.264 316.652 151.568 316.183 151.792C315.724 152.005 315.223 152.112 314.679 152.112C313.986 152.112 313.372 151.968 312.839 151.68C312.306 151.381 311.884 150.949 311.575 150.384C311.276 149.808 311.127 149.125 311.127 148.336V143.136H313.367V148.016C313.367 148.72 313.543 149.264 313.895 149.648C314.247 150.021 314.727 150.208 315.335 150.208C315.954 150.208 316.439 150.021 316.791 149.648C317.143 149.264 317.319 148.72 317.319 148.016V143.136H319.575ZM323.625 144.512C323.913 144.043 324.287 143.675 324.745 143.408C325.215 143.141 325.748 143.008 326.345 143.008V145.36H325.753C325.049 145.36 324.516 145.525 324.153 145.856C323.801 146.187 323.625 146.763 323.625 147.584V152H321.385V143.136H323.625V144.512ZM335.694 147.376C335.694 147.696 335.673 147.984 335.63 148.24H329.15C329.203 148.88 329.427 149.381 329.822 149.744C330.217 150.107 330.702 150.288 331.278 150.288C332.11 150.288 332.702 149.931 333.054 149.216H335.47C335.214 150.069 334.723 150.773 333.998 151.328C333.273 151.872 332.382 152.144 331.326 152.144C330.473 152.144 329.705 151.957 329.022 151.584C328.35 151.2 327.822 150.661 327.438 149.968C327.065 149.275 326.878 148.475 326.878 147.568C326.878 146.651 327.065 145.845 327.438 145.152C327.811 144.459 328.334 143.925 329.006 143.552C329.678 143.179 330.451 142.992 331.326 142.992C332.169 142.992 332.921 143.173 333.582 143.536C334.254 143.899 334.771 144.416 335.134 145.088C335.507 145.749 335.694 146.512 335.694 147.376ZM333.374 146.736C333.363 146.16 333.155 145.701 332.75 145.36C332.345 145.008 331.849 144.832 331.262 144.832C330.707 144.832 330.238 145.003 329.854 145.344C329.481 145.675 329.251 146.139 329.166 146.736H333.374Z" fill="#475569"/>
<path d="M375.704 26.832V28.64H372.728V38H370.488V28.64H367.512V26.832H375.704ZM379.178 30.512C379.466 30.0427 379.84 29.6747 380.298 29.408C380.768 29.1413 381.301 29.008 381.898 29.008V31.36H381.306C380.602 31.36 380.069 31.5253 379.706 31.856C379.354 32.1867 379.178 32.7627 379.178 33.584V38H376.938V29.136H379.178V30.512ZM384.143 28.08C383.748 28.08 383.418 27.9573 383.151 27.712C382.895 27.456 382.767 27.1413 382.767 26.768C382.767 26.3947 382.895 26.0853 383.151 25.84C383.418 25.584 383.748 25.456 384.143 25.456C384.538 25.456 384.863 25.584 385.119 25.84C385.386 26.0853 385.519 26.3947 385.519 26.768C385.519 27.1413 385.386 27.456 385.119 27.712C384.863 27.9573 384.538 28.08 384.143 28.08ZM385.247 29.136V38H383.007V29.136H385.247ZM390.532 28.992C391.194 28.992 391.775 29.1253 392.276 29.392C392.778 29.648 393.172 29.984 393.46 30.4V29.136H395.716V38.064C395.716 38.8853 395.551 39.616 395.22 40.256C394.89 40.9067 394.394 41.4187 393.732 41.792C393.071 42.176 392.271 42.368 391.332 42.368C390.074 42.368 389.039 42.0747 388.228 41.488C387.428 40.9013 386.975 40.1013 386.868 39.088H389.092C389.21 39.4933 389.46 39.8133 389.844 40.048C390.239 40.2933 390.714 40.416 391.268 40.416C391.919 40.416 392.447 40.2187 392.852 39.824C393.258 39.44 393.46 38.8533 393.46 38.064V36.688C393.172 37.104 392.772 37.4507 392.26 37.728C391.759 38.0053 391.183 38.144 390.532 38.144C389.786 38.144 389.103 37.952 388.484 37.568C387.866 37.184 387.375 36.6453 387.012 35.952C386.66 35.248 386.484 34.4427 386.484 33.536C386.484 32.64 386.66 31.8453 387.012 31.152C387.375 30.4587 387.86 29.9253 388.468 29.552C389.087 29.1787 389.775 28.992 390.532 28.992ZM393.46 33.568C393.46 33.024 393.354 32.56 393.14 32.176C392.927 31.7813 392.639 31.4827 392.276 31.28C391.914 31.0667 391.524 30.96 391.108 30.96C390.692 30.96 390.308 31.0613 389.956 31.264C389.604 31.4667 389.316 31.7653 389.092 32.16C388.879 32.544 388.772 33.0027 388.772 33.536C388.772 34.0693 388.879 34.5387 389.092 34.944C389.316 35.3387 389.604 35.6427 389.956 35.856C390.319 36.0693 390.703 36.176 391.108 36.176C391.524 36.176 391.914 36.0747 392.276 35.872C392.639 35.6587 392.927 35.36 393.14 34.976C393.354 34.5813 393.46 34.112 393.46 33.568ZM400.976 28.992C401.637 28.992 402.219 29.1253 402.72 29.392C403.221 29.648 403.616 29.984 403.904 30.4V29.136H406.16V38.064C406.16 38.8853 405.995 39.616 405.664 40.256C405.333 40.9067 404.837 41.4187 404.176 41.792C403.515 42.176 402.715 42.368 401.776 42.368C400.517 42.368 399.483 42.0747 398.672 41.488C397.872 40.9013 397.419 40.1013 397.312 39.088H399.536C399.653 39.4933 399.904 39.8133 400.288 40.048C400.683 40.2933 401.157 40.416 401.712 40.416C402.363 40.416 402.891 40.2187 403.296 39.824C403.701 39.44 403.904 38.8533 403.904 38.064V36.688C403.616 37.104 403.216 37.4507 402.704 37.728C402.203 38.0053 401.627 38.144 400.976 38.144C400.229 38.144 399.547 37.952 398.928 37.568C398.309 37.184 397.819 36.6453 397.456 35.952C397.104 35.248 396.928 34.4427 396.928 33.536C396.928 32.64 397.104 31.8453 397.456 31.152C397.819 30.4587 398.304 29.9253 398.912 29.552C399.531 29.1787 400.219 28.992 400.976 28.992ZM403.904 33.568C403.904 33.024 403.797 32.56 403.584 32.176C403.371 31.7813 403.083 31.4827 402.72 31.28C402.357 31.0667 401.968 30.96 401.552 30.96C401.136 30.96 400.752 31.0613 400.4 31.264C400.048 31.4667 399.76 31.7653 399.536 32.16C399.323 32.544 399.216 33.0027 399.216 33.536C399.216 34.0693 399.323 34.5387 399.536 34.944C399.76 35.3387 400.048 35.6427 400.4 35.856C400.763 36.0693 401.147 36.176 401.552 36.176C401.968 36.176 402.357 36.0747 402.72 35.872C403.083 35.6587 403.371 35.36 403.584 34.976C403.797 34.5813 403.904 34.112 403.904 33.568ZM416.188 33.376C416.188 33.696 416.166 33.984 416.124 34.24H409.644C409.697 34.88 409.921 35.3813 410.316 35.744C410.71 36.1067 411.196 36.288 411.772 36.288C412.604 36.288 413.196 35.9307 413.548 35.216H415.964C415.708 36.0693 415.217 36.7733 414.492 37.328C413.766 37.872 412.876 38.144 411.82 38.144C410.966 38.144 410.198 37.9573 409.516 37.584C408.844 37.2 408.316 36.6613 407.932 35.968C407.558 35.2747 407.372 34.4747 407.372 33.568C407.372 32.6507 407.558 31.8453 407.932 31.152C408.305 30.4587 408.828 29.9253 409.5 29.552C410.172 29.1787 410.945 28.992 411.82 28.992C412.662 28.992 413.414 29.1733 414.076 29.536C414.748 29.8987 415.265 30.416 415.628 31.088C416.001 31.7493 416.188 32.512 416.188 33.376ZM413.868 32.736C413.857 32.16 413.649 31.7013 413.244 31.36C412.838 31.008 412.342 30.832 411.756 30.832C411.201 30.832 410.732 31.0027 410.348 31.344C409.974 31.6747 409.745 32.1387 409.66 32.736H413.868ZM419.663 30.512C419.951 30.0427 420.324 29.6747 420.783 29.408C421.252 29.1413 421.785 29.008 422.383 29.008V31.36H421.791C421.087 31.36 420.553 31.5253 420.191 31.856C419.839 32.1867 419.663 32.7627 419.663 33.584V38H417.423V29.136H419.663V30.512ZM430.296 38.144C429.571 38.144 428.92 38.016 428.344 37.76C427.768 37.4933 427.309 37.136 426.968 36.688C426.637 36.24 426.456 35.744 426.424 35.2H428.68C428.723 35.5413 428.888 35.824 429.176 36.048C429.475 36.272 429.843 36.384 430.28 36.384C430.707 36.384 431.037 36.2987 431.272 36.128C431.517 35.9573 431.64 35.7387 431.64 35.472C431.64 35.184 431.491 34.9707 431.192 34.832C430.904 34.6827 430.44 34.5227 429.8 34.352C429.139 34.192 428.595 34.0267 428.168 33.856C427.752 33.6853 427.389 33.424 427.08 33.072C426.781 32.72 426.632 32.2453 426.632 31.648C426.632 31.1573 426.771 30.7093 427.048 30.304C427.336 29.8987 427.741 29.5787 428.264 29.344C428.797 29.1093 429.421 28.992 430.136 28.992C431.192 28.992 432.035 29.2587 432.664 29.792C433.293 30.3147 433.64 31.024 433.704 31.92H431.56C431.528 31.568 431.379 31.2907 431.112 31.088C430.856 30.8747 430.509 30.768 430.072 30.768C429.667 30.768 429.352 30.8427 429.128 30.992C428.915 31.1413 428.808 31.3493 428.808 31.616C428.808 31.9147 428.957 32.144 429.256 32.304C429.555 32.4533 430.019 32.608 430.648 32.768C431.288 32.928 431.816 33.0933 432.232 33.264C432.648 33.4347 433.005 33.7013 433.304 34.064C433.613 34.416 433.773 34.8853 433.784 35.472C433.784 35.984 433.64 36.4427 433.352 36.848C433.075 37.2533 432.669 37.5733 432.136 37.808C431.613 38.032 431 38.144 430.296 38.144ZM443.591 29.136V38H441.335V36.88C441.047 37.264 440.668 37.568 440.199 37.792C439.74 38.0053 439.239 38.112 438.695 38.112C438.001 38.112 437.388 37.968 436.855 37.68C436.321 37.3813 435.9 36.9493 435.591 36.384C435.292 35.808 435.143 35.1253 435.143 34.336V29.136H437.383V34.016C437.383 34.72 437.559 35.264 437.911 35.648C438.263 36.0213 438.743 36.208 439.351 36.208C439.969 36.208 440.455 36.0213 440.807 35.648C441.159 35.264 441.335 34.72 441.335 34.016V29.136H443.591ZM447.641 30.512C447.929 30.0427 448.302 29.6747 448.761 29.408C449.23 29.1413 449.764 29.008 450.361 29.008V31.36H449.769C449.065 31.36 448.532 31.5253 448.169 31.856C447.817 32.1867 447.641 32.7627 447.641 33.584V38H445.401V29.136H447.641V30.512ZM455.166 35.936L457.406 29.136H459.79L456.51 38H453.79L450.526 29.136H452.926L455.166 35.936ZM468.888 33.376C468.888 33.696 468.866 33.984 468.824 34.24H462.344C462.397 34.88 462.621 35.3813 463.016 35.744C463.41 36.1067 463.896 36.288 464.472 36.288C465.304 36.288 465.896 35.9307 466.248 35.216H468.664C468.408 36.0693 467.917 36.7733 467.192 37.328C466.466 37.872 465.576 38.144 464.52 38.144C463.666 38.144 462.898 37.9573 462.216 37.584C461.544 37.2 461.016 36.6613 460.632 35.968C460.258 35.2747 460.072 34.4747 460.072 33.568C460.072 32.6507 460.258 31.8453 460.632 31.152C461.005 30.4587 461.528 29.9253 462.2 29.552C462.872 29.1787 463.645 28.992 464.52 28.992C465.362 28.992 466.114 29.1733 466.776 29.536C467.448 29.8987 467.965 30.416 468.328 31.088C468.701 31.7493 468.888 32.512 468.888 33.376ZM466.568 32.736C466.557 32.16 466.349 31.7013 465.944 31.36C465.538 31.008 465.042 30.832 464.456 30.832C463.901 30.832 463.432 31.0027 463.048 31.344C462.674 31.6747 462.445 32.1387 462.36 32.736H466.568ZM478.603 29.136L473.115 42.192H470.731L472.651 37.776L469.099 29.136H471.611L473.899 35.328L476.219 29.136H478.603Z" fill="#F8FAFC"/>
<defs>
<filter id="filter0_d_929_61" x="15" y="0" width="199" height="87" filterUnits="userSpaceOnUse" color-interpolation-filters="sRGB">
<feFlood flood-opacity="0" result="BackgroundImageFix"/>
<feColorMatrix in="SourceAlpha" type="matrix" values="0 0 0 0 0 0 0 0 0 0 0 0 0 0 0 0 0 0 127 0" result="hardAlpha"/>
<feOffset dy="4"/>
<feGaussianBlur stdDeviation="8"/>
<feComposite in2="hardAlpha" operator="out"/>
<feColorMatrix type="matrix" values="0 0 0 0 0 0 0 0 0 0 0 0 0 0 0 0 0 0 0.05 0"/>
<feBlend mode="normal" in2="BackgroundImageFix" result="effect1_dropShadow_929_61"/>
<feBlend mode="normal" in="SourceGraphic" in2="effect1_dropShadow_929_61" result="shape"/>
</filter>
<filter id="filter1_d_929_61" x="169" y="99" width="199" height="87" filterUnits="userSpaceOnUse" color-interpolation-filters="sRGB">
<feFlood flood-opacity="0" result="BackgroundImageFix"/>
<feColorMatrix in="SourceAlpha" type="matrix" values="0 0 0 0 0 0 0 0 0 0 0 0 0 0 0 0 0 0 127 0" result="hardAlpha"/>
<feOffset dy="4"/>
<feGaussianBlur stdDeviation="8"/>
<feComposite in2="hardAlpha" operator="out"/>
<feColorMatrix type="matrix" values="0 0 0 0 0 0 0 0 0 0 0 0 0 0 0 0 0 0 0.05 0"/>
<feBlend mode="normal" in2="BackgroundImageFix" result="effect1_dropShadow_929_61"/>
<feBlend mode="normal" in="SourceGraphic" in2="effect1_dropShadow_929_61" result="shape"/>
</filter>
<filter id="filter2_d_929_61" x="323" y="0" width="199" height="87" filterUnits="userSpaceOnUse" color-interpolation-filters="sRGB">
<feFlood flood-opacity="0" result="BackgroundImageFix"/>
<feColorMatrix in="SourceAlpha" type="matrix" values="0 0 0 0 0 0 0 0 0 0 0 0 0 0 0 0 0 0 127 0" result="hardAlpha"/>
<feOffset dy="4"/>
<feGaussianBlur stdDeviation="8"/>
<feComposite in2="hardAlpha" operator="out"/>
<feColorMatrix type="matrix" values="0 0 0 0 0 0 0 0 0 0 0 0 0 0 0 0 0 0 0.05 0"/>
<feBlend mode="normal" in2="BackgroundImageFix" result="effect1_dropShadow_929_61"/>
<feBlend mode="normal" in="SourceGraphic" in2="effect1_dropShadow_929_61" result="shape"/>
</filter>
</defs>
</svg>
