<svg width="620" height="236" viewBox="0 0 620 236" fill="none" xmlns="http://www.w3.org/2000/svg">
<line x1="385" y1="50" x2="445" y2="50" stroke="#94A3B8" stroke-width="4" stroke-dasharray="6 6"/>
<line x1="385" y1="182" x2="445" y2="182" stroke="#94A3B8" stroke-width="4" stroke-dasharray="6 6"/>
<g filter="url(#filter0_d_701_33)">
<rect x="16" y="78" width="78" height="78" rx="8" fill="#64748B"/>
</g>
<g filter="url(#filter1_d_701_33)">
<rect x="144" y="12" width="251" height="79" rx="8" fill="#E2E8F0" shape-rendering="crispEdges"/>
<path fill-rule="evenodd" clip-rule="evenodd" d="M160.25 35C160.25 29.615 164.615 25.25 170 25.25C175.385 25.25 179.75 29.615 179.75 35C179.75 40.385 175.385 44.75 170 44.75C164.615 44.75 160.25 40.385 160.25 35ZM173.61 33.186C173.67 33.1061 173.713 33.0149 173.738 32.9179C173.762 32.821 173.767 32.7201 173.751 32.6214C173.736 32.5226 173.701 32.4278 173.649 32.3427C173.596 32.2576 173.528 32.1838 173.446 32.1257C173.365 32.0675 173.273 32.0262 173.175 32.0042C173.078 31.9822 172.977 31.9799 172.878 31.9975C172.78 32.015 172.686 32.0521 172.602 32.1064C172.518 32.1608 172.446 32.2313 172.39 32.314L169.154 36.844L167.53 35.22C167.388 35.0875 167.2 35.0154 167.005 35.0188C166.811 35.0223 166.626 35.101 166.488 35.2384C166.351 35.3758 166.272 35.5612 166.269 35.7555C166.265 35.9498 166.338 36.1378 166.47 36.28L168.72 38.53C168.797 38.6069 168.89 38.6662 168.992 38.7036C169.094 38.7411 169.203 38.7559 169.312 38.7469C169.42 38.738 169.525 38.7055 169.62 38.6519C169.715 38.5982 169.797 38.5245 169.86 38.436L173.61 33.186Z" fill="#00C4B8"/>
<path d="M192.688 33.848C192.976 33.3467 193.403 32.9307 193.968 32.6C194.544 32.2587 195.211 32.088 195.968 32.088C196.747 32.088 197.451 32.2747 198.08 32.648C198.72 33.0213 199.221 33.5493 199.584 34.232C199.947 34.904 200.128 35.688 200.128 36.584C200.128 37.4693 199.947 38.2587 199.584 38.952C199.221 39.6453 198.72 40.184 198.08 40.568C197.451 40.952 196.747 41.144 195.968 41.144C195.221 41.144 194.56 40.9787 193.984 40.648C193.419 40.3067 192.987 39.8853 192.688 39.384V45.16H191.232V32.232H192.688V33.848ZM198.64 36.584C198.64 35.9227 198.507 35.3467 198.24 34.856C197.973 34.3653 197.611 33.992 197.152 33.736C196.704 33.48 196.208 33.352 195.664 33.352C195.131 33.352 194.635 33.4853 194.176 33.752C193.728 34.008 193.365 34.3867 193.088 34.888C192.821 35.3787 192.688 35.9493 192.688 36.6C192.688 37.2613 192.821 37.8427 193.088 38.344C193.365 38.8347 193.728 39.2133 194.176 39.48C194.635 39.736 195.131 39.864 195.664 39.864C196.208 39.864 196.704 39.736 197.152 39.48C197.611 39.2133 197.973 38.8347 198.24 38.344C198.507 37.8427 198.64 37.256 198.64 36.584ZM210.045 36.28C210.045 36.5573 210.029 36.8507 209.997 37.16H202.989C203.042 38.024 203.335 38.7013 203.869 39.192C204.413 39.672 205.069 39.912 205.837 39.912C206.466 39.912 206.989 39.768 207.405 39.48C207.831 39.1813 208.13 38.7867 208.301 38.296H209.869C209.634 39.1387 209.165 39.8267 208.461 40.36C207.757 40.8827 206.882 41.144 205.837 41.144C205.005 41.144 204.258 40.9573 203.597 40.584C202.946 40.2107 202.434 39.6827 202.061 39C201.687 38.3067 201.501 37.5067 201.501 36.6C201.501 35.6933 201.682 34.8987 202.045 34.216C202.407 33.5333 202.914 33.0107 203.565 32.648C204.226 32.2747 204.983 32.088 205.837 32.088C206.669 32.088 207.405 32.2693 208.045 32.632C208.685 32.9947 209.175 33.496 209.517 34.136C209.869 34.7653 210.045 35.48 210.045 36.28ZM208.541 35.976C208.541 35.4213 208.418 34.9467 208.173 34.552C207.927 34.1467 207.591 33.8427 207.165 33.64C206.749 33.4267 206.285 33.32 205.773 33.32C205.037 33.32 204.407 33.5547 203.885 34.024C203.373 34.4933 203.079 35.144 203.005 35.976H208.541ZM213.422 33.656C213.678 33.1547 214.041 32.7653 214.51 32.488C214.99 32.2107 215.572 32.072 216.254 32.072V33.576H215.87C214.238 33.576 213.422 34.4613 213.422 36.232V41H211.966V32.232H213.422V33.656ZM221.503 33.432H219.663V41H218.207V33.432H217.071V32.232H218.207V31.608C218.207 30.6267 218.458 29.912 218.959 29.464C219.471 29.0053 220.287 28.776 221.407 28.776V29.992C220.767 29.992 220.314 30.12 220.047 30.376C219.791 30.6213 219.663 31.032 219.663 31.608V32.232H221.503V33.432ZM227.025 41.144C226.203 41.144 225.457 40.9573 224.785 40.584C224.123 40.2107 223.601 39.6827 223.217 39C222.843 38.3067 222.657 37.5067 222.657 36.6C222.657 35.704 222.849 34.9147 223.233 34.232C223.627 33.5387 224.161 33.0107 224.833 32.648C225.505 32.2747 226.257 32.088 227.089 32.088C227.921 32.088 228.673 32.2747 229.345 32.648C230.017 33.0107 230.545 33.5333 230.929 34.216C231.323 34.8987 231.521 35.6933 231.521 36.6C231.521 37.5067 231.318 38.3067 230.913 39C230.518 39.6827 229.979 40.2107 229.297 40.584C228.614 40.9573 227.857 41.144 227.025 41.144ZM227.025 39.864C227.547 39.864 228.038 39.7413 228.497 39.496C228.955 39.2507 229.323 38.8827 229.601 38.392C229.889 37.9013 230.033 37.304 230.033 36.6C230.033 35.896 229.894 35.2987 229.617 34.808C229.339 34.3173 228.977 33.9547 228.529 33.72C228.081 33.4747 227.595 33.352 227.073 33.352C226.539 33.352 226.049 33.4747 225.601 33.72C225.163 33.9547 224.811 34.3173 224.545 34.808C224.278 35.2987 224.145 35.896 224.145 36.6C224.145 37.3147 224.273 37.9173 224.529 38.408C224.795 38.8987 225.147 39.2667 225.585 39.512C226.022 39.7467 226.502 39.864 227.025 39.864ZM234.891 33.656C235.147 33.1547 235.51 32.7653 235.979 32.488C236.459 32.2107 237.04 32.072 237.723 32.072V33.576H237.339C235.707 33.576 234.891 34.4613 234.891 36.232V41H233.435V32.232H234.891V33.656ZM249.948 32.072C250.631 32.072 251.239 32.216 251.772 32.504C252.305 32.7813 252.727 33.2027 253.036 33.768C253.345 34.3333 253.5 35.0213 253.5 35.832V41H252.06V36.04C252.06 35.1653 251.841 34.4987 251.404 34.04C250.977 33.5707 250.396 33.336 249.66 33.336C248.903 33.336 248.3 33.5813 247.852 34.072C247.404 34.552 247.18 35.2507 247.18 36.168V41H245.74V36.04C245.74 35.1653 245.521 34.4987 245.084 34.04C244.657 33.5707 244.076 33.336 243.34 33.336C242.583 33.336 241.98 33.5813 241.532 34.072C241.084 34.552 240.86 35.2507 240.86 36.168V41H239.404V32.232H240.86V33.496C241.148 33.0373 241.532 32.6853 242.012 32.44C242.503 32.1947 243.041 32.072 243.628 32.072C244.364 32.072 245.015 32.2373 245.58 32.568C246.145 32.8987 246.567 33.384 246.844 34.024C247.089 33.4053 247.495 32.9253 248.06 32.584C248.625 32.2427 249.255 32.072 249.948 32.072ZM263.888 36.28C263.888 36.5573 263.872 36.8507 263.84 37.16H256.832C256.886 38.024 257.179 38.7013 257.712 39.192C258.256 39.672 258.912 39.912 259.68 39.912C260.31 39.912 260.832 39.768 261.248 39.48C261.675 39.1813 261.974 38.7867 262.144 38.296H263.712C263.478 39.1387 263.008 39.8267 262.304 40.36C261.6 40.8827 260.726 41.144 259.68 41.144C258.848 41.144 258.102 40.9573 257.44 40.584C256.79 40.2107 256.278 39.6827 255.904 39C255.531 38.3067 255.344 37.5067 255.344 36.6C255.344 35.6933 255.526 34.8987 255.888 34.216C256.251 33.5333 256.758 33.0107 257.408 32.648C258.07 32.2747 258.827 32.088 259.68 32.088C260.512 32.088 261.248 32.2693 261.888 32.632C262.528 32.9947 263.019 33.496 263.36 34.136C263.712 34.7653 263.888 35.48 263.888 36.28ZM262.384 35.976C262.384 35.4213 262.262 34.9467 262.016 34.552C261.771 34.1467 261.435 33.8427 261.008 33.64C260.592 33.4267 260.128 33.32 259.616 33.32C258.88 33.32 258.251 33.5547 257.728 34.024C257.216 34.4933 256.923 35.144 256.848 35.976H262.384ZM265.266 36.584C265.266 35.688 265.447 34.904 265.81 34.232C266.173 33.5493 266.669 33.0213 267.298 32.648C267.938 32.2747 268.653 32.088 269.442 32.088C270.125 32.088 270.759 32.248 271.346 32.568C271.933 32.8773 272.381 33.288 272.69 33.8V29.16H274.162V41H272.69V39.352C272.402 39.8747 271.975 40.3067 271.41 40.648C270.845 40.9787 270.183 41.144 269.426 41.144C268.647 41.144 267.938 40.952 267.298 40.568C266.669 40.184 266.173 39.6453 265.81 38.952C265.447 38.2587 265.266 37.4693 265.266 36.584ZM272.69 36.6C272.69 35.9387 272.557 35.3627 272.29 34.872C272.023 34.3813 271.661 34.008 271.202 33.752C270.754 33.4853 270.258 33.352 269.714 33.352C269.17 33.352 268.674 33.48 268.226 33.736C267.778 33.992 267.421 34.3653 267.154 34.856C266.887 35.3467 266.754 35.9227 266.754 36.584C266.754 37.256 266.887 37.8427 267.154 38.344C267.421 38.8347 267.778 39.2133 268.226 39.48C268.674 39.736 269.17 39.864 269.714 39.864C270.258 39.864 270.754 39.736 271.202 39.48C271.661 39.2133 272.023 38.8347 272.29 38.344C272.557 37.8427 272.69 37.2613 272.69 36.6ZM285.784 41L282.344 37.128V41H280.888V29.16H282.344V36.12L285.72 32.232H287.752L283.624 36.6L287.768 41H285.784ZM297.123 36.28C297.123 36.5573 297.107 36.8507 297.075 37.16H290.067C290.12 38.024 290.413 38.7013 290.947 39.192C291.491 39.672 292.147 39.912 292.915 39.912C293.544 39.912 294.067 39.768 294.483 39.48C294.909 39.1813 295.208 38.7867 295.379 38.296H296.947C296.712 39.1387 296.243 39.8267 295.539 40.36C294.835 40.8827 293.96 41.144 292.915 41.144C292.083 41.144 291.336 40.9573 290.675 40.584C290.024 40.2107 289.512 39.6827 289.139 39C288.765 38.3067 288.579 37.5067 288.579 36.6C288.579 35.6933 288.76 34.8987 289.123 34.216C289.485 33.5333 289.992 33.0107 290.643 32.648C291.304 32.2747 292.061 32.088 292.915 32.088C293.747 32.088 294.483 32.2693 295.123 32.632C295.763 32.9947 296.253 33.496 296.595 34.136C296.947 34.7653 297.123 35.48 297.123 36.28ZM295.619 35.976C295.619 35.4213 295.496 34.9467 295.251 34.552C295.005 34.1467 294.669 33.8427 294.243 33.64C293.827 33.4267 293.363 33.32 292.851 33.32C292.115 33.32 291.485 33.5547 290.963 34.024C290.451 34.4933 290.157 35.144 290.083 35.976H295.619ZM306.597 32.232L301.317 45.128H299.812L301.541 40.904L298.005 32.232H299.621L302.373 39.336L305.093 32.232H306.597ZM311.782 36.584C311.782 35.688 311.963 34.904 312.326 34.232C312.688 33.5493 313.184 33.0213 313.814 32.648C314.454 32.2747 315.163 32.088 315.942 32.088C316.71 32.088 317.376 32.2533 317.942 32.584C318.507 32.9147 318.928 33.3307 319.206 33.832V32.232H320.678V41H319.206V39.368C318.918 39.88 318.486 40.3067 317.91 40.648C317.344 40.9787 316.683 41.144 315.926 41.144C315.147 41.144 314.443 40.952 313.814 40.568C313.184 40.184 312.688 39.6453 312.326 38.952C311.963 38.2587 311.782 37.4693 311.782 36.584ZM319.206 36.6C319.206 35.9387 319.072 35.3627 318.806 34.872C318.539 34.3813 318.176 34.008 317.718 33.752C317.27 33.4853 316.774 33.352 316.23 33.352C315.686 33.352 315.19 33.48 314.742 33.736C314.294 33.992 313.936 34.3653 313.67 34.856C313.403 35.3467 313.27 35.9227 313.27 36.584C313.27 37.256 313.403 37.8427 313.67 38.344C313.936 38.8347 314.294 39.2133 314.742 39.48C315.19 39.736 315.686 39.864 316.23 39.864C316.774 39.864 317.27 39.736 317.718 39.48C318.176 39.2133 318.539 38.8347 318.806 38.344C319.072 37.8427 319.206 37.2613 319.206 36.6ZM322.594 36.6C322.594 35.6933 322.776 34.904 323.138 34.232C323.501 33.5493 324.002 33.0213 324.642 32.648C325.293 32.2747 326.034 32.088 326.866 32.088C327.944 32.088 328.829 32.3493 329.522 32.872C330.226 33.3947 330.69 34.12 330.914 35.048H329.346C329.197 34.5147 328.904 34.0933 328.466 33.784C328.04 33.4747 327.506 33.32 326.866 33.32C326.034 33.32 325.362 33.608 324.85 34.184C324.338 34.7493 324.082 35.5547 324.082 36.6C324.082 37.656 324.338 38.472 324.85 39.048C325.362 39.624 326.034 39.912 326.866 39.912C327.506 39.912 328.04 39.7627 328.466 39.464C328.893 39.1653 329.186 38.7387 329.346 38.184H330.914C330.68 39.08 330.21 39.8 329.506 40.344C328.802 40.8773 327.922 41.144 326.866 41.144C326.034 41.144 325.293 40.9573 324.642 40.584C324.002 40.2107 323.501 39.6827 323.138 39C322.776 38.3173 322.594 37.5173 322.594 36.6ZM334.633 33.432V38.6C334.633 39.0267 334.724 39.3307 334.905 39.512C335.086 39.6827 335.401 39.768 335.849 39.768H336.921V41H335.609C334.798 41 334.19 40.8133 333.785 40.44C333.38 40.0667 333.177 39.4533 333.177 38.6V33.432H332.041V32.232H333.177V30.024H334.633V32.232H336.921V33.432H334.633ZM339.437 30.808C339.16 30.808 338.925 30.712 338.733 30.52C338.541 30.328 338.445 30.0933 338.445 29.816C338.445 29.5387 338.541 29.304 338.733 29.112C338.925 28.92 339.16 28.824 339.437 28.824C339.704 28.824 339.928 28.92 340.109 29.112C340.301 29.304 340.397 29.5387 340.397 29.816C340.397 30.0933 340.301 30.328 340.109 30.52C339.928 30.712 339.704 30.808 339.437 30.808ZM340.141 32.232V41H338.685V32.232H340.141ZM346.447 41.144C345.625 41.144 344.879 40.9573 344.207 40.584C343.545 40.2107 343.023 39.6827 342.639 39C342.265 38.3067 342.079 37.5067 342.079 36.6C342.079 35.704 342.271 34.9147 342.655 34.232C343.049 33.5387 343.583 33.0107 344.255 32.648C344.927 32.2747 345.679 32.088 346.511 32.088C347.343 32.088 348.095 32.2747 348.767 32.648C349.439 33.0107 349.967 33.5333 350.351 34.216C350.745 34.8987 350.943 35.6933 350.943 36.6C350.943 37.5067 350.74 38.3067 350.335 39C349.94 39.6827 349.401 40.2107 348.719 40.584C348.036 40.9573 347.279 41.144 346.447 41.144ZM346.447 39.864C346.969 39.864 347.46 39.7413 347.919 39.496C348.377 39.2507 348.745 38.8827 349.023 38.392C349.311 37.9013 349.455 37.304 349.455 36.6C349.455 35.896 349.316 35.2987 349.039 34.808C348.761 34.3173 348.399 33.9547 347.951 33.72C347.503 33.4747 347.017 33.352 346.495 33.352C345.961 33.352 345.471 33.4747 345.023 33.72C344.585 33.9547 344.233 34.3173 343.967 34.808C343.7 35.2987 343.567 35.896 343.567 36.6C343.567 37.3147 343.695 37.9173 343.951 38.408C344.217 38.8987 344.569 39.2667 345.007 39.512C345.444 39.7467 345.924 39.864 346.447 39.864ZM357.129 32.072C358.196 32.072 359.06 32.3973 359.721 33.048C360.382 33.688 360.713 34.616 360.713 35.832V41H359.273V36.04C359.273 35.1653 359.054 34.4987 358.617 34.04C358.18 33.5707 357.582 33.336 356.825 33.336C356.057 33.336 355.444 33.576 354.985 34.056C354.537 34.536 354.313 35.2347 354.313 36.152V41H352.857V32.232H354.313V33.48C354.601 33.032 354.99 32.6853 355.481 32.44C355.982 32.1947 356.532 32.072 357.129 32.072Z" fill="#1E293B"/>
<path fill-rule="evenodd" clip-rule="evenodd" d="M160.25 70C160.25 64.615 164.615 60.25 170 60.25C175.385 60.25 179.75 64.615 179.75 70C179.75 75.385 175.385 79.75 170 79.75C164.615 79.75 160.25 75.385 160.25 70ZM173.61 68.186C173.67 68.1061 173.713 68.0149 173.738 67.9179C173.762 67.821 173.767 67.7201 173.751 67.6214C173.736 67.5226 173.701 67.4278 173.649 67.3427C173.596 67.2576 173.528 67.1838 173.446 67.1257C173.365 67.0675 173.273 67.0262 173.175 67.0042C173.078 66.9822 172.977 66.9799 172.878 66.9975C172.78 67.015 172.686 67.0521 172.602 67.1064C172.518 67.1608 172.446 67.2313 172.39 67.314L169.154 71.844L167.53 70.22C167.388 70.0875 167.2 70.0154 167.005 70.0188C166.811 70.0223 166.626 70.101 166.488 70.2384C166.351 70.3758 166.272 70.5612 166.269 70.7555C166.265 70.9498 166.338 71.1378 166.47 71.28L168.72 73.53C168.797 73.6069 168.89 73.6662 168.992 73.7036C169.094 73.7411 169.203 73.7559 169.312 73.7469C169.42 73.738 169.525 73.7055 169.62 73.6519C169.715 73.5982 169.797 73.5245 169.86 73.436L173.61 68.186Z" fill="#00C4B8"/>
<path d="M194.336 74.144C193.664 74.144 193.061 74.032 192.528 73.808C191.995 73.5733 191.573 73.2533 191.264 72.848C190.955 72.432 190.784 71.9573 190.752 71.424H192.256C192.299 71.8613 192.501 72.2187 192.864 72.496C193.237 72.7733 193.723 72.912 194.32 72.912C194.875 72.912 195.312 72.7893 195.632 72.544C195.952 72.2987 196.112 71.9893 196.112 71.616C196.112 71.232 195.941 70.9493 195.6 70.768C195.259 70.576 194.731 70.3893 194.016 70.208C193.365 70.0373 192.832 69.8667 192.416 69.696C192.011 69.5147 191.659 69.2533 191.36 68.912C191.072 68.56 190.928 68.1013 190.928 67.536C190.928 67.088 191.061 66.6773 191.328 66.304C191.595 65.9307 191.973 65.6373 192.464 65.424C192.955 65.2 193.515 65.088 194.144 65.088C195.115 65.088 195.899 65.3333 196.496 65.824C197.093 66.3147 197.413 66.9867 197.456 67.84H196C195.968 67.3813 195.781 67.0133 195.44 66.736C195.109 66.4587 194.661 66.32 194.096 66.32C193.573 66.32 193.157 66.432 192.848 66.656C192.539 66.88 192.384 67.1733 192.384 67.536C192.384 67.824 192.475 68.064 192.656 68.256C192.848 68.4373 193.083 68.5867 193.36 68.704C193.648 68.8107 194.043 68.9333 194.544 69.072C195.173 69.2427 195.685 69.4133 196.08 69.584C196.475 69.744 196.811 69.9893 197.088 70.32C197.376 70.6507 197.525 71.0827 197.536 71.616C197.536 72.096 197.403 72.528 197.136 72.912C196.869 73.296 196.491 73.6 196 73.824C195.52 74.0373 194.965 74.144 194.336 74.144ZM200.343 63.808C200.066 63.808 199.831 63.712 199.639 63.52C199.447 63.328 199.351 63.0933 199.351 62.816C199.351 62.5387 199.447 62.304 199.639 62.112C199.831 61.92 200.066 61.824 200.343 61.824C200.61 61.824 200.834 61.92 201.015 62.112C201.207 62.304 201.303 62.5387 201.303 62.816C201.303 63.0933 201.207 63.328 201.015 63.52C200.834 63.712 200.61 63.808 200.343 63.808ZM201.047 65.232V74H199.591V65.232H201.047ZM207.145 65.088C207.902 65.088 208.564 65.2533 209.129 65.584C209.705 65.9147 210.132 66.3307 210.409 66.832V65.232H211.881V74.192C211.881 74.992 211.71 75.7013 211.369 76.32C211.028 76.9493 210.537 77.44 209.897 77.792C209.268 78.144 208.532 78.32 207.689 78.32C206.537 78.32 205.577 78.048 204.809 77.504C204.041 76.96 203.588 76.2187 203.449 75.28H204.889C205.049 75.8133 205.38 76.24 205.881 76.56C206.382 76.8907 206.985 77.056 207.689 77.056C208.489 77.056 209.14 76.8053 209.641 76.304C210.153 75.8027 210.409 75.0987 210.409 74.192V72.352C210.121 72.864 209.694 73.2907 209.129 73.632C208.564 73.9733 207.902 74.144 207.145 74.144C206.366 74.144 205.657 73.952 205.017 73.568C204.388 73.184 203.892 72.6453 203.529 71.952C203.166 71.2587 202.985 70.4693 202.985 69.584C202.985 68.688 203.166 67.904 203.529 67.232C203.892 66.5493 204.388 66.0213 205.017 65.648C205.657 65.2747 206.366 65.088 207.145 65.088ZM210.409 69.6C210.409 68.9387 210.276 68.3627 210.009 67.872C209.742 67.3813 209.38 67.008 208.921 66.752C208.473 66.4853 207.977 66.352 207.433 66.352C206.889 66.352 206.393 66.48 205.945 66.736C205.497 66.992 205.14 67.3653 204.873 67.856C204.606 68.3467 204.473 68.9227 204.473 69.584C204.473 70.256 204.606 70.8427 204.873 71.344C205.14 71.8347 205.497 72.2133 205.945 72.48C206.393 72.736 206.889 72.864 207.433 72.864C207.977 72.864 208.473 72.736 208.921 72.48C209.38 72.2133 209.742 71.8347 210.009 71.344C210.276 70.8427 210.409 70.2613 210.409 69.6ZM218.613 65.072C219.68 65.072 220.544 65.3973 221.205 66.048C221.867 66.688 222.197 67.616 222.197 68.832V74H220.757V69.04C220.757 68.1653 220.539 67.4987 220.101 67.04C219.664 66.5707 219.067 66.336 218.309 66.336C217.541 66.336 216.928 66.576 216.469 67.056C216.021 67.536 215.797 68.2347 215.797 69.152V74H214.341V65.232H215.797V66.48C216.085 66.032 216.475 65.6853 216.965 65.44C217.467 65.1947 218.016 65.072 218.613 65.072ZM232.576 69.28C232.576 69.5573 232.56 69.8507 232.528 70.16H225.52C225.573 71.024 225.866 71.7013 226.4 72.192C226.944 72.672 227.6 72.912 228.368 72.912C228.997 72.912 229.52 72.768 229.936 72.48C230.362 72.1813 230.661 71.7867 230.832 71.296H232.4C232.165 72.1387 231.696 72.8267 230.992 73.36C230.288 73.8827 229.413 74.144 228.368 74.144C227.536 74.144 226.789 73.9573 226.128 73.584C225.477 73.2107 224.965 72.6827 224.592 72C224.218 71.3067 224.032 70.5067 224.032 69.6C224.032 68.6933 224.213 67.8987 224.576 67.216C224.938 66.5333 225.445 66.0107 226.096 65.648C226.757 65.2747 227.514 65.088 228.368 65.088C229.2 65.088 229.936 65.2693 230.576 65.632C231.216 65.9947 231.706 66.496 232.048 67.136C232.4 67.7653 232.576 68.48 232.576 69.28ZM231.072 68.976C231.072 68.4213 230.949 67.9467 230.704 67.552C230.458 67.1467 230.122 66.8427 229.696 66.64C229.28 66.4267 228.816 66.32 228.304 66.32C227.568 66.32 226.938 66.5547 226.416 67.024C225.904 67.4933 225.61 68.144 225.536 68.976H231.072ZM233.954 69.584C233.954 68.688 234.135 67.904 234.498 67.232C234.86 66.5493 235.356 66.0213 235.986 65.648C236.626 65.2747 237.34 65.088 238.13 65.088C238.812 65.088 239.447 65.248 240.034 65.568C240.62 65.8773 241.068 66.288 241.378 66.8V62.16H242.85V74H241.378V72.352C241.09 72.8747 240.663 73.3067 240.098 73.648C239.532 73.9787 238.871 74.144 238.114 74.144C237.335 74.144 236.626 73.952 235.986 73.568C235.356 73.184 234.86 72.6453 234.498 71.952C234.135 71.2587 233.954 70.4693 233.954 69.584ZM241.378 69.6C241.378 68.9387 241.244 68.3627 240.978 67.872C240.711 67.3813 240.348 67.008 239.89 66.752C239.442 66.4853 238.946 66.352 238.402 66.352C237.858 66.352 237.362 66.48 236.914 66.736C236.466 66.992 236.108 67.3653 235.842 67.856C235.575 68.3467 235.442 68.9227 235.442 69.584C235.442 70.256 235.575 70.8427 235.842 71.344C236.108 71.8347 236.466 72.2133 236.914 72.48C237.362 72.736 237.858 72.864 238.402 72.864C238.946 72.864 239.442 72.736 239.89 72.48C240.348 72.2133 240.711 71.8347 240.978 71.344C241.244 70.8427 241.378 70.2613 241.378 69.6ZM257.352 65.232V74H255.896V72.704C255.618 73.152 255.229 73.504 254.728 73.76C254.237 74.0053 253.693 74.128 253.096 74.128C252.413 74.128 251.8 73.9893 251.256 73.712C250.712 73.424 250.28 72.9973 249.96 72.432C249.65 71.8667 249.496 71.1787 249.496 70.368V65.232H250.936V70.176C250.936 71.04 251.154 71.7067 251.592 72.176C252.029 72.6347 252.626 72.864 253.384 72.864C254.162 72.864 254.776 72.624 255.224 72.144C255.672 71.664 255.896 70.9653 255.896 70.048V65.232H257.352ZM261.266 66.848C261.554 66.3467 261.981 65.9307 262.546 65.6C263.122 65.2587 263.789 65.088 264.546 65.088C265.325 65.088 266.029 65.2747 266.658 65.648C267.298 66.0213 267.799 66.5493 268.162 67.232C268.525 67.904 268.706 68.688 268.706 69.584C268.706 70.4693 268.525 71.2587 268.162 71.952C267.799 72.6453 267.298 73.184 266.658 73.568C266.029 73.952 265.325 74.144 264.546 74.144C263.799 74.144 263.138 73.9787 262.562 73.648C261.997 73.3067 261.565 72.8853 261.266 72.384V78.16H259.81V65.232H261.266V66.848ZM267.218 69.584C267.218 68.9227 267.085 68.3467 266.818 67.856C266.551 67.3653 266.189 66.992 265.73 66.736C265.282 66.48 264.786 66.352 264.242 66.352C263.709 66.352 263.213 66.4853 262.754 66.752C262.306 67.008 261.943 67.3867 261.666 67.888C261.399 68.3787 261.266 68.9493 261.266 69.6C261.266 70.2613 261.399 70.8427 261.666 71.344C261.943 71.8347 262.306 72.2133 262.754 72.48C263.213 72.736 263.709 72.864 264.242 72.864C264.786 72.864 265.282 72.736 265.73 72.48C266.189 72.2133 266.551 71.8347 266.818 71.344C267.085 70.8427 267.218 70.256 267.218 69.584ZM275.16 64.48H277L280.872 68.144L277 71.824H275.16L279.032 68.144L275.16 64.48ZM283.097 72.832C284.452 71.744 285.513 70.8533 286.281 70.16C287.049 69.456 287.695 68.7253 288.217 67.968C288.751 67.2 289.017 66.448 289.017 65.712C289.017 65.0187 288.847 64.4747 288.505 64.08C288.175 63.6747 287.636 63.472 286.889 63.472C286.164 63.472 285.599 63.7013 285.193 64.16C284.799 64.608 284.585 65.2107 284.553 65.968H283.145C283.188 64.7733 283.551 63.8507 284.233 63.2C284.916 62.5493 285.796 62.224 286.873 62.224C287.972 62.224 288.841 62.528 289.481 63.136C290.132 63.744 290.457 64.5813 290.457 65.648C290.457 66.5333 290.191 67.3973 289.657 68.24C289.135 69.072 288.537 69.808 287.865 70.448C287.193 71.0773 286.335 71.8133 285.289 72.656H290.793V73.872H283.097V72.832ZM294.588 67.984C293.991 67.7493 293.532 67.408 293.212 66.96C292.892 66.512 292.732 65.968 292.732 65.328C292.732 64.752 292.876 64.2347 293.164 63.776C293.452 63.3067 293.879 62.9387 294.444 62.672C295.02 62.3947 295.714 62.256 296.524 62.256C297.335 62.256 298.023 62.3947 298.588 62.672C299.164 62.9387 299.596 63.3067 299.884 63.776C300.183 64.2347 300.332 64.752 300.332 65.328C300.332 65.9467 300.167 66.4907 299.836 66.96C299.506 67.4187 299.052 67.76 298.476 67.984C299.138 68.1867 299.66 68.544 300.044 69.056C300.439 69.5573 300.636 70.1653 300.636 70.88C300.636 71.5733 300.466 72.1813 300.124 72.704C299.783 73.216 299.298 73.616 298.668 73.904C298.05 74.1813 297.335 74.32 296.524 74.32C295.714 74.32 294.999 74.1813 294.38 73.904C293.772 73.616 293.298 73.216 292.956 72.704C292.615 72.1813 292.444 71.5733 292.444 70.88C292.444 70.1653 292.636 69.552 293.02 69.04C293.404 68.528 293.927 68.176 294.588 67.984ZM298.924 65.504C298.924 64.8533 298.711 64.352 298.284 64C297.858 63.648 297.271 63.472 296.524 63.472C295.788 63.472 295.207 63.648 294.78 64C294.354 64.352 294.14 64.8587 294.14 65.52C294.14 66.1173 294.359 66.5973 294.796 66.96C295.244 67.3227 295.82 67.504 296.524 67.504C297.239 67.504 297.815 67.3227 298.252 66.96C298.7 66.5867 298.924 66.1013 298.924 65.504ZM296.524 68.624C295.735 68.624 295.09 68.8107 294.588 69.184C294.087 69.5467 293.836 70.096 293.836 70.832C293.836 71.5147 294.076 72.064 294.556 72.48C295.047 72.896 295.703 73.104 296.524 73.104C297.346 73.104 297.996 72.896 298.476 72.48C298.956 72.064 299.196 71.5147 299.196 70.832C299.196 70.1173 298.951 69.5733 298.46 69.2C297.97 68.816 297.324 68.624 296.524 68.624ZM306.532 69.584C306.532 68.688 306.713 67.904 307.076 67.232C307.438 66.5493 307.934 66.0213 308.564 65.648C309.204 65.2747 309.918 65.088 310.708 65.088C311.39 65.088 312.025 65.248 312.612 65.568C313.198 65.8773 313.646 66.288 313.956 66.8V62.16H315.428V74H313.956V72.352C313.668 72.8747 313.241 73.3067 312.676 73.648C312.11 73.9787 311.449 74.144 310.692 74.144C309.913 74.144 309.204 73.952 308.564 73.568C307.934 73.184 307.438 72.6453 307.076 71.952C306.713 71.2587 306.532 70.4693 306.532 69.584ZM313.956 69.6C313.956 68.9387 313.822 68.3627 313.556 67.872C313.289 67.3813 312.926 67.008 312.468 66.752C312.02 66.4853 311.524 66.352 310.98 66.352C310.436 66.352 309.94 66.48 309.492 66.736C309.044 66.992 308.686 67.3653 308.42 67.856C308.153 68.3467 308.02 68.9227 308.02 69.584C308.02 70.256 308.153 70.8427 308.42 71.344C308.686 71.8347 309.044 72.2133 309.492 72.48C309.94 72.736 310.436 72.864 310.98 72.864C311.524 72.864 312.02 72.736 312.468 72.48C312.926 72.2133 313.289 71.8347 313.556 71.344C313.822 70.8427 313.956 70.2613 313.956 69.6ZM317.344 69.584C317.344 68.688 317.526 67.904 317.888 67.232C318.251 66.5493 318.747 66.0213 319.376 65.648C320.016 65.2747 320.726 65.088 321.504 65.088C322.272 65.088 322.939 65.2533 323.504 65.584C324.07 65.9147 324.491 66.3307 324.768 66.832V65.232H326.24V74H324.768V72.368C324.48 72.88 324.048 73.3067 323.472 73.648C322.907 73.9787 322.246 74.144 321.488 74.144C320.71 74.144 320.006 73.952 319.376 73.568C318.747 73.184 318.251 72.6453 317.888 71.952C317.526 71.2587 317.344 70.4693 317.344 69.584ZM324.768 69.6C324.768 68.9387 324.635 68.3627 324.368 67.872C324.102 67.3813 323.739 67.008 323.28 66.752C322.832 66.4853 322.336 66.352 321.792 66.352C321.248 66.352 320.752 66.48 320.304 66.736C319.856 66.992 319.499 67.3653 319.232 67.856C318.966 68.3467 318.832 68.9227 318.832 69.584C318.832 70.256 318.966 70.8427 319.232 71.344C319.499 71.8347 319.856 72.2133 320.304 72.48C320.752 72.736 321.248 72.864 321.792 72.864C322.336 72.864 322.832 72.736 323.28 72.48C323.739 72.2133 324.102 71.8347 324.368 71.344C324.635 70.8427 324.768 70.2613 324.768 69.6ZM336.253 65.232L330.973 78.128H329.469L331.197 73.904L327.661 65.232H329.277L332.029 72.336L334.749 65.232H336.253ZM340.82 74.144C340.148 74.144 339.546 74.032 339.012 73.808C338.479 73.5733 338.058 73.2533 337.748 72.848C337.439 72.432 337.268 71.9573 337.236 71.424H338.74C338.783 71.8613 338.986 72.2187 339.348 72.496C339.722 72.7733 340.207 72.912 340.804 72.912C341.359 72.912 341.796 72.7893 342.116 72.544C342.436 72.2987 342.596 71.9893 342.596 71.616C342.596 71.232 342.426 70.9493 342.084 70.768C341.743 70.576 341.215 70.3893 340.5 70.208C339.85 70.0373 339.316 69.8667 338.9 69.696C338.495 69.5147 338.143 69.2533 337.844 68.912C337.556 68.56 337.412 68.1013 337.412 67.536C337.412 67.088 337.546 66.6773 337.812 66.304C338.079 65.9307 338.458 65.6373 338.948 65.424C339.439 65.2 339.999 65.088 340.628 65.088C341.599 65.088 342.383 65.3333 342.98 65.824C343.578 66.3147 343.898 66.9867 343.94 67.84H342.484C342.452 67.3813 342.266 67.0133 341.924 66.736C341.594 66.4587 341.146 66.32 340.58 66.32C340.058 66.32 339.642 66.432 339.332 66.656C339.023 66.88 338.868 67.1733 338.868 67.536C338.868 67.824 338.959 68.064 339.14 68.256C339.332 68.4373 339.567 68.5867 339.844 68.704C340.132 68.8107 340.527 68.9333 341.028 69.072C341.658 69.2427 342.17 69.4133 342.564 69.584C342.959 69.744 343.295 69.9893 343.572 70.32C343.86 70.6507 344.01 71.0827 344.02 71.616C344.02 72.096 343.887 72.528 343.62 72.912C343.354 73.296 342.975 73.6 342.484 73.824C342.004 74.0373 341.45 74.144 340.82 74.144ZM349.797 69.584C349.797 68.688 349.979 67.904 350.341 67.232C350.704 66.5493 351.2 66.0213 351.829 65.648C352.469 65.2747 353.179 65.088 353.957 65.088C354.725 65.088 355.392 65.2533 355.957 65.584C356.523 65.9147 356.944 66.3307 357.221 66.832V65.232H358.693V74H357.221V72.368C356.933 72.88 356.501 73.3067 355.925 73.648C355.36 73.9787 354.699 74.144 353.941 74.144C353.163 74.144 352.459 73.952 351.829 73.568C351.2 73.184 350.704 72.6453 350.341 71.952C349.979 71.2587 349.797 70.4693 349.797 69.584ZM357.221 69.6C357.221 68.9387 357.088 68.3627 356.821 67.872C356.555 67.3813 356.192 67.008 355.733 66.752C355.285 66.4853 354.789 66.352 354.245 66.352C353.701 66.352 353.205 66.48 352.757 66.736C352.309 66.992 351.952 67.3653 351.685 67.856C351.419 68.3467 351.285 68.9227 351.285 69.584C351.285 70.256 351.419 70.8427 351.685 71.344C351.952 71.8347 352.309 72.2133 352.757 72.48C353.205 72.736 353.701 72.864 354.245 72.864C354.789 72.864 355.285 72.736 355.733 72.48C356.192 72.2133 356.555 71.8347 356.821 71.344C357.088 70.8427 357.221 70.2613 357.221 69.6ZM364.77 65.088C365.527 65.088 366.189 65.2533 366.754 65.584C367.33 65.9147 367.757 66.3307 368.034 66.832V65.232H369.506V74.192C369.506 74.992 369.335 75.7013 368.994 76.32C368.653 76.9493 368.162 77.44 367.522 77.792C366.893 78.144 366.157 78.32 365.314 78.32C364.162 78.32 363.202 78.048 362.434 77.504C361.666 76.96 361.213 76.2187 361.074 75.28H362.514C362.674 75.8133 363.005 76.24 363.506 76.56C364.007 76.8907 364.61 77.056 365.314 77.056C366.114 77.056 366.765 76.8053 367.266 76.304C367.778 75.8027 368.034 75.0987 368.034 74.192V72.352C367.746 72.864 367.319 73.2907 366.754 73.632C366.189 73.9733 365.527 74.144 364.77 74.144C363.991 74.144 363.282 73.952 362.642 73.568C362.013 73.184 361.517 72.6453 361.154 71.952C360.791 71.2587 360.61 70.4693 360.61 69.584C360.61 68.688 360.791 67.904 361.154 67.232C361.517 66.5493 362.013 66.0213 362.642 65.648C363.282 65.2747 363.991 65.088 364.77 65.088ZM368.034 69.6C368.034 68.9387 367.901 68.3627 367.634 67.872C367.367 67.3813 367.005 67.008 366.546 66.752C366.098 66.4853 365.602 66.352 365.058 66.352C364.514 66.352 364.018 66.48 363.57 66.736C363.122 66.992 362.765 67.3653 362.498 67.856C362.231 68.3467 362.098 68.9227 362.098 69.584C362.098 70.256 362.231 70.8427 362.498 71.344C362.765 71.8347 363.122 72.2133 363.57 72.48C364.018 72.736 364.514 72.864 365.058 72.864C365.602 72.864 366.098 72.736 366.546 72.48C367.005 72.2133 367.367 71.8347 367.634 71.344C367.901 70.8427 368.034 70.2613 368.034 69.6ZM375.79 74.144C374.969 74.144 374.222 73.9573 373.55 73.584C372.889 73.2107 372.366 72.6827 371.982 72C371.609 71.3067 371.422 70.5067 371.422 69.6C371.422 68.704 371.614 67.9147 371.998 67.232C372.393 66.5387 372.926 66.0107 373.598 65.648C374.27 65.2747 375.022 65.088 375.854 65.088C376.686 65.088 377.438 65.2747 378.11 65.648C378.782 66.0107 379.31 66.5333 379.694 67.216C380.089 67.8987 380.286 68.6933 380.286 69.6C380.286 70.5067 380.084 71.3067 379.678 72C379.284 72.6827 378.745 73.2107 378.062 73.584C377.38 73.9573 376.622 74.144 375.79 74.144ZM375.79 72.864C376.313 72.864 376.804 72.7413 377.262 72.496C377.721 72.2507 378.089 71.8827 378.366 71.392C378.654 70.9013 378.798 70.304 378.798 69.6C378.798 68.896 378.66 68.2987 378.382 67.808C378.105 67.3173 377.742 66.9547 377.294 66.72C376.846 66.4747 376.361 66.352 375.838 66.352C375.305 66.352 374.814 66.4747 374.366 66.72C373.929 66.9547 373.577 67.3173 373.31 67.808C373.044 68.2987 372.91 68.896 372.91 69.6C372.91 70.3147 373.038 70.9173 373.294 71.408C373.561 71.8987 373.913 72.2667 374.35 72.512C374.788 72.7467 375.268 72.864 375.79 72.864Z" fill="#1E293B"/>
</g>
<g filter="url(#filter2_d_701_33)">
<rect x="445" y="29" width="159" height="46" rx="8" fill="#00C4B8" shape-rendering="crispEdges"/>
<path d="M471 55C471.796 55 472.559 54.6839 473.121 54.1213C473.684 53.5587 474 52.7956 474 52C474 51.2044 473.684 50.4413 473.121 49.8787C472.559 49.3161 471.796 49 471 49C470.204 49 469.441 49.3161 468.879 49.8787C468.316 50.4413 468 51.2044 468 52C468 52.7956 468.316 53.5587 468.879 54.1213C469.441 54.6839 470.204 55 471 55Z" fill="#F8FAFC"/>
<path fill-rule="evenodd" clip-rule="evenodd" d="M460.323 51.447C461.811 46.976 466.028 43.75 471.001 43.75C475.971 43.75 480.186 46.973 481.676 51.44C481.796 51.802 481.796 52.192 481.676 52.553C480.189 57.024 475.971 60.25 470.999 60.25C466.029 60.25 461.813 57.027 460.324 52.56C460.203 52.1987 460.203 51.8083 460.324 51.447H460.323ZM476.25 52C476.25 53.3924 475.696 54.7277 474.712 55.7123C473.727 56.6969 472.392 57.25 471 57.25C469.607 57.25 468.272 56.6969 467.287 55.7123C466.303 54.7277 465.75 53.3924 465.75 52C465.75 50.6076 466.303 49.2723 467.287 48.2877C468.272 47.3031 469.607 46.75 471 46.75C472.392 46.75 473.727 47.3031 474.712 48.2877C475.696 49.2723 476.25 50.6076 476.25 52Z" fill="#F8FAFC"/>
<path d="M495.336 58.144C494.664 58.144 494.061 58.032 493.528 57.808C492.995 57.5733 492.573 57.2533 492.264 56.848C491.955 56.432 491.784 55.9573 491.752 55.424H493.256C493.299 55.8613 493.501 56.2187 493.864 56.496C494.237 56.7733 494.723 56.912 495.32 56.912C495.875 56.912 496.312 56.7893 496.632 56.544C496.952 56.2987 497.112 55.9893 497.112 55.616C497.112 55.232 496.941 54.9493 496.6 54.768C496.259 54.576 495.731 54.3893 495.016 54.208C494.365 54.0373 493.832 53.8667 493.416 53.696C493.011 53.5147 492.659 53.2533 492.36 52.912C492.072 52.56 491.928 52.1013 491.928 51.536C491.928 51.088 492.061 50.6773 492.328 50.304C492.595 49.9307 492.973 49.6373 493.464 49.424C493.955 49.2 494.515 49.088 495.144 49.088C496.115 49.088 496.899 49.3333 497.496 49.824C498.093 50.3147 498.413 50.9867 498.456 51.84H497C496.968 51.3813 496.781 51.0133 496.44 50.736C496.109 50.4587 495.661 50.32 495.096 50.32C494.573 50.32 494.157 50.432 493.848 50.656C493.539 50.88 493.384 51.1733 493.384 51.536C493.384 51.824 493.475 52.064 493.656 52.256C493.848 52.4373 494.083 52.5867 494.36 52.704C494.648 52.8107 495.043 52.9333 495.544 53.072C496.173 53.2427 496.685 53.4133 497.08 53.584C497.475 53.744 497.811 53.9893 498.088 54.32C498.376 54.6507 498.525 55.0827 498.536 55.616C498.536 56.096 498.403 56.528 498.136 56.912C497.869 57.296 497.491 57.6 497 57.824C496.52 58.0373 495.965 58.144 495.336 58.144ZM504.943 49.072C505.605 49.072 506.202 49.216 506.735 49.504C507.269 49.7813 507.685 50.2027 507.983 50.768C508.293 51.3333 508.447 52.0213 508.447 52.832V58H507.007V53.04C507.007 52.1653 506.789 51.4987 506.351 51.04C505.914 50.5707 505.317 50.336 504.559 50.336C503.791 50.336 503.178 50.576 502.719 51.056C502.271 51.536 502.047 52.2347 502.047 53.152V58H500.591V46.16H502.047V50.48C502.335 50.032 502.73 49.6853 503.231 49.44C503.743 49.1947 504.314 49.072 504.943 49.072ZM514.65 58.144C513.828 58.144 513.082 57.9573 512.41 57.584C511.748 57.2107 511.226 56.6827 510.842 56C510.468 55.3067 510.282 54.5067 510.282 53.6C510.282 52.704 510.474 51.9147 510.858 51.232C511.252 50.5387 511.786 50.0107 512.458 49.648C513.13 49.2747 513.882 49.088 514.714 49.088C515.546 49.088 516.298 49.2747 516.97 49.648C517.642 50.0107 518.17 50.5333 518.554 51.216C518.948 51.8987 519.146 52.6933 519.146 53.6C519.146 54.5067 518.943 55.3067 518.538 56C518.143 56.6827 517.604 57.2107 516.922 57.584C516.239 57.9573 515.482 58.144 514.65 58.144ZM514.65 56.864C515.172 56.864 515.663 56.7413 516.122 56.496C516.58 56.2507 516.948 55.8827 517.226 55.392C517.514 54.9013 517.658 54.304 517.658 53.6C517.658 52.896 517.519 52.2987 517.242 51.808C516.964 51.3173 516.602 50.9547 516.154 50.72C515.706 50.4747 515.22 50.352 514.698 50.352C514.164 50.352 513.674 50.4747 513.226 50.72C512.788 50.9547 512.436 51.3173 512.17 51.808C511.903 52.2987 511.77 52.896 511.77 53.6C511.77 54.3147 511.898 54.9173 512.154 55.408C512.42 55.8987 512.772 56.2667 513.21 56.512C513.647 56.7467 514.127 56.864 514.65 56.864ZM532.74 49.232L530.004 58H528.5L526.388 51.04L524.276 58H522.772L520.02 49.232H521.508L523.524 56.592L525.7 49.232H527.188L529.316 56.608L531.3 49.232H532.74ZM541.555 58.144C540.883 58.144 540.28 58.032 539.747 57.808C539.213 57.5733 538.792 57.2533 538.483 56.848C538.173 56.432 538.003 55.9573 537.971 55.424H539.475C539.517 55.8613 539.72 56.2187 540.083 56.496C540.456 56.7733 540.941 56.912 541.539 56.912C542.093 56.912 542.531 56.7893 542.851 56.544C543.171 56.2987 543.331 55.9893 543.331 55.616C543.331 55.232 543.16 54.9493 542.819 54.768C542.477 54.576 541.949 54.3893 541.235 54.208C540.584 54.0373 540.051 53.8667 539.635 53.696C539.229 53.5147 538.877 53.2533 538.579 52.912C538.291 52.56 538.147 52.1013 538.147 51.536C538.147 51.088 538.28 50.6773 538.547 50.304C538.813 49.9307 539.192 49.6373 539.683 49.424C540.173 49.2 540.733 49.088 541.363 49.088C542.333 49.088 543.117 49.3333 543.715 49.824C544.312 50.3147 544.632 50.9867 544.675 51.84H543.219C543.187 51.3813 543 51.0133 542.659 50.736C542.328 50.4587 541.88 50.32 541.315 50.32C540.792 50.32 540.376 50.432 540.067 50.656C539.757 50.88 539.603 51.1733 539.603 51.536C539.603 51.824 539.693 52.064 539.875 52.256C540.067 52.4373 540.301 52.5867 540.579 52.704C540.867 52.8107 541.261 52.9333 541.763 53.072C542.392 53.2427 542.904 53.4133 543.299 53.584C543.693 53.744 544.029 53.9893 544.307 54.32C544.595 54.6507 544.744 55.0827 544.755 55.616C544.755 56.096 544.621 56.528 544.355 56.912C544.088 57.296 543.709 57.6 543.219 57.824C542.739 58.0373 542.184 58.144 541.555 58.144ZM554.586 49.232V58H553.13V56.704C552.853 57.152 552.463 57.504 551.962 57.76C551.471 58.0053 550.927 58.128 550.33 58.128C549.647 58.128 549.034 57.9893 548.49 57.712C547.946 57.424 547.514 56.9973 547.194 56.432C546.885 55.8667 546.73 55.1787 546.73 54.368V49.232H548.17V54.176C548.17 55.04 548.389 55.7067 548.826 56.176C549.263 56.6347 549.861 56.864 550.618 56.864C551.397 56.864 552.01 56.624 552.458 56.144C552.906 55.664 553.13 54.9653 553.13 54.048V49.232H554.586ZM558.501 50.656C558.757 50.1547 559.119 49.7653 559.589 49.488C560.069 49.2107 560.65 49.072 561.333 49.072V50.576H560.949C559.317 50.576 558.501 51.4613 558.501 53.232V58H557.045V49.232H558.501V50.656ZM566.277 56.656L568.997 49.232H570.549L567.109 58H565.413L561.973 49.232H563.541L566.277 56.656ZM579.982 53.28C579.982 53.5573 579.966 53.8507 579.934 54.16H572.926C572.979 55.024 573.273 55.7013 573.806 56.192C574.35 56.672 575.006 56.912 575.774 56.912C576.403 56.912 576.926 56.768 577.342 56.48C577.769 56.1813 578.067 55.7867 578.238 55.296H579.806C579.571 56.1387 579.102 56.8267 578.398 57.36C577.694 57.8827 576.819 58.144 575.774 58.144C574.942 58.144 574.195 57.9573 573.534 57.584C572.883 57.2107 572.371 56.6827 571.998 56C571.625 55.3067 571.438 54.5067 571.438 53.6C571.438 52.6933 571.619 51.8987 571.982 51.216C572.345 50.5333 572.851 50.0107 573.502 49.648C574.163 49.2747 574.921 49.088 575.774 49.088C576.606 49.088 577.342 49.2693 577.982 49.632C578.622 49.9947 579.113 50.496 579.454 51.136C579.806 51.7653 579.982 52.48 579.982 53.28ZM578.478 52.976C578.478 52.4213 578.355 51.9467 578.11 51.552C577.865 51.1467 577.529 50.8427 577.102 50.64C576.686 50.4267 576.222 50.32 575.71 50.32C574.974 50.32 574.345 50.5547 573.822 51.024C573.31 51.4933 573.017 52.144 572.942 52.976H578.478ZM589.456 49.232L584.176 62.128H582.672L584.4 57.904L580.864 49.232H582.48L585.232 56.336L587.952 49.232H589.456Z" fill="#F8FAFC"/>
</g>
<g filter="url(#filter3_d_701_33)">
<rect x="445" y="161" width="152" height="46" rx="8" fill="#94A3B8" shape-rendering="crispEdges"/>
<path d="M462.53 174.47C462.388 174.337 462.2 174.265 462.005 174.269C461.811 174.272 461.626 174.351 461.488 174.488C461.351 174.626 461.272 174.811 461.269 175.005C461.265 175.2 461.337 175.388 461.47 175.53L479.47 193.53C479.539 193.604 479.621 193.663 479.713 193.704C479.805 193.745 479.905 193.767 480.005 193.768C480.106 193.77 480.206 193.752 480.299 193.714C480.393 193.676 480.478 193.62 480.549 193.549C480.62 193.478 480.676 193.393 480.714 193.299C480.752 193.206 480.77 193.106 480.768 193.005C480.767 192.905 480.745 192.805 480.704 192.713C480.663 192.621 480.604 192.539 480.53 192.47L462.53 174.47ZM481.676 184.553C481.137 186.17 480.237 187.644 479.045 188.863L475.946 185.764C476.28 184.828 476.342 183.816 476.124 182.846C475.906 181.876 475.417 180.988 474.714 180.286C474.011 179.583 473.123 179.094 472.153 178.876C471.184 178.658 470.172 178.72 469.236 179.054L466.759 176.577C468.106 176.029 469.547 175.748 471.001 175.75C475.971 175.75 480.186 178.973 481.676 183.44C481.796 183.802 481.796 184.192 481.676 184.553Z" fill="#F8FAFC"/>
<path d="M474.75 184C474.75 184.18 474.737 184.357 474.713 184.53L470.469 180.287C471.001 180.211 471.543 180.25 472.058 180.402C472.574 180.553 473.051 180.814 473.457 181.166C473.863 181.518 474.188 181.953 474.411 182.442C474.634 182.931 474.75 183.462 474.75 184ZM471.53 187.713L467.287 183.469C467.204 184.045 467.257 184.633 467.441 185.185C467.625 185.738 467.936 186.24 468.347 186.651C468.759 187.063 469.261 187.373 469.813 187.557C470.366 187.741 470.953 187.794 471.53 187.712V187.713Z" fill="#F8FAFC"/>
<path d="M465.75 184C465.75 183.381 465.857 182.787 466.054 182.236L462.954 179.136C461.762 180.355 460.863 181.829 460.324 183.446C460.204 183.808 460.204 184.198 460.324 184.56C461.813 189.027 466.028 192.25 470.999 192.25C472.499 192.25 473.932 191.956 475.241 191.423L472.764 188.946C471.972 189.229 471.123 189.317 470.29 189.203C469.456 189.089 468.662 188.777 467.975 188.292C467.287 187.807 466.726 187.164 466.339 186.417C465.952 185.67 465.75 184.841 465.75 184Z" fill="#F8FAFC"/>
<path d="M496.584 181.072C497.245 181.072 497.843 181.216 498.376 181.504C498.909 181.781 499.325 182.203 499.624 182.768C499.933 183.333 500.088 184.021 500.088 184.832V190H498.648V185.04C498.648 184.165 498.429 183.499 497.992 183.04C497.555 182.571 496.957 182.336 496.2 182.336C495.432 182.336 494.819 182.576 494.36 183.056C493.912 183.536 493.688 184.235 493.688 185.152V190H492.232V178.16H493.688V182.48C493.976 182.032 494.371 181.685 494.872 181.44C495.384 181.195 495.955 181.072 496.584 181.072ZM503.218 179.808C502.941 179.808 502.706 179.712 502.514 179.52C502.322 179.328 502.226 179.093 502.226 178.816C502.226 178.539 502.322 178.304 502.514 178.112C502.706 177.92 502.941 177.824 503.218 177.824C503.485 177.824 503.709 177.92 503.89 178.112C504.082 178.304 504.178 178.539 504.178 178.816C504.178 179.093 504.082 179.328 503.89 179.52C503.709 179.712 503.485 179.808 503.218 179.808ZM503.922 181.232V190H502.466V181.232H503.922ZM505.86 185.584C505.86 184.688 506.041 183.904 506.404 183.232C506.767 182.549 507.263 182.021 507.892 181.648C508.532 181.275 509.247 181.088 510.036 181.088C510.719 181.088 511.353 181.248 511.94 181.568C512.527 181.877 512.975 182.288 513.284 182.8V178.16H514.756V190H513.284V188.352C512.996 188.875 512.569 189.307 512.004 189.648C511.439 189.979 510.777 190.144 510.02 190.144C509.241 190.144 508.532 189.952 507.892 189.568C507.263 189.184 506.767 188.645 506.404 187.952C506.041 187.259 505.86 186.469 505.86 185.584ZM513.284 185.6C513.284 184.939 513.151 184.363 512.884 183.872C512.617 183.381 512.255 183.008 511.796 182.752C511.348 182.485 510.852 182.352 510.308 182.352C509.764 182.352 509.268 182.48 508.82 182.736C508.372 182.992 508.015 183.365 507.748 183.856C507.481 184.347 507.348 184.923 507.348 185.584C507.348 186.256 507.481 186.843 507.748 187.344C508.015 187.835 508.372 188.213 508.82 188.48C509.268 188.736 509.764 188.864 510.308 188.864C510.852 188.864 511.348 188.736 511.796 188.48C512.255 188.213 512.617 187.835 512.884 187.344C513.151 186.843 513.284 186.261 513.284 185.6ZM525.216 185.28C525.216 185.557 525.2 185.851 525.168 186.16H518.16C518.214 187.024 518.507 187.701 519.04 188.192C519.584 188.672 520.24 188.912 521.008 188.912C521.638 188.912 522.16 188.768 522.576 188.48C523.003 188.181 523.302 187.787 523.472 187.296H525.04C524.806 188.139 524.336 188.827 523.632 189.36C522.928 189.883 522.054 190.144 521.008 190.144C520.176 190.144 519.43 189.957 518.768 189.584C518.118 189.211 517.606 188.683 517.232 188C516.859 187.307 516.672 186.507 516.672 185.6C516.672 184.693 516.854 183.899 517.216 183.216C517.579 182.533 518.086 182.011 518.736 181.648C519.398 181.275 520.155 181.088 521.008 181.088C521.84 181.088 522.576 181.269 523.216 181.632C523.856 181.995 524.347 182.496 524.688 183.136C525.04 183.765 525.216 184.48 525.216 185.28ZM523.712 184.976C523.712 184.421 523.59 183.947 523.344 183.552C523.099 183.147 522.763 182.843 522.336 182.64C521.92 182.427 521.456 182.32 520.944 182.32C520.208 182.32 519.579 182.555 519.056 183.024C518.544 183.493 518.251 184.144 518.176 184.976H523.712ZM534.508 190.144C533.836 190.144 533.233 190.032 532.7 189.808C532.167 189.573 531.745 189.253 531.436 188.848C531.127 188.432 530.956 187.957 530.924 187.424H532.428C532.471 187.861 532.673 188.219 533.036 188.496C533.409 188.773 533.895 188.912 534.492 188.912C535.047 188.912 535.484 188.789 535.804 188.544C536.124 188.299 536.284 187.989 536.284 187.616C536.284 187.232 536.113 186.949 535.772 186.768C535.431 186.576 534.903 186.389 534.188 186.208C533.537 186.037 533.004 185.867 532.588 185.696C532.183 185.515 531.831 185.253 531.532 184.912C531.244 184.56 531.1 184.101 531.1 183.536C531.1 183.088 531.233 182.677 531.5 182.304C531.767 181.931 532.145 181.637 532.636 181.424C533.127 181.2 533.687 181.088 534.316 181.088C535.287 181.088 536.071 181.333 536.668 181.824C537.265 182.315 537.585 182.987 537.628 183.84H536.172C536.14 183.381 535.953 183.013 535.612 182.736C535.281 182.459 534.833 182.32 534.268 182.32C533.745 182.32 533.329 182.432 533.02 182.656C532.711 182.88 532.556 183.173 532.556 183.536C532.556 183.824 532.647 184.064 532.828 184.256C533.02 184.437 533.255 184.587 533.532 184.704C533.82 184.811 534.215 184.933 534.716 185.072C535.345 185.243 535.857 185.413 536.252 185.584C536.647 185.744 536.983 185.989 537.26 186.32C537.548 186.651 537.697 187.083 537.708 187.616C537.708 188.096 537.575 188.528 537.308 188.912C537.041 189.296 536.663 189.6 536.172 189.824C535.692 190.037 535.137 190.144 534.508 190.144ZM547.539 181.232V190H546.083V188.704C545.806 189.152 545.417 189.504 544.915 189.76C544.425 190.005 543.881 190.128 543.283 190.128C542.601 190.128 541.987 189.989 541.443 189.712C540.899 189.424 540.467 188.997 540.147 188.432C539.838 187.867 539.683 187.179 539.683 186.368V181.232H541.123V186.176C541.123 187.04 541.342 187.707 541.779 188.176C542.217 188.635 542.814 188.864 543.571 188.864C544.35 188.864 544.963 188.624 545.411 188.144C545.859 187.664 546.083 186.965 546.083 186.048V181.232H547.539ZM551.454 182.656C551.71 182.155 552.072 181.765 552.542 181.488C553.022 181.211 553.603 181.072 554.286 181.072V182.576H553.902C552.27 182.576 551.454 183.461 551.454 185.232V190H549.998V181.232H551.454V182.656ZM559.23 188.656L561.95 181.232H563.502L560.062 190H558.366L554.926 181.232H556.494L559.23 188.656ZM572.935 185.28C572.935 185.557 572.919 185.851 572.887 186.16H565.879C565.932 187.024 566.226 187.701 566.759 188.192C567.303 188.672 567.959 188.912 568.727 188.912C569.356 188.912 569.879 188.768 570.295 188.48C570.722 188.181 571.02 187.787 571.191 187.296H572.759C572.524 188.139 572.055 188.827 571.351 189.36C570.647 189.883 569.772 190.144 568.727 190.144C567.895 190.144 567.148 189.957 566.487 189.584C565.836 189.211 565.324 188.683 564.951 188C564.578 187.307 564.391 186.507 564.391 185.6C564.391 184.693 564.572 183.899 564.935 183.216C565.298 182.533 565.804 182.011 566.455 181.648C567.116 181.275 567.874 181.088 568.727 181.088C569.559 181.088 570.295 181.269 570.935 181.632C571.575 181.995 572.066 182.496 572.407 183.136C572.759 183.765 572.935 184.48 572.935 185.28ZM571.431 184.976C571.431 184.421 571.308 183.947 571.063 183.552C570.818 183.147 570.482 182.843 570.055 182.64C569.639 182.427 569.175 182.32 568.663 182.32C567.927 182.32 567.298 182.555 566.775 183.024C566.263 183.493 565.97 184.144 565.895 184.976H571.431ZM582.409 181.232L577.129 194.128H575.625L577.353 189.904L573.817 181.232H575.433L578.185 188.336L580.905 181.232H582.409Z" fill="#F8FAFC"/>
</g>
<g filter="url(#filter4_d_701_33)">
<rect x="144" y="137" width="251" height="79" rx="8" fill="#E2E8F0" shape-rendering="crispEdges"/>
<path fill-rule="evenodd" clip-rule="evenodd" d="M160.25 160C160.25 154.615 164.615 150.25 170 150.25C175.385 150.25 179.75 154.615 179.75 160C179.75 165.385 175.385 169.75 170 169.75C164.615 169.75 160.25 165.385 160.25 160ZM173.61 158.186C173.67 158.106 173.713 158.015 173.738 157.918C173.762 157.821 173.767 157.72 173.751 157.621C173.736 157.523 173.701 157.428 173.649 157.343C173.596 157.258 173.528 157.184 173.446 157.126C173.365 157.068 173.273 157.026 173.175 157.004C173.078 156.982 172.977 156.98 172.878 156.997C172.78 157.015 172.686 157.052 172.602 157.106C172.518 157.161 172.446 157.231 172.39 157.314L169.154 161.844L167.53 160.22C167.388 160.088 167.2 160.015 167.005 160.019C166.811 160.022 166.626 160.101 166.488 160.238C166.351 160.376 166.272 160.561 166.269 160.755C166.265 160.95 166.338 161.138 166.47 161.28L168.72 163.53C168.797 163.607 168.89 163.666 168.992 163.704C169.094 163.741 169.203 163.756 169.312 163.747C169.42 163.738 169.525 163.706 169.62 163.652C169.715 163.598 169.797 163.525 169.86 163.436L173.61 158.186Z" fill="#00C4B8"/>
<path d="M192.688 158.848C192.976 158.347 193.403 157.931 193.968 157.6C194.544 157.259 195.211 157.088 195.968 157.088C196.747 157.088 197.451 157.275 198.08 157.648C198.72 158.021 199.221 158.549 199.584 159.232C199.947 159.904 200.128 160.688 200.128 161.584C200.128 162.469 199.947 163.259 199.584 163.952C199.221 164.645 198.72 165.184 198.08 165.568C197.451 165.952 196.747 166.144 195.968 166.144C195.221 166.144 194.56 165.979 193.984 165.648C193.419 165.307 192.987 164.885 192.688 164.384V170.16H191.232V157.232H192.688V158.848ZM198.64 161.584C198.64 160.923 198.507 160.347 198.24 159.856C197.973 159.365 197.611 158.992 197.152 158.736C196.704 158.48 196.208 158.352 195.664 158.352C195.131 158.352 194.635 158.485 194.176 158.752C193.728 159.008 193.365 159.387 193.088 159.888C192.821 160.379 192.688 160.949 192.688 161.6C192.688 162.261 192.821 162.843 193.088 163.344C193.365 163.835 193.728 164.213 194.176 164.48C194.635 164.736 195.131 164.864 195.664 164.864C196.208 164.864 196.704 164.736 197.152 164.48C197.611 164.213 197.973 163.835 198.24 163.344C198.507 162.843 198.64 162.256 198.64 161.584ZM210.045 161.28C210.045 161.557 210.029 161.851 209.997 162.16H202.989C203.042 163.024 203.335 163.701 203.869 164.192C204.413 164.672 205.069 164.912 205.837 164.912C206.466 164.912 206.989 164.768 207.405 164.48C207.831 164.181 208.13 163.787 208.301 163.296H209.869C209.634 164.139 209.165 164.827 208.461 165.36C207.757 165.883 206.882 166.144 205.837 166.144C205.005 166.144 204.258 165.957 203.597 165.584C202.946 165.211 202.434 164.683 202.061 164C201.687 163.307 201.501 162.507 201.501 161.6C201.501 160.693 201.682 159.899 202.045 159.216C202.407 158.533 202.914 158.011 203.565 157.648C204.226 157.275 204.983 157.088 205.837 157.088C206.669 157.088 207.405 157.269 208.045 157.632C208.685 157.995 209.175 158.496 209.517 159.136C209.869 159.765 210.045 160.48 210.045 161.28ZM208.541 160.976C208.541 160.421 208.418 159.947 208.173 159.552C207.927 159.147 207.591 158.843 207.165 158.64C206.749 158.427 206.285 158.32 205.773 158.32C205.037 158.32 204.407 158.555 203.885 159.024C203.373 159.493 203.079 160.144 203.005 160.976H208.541ZM213.422 158.656C213.678 158.155 214.041 157.765 214.51 157.488C214.99 157.211 215.572 157.072 216.254 157.072V158.576H215.87C214.238 158.576 213.422 159.461 213.422 161.232V166H211.966V157.232H213.422V158.656ZM221.503 158.432H219.663V166H218.207V158.432H217.071V157.232H218.207V156.608C218.207 155.627 218.458 154.912 218.959 154.464C219.471 154.005 220.287 153.776 221.407 153.776V154.992C220.767 154.992 220.314 155.12 220.047 155.376C219.791 155.621 219.663 156.032 219.663 156.608V157.232H221.503V158.432ZM227.025 166.144C226.203 166.144 225.457 165.957 224.785 165.584C224.123 165.211 223.601 164.683 223.217 164C222.843 163.307 222.657 162.507 222.657 161.6C222.657 160.704 222.849 159.915 223.233 159.232C223.627 158.539 224.161 158.011 224.833 157.648C225.505 157.275 226.257 157.088 227.089 157.088C227.921 157.088 228.673 157.275 229.345 157.648C230.017 158.011 230.545 158.533 230.929 159.216C231.323 159.899 231.521 160.693 231.521 161.6C231.521 162.507 231.318 163.307 230.913 164C230.518 164.683 229.979 165.211 229.297 165.584C228.614 165.957 227.857 166.144 227.025 166.144ZM227.025 164.864C227.547 164.864 228.038 164.741 228.497 164.496C228.955 164.251 229.323 163.883 229.601 163.392C229.889 162.901 230.033 162.304 230.033 161.6C230.033 160.896 229.894 160.299 229.617 159.808C229.339 159.317 228.977 158.955 228.529 158.72C228.081 158.475 227.595 158.352 227.073 158.352C226.539 158.352 226.049 158.475 225.601 158.72C225.163 158.955 224.811 159.317 224.545 159.808C224.278 160.299 224.145 160.896 224.145 161.6C224.145 162.315 224.273 162.917 224.529 163.408C224.795 163.899 225.147 164.267 225.585 164.512C226.022 164.747 226.502 164.864 227.025 164.864ZM234.891 158.656C235.147 158.155 235.51 157.765 235.979 157.488C236.459 157.211 237.04 157.072 237.723 157.072V158.576H237.339C235.707 158.576 234.891 159.461 234.891 161.232V166H233.435V157.232H234.891V158.656ZM249.948 157.072C250.631 157.072 251.239 157.216 251.772 157.504C252.305 157.781 252.727 158.203 253.036 158.768C253.345 159.333 253.5 160.021 253.5 160.832V166H252.06V161.04C252.06 160.165 251.841 159.499 251.404 159.04C250.977 158.571 250.396 158.336 249.66 158.336C248.903 158.336 248.3 158.581 247.852 159.072C247.404 159.552 247.18 160.251 247.18 161.168V166H245.74V161.04C245.74 160.165 245.521 159.499 245.084 159.04C244.657 158.571 244.076 158.336 243.34 158.336C242.583 158.336 241.98 158.581 241.532 159.072C241.084 159.552 240.86 160.251 240.86 161.168V166H239.404V157.232H240.86V158.496C241.148 158.037 241.532 157.685 242.012 157.44C242.503 157.195 243.041 157.072 243.628 157.072C244.364 157.072 245.015 157.237 245.58 157.568C246.145 157.899 246.567 158.384 246.844 159.024C247.089 158.405 247.495 157.925 248.06 157.584C248.625 157.243 249.255 157.072 249.948 157.072ZM263.888 161.28C263.888 161.557 263.872 161.851 263.84 162.16H256.832C256.886 163.024 257.179 163.701 257.712 164.192C258.256 164.672 258.912 164.912 259.68 164.912C260.31 164.912 260.832 164.768 261.248 164.48C261.675 164.181 261.974 163.787 262.144 163.296H263.712C263.478 164.139 263.008 164.827 262.304 165.36C261.6 165.883 260.726 166.144 259.68 166.144C258.848 166.144 258.102 165.957 257.44 165.584C256.79 165.211 256.278 164.683 255.904 164C255.531 163.307 255.344 162.507 255.344 161.6C255.344 160.693 255.526 159.899 255.888 159.216C256.251 158.533 256.758 158.011 257.408 157.648C258.07 157.275 258.827 157.088 259.68 157.088C260.512 157.088 261.248 157.269 261.888 157.632C262.528 157.995 263.019 158.496 263.36 159.136C263.712 159.765 263.888 160.48 263.888 161.28ZM262.384 160.976C262.384 160.421 262.262 159.947 262.016 159.552C261.771 159.147 261.435 158.843 261.008 158.64C260.592 158.427 260.128 158.32 259.616 158.32C258.88 158.32 258.251 158.555 257.728 159.024C257.216 159.493 256.923 160.144 256.848 160.976H262.384ZM265.266 161.584C265.266 160.688 265.447 159.904 265.81 159.232C266.173 158.549 266.669 158.021 267.298 157.648C267.938 157.275 268.653 157.088 269.442 157.088C270.125 157.088 270.759 157.248 271.346 157.568C271.933 157.877 272.381 158.288 272.69 158.8V154.16H274.162V166H272.69V164.352C272.402 164.875 271.975 165.307 271.41 165.648C270.845 165.979 270.183 166.144 269.426 166.144C268.647 166.144 267.938 165.952 267.298 165.568C266.669 165.184 266.173 164.645 265.81 163.952C265.447 163.259 265.266 162.469 265.266 161.584ZM272.69 161.6C272.69 160.939 272.557 160.363 272.29 159.872C272.023 159.381 271.661 159.008 271.202 158.752C270.754 158.485 270.258 158.352 269.714 158.352C269.17 158.352 268.674 158.48 268.226 158.736C267.778 158.992 267.421 159.365 267.154 159.856C266.887 160.347 266.754 160.923 266.754 161.584C266.754 162.256 266.887 162.843 267.154 163.344C267.421 163.835 267.778 164.213 268.226 164.48C268.674 164.736 269.17 164.864 269.714 164.864C270.258 164.864 270.754 164.736 271.202 164.48C271.661 164.213 272.023 163.835 272.29 163.344C272.557 162.843 272.69 162.261 272.69 161.6ZM285.784 166L282.344 162.128V166H280.888V154.16H282.344V161.12L285.72 157.232H287.752L283.624 161.6L287.768 166H285.784ZM297.123 161.28C297.123 161.557 297.107 161.851 297.075 162.16H290.067C290.12 163.024 290.413 163.701 290.947 164.192C291.491 164.672 292.147 164.912 292.915 164.912C293.544 164.912 294.067 164.768 294.483 164.48C294.909 164.181 295.208 163.787 295.379 163.296H296.947C296.712 164.139 296.243 164.827 295.539 165.36C294.835 165.883 293.96 166.144 292.915 166.144C292.083 166.144 291.336 165.957 290.675 165.584C290.024 165.211 289.512 164.683 289.139 164C288.765 163.307 288.579 162.507 288.579 161.6C288.579 160.693 288.76 159.899 289.123 159.216C289.485 158.533 289.992 158.011 290.643 157.648C291.304 157.275 292.061 157.088 292.915 157.088C293.747 157.088 294.483 157.269 295.123 157.632C295.763 157.995 296.253 158.496 296.595 159.136C296.947 159.765 297.123 160.48 297.123 161.28ZM295.619 160.976C295.619 160.421 295.496 159.947 295.251 159.552C295.005 159.147 294.669 158.843 294.243 158.64C293.827 158.427 293.363 158.32 292.851 158.32C292.115 158.32 291.485 158.555 290.963 159.024C290.451 159.493 290.157 160.144 290.083 160.976H295.619ZM306.597 157.232L301.317 170.128H299.812L301.541 165.904L298.005 157.232H299.621L302.373 164.336L305.093 157.232H306.597ZM311.782 161.584C311.782 160.688 311.963 159.904 312.326 159.232C312.688 158.549 313.184 158.021 313.814 157.648C314.454 157.275 315.163 157.088 315.942 157.088C316.71 157.088 317.376 157.253 317.942 157.584C318.507 157.915 318.928 158.331 319.206 158.832V157.232H320.678V166H319.206V164.368C318.918 164.88 318.486 165.307 317.91 165.648C317.344 165.979 316.683 166.144 315.926 166.144C315.147 166.144 314.443 165.952 313.814 165.568C313.184 165.184 312.688 164.645 312.326 163.952C311.963 163.259 311.782 162.469 311.782 161.584ZM319.206 161.6C319.206 160.939 319.072 160.363 318.806 159.872C318.539 159.381 318.176 159.008 317.718 158.752C317.27 158.485 316.774 158.352 316.23 158.352C315.686 158.352 315.19 158.48 314.742 158.736C314.294 158.992 313.936 159.365 313.67 159.856C313.403 160.347 313.27 160.923 313.27 161.584C313.27 162.256 313.403 162.843 313.67 163.344C313.936 163.835 314.294 164.213 314.742 164.48C315.19 164.736 315.686 164.864 316.23 164.864C316.774 164.864 317.27 164.736 317.718 164.48C318.176 164.213 318.539 163.835 318.806 163.344C319.072 162.843 319.206 162.261 319.206 161.6ZM322.594 161.6C322.594 160.693 322.776 159.904 323.138 159.232C323.501 158.549 324.002 158.021 324.642 157.648C325.293 157.275 326.034 157.088 326.866 157.088C327.944 157.088 328.829 157.349 329.522 157.872C330.226 158.395 330.69 159.12 330.914 160.048H329.346C329.197 159.515 328.904 159.093 328.466 158.784C328.04 158.475 327.506 158.32 326.866 158.32C326.034 158.32 325.362 158.608 324.85 159.184C324.338 159.749 324.082 160.555 324.082 161.6C324.082 162.656 324.338 163.472 324.85 164.048C325.362 164.624 326.034 164.912 326.866 164.912C327.506 164.912 328.04 164.763 328.466 164.464C328.893 164.165 329.186 163.739 329.346 163.184H330.914C330.68 164.08 330.21 164.8 329.506 165.344C328.802 165.877 327.922 166.144 326.866 166.144C326.034 166.144 325.293 165.957 324.642 165.584C324.002 165.211 323.501 164.683 323.138 164C322.776 163.317 322.594 162.517 322.594 161.6ZM334.633 158.432V163.6C334.633 164.027 334.724 164.331 334.905 164.512C335.086 164.683 335.401 164.768 335.849 164.768H336.921V166H335.609C334.798 166 334.19 165.813 333.785 165.44C333.38 165.067 333.177 164.453 333.177 163.6V158.432H332.041V157.232H333.177V155.024H334.633V157.232H336.921V158.432H334.633ZM339.437 155.808C339.16 155.808 338.925 155.712 338.733 155.52C338.541 155.328 338.445 155.093 338.445 154.816C338.445 154.539 338.541 154.304 338.733 154.112C338.925 153.92 339.16 153.824 339.437 153.824C339.704 153.824 339.928 153.92 340.109 154.112C340.301 154.304 340.397 154.539 340.397 154.816C340.397 155.093 340.301 155.328 340.109 155.52C339.928 155.712 339.704 155.808 339.437 155.808ZM340.141 157.232V166H338.685V157.232H340.141ZM346.447 166.144C345.625 166.144 344.879 165.957 344.207 165.584C343.545 165.211 343.023 164.683 342.639 164C342.265 163.307 342.079 162.507 342.079 161.6C342.079 160.704 342.271 159.915 342.655 159.232C343.049 158.539 343.583 158.011 344.255 157.648C344.927 157.275 345.679 157.088 346.511 157.088C347.343 157.088 348.095 157.275 348.767 157.648C349.439 158.011 349.967 158.533 350.351 159.216C350.745 159.899 350.943 160.693 350.943 161.6C350.943 162.507 350.74 163.307 350.335 164C349.94 164.683 349.401 165.211 348.719 165.584C348.036 165.957 347.279 166.144 346.447 166.144ZM346.447 164.864C346.969 164.864 347.46 164.741 347.919 164.496C348.377 164.251 348.745 163.883 349.023 163.392C349.311 162.901 349.455 162.304 349.455 161.6C349.455 160.896 349.316 160.299 349.039 159.808C348.761 159.317 348.399 158.955 347.951 158.72C347.503 158.475 347.017 158.352 346.495 158.352C345.961 158.352 345.471 158.475 345.023 158.72C344.585 158.955 344.233 159.317 343.967 159.808C343.7 160.299 343.567 160.896 343.567 161.6C343.567 162.315 343.695 162.917 343.951 163.408C344.217 163.899 344.569 164.267 345.007 164.512C345.444 164.747 345.924 164.864 346.447 164.864ZM357.129 157.072C358.196 157.072 359.06 157.397 359.721 158.048C360.382 158.688 360.713 159.616 360.713 160.832V166H359.273V161.04C359.273 160.165 359.054 159.499 358.617 159.04C358.18 158.571 357.582 158.336 356.825 158.336C356.057 158.336 355.444 158.576 354.985 159.056C354.537 159.536 354.313 160.235 354.313 161.152V166H352.857V157.232H354.313V158.48C354.601 158.032 354.99 157.685 355.481 157.44C355.982 157.195 356.532 157.072 357.129 157.072Z" fill="#1E293B"/>
<path fill-rule="evenodd" clip-rule="evenodd" d="M170 185.25C164.615 185.25 160.25 189.615 160.25 195C160.25 200.385 164.615 204.75 170 204.75C175.385 204.75 179.75 200.385 179.75 195C179.75 189.615 175.385 185.25 170 185.25ZM168.28 192.22C168.211 192.146 168.129 192.087 168.037 192.046C167.945 192.005 167.845 191.983 167.745 191.981C167.644 191.98 167.544 191.998 167.45 192.036C167.357 192.074 167.272 192.13 167.201 192.201C167.13 192.272 167.074 192.357 167.036 192.45C166.998 192.544 166.98 192.644 166.981 192.745C166.983 192.845 167.005 192.945 167.046 193.037C167.087 193.129 167.146 193.211 167.22 193.28L168.94 195L167.22 196.72C167.146 196.789 167.087 196.871 167.046 196.963C167.005 197.055 166.983 197.155 166.981 197.255C166.98 197.356 166.998 197.456 167.036 197.55C167.074 197.643 167.13 197.728 167.201 197.799C167.272 197.87 167.357 197.926 167.45 197.964C167.544 198.002 167.644 198.02 167.745 198.019C167.845 198.017 167.945 197.995 168.037 197.954C168.129 197.913 168.211 197.854 168.28 197.78L170 196.06L171.72 197.78C171.789 197.854 171.871 197.913 171.963 197.954C172.055 197.995 172.155 198.017 172.255 198.019C172.356 198.02 172.456 198.002 172.55 197.964C172.643 197.926 172.728 197.87 172.799 197.799C172.87 197.728 172.926 197.643 172.964 197.55C173.002 197.456 173.02 197.356 173.019 197.255C173.017 197.155 172.995 197.055 172.954 196.963C172.913 196.871 172.854 196.789 172.78 196.72L171.06 195L172.78 193.28C172.854 193.211 172.913 193.129 172.954 193.037C172.995 192.945 173.017 192.845 173.019 192.745C173.02 192.644 173.002 192.544 172.964 192.45C172.926 192.357 172.87 192.272 172.799 192.201C172.728 192.13 172.643 192.074 172.55 192.036C172.456 191.998 172.356 191.98 172.255 191.981C172.155 191.983 172.055 192.005 171.963 192.046C171.871 192.087 171.789 192.146 171.72 192.22L170 193.94L168.28 192.22Z" fill="#475569"/>
<path d="M194.336 199.144C193.664 199.144 193.061 199.032 192.528 198.808C191.995 198.573 191.573 198.253 191.264 197.848C190.955 197.432 190.784 196.957 190.752 196.424H192.256C192.299 196.861 192.501 197.219 192.864 197.496C193.237 197.773 193.723 197.912 194.32 197.912C194.875 197.912 195.312 197.789 195.632 197.544C195.952 197.299 196.112 196.989 196.112 196.616C196.112 196.232 195.941 195.949 195.6 195.768C195.259 195.576 194.731 195.389 194.016 195.208C193.365 195.037 192.832 194.867 192.416 194.696C192.011 194.515 191.659 194.253 191.36 193.912C191.072 193.56 190.928 193.101 190.928 192.536C190.928 192.088 191.061 191.677 191.328 191.304C191.595 190.931 191.973 190.637 192.464 190.424C192.955 190.2 193.515 190.088 194.144 190.088C195.115 190.088 195.899 190.333 196.496 190.824C197.093 191.315 197.413 191.987 197.456 192.84H196C195.968 192.381 195.781 192.013 195.44 191.736C195.109 191.459 194.661 191.32 194.096 191.32C193.573 191.32 193.157 191.432 192.848 191.656C192.539 191.88 192.384 192.173 192.384 192.536C192.384 192.824 192.475 193.064 192.656 193.256C192.848 193.437 193.083 193.587 193.36 193.704C193.648 193.811 194.043 193.933 194.544 194.072C195.173 194.243 195.685 194.413 196.08 194.584C196.475 194.744 196.811 194.989 197.088 195.32C197.376 195.651 197.525 196.083 197.536 196.616C197.536 197.096 197.403 197.528 197.136 197.912C196.869 198.296 196.491 198.6 196 198.824C195.52 199.037 194.965 199.144 194.336 199.144ZM200.343 188.808C200.066 188.808 199.831 188.712 199.639 188.52C199.447 188.328 199.351 188.093 199.351 187.816C199.351 187.539 199.447 187.304 199.639 187.112C199.831 186.92 200.066 186.824 200.343 186.824C200.61 186.824 200.834 186.92 201.015 187.112C201.207 187.304 201.303 187.539 201.303 187.816C201.303 188.093 201.207 188.328 201.015 188.52C200.834 188.712 200.61 188.808 200.343 188.808ZM201.047 190.232V199H199.591V190.232H201.047ZM207.145 190.088C207.902 190.088 208.564 190.253 209.129 190.584C209.705 190.915 210.132 191.331 210.409 191.832V190.232H211.881V199.192C211.881 199.992 211.71 200.701 211.369 201.32C211.028 201.949 210.537 202.44 209.897 202.792C209.268 203.144 208.532 203.32 207.689 203.32C206.537 203.32 205.577 203.048 204.809 202.504C204.041 201.96 203.588 201.219 203.449 200.28H204.889C205.049 200.813 205.38 201.24 205.881 201.56C206.382 201.891 206.985 202.056 207.689 202.056C208.489 202.056 209.14 201.805 209.641 201.304C210.153 200.803 210.409 200.099 210.409 199.192V197.352C210.121 197.864 209.694 198.291 209.129 198.632C208.564 198.973 207.902 199.144 207.145 199.144C206.366 199.144 205.657 198.952 205.017 198.568C204.388 198.184 203.892 197.645 203.529 196.952C203.166 196.259 202.985 195.469 202.985 194.584C202.985 193.688 203.166 192.904 203.529 192.232C203.892 191.549 204.388 191.021 205.017 190.648C205.657 190.275 206.366 190.088 207.145 190.088ZM210.409 194.6C210.409 193.939 210.276 193.363 210.009 192.872C209.742 192.381 209.38 192.008 208.921 191.752C208.473 191.485 207.977 191.352 207.433 191.352C206.889 191.352 206.393 191.48 205.945 191.736C205.497 191.992 205.14 192.365 204.873 192.856C204.606 193.347 204.473 193.923 204.473 194.584C204.473 195.256 204.606 195.843 204.873 196.344C205.14 196.835 205.497 197.213 205.945 197.48C206.393 197.736 206.889 197.864 207.433 197.864C207.977 197.864 208.473 197.736 208.921 197.48C209.38 197.213 209.742 196.835 210.009 196.344C210.276 195.843 210.409 195.261 210.409 194.6ZM218.613 190.072C219.68 190.072 220.544 190.397 221.205 191.048C221.867 191.688 222.197 192.616 222.197 193.832V199H220.757V194.04C220.757 193.165 220.539 192.499 220.101 192.04C219.664 191.571 219.067 191.336 218.309 191.336C217.541 191.336 216.928 191.576 216.469 192.056C216.021 192.536 215.797 193.235 215.797 194.152V199H214.341V190.232H215.797V191.48C216.085 191.032 216.475 190.685 216.965 190.44C217.467 190.195 218.016 190.072 218.613 190.072ZM232.576 194.28C232.576 194.557 232.56 194.851 232.528 195.16H225.52C225.573 196.024 225.866 196.701 226.4 197.192C226.944 197.672 227.6 197.912 228.368 197.912C228.997 197.912 229.52 197.768 229.936 197.48C230.362 197.181 230.661 196.787 230.832 196.296H232.4C232.165 197.139 231.696 197.827 230.992 198.36C230.288 198.883 229.413 199.144 228.368 199.144C227.536 199.144 226.789 198.957 226.128 198.584C225.477 198.211 224.965 197.683 224.592 197C224.218 196.307 224.032 195.507 224.032 194.6C224.032 193.693 224.213 192.899 224.576 192.216C224.938 191.533 225.445 191.011 226.096 190.648C226.757 190.275 227.514 190.088 228.368 190.088C229.2 190.088 229.936 190.269 230.576 190.632C231.216 190.995 231.706 191.496 232.048 192.136C232.4 192.765 232.576 193.48 232.576 194.28ZM231.072 193.976C231.072 193.421 230.949 192.947 230.704 192.552C230.458 192.147 230.122 191.843 229.696 191.64C229.28 191.427 228.816 191.32 228.304 191.32C227.568 191.32 226.938 191.555 226.416 192.024C225.904 192.493 225.61 193.144 225.536 193.976H231.072ZM233.954 194.584C233.954 193.688 234.135 192.904 234.498 192.232C234.86 191.549 235.356 191.021 235.986 190.648C236.626 190.275 237.34 190.088 238.13 190.088C238.812 190.088 239.447 190.248 240.034 190.568C240.62 190.877 241.068 191.288 241.378 191.8V187.16H242.85V199H241.378V197.352C241.09 197.875 240.663 198.307 240.098 198.648C239.532 198.979 238.871 199.144 238.114 199.144C237.335 199.144 236.626 198.952 235.986 198.568C235.356 198.184 234.86 197.645 234.498 196.952C234.135 196.259 233.954 195.469 233.954 194.584ZM241.378 194.6C241.378 193.939 241.244 193.363 240.978 192.872C240.711 192.381 240.348 192.008 239.89 191.752C239.442 191.485 238.946 191.352 238.402 191.352C237.858 191.352 237.362 191.48 236.914 191.736C236.466 191.992 236.108 192.365 235.842 192.856C235.575 193.347 235.442 193.923 235.442 194.584C235.442 195.256 235.575 195.843 235.842 196.344C236.108 196.835 236.466 197.213 236.914 197.48C237.362 197.736 237.858 197.864 238.402 197.864C238.946 197.864 239.442 197.736 239.89 197.48C240.348 197.213 240.711 196.835 240.978 196.344C241.244 195.843 241.378 195.261 241.378 194.6ZM257.352 190.232V199H255.896V197.704C255.618 198.152 255.229 198.504 254.728 198.76C254.237 199.005 253.693 199.128 253.096 199.128C252.413 199.128 251.8 198.989 251.256 198.712C250.712 198.424 250.28 197.997 249.96 197.432C249.65 196.867 249.496 196.179 249.496 195.368V190.232H250.936V195.176C250.936 196.04 251.154 196.707 251.592 197.176C252.029 197.635 252.626 197.864 253.384 197.864C254.162 197.864 254.776 197.624 255.224 197.144C255.672 196.664 255.896 195.965 255.896 195.048V190.232H257.352ZM261.266 191.848C261.554 191.347 261.981 190.931 262.546 190.6C263.122 190.259 263.789 190.088 264.546 190.088C265.325 190.088 266.029 190.275 266.658 190.648C267.298 191.021 267.799 191.549 268.162 192.232C268.525 192.904 268.706 193.688 268.706 194.584C268.706 195.469 268.525 196.259 268.162 196.952C267.799 197.645 267.298 198.184 266.658 198.568C266.029 198.952 265.325 199.144 264.546 199.144C263.799 199.144 263.138 198.979 262.562 198.648C261.997 198.307 261.565 197.885 261.266 197.384V203.16H259.81V190.232H261.266V191.848ZM267.218 194.584C267.218 193.923 267.085 193.347 266.818 192.856C266.551 192.365 266.189 191.992 265.73 191.736C265.282 191.48 264.786 191.352 264.242 191.352C263.709 191.352 263.213 191.485 262.754 191.752C262.306 192.008 261.943 192.387 261.666 192.888C261.399 193.379 261.266 193.949 261.266 194.6C261.266 195.261 261.399 195.843 261.666 196.344C261.943 196.835 262.306 197.213 262.754 197.48C263.213 197.736 263.709 197.864 264.242 197.864C264.786 197.864 265.282 197.736 265.73 197.48C266.189 197.213 266.551 196.835 266.818 196.344C267.085 195.843 267.218 195.256 267.218 194.584ZM275.16 189.48H277L280.872 193.144L277 196.824H275.16L279.032 193.144L275.16 189.48ZM283.097 197.832C284.452 196.744 285.513 195.853 286.281 195.16C287.049 194.456 287.695 193.725 288.217 192.968C288.751 192.2 289.017 191.448 289.017 190.712C289.017 190.019 288.847 189.475 288.505 189.08C288.175 188.675 287.636 188.472 286.889 188.472C286.164 188.472 285.599 188.701 285.193 189.16C284.799 189.608 284.585 190.211 284.553 190.968H283.145C283.188 189.773 283.551 188.851 284.233 188.2C284.916 187.549 285.796 187.224 286.873 187.224C287.972 187.224 288.841 187.528 289.481 188.136C290.132 188.744 290.457 189.581 290.457 190.648C290.457 191.533 290.191 192.397 289.657 193.24C289.135 194.072 288.537 194.808 287.865 195.448C287.193 196.077 286.335 196.813 285.289 197.656H290.793V198.872H283.097V197.832ZM294.588 192.984C293.991 192.749 293.532 192.408 293.212 191.96C292.892 191.512 292.732 190.968 292.732 190.328C292.732 189.752 292.876 189.235 293.164 188.776C293.452 188.307 293.879 187.939 294.444 187.672C295.02 187.395 295.714 187.256 296.524 187.256C297.335 187.256 298.023 187.395 298.588 187.672C299.164 187.939 299.596 188.307 299.884 188.776C300.183 189.235 300.332 189.752 300.332 190.328C300.332 190.947 300.167 191.491 299.836 191.96C299.506 192.419 299.052 192.76 298.476 192.984C299.138 193.187 299.66 193.544 300.044 194.056C300.439 194.557 300.636 195.165 300.636 195.88C300.636 196.573 300.466 197.181 300.124 197.704C299.783 198.216 299.298 198.616 298.668 198.904C298.05 199.181 297.335 199.32 296.524 199.32C295.714 199.32 294.999 199.181 294.38 198.904C293.772 198.616 293.298 198.216 292.956 197.704C292.615 197.181 292.444 196.573 292.444 195.88C292.444 195.165 292.636 194.552 293.02 194.04C293.404 193.528 293.927 193.176 294.588 192.984ZM298.924 190.504C298.924 189.853 298.711 189.352 298.284 189C297.858 188.648 297.271 188.472 296.524 188.472C295.788 188.472 295.207 188.648 294.78 189C294.354 189.352 294.14 189.859 294.14 190.52C294.14 191.117 294.359 191.597 294.796 191.96C295.244 192.323 295.82 192.504 296.524 192.504C297.239 192.504 297.815 192.323 298.252 191.96C298.7 191.587 298.924 191.101 298.924 190.504ZM296.524 193.624C295.735 193.624 295.09 193.811 294.588 194.184C294.087 194.547 293.836 195.096 293.836 195.832C293.836 196.515 294.076 197.064 294.556 197.48C295.047 197.896 295.703 198.104 296.524 198.104C297.346 198.104 297.996 197.896 298.476 197.48C298.956 197.064 299.196 196.515 299.196 195.832C299.196 195.117 298.951 194.573 298.46 194.2C297.97 193.816 297.324 193.624 296.524 193.624ZM306.532 194.584C306.532 193.688 306.713 192.904 307.076 192.232C307.438 191.549 307.934 191.021 308.564 190.648C309.204 190.275 309.918 190.088 310.708 190.088C311.39 190.088 312.025 190.248 312.612 190.568C313.198 190.877 313.646 191.288 313.956 191.8V187.16H315.428V199H313.956V197.352C313.668 197.875 313.241 198.307 312.676 198.648C312.11 198.979 311.449 199.144 310.692 199.144C309.913 199.144 309.204 198.952 308.564 198.568C307.934 198.184 307.438 197.645 307.076 196.952C306.713 196.259 306.532 195.469 306.532 194.584ZM313.956 194.6C313.956 193.939 313.822 193.363 313.556 192.872C313.289 192.381 312.926 192.008 312.468 191.752C312.02 191.485 311.524 191.352 310.98 191.352C310.436 191.352 309.94 191.48 309.492 191.736C309.044 191.992 308.686 192.365 308.42 192.856C308.153 193.347 308.02 193.923 308.02 194.584C308.02 195.256 308.153 195.843 308.42 196.344C308.686 196.835 309.044 197.213 309.492 197.48C309.94 197.736 310.436 197.864 310.98 197.864C311.524 197.864 312.02 197.736 312.468 197.48C312.926 197.213 313.289 196.835 313.556 196.344C313.822 195.843 313.956 195.261 313.956 194.6ZM317.344 194.584C317.344 193.688 317.526 192.904 317.888 192.232C318.251 191.549 318.747 191.021 319.376 190.648C320.016 190.275 320.726 190.088 321.504 190.088C322.272 190.088 322.939 190.253 323.504 190.584C324.07 190.915 324.491 191.331 324.768 191.832V190.232H326.24V199H324.768V197.368C324.48 197.88 324.048 198.307 323.472 198.648C322.907 198.979 322.246 199.144 321.488 199.144C320.71 199.144 320.006 198.952 319.376 198.568C318.747 198.184 318.251 197.645 317.888 196.952C317.526 196.259 317.344 195.469 317.344 194.584ZM324.768 194.6C324.768 193.939 324.635 193.363 324.368 192.872C324.102 192.381 323.739 192.008 323.28 191.752C322.832 191.485 322.336 191.352 321.792 191.352C321.248 191.352 320.752 191.48 320.304 191.736C319.856 191.992 319.499 192.365 319.232 192.856C318.966 193.347 318.832 193.923 318.832 194.584C318.832 195.256 318.966 195.843 319.232 196.344C319.499 196.835 319.856 197.213 320.304 197.48C320.752 197.736 321.248 197.864 321.792 197.864C322.336 197.864 322.832 197.736 323.28 197.48C323.739 197.213 324.102 196.835 324.368 196.344C324.635 195.843 324.768 195.261 324.768 194.6ZM336.253 190.232L330.973 203.128H329.469L331.197 198.904L327.661 190.232H329.277L332.029 197.336L334.749 190.232H336.253ZM340.82 199.144C340.148 199.144 339.546 199.032 339.012 198.808C338.479 198.573 338.058 198.253 337.748 197.848C337.439 197.432 337.268 196.957 337.236 196.424H338.74C338.783 196.861 338.986 197.219 339.348 197.496C339.722 197.773 340.207 197.912 340.804 197.912C341.359 197.912 341.796 197.789 342.116 197.544C342.436 197.299 342.596 196.989 342.596 196.616C342.596 196.232 342.426 195.949 342.084 195.768C341.743 195.576 341.215 195.389 340.5 195.208C339.85 195.037 339.316 194.867 338.9 194.696C338.495 194.515 338.143 194.253 337.844 193.912C337.556 193.56 337.412 193.101 337.412 192.536C337.412 192.088 337.546 191.677 337.812 191.304C338.079 190.931 338.458 190.637 338.948 190.424C339.439 190.2 339.999 190.088 340.628 190.088C341.599 190.088 342.383 190.333 342.98 190.824C343.578 191.315 343.898 191.987 343.94 192.84H342.484C342.452 192.381 342.266 192.013 341.924 191.736C341.594 191.459 341.146 191.32 340.58 191.32C340.058 191.32 339.642 191.432 339.332 191.656C339.023 191.88 338.868 192.173 338.868 192.536C338.868 192.824 338.959 193.064 339.14 193.256C339.332 193.437 339.567 193.587 339.844 193.704C340.132 193.811 340.527 193.933 341.028 194.072C341.658 194.243 342.17 194.413 342.564 194.584C342.959 194.744 343.295 194.989 343.572 195.32C343.86 195.651 344.01 196.083 344.02 196.616C344.02 197.096 343.887 197.528 343.62 197.912C343.354 198.296 342.975 198.6 342.484 198.824C342.004 199.037 341.45 199.144 340.82 199.144ZM349.797 194.584C349.797 193.688 349.979 192.904 350.341 192.232C350.704 191.549 351.2 191.021 351.829 190.648C352.469 190.275 353.179 190.088 353.957 190.088C354.725 190.088 355.392 190.253 355.957 190.584C356.523 190.915 356.944 191.331 357.221 191.832V190.232H358.693V199H357.221V197.368C356.933 197.88 356.501 198.307 355.925 198.648C355.36 198.979 354.699 199.144 353.941 199.144C353.163 199.144 352.459 198.952 351.829 198.568C351.2 198.184 350.704 197.645 350.341 196.952C349.979 196.259 349.797 195.469 349.797 194.584ZM357.221 194.6C357.221 193.939 357.088 193.363 356.821 192.872C356.555 192.381 356.192 192.008 355.733 191.752C355.285 191.485 354.789 191.352 354.245 191.352C353.701 191.352 353.205 191.48 352.757 191.736C352.309 191.992 351.952 192.365 351.685 192.856C351.419 193.347 351.285 193.923 351.285 194.584C351.285 195.256 351.419 195.843 351.685 196.344C351.952 196.835 352.309 197.213 352.757 197.48C353.205 197.736 353.701 197.864 354.245 197.864C354.789 197.864 355.285 197.736 355.733 197.48C356.192 197.213 356.555 196.835 356.821 196.344C357.088 195.843 357.221 195.261 357.221 194.6ZM364.77 190.088C365.527 190.088 366.189 190.253 366.754 190.584C367.33 190.915 367.757 191.331 368.034 191.832V190.232H369.506V199.192C369.506 199.992 369.335 200.701 368.994 201.32C368.653 201.949 368.162 202.44 367.522 202.792C366.893 203.144 366.157 203.32 365.314 203.32C364.162 203.32 363.202 203.048 362.434 202.504C361.666 201.96 361.213 201.219 361.074 200.28H362.514C362.674 200.813 363.005 201.24 363.506 201.56C364.007 201.891 364.61 202.056 365.314 202.056C366.114 202.056 366.765 201.805 367.266 201.304C367.778 200.803 368.034 200.099 368.034 199.192V197.352C367.746 197.864 367.319 198.291 366.754 198.632C366.189 198.973 365.527 199.144 364.77 199.144C363.991 199.144 363.282 198.952 362.642 198.568C362.013 198.184 361.517 197.645 361.154 196.952C360.791 196.259 360.61 195.469 360.61 194.584C360.61 193.688 360.791 192.904 361.154 192.232C361.517 191.549 362.013 191.021 362.642 190.648C363.282 190.275 363.991 190.088 364.77 190.088ZM368.034 194.6C368.034 193.939 367.901 193.363 367.634 192.872C367.367 192.381 367.005 192.008 366.546 191.752C366.098 191.485 365.602 191.352 365.058 191.352C364.514 191.352 364.018 191.48 363.57 191.736C363.122 191.992 362.765 192.365 362.498 192.856C362.231 193.347 362.098 193.923 362.098 194.584C362.098 195.256 362.231 195.843 362.498 196.344C362.765 196.835 363.122 197.213 363.57 197.48C364.018 197.736 364.514 197.864 365.058 197.864C365.602 197.864 366.098 197.736 366.546 197.48C367.005 197.213 367.367 196.835 367.634 196.344C367.901 195.843 368.034 195.261 368.034 194.6ZM375.79 199.144C374.969 199.144 374.222 198.957 373.55 198.584C372.889 198.211 372.366 197.683 371.982 197C371.609 196.307 371.422 195.507 371.422 194.6C371.422 193.704 371.614 192.915 371.998 192.232C372.393 191.539 372.926 191.011 373.598 190.648C374.27 190.275 375.022 190.088 375.854 190.088C376.686 190.088 377.438 190.275 378.11 190.648C378.782 191.011 379.31 191.533 379.694 192.216C380.089 192.899 380.286 193.693 380.286 194.6C380.286 195.507 380.084 196.307 379.678 197C379.284 197.683 378.745 198.211 378.062 198.584C377.38 198.957 376.622 199.144 375.79 199.144ZM375.79 197.864C376.313 197.864 376.804 197.741 377.262 197.496C377.721 197.251 378.089 196.883 378.366 196.392C378.654 195.901 378.798 195.304 378.798 194.6C378.798 193.896 378.66 193.299 378.382 192.808C378.105 192.317 377.742 191.955 377.294 191.72C376.846 191.475 376.361 191.352 375.838 191.352C375.305 191.352 374.814 191.475 374.366 191.72C373.929 191.955 373.577 192.317 373.31 192.808C373.044 193.299 372.91 193.896 372.91 194.6C372.91 195.315 373.038 195.917 373.294 196.408C373.561 196.899 373.913 197.267 374.35 197.512C374.788 197.747 375.268 197.864 375.79 197.864Z" fill="#1E293B"/>
</g>
<path fill-rule="evenodd" clip-rule="evenodd" d="M46.8129 106.25C46.8129 104.211 47.6229 102.256 49.0646 100.814C50.5063 99.3724 52.4616 98.5625 54.5004 98.5625C56.5393 98.5625 58.4946 99.3724 59.9363 100.814C61.378 102.256 62.1879 104.211 62.1879 106.25C62.1879 108.289 61.378 110.244 59.9363 111.686C58.4946 113.128 56.5393 113.938 54.5004 113.938C52.4616 113.938 50.5063 113.128 49.0646 111.686C47.6229 110.244 46.8129 108.289 46.8129 106.25ZM40.4084 130.346C40.466 126.647 41.976 123.118 44.6125 120.522C47.2491 117.927 50.8006 116.472 54.5004 116.472C58.2003 116.472 61.7518 117.927 64.3883 120.522C67.0249 123.118 68.5349 126.647 68.5925 130.346C68.5969 130.595 68.5287 130.84 68.3961 131.051C68.2635 131.262 68.0723 131.429 67.8459 131.533C63.6591 133.453 59.1064 134.444 54.5004 134.438C49.741 134.438 45.2191 133.399 41.1549 131.533C40.9286 131.429 40.7374 131.262 40.6048 131.051C40.4722 130.84 40.404 130.595 40.4084 130.346Z" fill="#F1F5F9"/>
<path d="M94 118H122.5V52H152" stroke="#94A3B8" stroke-width="4" stroke-dasharray="6 6"/>
<path d="M151 184H122.5V118H93" stroke="#94A3B8" stroke-width="4" stroke-dasharray="6 6"/>
<defs>
<filter id="filter0_d_701_33" x="0" y="66" width="110" height="110" filterUnits="userSpaceOnUse" color-interpolation-filters="sRGB">
<feFlood flood-opacity="0" result="BackgroundImageFix"/>
<feColorMatrix in="SourceAlpha" type="matrix" values="0 0 0 0 0 0 0 0 0 0 0 0 0 0 0 0 0 0 127 0" result="hardAlpha"/>
<feOffset dy="4"/>
<feGaussianBlur stdDeviation="8"/>
<feComposite in2="hardAlpha" operator="out"/>
<feColorMatrix type="matrix" values="0 0 0 0 0 0 0 0 0 0 0 0 0 0 0 0 0 0 0.05 0"/>
<feBlend mode="normal" in2="BackgroundImageFix" result="effect1_dropShadow_701_33"/>
<feBlend mode="normal" in="SourceGraphic" in2="effect1_dropShadow_701_33" result="shape"/>
</filter>
<filter id="filter1_d_701_33" x="128" y="0" width="283" height="111" filterUnits="userSpaceOnUse" color-interpolation-filters="sRGB">
<feFlood flood-opacity="0" result="BackgroundImageFix"/>
<feColorMatrix in="SourceAlpha" type="matrix" values="0 0 0 0 0 0 0 0 0 0 0 0 0 0 0 0 0 0 127 0" result="hardAlpha"/>
<feOffset dy="4"/>
<feGaussianBlur stdDeviation="8"/>
<feComposite in2="hardAlpha" operator="out"/>
<feColorMatrix type="matrix" values="0 0 0 0 0 0 0 0 0 0 0 0 0 0 0 0 0 0 0.05 0"/>
<feBlend mode="normal" in2="BackgroundImageFix" result="effect1_dropShadow_701_33"/>
<feBlend mode="normal" in="SourceGraphic" in2="effect1_dropShadow_701_33" result="shape"/>
</filter>
<filter id="filter2_d_701_33" x="429" y="17" width="191" height="78" filterUnits="userSpaceOnUse" color-interpolation-filters="sRGB">
<feFlood flood-opacity="0" result="BackgroundImageFix"/>
<feColorMatrix in="SourceAlpha" type="matrix" values="0 0 0 0 0 0 0 0 0 0 0 0 0 0 0 0 0 0 127 0" result="hardAlpha"/>
<feOffset dy="4"/>
<feGaussianBlur stdDeviation="8"/>
<feComposite in2="hardAlpha" operator="out"/>
<feColorMatrix type="matrix" values="0 0 0 0 0 0 0 0 0 0 0 0 0 0 0 0 0 0 0.05 0"/>
<feBlend mode="normal" in2="BackgroundImageFix" result="effect1_dropShadow_701_33"/>
<feBlend mode="normal" in="SourceGraphic" in2="effect1_dropShadow_701_33" result="shape"/>
</filter>
<filter id="filter3_d_701_33" x="429" y="149" width="184" height="78" filterUnits="userSpaceOnUse" color-interpolation-filters="sRGB">
<feFlood flood-opacity="0" result="BackgroundImageFix"/>
<feColorMatrix in="SourceAlpha" type="matrix" values="0 0 0 0 0 0 0 0 0 0 0 0 0 0 0 0 0 0 127 0" result="hardAlpha"/>
<feOffset dy="4"/>
<feGaussianBlur stdDeviation="8"/>
<feComposite in2="hardAlpha" operator="out"/>
<feColorMatrix type="matrix" values="0 0 0 0 0 0 0 0 0 0 0 0 0 0 0 0 0 0 0.05 0"/>
<feBlend mode="normal" in2="BackgroundImageFix" result="effect1_dropShadow_701_33"/>
<feBlend mode="normal" in="SourceGraphic" in2="effect1_dropShadow_701_33" result="shape"/>
</filter>
<filter id="filter4_d_701_33" x="128" y="125" width="283" height="111" filterUnits="userSpaceOnUse" color-interpolation-filters="sRGB">
<feFlood flood-opacity="0" result="BackgroundImageFix"/>
<feColorMatrix in="SourceAlpha" type="matrix" values="0 0 0 0 0 0 0 0 0 0 0 0 0 0 0 0 0 0 127 0" result="hardAlpha"/>
<feOffset dy="4"/>
<feGaussianBlur stdDeviation="8"/>
<feComposite in2="hardAlpha" operator="out"/>
<feColorMatrix type="matrix" values="0 0 0 0 0 0 0 0 0 0 0 0 0 0 0 0 0 0 0.05 0"/>
<feBlend mode="normal" in2="BackgroundImageFix" result="effect1_dropShadow_701_33"/>
<feBlend mode="normal" in="SourceGraphic" in2="effect1_dropShadow_701_33" result="shape"/>
</filter>
</defs>
</svg>
