<svg width="1556" height="462" viewBox="0 0 1556 462" fill="none" xmlns="http://www.w3.org/2000/svg">
<path fill-rule="evenodd" clip-rule="evenodd" d="M291.85 84.4105C291.208 83.1147 290.767 82.4654 289.592 81.6133C286.355 80.5149 283.747 80.9865 280.667 82.2782L279.533 82.7681C278.335 83.2788 277.138 83.7917 275.942 84.3087C268.864 87.3716 261.74 90.3226 254.612 93.2667C252.706 94.0541 250.799 94.8418 248.893 95.6306C240.363 99.1611 231.829 102.68 223.282 106.172C217.531 108.521 211.784 110.88 206.042 113.252L204.857 113.742C201.692 115.05 198.527 116.359 195.363 117.668C181.153 123.546 166.942 129.42 152.682 135.174C149.465 136.473 146.25 137.774 143.036 139.08C142.13 139.448 141.223 139.816 140.316 140.183C125.202 146.296 110.785 154.081 102.634 168.862L102.108 169.838C101.559 170.84 101.141 171.603 100.755 172.382C99.5227 174.872 98.6213 177.526 94.8397 188.659L94.8396 188.66L94.4865 189.7C93.8605 191.543 93.2345 193.386 92.6106 195.229C91.9922 197.056 91.3723 198.883 90.7475 200.708C90.2777 202.08 89.8097 203.453 89.3441 204.826C89.1253 205.473 88.9063 206.119 88.687 206.765C88.5432 207.184 88.3966 207.601 88.2501 208.018C87.2186 210.954 86.1898 213.883 86.1465 217.03C87.1169 218.486 87.8906 219.077 89.4312 219.904C90.9158 220.145 92.2677 220.068 93.6929 219.547L94.7688 219.083L94.7705 219.082C95.2628 218.878 95.5953 218.741 95.9275 218.603C96.6173 218.316 97.3063 218.027 99.4242 217.139L100.235 216.799C104.747 214.907 109.256 213.006 113.76 211.096L115.863 210.204C119.788 208.542 123.705 206.865 127.605 205.144C132.831 202.836 138.074 200.574 143.332 198.342C144.268 197.944 145.203 197.547 146.138 197.15C148.1 196.315 150.062 195.481 152.024 194.647C154.802 193.467 157.579 192.285 160.356 191.102L162.139 190.342C168.569 187.601 174.998 184.86 181.445 182.163C190.883 178.216 200.309 174.239 209.691 170.16C213.895 168.33 218.104 166.515 222.334 164.745L223.103 164.424C224.432 163.868 225.761 163.312 227.09 162.756L228.873 162.01L229.852 161.601C232.218 160.611 234.583 159.621 236.947 158.628C237.764 158.284 238.581 157.941 239.398 157.598C244.451 155.485 249.464 153.323 254.404 150.955C269.593 143.555 277.288 132.308 282.733 116.561C283.318 114.858 283.904 113.155 284.501 111.455C285.38 108.967 286.255 106.478 287.121 103.985L287.162 103.866L287.168 103.848C287.514 102.852 287.859 101.855 288.207 100.86C288.741 99.3496 289.275 97.8397 289.797 96.3254L290.288 94.8949C291.536 91.4215 292.399 88.1289 291.85 84.4105ZM248.689 181.941L247.328 181.976C245.948 181.993 244.786 182.086 243.459 182.467L242.17 182.951C235.843 185.234 229.666 187.853 223.485 190.496C220.811 191.64 218.132 192.771 215.45 193.894C210.019 196.165 204.593 198.447 199.17 200.735L197.954 201.248C193.401 203.17 188.849 205.093 184.308 207.046C177.647 209.915 170.956 212.714 164.264 215.51C161.628 216.611 158.991 217.712 156.356 218.816C149.873 221.533 143.39 224.249 136.899 226.948C134.398 227.988 131.883 229.011 129.366 230.035L129.364 230.036C121.907 233.069 114.427 236.111 107.215 239.638C91.6491 247.52 83.69 260.199 78.2957 276.334C77.542 278.593 76.7715 280.845 75.9861 283.093L75.5852 284.238C75.043 285.786 74.5003 287.335 73.9573 288.883C73.2018 291.036 72.448 293.19 71.7033 295.346C71.3221 296.451 70.9376 297.554 70.5445 298.654C70.2679 299.427 69.994 300.2 69.7227 300.975L69.3302 302.099C68.3251 304.85 67.7848 307.286 68.0808 310.233C68.6859 311.444 69.4138 311.96 70.5443 312.697C72.0159 312.811 73.1697 312.775 74.5812 312.331L75.8049 311.773C76.6026 311.415 77.3986 311.054 78.1919 310.687C78.8925 310.361 79.5937 310.036 80.2953 309.713C81.5874 309.117 82.8791 308.521 84.1706 307.924C94.8474 302.976 105.639 298.271 116.441 293.604C121.642 291.358 126.838 289.103 132.004 286.779C139.591 283.364 147.204 280.007 154.817 276.652L155.946 276.155C168.128 270.787 180.328 265.463 192.567 260.227C195.242 259.083 197.916 257.937 200.589 256.789C201.469 256.411 202.35 256.033 203.231 255.656C204.595 255.072 205.987 254.495 207.392 253.912C216.017 250.336 225.14 246.553 231.502 239.729L232.315 238.791C238.031 232.261 241.274 224.919 243.95 216.722C244.239 215.837 244.529 214.952 244.823 214.068C245.427 212.253 246.03 210.438 246.628 208.621C247.434 206.17 248.249 203.724 249.084 201.283C249.437 200.249 249.79 199.214 250.142 198.18C250.358 197.543 250.575 196.906 250.792 196.27C250.911 195.925 251.031 195.581 251.151 195.237C251.892 193.11 252.635 190.978 253.078 188.768C253.346 186.711 253.225 185.495 252.024 183.773C250.9 182.685 250.252 182.172 248.689 181.941ZM268.525 256.369C269.928 257.461 270.461 257.876 270.791 258.415C270.993 258.745 271.119 259.123 271.322 259.731C271.432 261.979 271.238 263.678 270.521 265.834L270.249 266.664C269.935 267.617 269.613 268.567 269.292 269.517L269.291 269.519L269.269 269.585L269.017 270.341C268.831 270.899 268.645 271.458 268.459 272.016C267.692 274.314 266.916 276.61 266.137 278.905C265.654 280.327 265.174 281.751 264.694 283.174C263.223 287.518 261.725 291.849 260.101 296.139L259.712 297.172C255.266 308.742 247.113 317.347 236.422 323.372L235.496 323.901C228.066 328.095 220.204 331.363 212.34 334.633L212.339 334.633C211.327 335.054 210.314 335.475 209.303 335.898C205.982 337.287 202.67 338.696 199.358 340.106C198.338 340.541 197.318 340.974 196.298 341.408C190.546 343.851 184.802 346.311 179.059 348.776C176.417 349.91 173.773 351.042 171.129 352.174L171.108 352.183C159.548 357.132 159.541 357.135 147.986 362.132C145.421 363.246 142.854 364.354 140.282 365.453L139.406 365.827L138.52 366.205C131.408 369.243 124.319 372.333 117.24 375.45C116.583 375.74 115.925 376.029 115.267 376.318C113.686 377.014 112.106 377.711 110.528 378.412L108.747 379.199L107.932 379.564C104.918 380.893 102.172 381.235 98.8753 380.854C97.416 379.816 96.9712 379.248 96.4118 377.57C96.0439 374.212 97.1118 371.212 98.2119 368.122C98.3479 367.74 98.4844 367.357 98.6187 366.971C98.8451 366.308 99.0712 365.645 99.2969 364.982C100.963 360.104 102.69 355.249 104.442 350.402C105.152 348.432 105.84 346.455 106.511 344.471L106.511 344.471C109.848 334.621 110.892 331.539 112.493 328.78C113.223 327.524 114.068 326.335 115.299 324.604L115.974 323.651C120.721 317.27 126.72 313.576 133.761 310.221C134.572 309.834 135.381 309.441 136.189 309.047C140.963 306.737 145.85 304.696 150.742 302.653L150.742 302.653L151.387 302.383C152.576 301.886 153.763 301.388 154.951 300.89L155.142 300.81C163.757 297.196 172.379 293.599 181.003 290.008C186.982 287.519 192.957 285.022 198.93 282.519C205.137 279.918 211.35 277.334 217.57 274.766C220.055 273.739 222.539 272.709 225.022 271.679L225.05 271.668L226.212 271.186L229.427 269.852C232.765 268.468 236.104 267.083 239.442 265.699L243.959 263.825L247.102 262.522C248.703 261.857 250.305 261.194 251.907 260.53C252.543 260.267 253.18 260.003 253.816 259.739C254.761 259.347 255.706 258.956 256.651 258.565L257.499 258.213C263.329 255.806 265.047 255.096 266.521 255.438C267.137 255.581 267.711 255.907 268.525 256.369ZM398.2 246.8V272.4H471.4V303H359V163H468.8V193.6H398.2V217.2H460.4V246.8H398.2ZM584.975 198C578.175 194.533 570.575 192.8 562.175 192.8C553.108 192.8 544.975 194.8 537.775 198.8C534.026 200.813 530.693 203.369 527.775 206.467V194.6H491.575V303H529.575V250.6C529.575 244.6 530.508 239.733 532.375 236C534.242 232.267 536.842 229.533 540.175 227.8C543.508 225.933 547.175 225 551.175 225C556.775 225 561.108 226.8 564.175 230.4C567.375 233.867 568.975 239.467 568.975 247.2V303H606.975V241C606.975 229.8 604.975 220.667 600.975 213.6C597.108 206.533 591.775 201.333 584.975 198ZM655.4 340C664.867 342.4 674.8 343.6 685.2 343.6C705.467 343.6 721.133 338.667 732.2 328.8C743.267 318.933 748.8 303.733 748.8 283.2V194.6H712.6V207.606C709.762 203.725 706.295 200.657 702.2 198.4C695.667 194.667 687.8 192.8 678.6 192.8C669 192.8 660.133 194.933 652 199.2C644 203.467 637.533 209.533 632.6 217.4C627.8 225.133 625.4 234.333 625.4 245C625.4 255.667 627.8 264.933 632.6 272.8C637.533 280.533 644 286.6 652 291C660.133 295.267 669 297.4 678.6 297.4C687.8 297.4 695.667 295.533 702.2 291.8C705.467 289.933 708.333 287.567 710.8 284.7V288.2C710.8 296.733 708.533 303.2 704 307.6C699.467 312.133 692.067 314.4 681.8 314.4C675.4 314.4 668.8 313.333 662 311.2C655.333 309.2 649.733 306.4 645.2 302.8L631.4 329.4C638.067 334.067 646.067 337.6 655.4 340ZM699.6 264.4C696.133 266.267 692.133 267.2 687.6 267.2C683.067 267.2 679 266.267 675.4 264.4C671.8 262.533 668.933 259.933 666.8 256.6C664.8 253.267 663.8 249.4 663.8 245C663.8 240.6 664.8 236.733 666.8 233.4C668.933 230.067 671.8 227.533 675.4 225.8C679 223.933 683.067 223 687.6 223C692.133 223 696.133 223.933 699.6 225.8C703.2 227.533 706 230.067 708 233.4C710.133 236.733 711.2 240.6 711.2 245C711.2 249.4 710.133 253.267 708 256.6C706 259.933 703.2 262.533 699.6 264.4ZM839.416 288.982V303H874.816V242.8C874.816 225.6 869.949 213 860.216 205C850.616 196.867 837.016 192.8 819.416 192.8C810.882 192.8 802.282 193.933 793.616 196.2C785.082 198.333 777.749 201.4 771.616 205.4L784.416 231.2C788.149 228.267 792.682 226 798.016 224.4C803.349 222.667 808.616 221.8 813.816 221.8C821.816 221.8 827.616 223.467 831.216 226.8C834.61 229.709 836.461 233.776 836.769 239H815.216C804.016 239 794.882 240.333 787.816 243C780.749 245.533 775.482 249.267 772.016 254.2C768.682 259 767.016 264.733 767.016 271.4C767.016 277.667 768.549 283.333 771.616 288.4C774.816 293.467 779.416 297.467 785.416 300.4C791.416 303.333 798.749 304.8 807.416 304.8C816.882 304.8 824.482 302.933 830.216 299.2C834.153 296.605 837.22 293.199 839.416 288.982ZM836.816 268.2V258.8H820.416C814.282 258.8 809.949 259.8 807.416 261.8C805.016 263.8 803.816 266.467 803.816 269.8C803.816 273.133 805.082 275.8 807.616 277.8C810.149 279.8 813.616 280.8 818.016 280.8C822.149 280.8 825.882 279.8 829.216 277.8C832.682 275.667 835.216 272.467 836.816 268.2ZM923.369 340C932.835 342.4 942.769 343.6 953.169 343.6C973.435 343.6 989.102 338.667 1000.17 328.8C1011.24 318.933 1016.77 303.733 1016.77 283.2V194.6H980.569V207.606C977.731 203.725 974.264 200.657 970.169 198.4C963.635 194.667 955.769 192.8 946.569 192.8C936.969 192.8 928.102 194.933 919.969 199.2C911.969 203.467 905.502 209.533 900.569 217.4C895.769 225.133 893.369 234.333 893.369 245C893.369 255.667 895.769 264.933 900.569 272.8C905.502 280.533 911.969 286.6 919.969 291C928.102 295.267 936.969 297.4 946.569 297.4C955.769 297.4 963.635 295.533 970.169 291.8C973.435 289.933 976.302 287.567 978.769 284.7V288.2C978.769 296.733 976.502 303.2 971.969 307.6C967.435 312.133 960.035 314.4 949.769 314.4C943.369 314.4 936.769 313.333 929.969 311.2C923.302 309.2 917.702 306.4 913.169 302.8L899.369 329.4C906.035 334.067 914.035 337.6 923.369 340ZM967.569 264.4C964.102 266.267 960.102 267.2 955.569 267.2C951.035 267.2 946.969 266.267 943.369 264.4C939.769 262.533 936.902 259.933 934.769 256.6C932.769 253.267 931.769 249.4 931.769 245C931.769 240.6 932.769 236.733 934.769 233.4C936.902 230.067 939.769 227.533 943.369 225.8C946.969 223.933 951.035 223 955.569 223C960.102 223 964.102 223.933 967.569 225.8C971.169 227.533 973.969 230.067 975.969 233.4C978.102 236.733 979.169 240.6 979.169 245C979.169 249.4 978.102 253.267 975.969 256.6C973.969 259.933 971.169 262.533 967.569 264.4ZM1064.38 297.6C1073.98 302.4 1085.18 304.8 1097.98 304.8C1108.38 304.8 1117.38 303.333 1124.98 300.4C1132.58 297.333 1138.98 292.933 1144.18 287.2L1124.18 266.4C1120.45 269.6 1116.65 272 1112.78 273.6C1109.05 275.067 1104.52 275.8 1099.18 275.8C1093.45 275.8 1088.52 274.8 1084.38 272.8C1080.25 270.667 1077.05 267.667 1074.78 263.8C1073.87 262.136 1073.15 260.336 1072.62 258.4H1151.38C1151.52 256.933 1151.65 255.333 1151.78 253.6C1151.92 251.867 1151.98 250.333 1151.98 249C1151.98 237 1149.38 226.8 1144.18 218.4C1138.98 210 1131.98 203.667 1123.18 199.4C1114.38 195 1104.65 192.8 1093.98 192.8C1082.65 192.8 1072.45 195.2 1063.38 200C1054.32 204.667 1047.18 211.267 1041.98 219.8C1036.92 228.2 1034.38 237.8 1034.38 248.6C1034.38 259.4 1036.98 269.067 1042.18 277.6C1047.52 286 1054.92 292.667 1064.38 297.6ZM1072.07 238.4C1072.52 235.839 1073.29 233.505 1074.38 231.4C1076.25 227.667 1078.85 224.8 1082.18 222.8C1085.65 220.8 1089.65 219.8 1094.18 219.8C1098.72 219.8 1102.65 220.8 1105.98 222.8C1109.45 224.8 1112.12 227.6 1113.98 231.2C1115.18 233.36 1116 235.76 1116.43 238.4H1072.07ZM1304.5 163H1264.9V215.6H1210.9V163H1171.3V303H1210.9V248.4H1264.9V303H1304.5V163ZM1387.84 304.61C1382.33 303.713 1377.06 302.31 1372.04 300.4C1362.57 296.8 1354.3 291.733 1347.24 285.2C1340.3 278.533 1334.9 270.8 1331.04 262C1327.17 253.2 1325.24 243.533 1325.24 233C1325.24 222.467 1327.17 212.8 1331.04 204C1334.9 195.2 1340.3 187.533 1347.24 181C1354.3 174.333 1362.57 169.2 1372.04 165.6C1381.5 162 1391.84 160.2 1403.04 160.2C1414.37 160.2 1424.7 162 1434.04 165.6C1443.5 169.2 1451.7 174.267 1458.64 180.8C1465.57 187.333 1470.97 195.067 1474.84 204C1478.84 212.8 1480.84 222.467 1480.84 233C1480.84 243.533 1478.84 253.267 1474.84 262.2C1470.97 271 1465.57 278.667 1458.64 285.2C1451.7 291.733 1443.5 296.8 1434.04 300.4C1433.8 300.492 1433.56 300.583 1433.32 300.673C1433.36 300.716 1433.4 300.758 1433.44 300.8C1436.1 303.6 1438.7 305.6 1441.24 306.8C1443.9 308 1446.7 308.6 1449.64 308.6C1457.37 308.6 1464.44 305.333 1470.84 298.8L1488.04 319.2C1478.3 330.933 1465.24 336.8 1448.84 336.8C1442.84 336.8 1437.24 336.133 1432.04 334.8C1426.84 333.6 1421.7 331.6 1416.64 328.8C1411.7 326 1406.5 322.2 1401.04 317.4C1397.02 313.781 1392.62 309.518 1387.84 304.61ZM1417.84 270.2C1413.3 272.067 1408.37 273 1403.04 273C1397.7 273 1392.7 272.067 1388.04 270.2C1383.5 268.333 1379.5 265.667 1376.04 262.2C1372.7 258.6 1370.04 254.333 1368.04 249.4C1366.17 244.467 1365.24 239 1365.24 233C1365.24 226.867 1366.17 221.4 1368.04 216.6C1370.04 211.667 1372.7 207.467 1376.04 204C1379.5 200.4 1383.5 197.667 1388.04 195.8C1392.7 193.933 1397.7 193 1403.04 193C1408.37 193 1413.3 193.933 1417.84 195.8C1422.5 197.667 1426.5 200.4 1429.84 204C1433.3 207.467 1435.97 211.667 1437.84 216.6C1439.84 221.4 1440.84 226.867 1440.84 233C1440.84 239 1439.84 244.467 1437.84 249.4C1435.97 254.333 1433.3 258.6 1429.84 262.2C1426.5 265.667 1422.5 268.333 1417.84 270.2Z" fill="#38B5DB"/>
</svg>
