<svg width="641" height="200" viewBox="0 0 641 200" fill="none" xmlns="http://www.w3.org/2000/svg">
<path d="M67 180V110H108.1V122.6H81V139H107.6V151.4H81V180H67ZM141.309 181.3C125.209 181.3 113.609 169.1 113.609 154.1C113.609 139.1 125.209 126.8 141.309 126.8C157.409 126.8 169.009 139.1 169.009 154.1C169.009 169.1 157.409 181.3 141.309 181.3ZM127.109 154.1C127.109 162.2 132.709 169 141.309 169C149.909 169 155.509 162.2 155.509 154.1C155.509 146 149.909 139.1 141.309 139.1C132.709 139.1 127.109 146 127.109 154.1ZM174.984 180V128H188.084V137.9C189.884 130.4 195.184 126.3 204.184 126.8V139.5H202.284C194.484 139.5 188.484 144.7 188.484 153.4V180H174.984ZM212.676 180V128H225.976V135.6C228.676 129.8 233.876 126.8 241.876 126.8C249.176 126.8 255.376 130.3 258.776 136.6C262.276 130.3 267.276 126.8 276.376 126.8C287.576 126.8 296.176 135.1 296.176 148.2V180H282.676V151.5C282.676 142.5 278.376 138.6 272.276 138.6C265.976 138.6 261.676 141.5 261.676 151.5V180H248.176V151.5C248.176 142.5 243.676 138.6 236.976 138.6C231.276 138.6 226.176 142.5 226.176 151.5V180H212.676ZM337.591 181.3C328.291 181.3 323.591 177.4 320.791 171.5V180H307.691V107H321.191V136C323.991 130.5 328.691 126.9 337.591 126.9C351.891 126.9 363.291 139.2 363.291 154.2C363.291 169.2 351.891 181.3 337.591 181.3ZM320.791 154.2C320.791 162.3 326.491 169.1 335.391 169.1C343.991 169.1 349.791 162 349.791 154.1C349.791 146 343.991 139.1 335.391 139.1C326.491 139.1 320.791 146.1 320.791 154.2ZM371.313 180V128H384.413V137.9C386.213 130.4 391.513 126.3 400.513 126.8V139.5H398.613C390.813 139.5 384.813 144.7 384.813 153.4V180H371.313ZM409.004 180V128H422.504V180H409.004ZM407.604 115.7C407.604 111.4 411.104 107.8 415.704 107.8C420.404 107.8 423.804 111.4 423.804 115.7C423.804 120.2 420.404 123.7 415.704 123.7C411.104 123.7 407.604 120.1 407.604 115.7ZM455.288 181.3C440.388 181.3 428.488 169.1 428.488 154C428.488 138.9 440.088 126.8 455.988 126.7C465.488 126.6 473.188 130.3 477.588 136.4L467.188 144.9C464.788 141.3 460.788 139 456.188 139C447.588 139 441.988 145.9 441.988 154C441.988 162.1 447.888 169 456.488 169C461.688 169 465.088 166.4 467.788 162.8L477.588 171.3C472.688 177.6 465.488 181.3 455.288 181.3ZM517.33 180L496.43 155.3V180H482.93V107H496.43V149L515.93 128H535.13L510.63 152.2L535.23 180H517.33ZM557.562 181.3C548.762 181.3 541.662 178.3 535.962 172.2L545.062 163.9C548.862 168.2 552.862 170.3 557.262 170.3C561.862 170.3 564.462 168 564.462 164.9C564.462 162.2 563.162 160.7 554.962 158.8C541.062 155.5 538.962 149.2 538.962 142.6C538.962 133.5 546.162 126.7 558.362 126.7C566.762 126.7 572.362 128.8 577.662 135.7L567.862 143.2C565.362 139.2 562.162 137.6 558.662 137.6C554.962 137.6 552.162 139 552.162 142.2C552.162 144 552.962 145.6 559.162 147.2C574.262 151.1 577.762 156.7 577.762 164.5C577.762 174.1 569.062 181.3 557.562 181.3Z" fill="#0F172A"/>
<path d="M187.25 72.1H182.85V34.7H187.25V72.1ZM208.425 47.35C208.425 50.0633 207.857 52.41 206.72 54.39C205.583 56.37 204.062 57.8917 202.155 58.955C200.285 60.0183 198.195 60.55 195.885 60.55C193.795 60.55 191.943 60.0183 190.33 58.955C188.753 57.8917 187.507 56.37 186.59 54.39C185.71 52.41 185.27 50.0633 185.27 47.35C185.27 44.6 185.71 42.2533 186.59 40.31C187.507 38.33 188.753 36.8083 190.33 35.745C191.943 34.6817 193.795 34.15 195.885 34.15C198.195 34.15 200.285 34.6817 202.155 35.745C204.062 36.8083 205.583 38.33 206.72 40.31C207.857 42.2533 208.425 44.6 208.425 47.35ZM203.97 47.35C203.97 45.4067 203.567 43.7567 202.76 42.4C201.99 41.0433 200.945 40.0167 199.625 39.32C198.342 38.6233 196.912 38.275 195.335 38.275C194.052 38.275 192.787 38.6233 191.54 39.32C190.293 40.0167 189.267 41.0433 188.46 42.4C187.653 43.7567 187.25 45.4067 187.25 47.35C187.25 49.2933 187.653 50.9433 188.46 52.3C189.267 53.6567 190.293 54.6833 191.54 55.38C192.787 56.0767 194.052 56.425 195.335 56.425C196.912 56.425 198.342 56.0767 199.625 55.38C200.945 54.6833 201.99 53.6567 202.76 52.3C203.567 50.9433 203.97 49.2933 203.97 47.35ZM213.392 47.35C213.392 44.7833 213.961 42.51 215.097 40.53C216.271 38.55 217.847 36.9917 219.827 35.855C221.807 34.7183 224.026 34.15 226.482 34.15C228.976 34.15 231.194 34.7183 233.137 35.855C235.117 36.9917 236.676 38.55 237.812 40.53C238.986 42.51 239.572 44.7833 239.572 47.35C239.572 49.88 238.986 52.1533 237.812 54.17C236.676 56.15 235.117 57.7083 233.137 58.845C231.194 59.9817 228.976 60.55 226.482 60.55C224.026 60.55 221.807 59.9817 219.827 58.845C217.847 57.7083 216.271 56.15 215.097 54.17C213.961 52.1533 213.392 49.88 213.392 47.35ZM217.847 47.35C217.847 49.11 218.214 50.6683 218.947 52.025C219.717 53.3817 220.744 54.4633 222.027 55.27C223.347 56.04 224.832 56.425 226.482 56.425C228.132 56.425 229.599 56.04 230.882 55.27C232.202 54.4633 233.229 53.3817 233.962 52.025C234.732 50.6683 235.117 49.11 235.117 47.35C235.117 45.59 234.732 44.0317 233.962 42.675C233.229 41.2817 232.202 40.2 230.882 39.43C229.599 38.66 228.132 38.275 226.482 38.275C224.832 38.275 223.347 38.66 222.027 39.43C220.744 40.2 219.717 41.2817 218.947 42.675C218.214 44.0317 217.847 45.59 217.847 47.35ZM242.061 34.7H247.011L253.336 51.145L260.211 32.775L267.581 51.255L273.961 34.7H278.911L267.911 61.925L260.266 43.5L253.061 61.925L242.061 34.7ZM293.378 60.55C291.031 60.55 288.941 60 287.108 58.9C285.311 57.7633 283.9 56.205 282.873 54.225C281.883 52.245 281.388 49.9533 281.388 47.35C281.388 44.71 281.901 42.4 282.928 40.42C283.991 38.44 285.458 36.9 287.328 35.8C289.235 34.7 291.435 34.15 293.928 34.15C296.421 34.15 298.548 34.6817 300.308 35.745C302.105 36.7717 303.48 38.2567 304.433 40.2C305.386 42.1433 305.863 44.4533 305.863 47.13C305.863 47.3867 305.845 47.6617 305.808 47.955C305.808 48.2117 305.808 48.3767 305.808 48.45H284.193V44.71H302.343L300.583 47.24C300.693 47.0567 300.803 46.7817 300.913 46.415C301.023 46.0117 301.078 45.6817 301.078 45.425C301.078 43.9217 300.766 42.62 300.143 41.52C299.556 40.42 298.731 39.5583 297.668 38.935C296.605 38.3117 295.358 38 293.928 38C292.241 38 290.793 38.3667 289.583 39.1C288.41 39.7967 287.493 40.8233 286.833 42.18C286.21 43.5 285.88 45.1317 285.843 47.075C285.843 49.055 286.155 50.7417 286.778 52.135C287.401 53.5283 288.318 54.5917 289.528 55.325C290.738 56.0583 292.205 56.425 293.928 56.425C295.651 56.425 297.173 56.0583 298.493 55.325C299.813 54.555 300.931 53.4 301.848 51.86L305.423 54.115C304.103 56.2417 302.435 57.855 300.418 58.955C298.438 60.0183 296.091 60.55 293.378 60.55ZM317.394 34.7V60H312.994V34.7H317.394ZM325.039 39.54C324.452 39.1 323.92 38.7883 323.444 38.605C322.967 38.385 322.362 38.275 321.629 38.275C320.529 38.275 319.667 38.55 319.044 39.1C318.42 39.65 317.98 40.4017 317.724 41.355C317.504 42.3083 317.394 43.39 317.394 44.6H315.414C315.414 42.5833 315.762 40.805 316.459 39.265C317.192 37.6883 318.127 36.4417 319.264 35.525C320.4 34.6083 321.555 34.15 322.729 34.15C323.645 34.15 324.489 34.2783 325.259 34.535C326.065 34.755 326.799 35.2133 327.459 35.91L325.039 39.54ZM341.931 60.55C339.584 60.55 337.494 60 335.661 58.9C333.864 57.7633 332.452 56.205 331.426 54.225C330.436 52.245 329.941 49.9533 329.941 47.35C329.941 44.71 330.454 42.4 331.481 40.42C332.544 38.44 334.011 36.9 335.881 35.8C337.787 34.7 339.987 34.15 342.481 34.15C344.974 34.15 347.101 34.6817 348.861 35.745C350.657 36.7717 352.032 38.2567 352.986 40.2C353.939 42.1433 354.416 44.4533 354.416 47.13C354.416 47.3867 354.397 47.6617 354.361 47.955C354.361 48.2117 354.361 48.3767 354.361 48.45H332.746V44.71H350.896L349.136 47.24C349.246 47.0567 349.356 46.7817 349.466 46.415C349.576 46.0117 349.631 45.6817 349.631 45.425C349.631 43.9217 349.319 42.62 348.696 41.52C348.109 40.42 347.284 39.5583 346.221 38.935C345.157 38.3117 343.911 38 342.481 38C340.794 38 339.346 38.3667 338.136 39.1C336.962 39.7967 336.046 40.8233 335.386 42.18C334.762 43.5 334.432 45.1317 334.396 47.075C334.396 49.055 334.707 50.7417 335.331 52.135C335.954 53.5283 336.871 54.5917 338.081 55.325C339.291 56.0583 340.757 56.425 342.481 56.425C344.204 56.425 345.726 56.0583 347.046 55.325C348.366 54.555 349.484 53.4 350.401 51.86L353.976 54.115C352.656 56.2417 350.987 57.855 348.971 58.955C346.991 60.0183 344.644 60.55 341.931 60.55ZM380.521 17.1H384.921V60H380.521V17.1ZM359.346 47.35C359.346 44.6 359.915 42.2533 361.051 40.31C362.188 38.33 363.71 36.8083 365.616 35.745C367.523 34.6817 369.613 34.15 371.886 34.15C374.013 34.15 375.865 34.6817 377.441 35.745C379.018 36.8083 380.246 38.33 381.126 40.31C382.043 42.2533 382.501 44.6 382.501 47.35C382.501 50.0633 382.043 52.41 381.126 54.39C380.246 56.37 379.018 57.8917 377.441 58.955C375.865 60.0183 374.013 60.55 371.886 60.55C369.613 60.55 367.523 60.0183 365.616 58.955C363.71 57.8917 362.188 56.37 361.051 54.39C359.915 52.41 359.346 50.0633 359.346 47.35ZM363.801 47.35C363.801 49.2933 364.186 50.9433 364.956 52.3C365.763 53.6567 366.826 54.6833 368.146 55.38C369.466 56.0767 370.896 56.425 372.436 56.425C373.72 56.425 374.985 56.0767 376.231 55.38C377.478 54.6833 378.505 53.6567 379.311 52.3C380.118 50.9433 380.521 49.2933 380.521 47.35C380.521 45.4067 380.118 43.7567 379.311 42.4C378.505 41.0433 377.478 40.0167 376.231 39.32C374.985 38.6233 373.72 38.275 372.436 38.275C370.896 38.275 369.466 38.6233 368.146 39.32C366.826 40.0167 365.763 41.0433 364.956 42.4C364.186 43.7567 363.801 45.4067 363.801 47.35ZM415.728 17.1V60H411.328V17.1H415.728ZM436.903 47.35C436.903 50.0633 436.334 52.41 435.198 54.39C434.061 56.37 432.539 57.8917 430.633 58.955C428.763 60.0183 426.673 60.55 424.363 60.55C422.273 60.55 420.421 60.0183 418.808 58.955C417.231 57.8917 415.984 56.37 415.068 54.39C414.188 52.41 413.748 50.0633 413.748 47.35C413.748 44.6 414.188 42.2533 415.068 40.31C415.984 38.33 417.231 36.8083 418.808 35.745C420.421 34.6817 422.273 34.15 424.363 34.15C426.673 34.15 428.763 34.6817 430.633 35.745C432.539 36.8083 434.061 38.33 435.198 40.31C436.334 42.2533 436.903 44.6 436.903 47.35ZM432.448 47.35C432.448 45.4067 432.044 43.7567 431.238 42.4C430.468 41.0433 429.423 40.0167 428.103 39.32C426.819 38.6233 425.389 38.275 423.813 38.275C422.529 38.275 421.264 38.6233 420.018 39.32C418.771 40.0167 417.744 41.0433 416.938 42.4C416.131 43.7567 415.728 45.4067 415.728 47.35C415.728 49.2933 416.131 50.9433 416.938 52.3C417.744 53.6567 418.771 54.6833 420.018 55.38C421.264 56.0767 422.529 56.425 423.813 56.425C425.389 56.425 426.819 56.0767 428.103 55.38C429.423 54.6833 430.468 53.6567 431.238 52.3C432.044 50.9433 432.448 49.2933 432.448 47.35ZM463.339 34.7L446.839 72.1H441.889L448.819 56.425L439.139 34.7H444.364L452.394 54.5L450.579 54.28L458.389 34.7H463.339Z" fill="#475569"/>
</svg>
