<svg width="20" height="20" viewBox="0 0 20 20" fill="none" xmlns="http://www.w3.org/2000/svg">
<path d="M10 12.2184L11.7903 13.3157C11.9467 13.4144 12.1056 13.4065 12.267 13.2919C12.4285 13.178 12.4894 13.0245 12.4497 12.8313L11.9708 10.7924L13.5546 9.43243C13.7103 9.29405 13.7557 9.13658 13.6908 8.96C13.6252 8.7827 13.4941 8.68541 13.2973 8.66811L11.2249 8.47784L10.4032 6.56757C10.329 6.39316 10.195 6.30595 10.0011 6.30595C9.80721 6.30595 9.67243 6.39316 9.59676 6.56757L8.77514 8.47784L6.70271 8.66703C6.50595 8.68505 6.37514 8.78234 6.31027 8.95892C6.24541 9.1355 6.29045 9.29333 6.44541 9.43243L8.02919 10.7924L7.55135 12.8313C7.51099 13.0245 7.57153 13.178 7.73298 13.2919C7.89442 13.4065 8.05334 13.4144 8.20973 13.3157L10 12.2184ZM6.82811 17.5676H4.17947C3.69875 17.5676 3.28757 17.3964 2.94595 17.054C2.60433 16.7117 2.43316 16.3013 2.43244 15.8227V13.173L0.497306 11.2238C0.326496 11.0486 0.20073 10.8562 0.12001 10.6465C0.0392889 10.4368 -0.000711153 10.2227 9.56706e-06 10.0043C9.56706e-06 9.78739 0.0403699 9.57261 0.121091 9.36C0.201811 9.14739 0.326856 8.95351 0.496225 8.77838L2.43244 6.82811V4.17947C2.43244 3.69875 2.60361 3.28757 2.94595 2.94595C3.28829 2.60433 3.69911 2.43316 4.17838 2.43244H6.82811L8.7773 0.497306C8.95243 0.326496 9.14487 0.20073 9.3546 0.12001C9.56432 0.0392889 9.77838 -0.000711153 9.99676 9.56706e-06C10.2137 9.56706e-06 10.4285 0.0403699 10.6411 0.121091C10.8537 0.201811 11.0476 0.326856 11.2227 0.496225L13.1719 2.43244H15.8205C16.3013 2.43244 16.7128 2.60361 17.0551 2.94595C17.3975 3.28829 17.5683 3.69911 17.5676 4.17838V6.82811L19.5027 8.7773C19.6735 8.95243 19.7993 9.14487 19.88 9.3546C19.9607 9.56432 20.0007 9.77838 20 9.99676C20 10.2137 19.96 10.4285 19.88 10.6411C19.8 10.8537 19.6746 11.0476 19.5038 11.2227L17.5676 13.1719V15.8205C17.5676 16.3013 17.3964 16.7128 17.054 17.0551C16.7117 17.3975 16.3009 17.5683 15.8216 17.5676H13.1719L11.2227 19.5027C11.0476 19.6735 10.8551 19.7993 10.6454 19.88C10.4357 19.9607 10.2216 20.0007 10.0032 20C9.78631 20 9.57153 19.96 9.35892 19.88C9.14631 19.8 8.95243 19.6746 8.7773 19.5038L6.82811 17.5676Z" fill="url(#paint0_linear_592_89)"/>
<defs>
<linearGradient id="paint0_linear_592_89" x1="3.72529e-08" y1="10" x2="20" y2="10" gradientUnits="userSpaceOnUse">
<stop offset="0.01" stop-color="#69B6FF"/>
<stop offset="1" stop-color="#B7ABFF"/>
</linearGradient>
</defs>
</svg>
