<svg width="198" height="263" viewBox="0 0 198 263" fill="none" xmlns="http://www.w3.org/2000/svg">
<path d="M0 183.149H79.2V222.749C79.2 244.619 61.4705 262.349 39.6 262.349C17.7295 262.349 0 244.619 0 222.749V183.149Z" fill="url(#paint0_linear_301_72)"/>
<path d="M0 91.5747H158.4C180.27 91.5747 198 109.304 198 131.175C198 153.045 180.27 170.775 158.4 170.775H0V91.5747Z" fill="url(#paint1_linear_301_72)"/>
<path d="M0 64.9181C0 29.0648 29.0648 0 64.918 0H158.4C180.27 0 198 17.7295 198 39.6C198 61.4705 180.27 79.2 158.4 79.2H0V64.9181Z" fill="url(#paint2_linear_301_72)"/>
<mask id="mask0_301_72" style="mask-type:alpha" maskUnits="userSpaceOnUse" x="0" y="0" width="198" height="263">
<path d="M0 183.151H79.2V222.751C79.2 244.621 61.4705 262.351 39.6 262.351C17.7295 262.351 0 244.621 0 222.751V183.151Z" fill="url(#paint3_linear_301_72)"/>
<path d="M0 91.5762H158.4C180.27 91.5762 198 109.306 198 131.176C198 153.047 180.27 170.776 158.4 170.776H0V91.5762Z" fill="url(#paint4_linear_301_72)"/>
<path d="M0 64.9181C0 29.0648 29.0648 0 64.918 0H158.4C180.27 0 198 17.7295 198 39.6C198 61.4705 180.27 79.2 158.4 79.2H0V64.9181Z" fill="url(#paint5_linear_301_72)"/>
</mask>
<g mask="url(#mask0_301_72)">
<g filter="url(#filter0_d_301_72)">
<mask id="mask1_301_72" style="mask-type:alpha" maskUnits="userSpaceOnUse" x="0" y="0" width="198" height="263">
<path d="M0 183.151H79.2V222.751C79.2 244.621 61.4705 262.351 39.6 262.351C17.7295 262.351 0 244.621 0 222.751V183.151Z" fill="black" fill-opacity="0.1"/>
<path d="M0 64.9181C0 29.0648 29.0648 0 64.918 0H158.4C180.27 0 198 17.7295 198 39.6C198 61.4705 180.27 79.2 158.4 79.2H0V64.9181Z" fill="black" fill-opacity="0.1"/>
<path d="M0 91.5762H158.4C180.27 91.5762 198 109.306 198 131.176C198 153.047 180.27 170.776 158.4 170.776H0V91.5762Z" fill="black" fill-opacity="0.1"/>
</mask>
<g mask="url(#mask1_301_72)">
<path d="M4.1553 -68.2164C35.1799 -98.4956 113.85 -68.2164 113.85 -68.2164H4.1553C-3.4647 -60.7794 -8.21048 -49.6893 -8.21048 -33.6001C-8.21048 47.996 80.1781 77.6677 80.1781 134.538C80.1781 190.209 -4.52334 224.555 -8.09431 300.203H113.85C113.85 300.203 -8.21048 384.271 -8.21048 305.148C-8.21048 303.48 -8.17121 301.832 -8.09431 300.203H-61.875L-51.3525 -68.2164H4.1553Z" fill="black" fill-opacity="0.1"/>
</g>
</g>
<g filter="url(#filter1_f_301_72)">
<circle cx="-24.75" cy="227.7" r="74.25" fill="#00C4B8"/>
</g>
<g filter="url(#filter2_f_301_72)">
<circle cx="-24.75" cy="39.6006" r="74.25" fill="#00C4B8"/>
</g>
</g>
<defs>
<filter id="filter0_d_301_72" x="-6.4918" y="-38.9508" width="191.752" height="340.253" filterUnits="userSpaceOnUse" color-interpolation-filters="sRGB">
<feFlood flood-opacity="0" result="BackgroundImageFix"/>
<feColorMatrix in="SourceAlpha" type="matrix" values="0 0 0 0 0 0 0 0 0 0 0 0 0 0 0 0 0 0 127 0" result="hardAlpha"/>
<feOffset dx="32.459"/>
<feGaussianBlur stdDeviation="19.4754"/>
<feComposite in2="hardAlpha" operator="out"/>
<feColorMatrix type="matrix" values="0 0 0 0 0 0 0 0 0 0 0 0 0 0 0 0 0 0 0.25 0"/>
<feBlend mode="normal" in2="BackgroundImageFix" result="effect1_dropShadow_301_72"/>
<feBlend mode="normal" in="SourceGraphic" in2="effect1_dropShadow_301_72" result="shape"/>
</filter>
<filter id="filter1_f_301_72" x="-163.918" y="88.5317" width="278.336" height="278.336" filterUnits="userSpaceOnUse" color-interpolation-filters="sRGB">
<feFlood flood-opacity="0" result="BackgroundImageFix"/>
<feBlend mode="normal" in="SourceGraphic" in2="BackgroundImageFix" result="shape"/>
<feGaussianBlur stdDeviation="32.459" result="effect1_foregroundBlur_301_72"/>
</filter>
<filter id="filter2_f_301_72" x="-163.918" y="-99.5675" width="278.336" height="278.336" filterUnits="userSpaceOnUse" color-interpolation-filters="sRGB">
<feFlood flood-opacity="0" result="BackgroundImageFix"/>
<feBlend mode="normal" in="SourceGraphic" in2="BackgroundImageFix" result="shape"/>
<feGaussianBlur stdDeviation="32.459" result="effect1_foregroundBlur_301_72"/>
</filter>
<linearGradient id="paint0_linear_301_72" x1="79.5444" y1="221.314" x2="-0.00681719" y2="221.636" gradientUnits="userSpaceOnUse">
<stop offset="1" stop-color="#00C4B8"/>
</linearGradient>
<linearGradient id="paint1_linear_301_72" x1="198.861" y1="129.74" x2="2.49336e-08" y2="131.749" gradientUnits="userSpaceOnUse">
<stop stop-color="#00DDD0"/>
<stop offset="1" stop-color="#01E0C6"/>
</linearGradient>
<linearGradient id="paint2_linear_301_72" x1="198.861" y1="38.1652" x2="2.49336e-08" y2="40.1739" gradientUnits="userSpaceOnUse">
<stop stop-color="#00DDD0"/>
<stop offset="1" stop-color="#01E0C6"/>
</linearGradient>
<linearGradient id="paint3_linear_301_72" x1="79.5444" y1="221.316" x2="-0.00681719" y2="221.638" gradientUnits="userSpaceOnUse">
<stop stop-color="#00FFE1"/>
<stop offset="1" stop-color="#01E0C6"/>
</linearGradient>
<linearGradient id="paint4_linear_301_72" x1="198.861" y1="129.741" x2="2.49336e-08" y2="131.75" gradientUnits="userSpaceOnUse">
<stop stop-color="#00FFE1"/>
<stop offset="1" stop-color="#01E0C6"/>
</linearGradient>
<linearGradient id="paint5_linear_301_72" x1="198.861" y1="38.1652" x2="2.49336e-08" y2="40.1739" gradientUnits="userSpaceOnUse">
<stop stop-color="#00FFE1"/>
<stop offset="1" stop-color="#01E0C6"/>
</linearGradient>
</defs>
</svg>
