<svg viewBox="0 0 512 512" xmlns="http://www.w3.org/2000/svg"><path d="m144 208c-17.7 0-32 14.3-32 32s14.3 32 32 32 32-14.3 32-32-14.3-32-32-32zm112 0c-17.7 0-32 14.3-32 32s14.3 32 32 32 32-14.3 32-32-14.3-32-32-32zm112 0c-17.7 0-32 14.3-32 32s14.3 32 32 32 32-14.3 32-32-14.3-32-32-32zm-112-176c-141.4 0-256 93.1-256 208 0 47.6 19.9 91.2 52.9 126.3-14.9 39.4-45.9 72.8-46.4 73.2-6.6 7-8.4 17.2-4.6 26s12.5 14.5 22.1 14.5c61.5 0 110-25.7 139.1-46.3 28.9 9.1 60.1 14.3 92.9 14.3 141.4 0 256-93.1 256-208s-114.6-208-256-208zm0 368c-26.7 0-53.1-4.1-78.4-12.1l-22.7-7.2-19.5 13.8c-14.3 10.1-33.9 21.4-57.5 29 7.3-12.1 14.4-25.7 19.9-40.2l10.6-28.1-20.6-21.8c-18.1-19.3-39.8-51.2-39.8-93.4 0-88.2 93.3-160 208-160s208 71.8 208 160-93.3 160-208 160z"/></svg>