<svg viewBox="0 0 576 512" xmlns="http://www.w3.org/2000/svg"><path d="m532 386.2c27.5-27.1 44-61.1 44-98.2 0-80-76.5-146.1-176.2-157.9-31.5-57.6-105.5-98.1-191.8-98.1-114.9 0-208 71.6-208 160 0 37 16.5 71 44 98.2-15.3 30.7-37.3 54.5-37.7 54.9-6.3 6.7-8.1 16.5-4.4 25 3.6 8.5 12 14 21.2 14 53.5 0 96.7-20.2 125.2-38.8 9.2 2.1 18.7 3.7 28.4 4.9 31.4 57.4 105.1 97.8 191.3 97.8 20.8 0 40.8-2.4 59.8-6.8 28.5 18.5 71.6 38.8 125.2 38.8 9.2 0 17.5-5.5 21.2-14 3.6-8.5 1.9-18.3-4.4-25-.4-.3-22.5-24.1-37.8-54.8zm-392.8-92.3-17.1 11.1c-14.1 9.1-28.5 16.3-43.1 21.4 2.7-4.7 5.4-9.7 8-14.8l15.5-31.1-24.8-24.5c-13.5-13.4-29.7-35.3-29.7-64 0-60.7 73.3-112 160-112s160 51.3 160 112-73.3 112-160 112c-16.5 0-33-1.9-49-5.6zm359.1 58.1-24.7 24.4 15.5 31.1c2.6 5.1 5.3 10.1 8 14.8-14.6-5.1-29-12.3-43.1-21.4l-17.1-11.1-19.9 4.6c-16 3.7-32.5 5.6-49 5.6-54 0-102.2-20.1-131.3-49.7 101.3-10.8 179.3-77.4 179.3-158.3 0-3.4-.4-6.7-.7-10 64.4 14.5 112.7 56.8 112.7 106 0 28.7-16.2 50.6-29.7 64z"/></svg>