<svg viewBox="0 0 14 14" xmlns="http://www.w3.org/2000/svg"><path d="m11.68292688 13.00000007h-9.36585376c-.64390245 0-1.17073172-.52682927-1.17073172-1.17073172v-6.11707324c0-.3804878.17560976-.73170732.49756098-.96585367l5.35609762-3.7463415 5.35609762 3.7463415c.32195122.20487805.49756098.58536586.49756098.96585367v6.11707324c0 .64390245-.52682927 1.17073172-1.17073172 1.17073172z" fill="#78909c"/><path d="m3.48780484 4.21951217h7.02439032v6.43902446h-7.02439032z" fill="#fff"/><path d="m7 4.98048779-1.75609758 2.28292685h3.51219516z" fill="#9c27b0"/><path d="m11.68292688 13.00000007h-9.36585376c-.64390245 0-1.17073172-.52682927-1.17073172-1.17073172v-5.8536586l5.8536586 3.80487809 5.8536586-3.80487809v5.8536586c0 .64390245-.52682927 1.17073172-1.17073172 1.17073172z" fill="#cfd8dc"/><path d="m6.41463414 8.81463417.58536586.38048781.58536586-.3804878v-1.96097565h-1.17073172z" fill="#9c27b0"/></svg>