<svg height="48" width="48" xmlns="http://www.w3.org/2000/svg" xmlns:xlink="http://www.w3.org/1999/xlink"><linearGradient id="a" gradientTransform="matrix(.35546484 0 0 .33718472 -123.65334 -134.56596)" gradientUnits="userSpaceOnUse" x1="208.71123" x2="206.5988" y1="669.99457" y2="364.96884"><stop offset="0" stop-color="#4c93dd"/><stop offset="1" stop-color="#56c5fd"/></linearGradient><linearGradient id="b" gradientTransform="matrix(-.0508781 -.78926282 .78926282 -.0508781 -860.6417 87.245409)" gradientUnits="userSpaceOnUse" x1="2" x2="46.540497" y1="1028.3622" y2="1031.0812"><stop offset="0" stop-color="#dcdfe0"/><stop offset="1" stop-color="#fefeff"/></linearGradient><linearGradient id="c" gradientUnits="userSpaceOnUse" x1="129.653567" x2="129.653567" y1="63.737633" y2="-9.026241"><stop offset="0" stop-color="#3889e9"/><stop offset="1" stop-color="#5ea5fb"/></linearGradient><g transform="matrix(.63218236 0 0 .63218236 5.63629 11.40176)"><circle cx="-12.773349" cy="101.85606" fill="#04a" r="0" stroke-width="1.581822" transform="matrix(-.0643293 -.99792873 .99792873 -.0643293 0 0)"/><g transform="translate(79.262815 -3.172372)"><path d="m-83.256403-9.9229815c-.974141 0-1.758378.7450395-1.758378 1.6690849v52.9574046c0 .924042.784237 1.669085 1.758378 1.669085h27.02476c2.816124 5.010171 6.801076 11.340301 7.425024 11.333295.617476-.0069 4.383703-6.286939 7.081591-11.333295h24.552044c.974141 0 1.758378-.745043 1.758378-1.669085v-52.9574046c0-.9240454-.784237-1.6690849-1.758378-1.6690849z" fill-opacity=".666667"/><path d="m-83.256403-11.504803c-.974141 0-1.758378.745039-1.758378 1.6690844v52.9574046c0 .924042.784237 1.669085 1.758378 1.669085h27.02476c2.816124 5.010171 6.801076 11.340301 7.425024 11.333295.617476-.0069 4.383703-6.286939 7.081591-11.333295h24.552044c.974141 0 1.758378-.745043 1.758378-1.669085v-52.9574046c0-.9240454-.784237-1.6690844-1.758378-1.6690844z" fill="url(#a)"/><path d="m-49.594868-1.4071001a17.39982 17.399823 86.311656 0 0 -1.738666.0257 17.39982 17.399823 86.311656 0 0 -16.245185 18.4827721 17.39982 17.399823 86.311656 0 0 18.482772 16.245185 17.39982 17.399823 86.311656 0 0 16.245182-18.484285 17.39982 17.399823 86.311656 0 0 -16.744103-16.2693741zm-.624408 7.8980779h.0091c.873576 0 1.576894.7033401 1.576894 1.5768941v11.0821041c0 .873631-.703318 1.576893-1.576894 1.576893h-.0091c-.873576 0-1.576894-.703262-1.576894-1.576893v-11.0821041c0-.873554.703318-1.5768941 1.576894-1.5768941zm.0045 17.4002632c.876321 0 1.58143.705112 1.58143 1.58143s-.705109 1.581429-1.58143 1.581429c-.876315 0-1.581429-.705111-1.581429-1.581429s.705114-1.58143 1.581429-1.58143z" fill="url(#b)" stroke-width=".774084"/></g><circle cx="132.25212" cy="27.355547" fill="url(#c)" r="0"/></g></svg>