<svg viewBox="0 0 14 14" xmlns="http://www.w3.org/2000/svg"><path d="m11.8835 1.4856299h-9.7674995c-.6163956 0-1.1160005.500104-1.1160005 1.1160005v6.2328329c0 .6158965.4996049 1.1160005 1.1160005 1.1160005h1.8611654l.0004991 2.5639062 2.8468993-2.5639062h5.0594357c.616894 0 1.116-.500104 1.116-1.1160005v-6.2328329c-.000499-.6158965-.499605-1.1160005-1.1165-1.1160005zm-7.8783842 4.5004367c-.2760055 0-.4991057-.2235993-.4991057-.4991057 0-.2760055.2231002-.4991058.4991057-.4991058.2755064 0 .4991058.2231003.4991058.4991058 0 .2755064-.2235994.4991057-.4991058.4991057zm1.9964231-.020962c-.2760055 0-.4991058-.2235994-.4991058-.4991058 0-.2760055.2231003-.4991057.4991058-.4991057.2755064 0 .4991058.2231002.4991058.4991057 0 .2755064-.2235994.4991058-.4991058.4991058zm2.0064051.010481c-.275506 0-.499106-.2231003-.499106-.4991057 0-.2755064.2236-.4991058.499106-.4991058.276006 0 .499106.2235994.499106.4991058 0 .2755063-.2236.4991057-.499106.4991057zm1.986441.010481c-.276005 0-.499106-.2235993-.499106-.4991057 0-.2760055.223101-.4991058.499106-.4991058.275506 0 .499106.2231003.499106.4991058 0 .2755064-.2236.4991057-.499106.4991057z" fill="#2980b9"/></svg>