<svg viewBox="0 0 14 14" xmlns="http://www.w3.org/2000/svg"><path d="m3.1785961 9.3930934.020751.113565.4753898 2.5991746c.035466.193174.1645.355033.3440917.433133.1795917.07772.3867258.06112.5512258-.0449.6621501-.427096 1.5269068-.993791 1.5035146-1.026993zm-1.6936706-3.689931c-.258446.09923-.4418107.331641-.4784082.605934-.0362201.274669.080364.546698.3040986.709311l2.4493895 1.782335 8.7000106-6.844481-7.692637 7.578317 3.3484798 2.4365606c.2131709.155068.4878405.201475.7410045.124507.2527866-.07697.4542613-.268633.5448118-.516137l3.5820249-9.8039716c.03622-.09961.01094-.210907-.06452-.285234-.07546-.07433-.186761-.09772-.285989-.05961z"/></svg>