<svg width="523" height="150" viewBox="0 0 523 150" fill="none" xmlns="http://www.w3.org/2000/svg">
<g clip-path="url(#clip0_2625_5902)">
<path d="M5 110H19V81.4H45.6V69H19V52.6H46.1V40H5V110ZM79.3094 111.3C95.4094 111.3 107.009 99.1 107.009 84.1C107.009 69.1 95.4094 56.8 79.3094 56.8C63.2094 56.8 51.6094 69.1 51.6094 84.1C51.6094 99.1 63.2094 111.3 79.3094 111.3ZM65.1094 84.1C65.1094 76 70.7094 69.1 79.3094 69.1C87.9094 69.1 93.5094 76 93.5094 84.1C93.5094 92.2 87.9094 99 79.3094 99C70.7094 99 65.1094 92.2 65.1094 84.1ZM112.984 110H126.484V83.4C126.484 74.7 132.484 69.5 140.284 69.5H142.184V56.8C133.184 56.3 127.884 60.4 126.084 67.9V58H112.984V110ZM150.676 110H164.176V81.5C164.176 72.5 169.276 68.6 174.976 68.6C181.676 68.6 186.176 72.5 186.176 81.5V110H199.676V81.5C199.676 71.5 203.976 68.6 210.276 68.6C216.376 68.6 220.676 72.5 220.676 81.5V110H234.176V78.2C234.176 65.1 225.576 56.8 214.376 56.8C205.276 56.8 200.276 60.3 196.776 66.6C193.376 60.3 187.176 56.8 179.876 56.8C171.876 56.8 166.676 59.8 163.976 65.6V58H150.676V110ZM275.591 111.3C289.891 111.3 301.291 99.2 301.291 84.2C301.291 69.2 289.891 56.9 275.591 56.9C266.691 56.9 261.991 60.5 259.191 66V37H245.691V110H258.791V101.5C261.591 107.4 266.291 111.3 275.591 111.3ZM258.791 84.2C258.791 76.1 264.491 69.1 273.391 69.1C281.991 69.1 287.791 76 287.791 84.1C287.791 92 281.991 99.1 273.391 99.1C264.491 99.1 258.791 92.3 258.791 84.2ZM309.313 110H322.813V83.4C322.813 74.7 328.813 69.5 336.613 69.5H338.513V56.8C329.513 56.3 324.213 60.4 322.413 67.9V58H309.313V110ZM347.004 110H360.504V58H347.004V110ZM345.604 45.7C345.604 50.1 349.104 53.7 353.704 53.7C358.404 53.7 361.804 50.2 361.804 45.7C361.804 41.4 358.404 37.8 353.704 37.8C349.104 37.8 345.604 41.4 345.604 45.7ZM393.288 111.3C403.488 111.3 410.688 107.6 415.588 101.3L405.788 92.8C403.088 96.4 399.688 99 394.488 99C385.888 99 379.988 92.1 379.988 84C379.988 75.9 385.588 69 394.188 69C398.788 69 402.788 71.3 405.188 74.9L415.588 66.4C411.188 60.3 403.488 56.6 393.988 56.7C378.088 56.8 366.488 68.9 366.488 84C366.488 99.1 378.388 111.3 393.288 111.3ZM455.33 110H473.23L448.63 82.2L473.13 58H453.93L434.43 79V37H420.93V110H434.43V85.3L455.33 110ZM495.562 111.3C507.062 111.3 515.762 104.1 515.762 94.5C515.762 86.7 512.262 81.1 497.162 77.2C490.962 75.6 490.162 74 490.162 72.2C490.162 69 492.962 67.6 496.662 67.6C500.162 67.6 503.362 69.2 505.862 73.2L515.662 65.7C510.362 58.8 504.762 56.7 496.362 56.7C484.162 56.7 476.962 63.5 476.962 72.6C476.962 79.2 479.062 85.5 492.962 88.8C501.162 90.7 502.462 92.2 502.462 94.9C502.462 98 499.862 100.3 495.262 100.3C490.862 100.3 486.862 98.2 483.062 93.9L473.962 102.2C479.662 108.3 486.762 111.3 495.562 111.3Z" fill="#F1F5F9"/>
</g>
<defs>
<clipPath id="clip0_2625_5902">
<rect width="523" height="150" fill="white"/>
</clipPath>
</defs>
</svg>
