<svg width="101" height="150" viewBox="0 0 101 150" fill="none" xmlns="http://www.w3.org/2000/svg">
<g clip-path="url(#clip0_2627_5881)">
<path d="M0 101.547H40.4528V122C40.4528 133.046 31.4985 142 20.4528 142H20C8.9543 142 0 133.046 0 122V101.547Z" fill="url(#paint0_linear_2627_5881)"/>
<path d="M0 54.7737H81.1321C92.1778 54.7737 101.132 63.728 101.132 74.7737V75.2265C101.132 86.2722 92.1778 95.2265 81.1321 95.2265H0V54.7737Z" fill="url(#paint1_linear_2627_5881)"/>
<path d="M0 28C0 16.9543 8.95431 8 20 8H81.1321C92.1778 8 101.132 16.9543 101.132 28V28.4528C101.132 39.4985 92.1778 48.4528 81.1321 48.4528H0V28Z" fill="url(#paint2_linear_2627_5881)"/>
<mask id="mask0_2627_5881" style="mask-type:alpha" maskUnits="userSpaceOnUse" x="0" y="8" width="102" height="134">
<path d="M0 101.547H40.4528V122C40.4528 133.046 31.4985 142 20.4528 142H20C8.9543 142 0 133.046 0 122V101.547Z" fill="url(#paint3_linear_2627_5881)"/>
<path d="M0 54.7737H81.1321C92.1778 54.7737 101.132 63.728 101.132 74.7737V75.2265C101.132 86.2722 92.1778 95.2265 81.1321 95.2265H0V54.7737Z" fill="url(#paint4_linear_2627_5881)"/>
<path d="M0 28C0 16.9543 8.95431 8 20 8H81.1321C92.1778 8 101.132 16.9543 101.132 28V28.4528C101.132 39.4985 92.1778 48.4528 81.1321 48.4528H0V28Z" fill="url(#paint5_linear_2627_5881)"/>
</mask>
<g mask="url(#mask0_2627_5881)">
<g filter="url(#filter0_d_2627_5881)">
<mask id="mask1_2627_5881" style="mask-type:alpha" maskUnits="userSpaceOnUse" x="0" y="8" width="102" height="134">
<path d="M0 101.547H40.4528V122C40.4528 133.046 31.4985 142 20.4528 142H20C8.9543 142 0 133.046 0 122V101.547Z" fill="black" fill-opacity="0.1"/>
<path d="M0 28C0 16.9543 8.95431 8 20 8H81.1321C92.1778 8 101.132 16.9543 101.132 28V28.4528C101.132 39.4985 92.1778 48.4528 81.1321 48.4528H0V28Z" fill="black" fill-opacity="0.1"/>
<path d="M0 54.7737H81.1321C92.1778 54.7737 101.132 63.728 101.132 74.7737V75.2265C101.132 86.2722 92.1778 95.2265 81.1321 95.2265H0V54.7737Z" fill="black" fill-opacity="0.1"/>
</mask>
<g mask="url(#mask1_2627_5881)">
<path d="M2.12216 -26.8434C17.9685 -42.3091 58.1507 -26.8434 58.1507 -26.8434H2.12216C-1.76989 -23.0449 -4.19388 -17.3804 -4.19388 -9.16251C-4.19388 32.5141 40.9522 47.6695 40.9522 76.7169C40.9522 105.152 -2.3106 122.695 -4.13455 161.333H58.1507C58.1507 161.333 -4.19388 204.273 -4.19388 163.859C-4.19388 163.007 -4.17382 162.165 -4.13455 161.333H-31.604L-26.2295 -26.8434H2.12216Z" fill="black" fill-opacity="0.1"/>
</g>
</g>
<g filter="url(#filter1_f_2627_5881)">
<circle cx="-12.6414" cy="124.302" r="37.9245" fill="#00C4B8"/>
</g>
<g filter="url(#filter2_f_2627_5881)">
<circle cx="-12.6414" cy="28.2265" r="37.9245" fill="#00C4B8"/>
</g>
</g>
</g>
<defs>
<filter id="filter0_d_2627_5881" x="-2" y="-4" width="82.1506" height="158" filterUnits="userSpaceOnUse" color-interpolation-filters="sRGB">
<feFlood flood-opacity="0" result="BackgroundImageFix"/>
<feColorMatrix in="SourceAlpha" type="matrix" values="0 0 0 0 0 0 0 0 0 0 0 0 0 0 0 0 0 0 127 0" result="hardAlpha"/>
<feOffset dx="10"/>
<feGaussianBlur stdDeviation="6"/>
<feComposite in2="hardAlpha" operator="out"/>
<feColorMatrix type="matrix" values="0 0 0 0 0 0 0 0 0 0 0 0 0 0 0 0 0 0 0.25 0"/>
<feBlend mode="normal" in2="BackgroundImageFix" result="effect1_dropShadow_2627_5881"/>
<feBlend mode="normal" in="SourceGraphic" in2="effect1_dropShadow_2627_5881" result="shape"/>
</filter>
<filter id="filter1_f_2627_5881" x="-70.5659" y="66.3774" width="115.849" height="115.849" filterUnits="userSpaceOnUse" color-interpolation-filters="sRGB">
<feFlood flood-opacity="0" result="BackgroundImageFix"/>
<feBlend mode="normal" in="SourceGraphic" in2="BackgroundImageFix" result="shape"/>
<feGaussianBlur stdDeviation="10" result="effect1_foregroundBlur_2627_5881"/>
</filter>
<filter id="filter2_f_2627_5881" x="-70.5659" y="-29.698" width="115.849" height="115.849" filterUnits="userSpaceOnUse" color-interpolation-filters="sRGB">
<feFlood flood-opacity="0" result="BackgroundImageFix"/>
<feBlend mode="normal" in="SourceGraphic" in2="BackgroundImageFix" result="shape"/>
<feGaussianBlur stdDeviation="10" result="effect1_foregroundBlur_2627_5881"/>
</filter>
<linearGradient id="paint0_linear_2627_5881" x1="40.6287" y1="121.041" x2="-0.003482" y2="121.205" gradientUnits="userSpaceOnUse">
<stop stop-color="#00E6CA"/>
<stop offset="1" stop-color="#00C4B8"/>
</linearGradient>
<linearGradient id="paint1_linear_2627_5881" x1="101.572" y1="74.2673" x2="1.27605e-08" y2="75.2932" gradientUnits="userSpaceOnUse">
<stop stop-color="#00E6CA"/>
<stop offset="1" stop-color="#00C4B8"/>
</linearGradient>
<linearGradient id="paint2_linear_2627_5881" x1="101.572" y1="27.4936" x2="1.27605e-08" y2="28.5195" gradientUnits="userSpaceOnUse">
<stop stop-color="#00E6CA"/>
<stop offset="1" stop-color="#00C4B8"/>
</linearGradient>
<linearGradient id="paint3_linear_2627_5881" x1="40.6287" y1="121.041" x2="-0.003482" y2="121.205" gradientUnits="userSpaceOnUse">
<stop stop-color="#00FFE1"/>
<stop offset="1" stop-color="#01E0C6"/>
</linearGradient>
<linearGradient id="paint4_linear_2627_5881" x1="101.572" y1="74.2673" x2="1.27605e-08" y2="75.2932" gradientUnits="userSpaceOnUse">
<stop stop-color="#00FFE1"/>
<stop offset="1" stop-color="#01E0C6"/>
</linearGradient>
<linearGradient id="paint5_linear_2627_5881" x1="101.572" y1="27.4936" x2="1.27605e-08" y2="28.5195" gradientUnits="userSpaceOnUse">
<stop stop-color="#00FFE1"/>
<stop offset="1" stop-color="#01E0C6"/>
</linearGradient>
<clipPath id="clip0_2627_5881">
<rect width="101" height="150" fill="white"/>
</clipPath>
</defs>
</svg>
